G04 #@! TF.FileFunction,Soldermask,Top*
%FSLAX46Y46*%
G04 Gerber Fmt 4.6, Leading zero omitted, Abs format (unit mm)*
G04 Created by KiCad (PCBNEW 4.0.3+e1-6302~38~ubuntu14.04.1-stable) date Mon Jan 30 16:46:43 2017*
%MOMM*%
%LPD*%
G01*
G04 APERTURE LIST*
%ADD10C,0.100000*%
%ADD11R,3.500120X3.500120*%
%ADD12R,2.032000X1.727200*%
%ADD13O,2.032000X1.727200*%
%ADD14C,5.500000*%
%ADD15R,1.699260X1.300480*%
%ADD16R,1.600000X1.600000*%
%ADD17R,1.200000X0.750000*%
%ADD18R,1.998980X1.998980*%
%ADD19R,1.400000X1.700000*%
%ADD20R,0.750000X1.200000*%
%ADD21R,1.700000X1.700000*%
%ADD22O,1.700000X1.700000*%
%ADD23R,0.600000X1.500000*%
%ADD24C,1.998980*%
%ADD25R,1.700000X1.400000*%
%ADD26C,1.524000*%
%ADD27R,1.524000X1.524000*%
%ADD28R,1.300000X1.300000*%
%ADD29C,1.300000*%
%ADD30R,1.501140X2.148840*%
%ADD31R,1.000000X1.000000*%
%ADD32C,1.600000*%
G04 APERTURE END LIST*
D10*
D11*
X133099860Y-25100000D03*
X139099340Y-25100000D03*
X136099600Y-29799000D03*
D12*
X56220000Y-23410000D03*
D13*
X56220000Y-25950000D03*
X56220000Y-28490000D03*
D14*
X141000000Y-34000000D03*
X58000000Y-34000000D03*
X58000000Y-94000000D03*
X141000000Y-94000000D03*
D15*
X74750000Y-90999940D03*
X74750000Y-94500060D03*
X70400000Y-39750060D03*
X70400000Y-36249940D03*
X85000000Y-90999940D03*
X85000000Y-94500060D03*
X85500000Y-51750060D03*
X85500000Y-48249940D03*
X102750000Y-91249940D03*
X102750000Y-94750060D03*
X101250000Y-53000060D03*
X101250000Y-49499940D03*
X116750000Y-91499940D03*
X116750000Y-95000060D03*
X114800000Y-52750060D03*
X114800000Y-49249940D03*
X130000000Y-91749940D03*
X130000000Y-95250060D03*
X131520000Y-52580060D03*
X131520000Y-49079940D03*
D16*
X71800000Y-57950000D03*
X71800000Y-55650000D03*
X80900000Y-88000000D03*
X78600000Y-88000000D03*
X80900000Y-84750000D03*
X78600000Y-84750000D03*
D17*
X78550000Y-82250000D03*
X80450000Y-82250000D03*
D16*
X75950000Y-48000000D03*
X73650000Y-48000000D03*
X75950000Y-45200000D03*
X73650000Y-45200000D03*
D17*
X73850000Y-42800000D03*
X75750000Y-42800000D03*
X80200000Y-74000000D03*
X78300000Y-74000000D03*
X81150000Y-55200000D03*
X79250000Y-55200000D03*
D10*
G36*
X73449450Y-72663060D02*
X69550550Y-72663060D01*
X70650370Y-69162940D01*
X72349630Y-69162940D01*
X73449450Y-72663060D01*
X73449450Y-72663060D01*
G37*
G36*
X69550550Y-64336940D02*
X73449450Y-64336940D01*
X72349630Y-67837060D01*
X70650370Y-67837060D01*
X69550550Y-64336940D01*
X69550550Y-64336940D01*
G37*
D18*
X71500000Y-74001640D03*
X71500000Y-62998360D03*
D10*
G36*
X71950000Y-68007500D02*
X71050000Y-68007500D01*
X71050000Y-67832500D01*
X71950000Y-67832500D01*
X71950000Y-68007500D01*
X71950000Y-68007500D01*
G37*
G36*
X71950000Y-69167500D02*
X71050000Y-69167500D01*
X71050000Y-68992500D01*
X71950000Y-68992500D01*
X71950000Y-69167500D01*
X71950000Y-69167500D01*
G37*
G36*
X80663060Y-76550550D02*
X80663060Y-80449450D01*
X77162940Y-79349630D01*
X77162940Y-77650370D01*
X80663060Y-76550550D01*
X80663060Y-76550550D01*
G37*
G36*
X72336940Y-80449450D02*
X72336940Y-76550550D01*
X75837060Y-77650370D01*
X75837060Y-79349630D01*
X72336940Y-80449450D01*
X72336940Y-80449450D01*
G37*
D18*
X82001640Y-78500000D03*
X70998360Y-78500000D03*
D10*
G36*
X76007500Y-78050000D02*
X76007500Y-78950000D01*
X75832500Y-78950000D01*
X75832500Y-78050000D01*
X76007500Y-78050000D01*
X76007500Y-78050000D01*
G37*
G36*
X77167500Y-78050000D02*
X77167500Y-78950000D01*
X76992500Y-78950000D01*
X76992500Y-78050000D01*
X77167500Y-78050000D01*
X77167500Y-78050000D01*
G37*
G36*
X79963060Y-49450550D02*
X79963060Y-53349450D01*
X76462940Y-52249630D01*
X76462940Y-50550370D01*
X79963060Y-49450550D01*
X79963060Y-49450550D01*
G37*
G36*
X71636940Y-53349450D02*
X71636940Y-49450550D01*
X75137060Y-50550370D01*
X75137060Y-52249630D01*
X71636940Y-53349450D01*
X71636940Y-53349450D01*
G37*
D18*
X81301640Y-51400000D03*
X70298360Y-51400000D03*
D10*
G36*
X75307500Y-50950000D02*
X75307500Y-51850000D01*
X75132500Y-51850000D01*
X75132500Y-50950000D01*
X75307500Y-50950000D01*
X75307500Y-50950000D01*
G37*
G36*
X76467500Y-50950000D02*
X76467500Y-51850000D01*
X76292500Y-51850000D01*
X76292500Y-50950000D01*
X76467500Y-50950000D01*
X76467500Y-50950000D01*
G37*
D19*
X78050000Y-71500000D03*
X80450000Y-71500000D03*
D20*
X75200000Y-56050000D03*
X75200000Y-57950000D03*
X86500000Y-62550000D03*
X86500000Y-64450000D03*
D17*
X89300000Y-86500000D03*
X91200000Y-86500000D03*
X89300000Y-89000000D03*
X91200000Y-89000000D03*
X91300000Y-55500000D03*
X93200000Y-55500000D03*
X91300000Y-53000000D03*
X93200000Y-53000000D03*
X94700000Y-78000000D03*
X92800000Y-78000000D03*
X94700000Y-63500000D03*
X92800000Y-63500000D03*
D10*
G36*
X88449450Y-77163060D02*
X84550550Y-77163060D01*
X85650370Y-73662940D01*
X87349630Y-73662940D01*
X88449450Y-77163060D01*
X88449450Y-77163060D01*
G37*
G36*
X84550550Y-68836940D02*
X88449450Y-68836940D01*
X87349630Y-72337060D01*
X85650370Y-72337060D01*
X84550550Y-68836940D01*
X84550550Y-68836940D01*
G37*
D18*
X86500000Y-78501640D03*
X86500000Y-67498360D03*
D10*
G36*
X86950000Y-72507500D02*
X86050000Y-72507500D01*
X86050000Y-72332500D01*
X86950000Y-72332500D01*
X86950000Y-72507500D01*
X86950000Y-72507500D01*
G37*
G36*
X86950000Y-73667500D02*
X86050000Y-73667500D01*
X86050000Y-73492500D01*
X86950000Y-73492500D01*
X86950000Y-73667500D01*
X86950000Y-73667500D01*
G37*
G36*
X96163060Y-80800550D02*
X96163060Y-84699450D01*
X92662940Y-83599630D01*
X92662940Y-81900370D01*
X96163060Y-80800550D01*
X96163060Y-80800550D01*
G37*
G36*
X87836940Y-84699450D02*
X87836940Y-80800550D01*
X91337060Y-81900370D01*
X91337060Y-83599630D01*
X87836940Y-84699450D01*
X87836940Y-84699450D01*
G37*
D18*
X97501640Y-82750000D03*
X86498360Y-82750000D03*
D10*
G36*
X91507500Y-82300000D02*
X91507500Y-83200000D01*
X91332500Y-83200000D01*
X91332500Y-82300000D01*
X91507500Y-82300000D01*
X91507500Y-82300000D01*
G37*
G36*
X92667500Y-82300000D02*
X92667500Y-83200000D01*
X92492500Y-83200000D01*
X92492500Y-82300000D01*
X92667500Y-82300000D01*
X92667500Y-82300000D01*
G37*
G36*
X96663060Y-57050550D02*
X96663060Y-60949450D01*
X93162940Y-59849630D01*
X93162940Y-58150370D01*
X96663060Y-57050550D01*
X96663060Y-57050550D01*
G37*
G36*
X88336940Y-60949450D02*
X88336940Y-57050550D01*
X91837060Y-58150370D01*
X91837060Y-59849630D01*
X88336940Y-60949450D01*
X88336940Y-60949450D01*
G37*
D18*
X98001640Y-59000000D03*
X86998360Y-59000000D03*
D10*
G36*
X92007500Y-58550000D02*
X92007500Y-59450000D01*
X91832500Y-59450000D01*
X91832500Y-58550000D01*
X92007500Y-58550000D01*
X92007500Y-58550000D01*
G37*
G36*
X93167500Y-58550000D02*
X93167500Y-59450000D01*
X92992500Y-59450000D01*
X92992500Y-58550000D01*
X93167500Y-58550000D01*
X93167500Y-58550000D01*
G37*
D19*
X92300000Y-75000000D03*
X94700000Y-75000000D03*
D20*
X103900000Y-62650000D03*
X103900000Y-64550000D03*
D17*
X105050000Y-88500000D03*
X106950000Y-88500000D03*
X105800000Y-56250000D03*
X107700000Y-56250000D03*
D16*
X101600000Y-64750000D03*
X101600000Y-62450000D03*
X108600000Y-79500000D03*
X110900000Y-79500000D03*
X108600000Y-63000000D03*
X110900000Y-63000000D03*
D10*
G36*
X104699450Y-77913060D02*
X100800550Y-77913060D01*
X101900370Y-74412940D01*
X103599630Y-74412940D01*
X104699450Y-77913060D01*
X104699450Y-77913060D01*
G37*
G36*
X100800550Y-69586940D02*
X104699450Y-69586940D01*
X103599630Y-73087060D01*
X101900370Y-73087060D01*
X100800550Y-69586940D01*
X100800550Y-69586940D01*
G37*
D18*
X102750000Y-79251640D03*
X102750000Y-68248360D03*
D10*
G36*
X103200000Y-73257500D02*
X102300000Y-73257500D01*
X102300000Y-73082500D01*
X103200000Y-73082500D01*
X103200000Y-73257500D01*
X103200000Y-73257500D01*
G37*
G36*
X103200000Y-74417500D02*
X102300000Y-74417500D01*
X102300000Y-74242500D01*
X103200000Y-74242500D01*
X103200000Y-74417500D01*
X103200000Y-74417500D01*
G37*
G36*
X110413060Y-82050550D02*
X110413060Y-85949450D01*
X106912940Y-84849630D01*
X106912940Y-83150370D01*
X110413060Y-82050550D01*
X110413060Y-82050550D01*
G37*
G36*
X102086940Y-85949450D02*
X102086940Y-82050550D01*
X105587060Y-83150370D01*
X105587060Y-84849630D01*
X102086940Y-85949450D01*
X102086940Y-85949450D01*
G37*
D18*
X111751640Y-84000000D03*
X100748360Y-84000000D03*
D10*
G36*
X105757500Y-83550000D02*
X105757500Y-84450000D01*
X105582500Y-84450000D01*
X105582500Y-83550000D01*
X105757500Y-83550000D01*
X105757500Y-83550000D01*
G37*
G36*
X106917500Y-83550000D02*
X106917500Y-84450000D01*
X106742500Y-84450000D01*
X106742500Y-83550000D01*
X106917500Y-83550000D01*
X106917500Y-83550000D01*
G37*
G36*
X111163060Y-57050550D02*
X111163060Y-60949450D01*
X107662940Y-59849630D01*
X107662940Y-58150370D01*
X111163060Y-57050550D01*
X111163060Y-57050550D01*
G37*
G36*
X102836940Y-60949450D02*
X102836940Y-57050550D01*
X106337060Y-58150370D01*
X106337060Y-59849630D01*
X102836940Y-60949450D01*
X102836940Y-60949450D01*
G37*
D18*
X112501640Y-59000000D03*
X101498360Y-59000000D03*
D10*
G36*
X106507500Y-58550000D02*
X106507500Y-59450000D01*
X106332500Y-59450000D01*
X106332500Y-58550000D01*
X106507500Y-58550000D01*
X106507500Y-58550000D01*
G37*
G36*
X107667500Y-58550000D02*
X107667500Y-59450000D01*
X107492500Y-59450000D01*
X107492500Y-58550000D01*
X107667500Y-58550000D01*
X107667500Y-58550000D01*
G37*
D19*
X108550000Y-76000000D03*
X110950000Y-76000000D03*
D16*
X116400000Y-66350000D03*
X116400000Y-64050000D03*
X123150000Y-89250000D03*
X120850000Y-89250000D03*
D17*
X121050000Y-86750000D03*
X122950000Y-86750000D03*
D16*
X120750000Y-54200000D03*
X118450000Y-54200000D03*
D17*
X118650000Y-56600000D03*
X120550000Y-56600000D03*
D16*
X121850000Y-76800000D03*
X124150000Y-76800000D03*
X121850000Y-64000000D03*
X124150000Y-64000000D03*
D10*
G36*
X118349450Y-78963060D02*
X114450550Y-78963060D01*
X115550370Y-75462940D01*
X117249630Y-75462940D01*
X118349450Y-78963060D01*
X118349450Y-78963060D01*
G37*
G36*
X114450550Y-70636940D02*
X118349450Y-70636940D01*
X117249630Y-74137060D01*
X115550370Y-74137060D01*
X114450550Y-70636940D01*
X114450550Y-70636940D01*
G37*
D18*
X116400000Y-80301640D03*
X116400000Y-69298360D03*
D10*
G36*
X116850000Y-74307500D02*
X115950000Y-74307500D01*
X115950000Y-74132500D01*
X116850000Y-74132500D01*
X116850000Y-74307500D01*
X116850000Y-74307500D01*
G37*
G36*
X116850000Y-75467500D02*
X115950000Y-75467500D01*
X115950000Y-75292500D01*
X116850000Y-75292500D01*
X116850000Y-75467500D01*
X116850000Y-75467500D01*
G37*
G36*
X125163060Y-82050550D02*
X125163060Y-85949450D01*
X121662940Y-84849630D01*
X121662940Y-83150370D01*
X125163060Y-82050550D01*
X125163060Y-82050550D01*
G37*
G36*
X116836940Y-85949450D02*
X116836940Y-82050550D01*
X120337060Y-83150370D01*
X120337060Y-84849630D01*
X116836940Y-85949450D01*
X116836940Y-85949450D01*
G37*
D18*
X126501640Y-84000000D03*
X115498360Y-84000000D03*
D10*
G36*
X120507500Y-83550000D02*
X120507500Y-84450000D01*
X120332500Y-84450000D01*
X120332500Y-83550000D01*
X120507500Y-83550000D01*
X120507500Y-83550000D01*
G37*
G36*
X121667500Y-83550000D02*
X121667500Y-84450000D01*
X121492500Y-84450000D01*
X121492500Y-83550000D01*
X121667500Y-83550000D01*
X121667500Y-83550000D01*
G37*
G36*
X125163060Y-58050550D02*
X125163060Y-61949450D01*
X121662940Y-60849630D01*
X121662940Y-59150370D01*
X125163060Y-58050550D01*
X125163060Y-58050550D01*
G37*
G36*
X116836940Y-61949450D02*
X116836940Y-58050550D01*
X120337060Y-59150370D01*
X120337060Y-60849630D01*
X116836940Y-61949450D01*
X116836940Y-61949450D01*
G37*
D18*
X126501640Y-60000000D03*
X115498360Y-60000000D03*
D10*
G36*
X120507500Y-59550000D02*
X120507500Y-60450000D01*
X120332500Y-60450000D01*
X120332500Y-59550000D01*
X120507500Y-59550000D01*
X120507500Y-59550000D01*
G37*
G36*
X121667500Y-59550000D02*
X121667500Y-60450000D01*
X121492500Y-60450000D01*
X121492500Y-59550000D01*
X121667500Y-59550000D01*
X121667500Y-59550000D01*
G37*
D19*
X121800000Y-72600000D03*
X124200000Y-72600000D03*
D20*
X129840000Y-63100000D03*
X129840000Y-65000000D03*
D16*
X137620000Y-89150000D03*
X135320000Y-89150000D03*
X135990000Y-56240000D03*
X133690000Y-56240000D03*
X62650000Y-31200000D03*
X64950000Y-31200000D03*
X137770000Y-80580000D03*
X140070000Y-80580000D03*
X137840000Y-67670000D03*
X140140000Y-67670000D03*
X137970000Y-72480000D03*
X135670000Y-72480000D03*
D10*
G36*
X131679450Y-78953060D02*
X127780550Y-78953060D01*
X128880370Y-75452940D01*
X130579630Y-75452940D01*
X131679450Y-78953060D01*
X131679450Y-78953060D01*
G37*
G36*
X127780550Y-70626940D02*
X131679450Y-70626940D01*
X130579630Y-74127060D01*
X128880370Y-74127060D01*
X127780550Y-70626940D01*
X127780550Y-70626940D01*
G37*
D18*
X129730000Y-80291640D03*
X129730000Y-69288360D03*
D10*
G36*
X130180000Y-74297500D02*
X129280000Y-74297500D01*
X129280000Y-74122500D01*
X130180000Y-74122500D01*
X130180000Y-74297500D01*
X130180000Y-74297500D01*
G37*
G36*
X130180000Y-75457500D02*
X129280000Y-75457500D01*
X129280000Y-75282500D01*
X130180000Y-75282500D01*
X130180000Y-75457500D01*
X130180000Y-75457500D01*
G37*
G36*
X140903060Y-83270550D02*
X140903060Y-87169450D01*
X137402940Y-86069630D01*
X137402940Y-84370370D01*
X140903060Y-83270550D01*
X140903060Y-83270550D01*
G37*
G36*
X132576940Y-87169450D02*
X132576940Y-83270550D01*
X136077060Y-84370370D01*
X136077060Y-86069630D01*
X132576940Y-87169450D01*
X132576940Y-87169450D01*
G37*
D18*
X142241640Y-85220000D03*
X131238360Y-85220000D03*
D10*
G36*
X136247500Y-84770000D02*
X136247500Y-85670000D01*
X136072500Y-85670000D01*
X136072500Y-84770000D01*
X136247500Y-84770000D01*
X136247500Y-84770000D01*
G37*
G36*
X137407500Y-84770000D02*
X137407500Y-85670000D01*
X137232500Y-85670000D01*
X137232500Y-84770000D01*
X137407500Y-84770000D01*
X137407500Y-84770000D01*
G37*
G36*
X141703060Y-57830550D02*
X141703060Y-61729450D01*
X138202940Y-60629630D01*
X138202940Y-58930370D01*
X141703060Y-57830550D01*
X141703060Y-57830550D01*
G37*
G36*
X133376940Y-61729450D02*
X133376940Y-57830550D01*
X136877060Y-58930370D01*
X136877060Y-60629630D01*
X133376940Y-61729450D01*
X133376940Y-61729450D01*
G37*
D18*
X143041640Y-59780000D03*
X132038360Y-59780000D03*
D10*
G36*
X137047500Y-59330000D02*
X137047500Y-60230000D01*
X136872500Y-60230000D01*
X136872500Y-59330000D01*
X137047500Y-59330000D01*
X137047500Y-59330000D01*
G37*
G36*
X138207500Y-59330000D02*
X138207500Y-60230000D01*
X138032500Y-60230000D01*
X138032500Y-59330000D01*
X138207500Y-59330000D01*
X138207500Y-59330000D01*
G37*
D21*
X116400000Y-22900000D03*
D22*
X118940000Y-22900000D03*
X121480000Y-22900000D03*
X124020000Y-22900000D03*
X126560000Y-22900000D03*
X129100000Y-22900000D03*
D19*
X137720000Y-76500000D03*
X140120000Y-76500000D03*
D23*
X118155000Y-32100000D03*
X119425000Y-32100000D03*
X120695000Y-32100000D03*
X121965000Y-32100000D03*
X123235000Y-32100000D03*
X124505000Y-32100000D03*
X125775000Y-32100000D03*
X127045000Y-32100000D03*
X127045000Y-26700000D03*
X125775000Y-26700000D03*
X124505000Y-26700000D03*
X123235000Y-26700000D03*
X121965000Y-26700000D03*
X120695000Y-26700000D03*
X119425000Y-26700000D03*
X118155000Y-26700000D03*
D16*
X65900000Y-72450000D03*
X65900000Y-74750000D03*
X66000000Y-51550000D03*
X66000000Y-49250000D03*
X77400000Y-66750000D03*
X75100000Y-66750000D03*
X92550000Y-69400000D03*
X90250000Y-69400000D03*
X108400000Y-71750000D03*
X106100000Y-71750000D03*
X123150000Y-68800000D03*
X120850000Y-68800000D03*
D24*
X66000000Y-79200000D03*
X66000000Y-69040000D03*
X66000000Y-54000000D03*
X66000000Y-43840000D03*
D25*
X66000000Y-82800000D03*
X66000000Y-85200000D03*
X66100000Y-40600000D03*
X66100000Y-38200000D03*
D16*
X113500000Y-24450000D03*
X113500000Y-26750000D03*
X72050000Y-31300000D03*
X69750000Y-31300000D03*
D26*
X69570000Y-24790000D03*
X69570000Y-22250000D03*
D27*
X69570000Y-27330000D03*
D28*
X64220000Y-25000000D03*
D29*
X64220000Y-23000000D03*
D30*
X64220000Y-25501140D03*
X64220000Y-22498860D03*
D31*
X79000000Y-91250000D03*
X79000000Y-93750000D03*
X74800000Y-39250000D03*
X74800000Y-36750000D03*
X90500000Y-91750000D03*
X90500000Y-94250000D03*
X91250000Y-50750000D03*
X91250000Y-48250000D03*
X109250000Y-91500000D03*
X109250000Y-94000000D03*
X107500000Y-52250000D03*
X107500000Y-49750000D03*
X122530000Y-92020000D03*
X122530000Y-94520000D03*
X120800000Y-51850000D03*
X120800000Y-49350000D03*
X135840000Y-91960000D03*
X135840000Y-94460000D03*
X137580000Y-51960000D03*
X137580000Y-49460000D03*
D16*
X96800000Y-26700000D03*
D32*
X96800000Y-24200000D03*
D16*
X89500000Y-26700000D03*
D32*
X89500000Y-24200000D03*
D16*
X111200000Y-26700000D03*
D32*
X111200000Y-24200000D03*
D16*
X104000000Y-26700000D03*
D32*
X104000000Y-24200000D03*
D21*
X84240000Y-25030000D03*
D22*
X84240000Y-22490000D03*
X81700000Y-25030000D03*
X81700000Y-22490000D03*
X79160000Y-25030000D03*
X79160000Y-22490000D03*
X76620000Y-25030000D03*
X76620000Y-22490000D03*
X74080000Y-25030000D03*
X74080000Y-22490000D03*
D16*
X62450000Y-89700000D03*
X64750000Y-89700000D03*
D12*
X56750000Y-66500000D03*
D13*
X56750000Y-63960000D03*
X56750000Y-61420000D03*
D16*
X112200000Y-34950000D03*
X112200000Y-32650000D03*
M02*
