G04 #@! TF.FileFunction,Legend,Bot*
%FSLAX46Y46*%
G04 Gerber Fmt 4.6, Leading zero omitted, Abs format (unit mm)*
G04 Created by KiCad (PCBNEW 4.0.7-e2-6376~58~ubuntu14.04.1) date Fri Dec 29 09:41:15 2017*
%MOMM*%
%LPD*%
G01*
G04 APERTURE LIST*
%ADD10C,0.100000*%
%ADD11C,0.300000*%
%ADD12C,0.120000*%
%ADD13C,0.150000*%
G04 APERTURE END LIST*
D10*
D11*
X83667858Y-103021429D02*
X83667858Y-104521429D01*
X84025001Y-104521429D01*
X84239286Y-104450000D01*
X84382144Y-104307143D01*
X84453572Y-104164286D01*
X84525001Y-103878571D01*
X84525001Y-103664286D01*
X84453572Y-103378571D01*
X84382144Y-103235714D01*
X84239286Y-103092857D01*
X84025001Y-103021429D01*
X83667858Y-103021429D01*
X85667858Y-103807143D02*
X85882144Y-103735714D01*
X85953572Y-103664286D01*
X86025001Y-103521429D01*
X86025001Y-103307143D01*
X85953572Y-103164286D01*
X85882144Y-103092857D01*
X85739286Y-103021429D01*
X85167858Y-103021429D01*
X85167858Y-104521429D01*
X85667858Y-104521429D01*
X85810715Y-104450000D01*
X85882144Y-104378571D01*
X85953572Y-104235714D01*
X85953572Y-104092857D01*
X85882144Y-103950000D01*
X85810715Y-103878571D01*
X85667858Y-103807143D01*
X85167858Y-103807143D01*
X87310715Y-104021429D02*
X87310715Y-103021429D01*
X86953572Y-104592857D02*
X86596429Y-103521429D01*
X87525001Y-103521429D01*
X83703572Y-101257143D02*
X84203572Y-101257143D01*
X84417858Y-100471429D02*
X83703572Y-100471429D01*
X83703572Y-101971429D01*
X84417858Y-101971429D01*
X84475001Y-97921429D02*
X83975001Y-98635714D01*
X83617858Y-97921429D02*
X83617858Y-99421429D01*
X84189286Y-99421429D01*
X84332144Y-99350000D01*
X84403572Y-99278571D01*
X84475001Y-99135714D01*
X84475001Y-98921429D01*
X84403572Y-98778571D01*
X84332144Y-98707143D01*
X84189286Y-98635714D01*
X83617858Y-98635714D01*
X85046429Y-97992857D02*
X85260715Y-97921429D01*
X85617858Y-97921429D01*
X85760715Y-97992857D01*
X85832144Y-98064286D01*
X85903572Y-98207143D01*
X85903572Y-98350000D01*
X85832144Y-98492857D01*
X85760715Y-98564286D01*
X85617858Y-98635714D01*
X85332144Y-98707143D01*
X85189286Y-98778571D01*
X85117858Y-98850000D01*
X85046429Y-98992857D01*
X85046429Y-99135714D01*
X85117858Y-99278571D01*
X85189286Y-99350000D01*
X85332144Y-99421429D01*
X85689286Y-99421429D01*
X85903572Y-99350000D01*
X84407143Y-96825000D02*
X84264286Y-96896429D01*
X84050000Y-96896429D01*
X83835715Y-96825000D01*
X83692857Y-96682143D01*
X83621429Y-96539286D01*
X83550000Y-96253571D01*
X83550000Y-96039286D01*
X83621429Y-95753571D01*
X83692857Y-95610714D01*
X83835715Y-95467857D01*
X84050000Y-95396429D01*
X84192857Y-95396429D01*
X84407143Y-95467857D01*
X84478572Y-95539286D01*
X84478572Y-96039286D01*
X84192857Y-96039286D01*
X85121429Y-95396429D02*
X85121429Y-96896429D01*
X85978572Y-95396429D01*
X85978572Y-96896429D01*
X86692858Y-95396429D02*
X86692858Y-96896429D01*
X87050001Y-96896429D01*
X87264286Y-96825000D01*
X87407144Y-96682143D01*
X87478572Y-96539286D01*
X87550001Y-96253571D01*
X87550001Y-96039286D01*
X87478572Y-95753571D01*
X87407144Y-95610714D01*
X87264286Y-95467857D01*
X87050001Y-95396429D01*
X86692858Y-95396429D01*
X84207143Y-86032143D02*
X84421429Y-85960714D01*
X84492857Y-85889286D01*
X84564286Y-85746429D01*
X84564286Y-85532143D01*
X84492857Y-85389286D01*
X84421429Y-85317857D01*
X84278571Y-85246429D01*
X83707143Y-85246429D01*
X83707143Y-86746429D01*
X84207143Y-86746429D01*
X84350000Y-86675000D01*
X84421429Y-86603571D01*
X84492857Y-86460714D01*
X84492857Y-86317857D01*
X84421429Y-86175000D01*
X84350000Y-86103571D01*
X84207143Y-86032143D01*
X83707143Y-86032143D01*
X83742857Y-88250000D02*
X84457143Y-88250000D01*
X83600000Y-87821429D02*
X84100000Y-89321429D01*
X84600000Y-87821429D01*
X83610715Y-90296429D02*
X83610715Y-91796429D01*
X84467858Y-90296429D02*
X83825001Y-91153571D01*
X84467858Y-91796429D02*
X83610715Y-90939286D01*
X85110715Y-91082143D02*
X85610715Y-91082143D01*
X85825001Y-90296429D02*
X85110715Y-90296429D01*
X85110715Y-91796429D01*
X85825001Y-91796429D01*
X86753572Y-91010714D02*
X86753572Y-90296429D01*
X86253572Y-91796429D02*
X86753572Y-91010714D01*
X87253572Y-91796429D01*
X84435715Y-94221429D02*
X83721429Y-94221429D01*
X83650000Y-93507143D01*
X83721429Y-93578571D01*
X83864286Y-93650000D01*
X84221429Y-93650000D01*
X84364286Y-93578571D01*
X84435715Y-93507143D01*
X84507143Y-93364286D01*
X84507143Y-93007143D01*
X84435715Y-92864286D01*
X84364286Y-92792857D01*
X84221429Y-92721429D01*
X83864286Y-92721429D01*
X83721429Y-92792857D01*
X83650000Y-92864286D01*
X85007143Y-93721429D02*
X85364286Y-92721429D01*
X85721428Y-93721429D01*
X121385716Y-118571429D02*
X121385716Y-117357143D01*
X121457144Y-117214286D01*
X121528573Y-117142857D01*
X121671430Y-117071429D01*
X121957144Y-117071429D01*
X122100002Y-117142857D01*
X122171430Y-117214286D01*
X122242859Y-117357143D01*
X122242859Y-118571429D01*
X122742859Y-118571429D02*
X123600002Y-118571429D01*
X123171431Y-117071429D02*
X123171431Y-118571429D01*
X123957145Y-118571429D02*
X124885716Y-118571429D01*
X124385716Y-118000000D01*
X124600002Y-118000000D01*
X124742859Y-117928571D01*
X124814288Y-117857143D01*
X124885716Y-117714286D01*
X124885716Y-117357143D01*
X124814288Y-117214286D01*
X124742859Y-117142857D01*
X124600002Y-117071429D01*
X124171430Y-117071429D01*
X124028573Y-117142857D01*
X123957145Y-117214286D01*
X125528573Y-117071429D02*
X125528573Y-118571429D01*
X126028573Y-117500000D01*
X126528573Y-118571429D01*
X126528573Y-117071429D01*
X127242859Y-117071429D02*
X127242859Y-118571429D01*
X128100002Y-117071429D02*
X127457145Y-117928571D01*
X128100002Y-118571429D02*
X127242859Y-117714286D01*
X129671430Y-118571429D02*
X130171430Y-117071429D01*
X130671430Y-118571429D01*
X131671430Y-117857143D02*
X131171430Y-117857143D01*
X131171430Y-117071429D02*
X131171430Y-118571429D01*
X131885716Y-118571429D01*
X132742858Y-118571429D02*
X133028572Y-118571429D01*
X133171430Y-118500000D01*
X133314287Y-118357143D01*
X133385715Y-118071429D01*
X133385715Y-117571429D01*
X133314287Y-117285714D01*
X133171430Y-117142857D01*
X133028572Y-117071429D01*
X132742858Y-117071429D01*
X132600001Y-117142857D01*
X132457144Y-117285714D01*
X132385715Y-117571429D01*
X132385715Y-118071429D01*
X132457144Y-118357143D01*
X132600001Y-118500000D01*
X132742858Y-118571429D01*
X135100001Y-117142857D02*
X135314287Y-117071429D01*
X135671430Y-117071429D01*
X135814287Y-117142857D01*
X135885716Y-117214286D01*
X135957144Y-117357143D01*
X135957144Y-117500000D01*
X135885716Y-117642857D01*
X135814287Y-117714286D01*
X135671430Y-117785714D01*
X135385716Y-117857143D01*
X135242858Y-117928571D01*
X135171430Y-118000000D01*
X135100001Y-118142857D01*
X135100001Y-118285714D01*
X135171430Y-118428571D01*
X135242858Y-118500000D01*
X135385716Y-118571429D01*
X135742858Y-118571429D01*
X135957144Y-118500000D01*
X136600001Y-117071429D02*
X136600001Y-118571429D01*
X138028573Y-118571429D02*
X137314287Y-118571429D01*
X137242858Y-117857143D01*
X137314287Y-117928571D01*
X137457144Y-118000000D01*
X137814287Y-118000000D01*
X137957144Y-117928571D01*
X138028573Y-117857143D01*
X138100001Y-117714286D01*
X138100001Y-117357143D01*
X138028573Y-117214286D01*
X137957144Y-117142857D01*
X137814287Y-117071429D01*
X137457144Y-117071429D01*
X137314287Y-117142857D01*
X137242858Y-117214286D01*
X138600001Y-118571429D02*
X139528572Y-118571429D01*
X139028572Y-118000000D01*
X139242858Y-118000000D01*
X139385715Y-117928571D01*
X139457144Y-117857143D01*
X139528572Y-117714286D01*
X139528572Y-117357143D01*
X139457144Y-117214286D01*
X139385715Y-117142857D01*
X139242858Y-117071429D01*
X138814286Y-117071429D01*
X138671429Y-117142857D01*
X138600001Y-117214286D01*
X140885715Y-118571429D02*
X140171429Y-118571429D01*
X140100000Y-117857143D01*
X140171429Y-117928571D01*
X140314286Y-118000000D01*
X140671429Y-118000000D01*
X140814286Y-117928571D01*
X140885715Y-117857143D01*
X140957143Y-117714286D01*
X140957143Y-117357143D01*
X140885715Y-117214286D01*
X140814286Y-117142857D01*
X140671429Y-117071429D01*
X140314286Y-117071429D01*
X140171429Y-117142857D01*
X140100000Y-117214286D01*
X142385714Y-117071429D02*
X141528571Y-117071429D01*
X141957143Y-117071429D02*
X141957143Y-118571429D01*
X141814286Y-118357143D01*
X141671428Y-118214286D01*
X141528571Y-118142857D01*
X144028571Y-118071429D02*
X144385714Y-117071429D01*
X144742856Y-118071429D01*
X145314285Y-117214286D02*
X145385713Y-117142857D01*
X145314285Y-117071429D01*
X145242856Y-117142857D01*
X145314285Y-117214286D01*
X145314285Y-117071429D01*
X146814285Y-117071429D02*
X145957142Y-117071429D01*
X146385714Y-117071429D02*
X146385714Y-118571429D01*
X146242857Y-118357143D01*
X146099999Y-118214286D01*
X145957142Y-118142857D01*
X147457142Y-117214286D02*
X147528570Y-117142857D01*
X147457142Y-117071429D01*
X147385713Y-117142857D01*
X147457142Y-117214286D01*
X147457142Y-117071429D01*
X148457142Y-118571429D02*
X148599999Y-118571429D01*
X148742856Y-118500000D01*
X148814285Y-118428571D01*
X148885714Y-118285714D01*
X148957142Y-118000000D01*
X148957142Y-117642857D01*
X148885714Y-117357143D01*
X148814285Y-117214286D01*
X148742856Y-117142857D01*
X148599999Y-117071429D01*
X148457142Y-117071429D01*
X148314285Y-117142857D01*
X148242856Y-117214286D01*
X148171428Y-117357143D01*
X148099999Y-117642857D01*
X148099999Y-118000000D01*
X148171428Y-118285714D01*
X148242856Y-118428571D01*
X148314285Y-118500000D01*
X148457142Y-118571429D01*
X150242856Y-118071429D02*
X150242856Y-117071429D01*
X149885713Y-118642857D02*
X149528570Y-117571429D01*
X150457142Y-117571429D01*
X110720000Y-59940000D02*
X110005714Y-59940000D01*
X110862857Y-60368571D02*
X110362857Y-58868571D01*
X109862857Y-60368571D01*
X109577143Y-58868571D02*
X108720000Y-58868571D01*
X109148571Y-60368571D02*
X109148571Y-58868571D01*
X108434286Y-58868571D02*
X107577143Y-58868571D01*
X108005714Y-60368571D02*
X108005714Y-58868571D01*
X76592858Y-75764286D02*
X76521429Y-75692857D01*
X76307143Y-75621429D01*
X76164286Y-75621429D01*
X75950001Y-75692857D01*
X75807143Y-75835714D01*
X75735715Y-75978571D01*
X75664286Y-76264286D01*
X75664286Y-76478571D01*
X75735715Y-76764286D01*
X75807143Y-76907143D01*
X75950001Y-77050000D01*
X76164286Y-77121429D01*
X76307143Y-77121429D01*
X76521429Y-77050000D01*
X76592858Y-76978571D01*
X77950001Y-75621429D02*
X77235715Y-75621429D01*
X77235715Y-77121429D01*
X78450001Y-75621429D02*
X78450001Y-77121429D01*
X79307144Y-75621429D02*
X78664287Y-76478571D01*
X79307144Y-77121429D02*
X78450001Y-76264286D01*
X79878572Y-76978571D02*
X79950001Y-77050000D01*
X80092858Y-77121429D01*
X80450001Y-77121429D01*
X80592858Y-77050000D01*
X80664287Y-76978571D01*
X80735715Y-76835714D01*
X80735715Y-76692857D01*
X80664287Y-76478571D01*
X79807144Y-75621429D01*
X80735715Y-75621429D01*
X76592858Y-70664286D02*
X76521429Y-70592857D01*
X76307143Y-70521429D01*
X76164286Y-70521429D01*
X75950001Y-70592857D01*
X75807143Y-70735714D01*
X75735715Y-70878571D01*
X75664286Y-71164286D01*
X75664286Y-71378571D01*
X75735715Y-71664286D01*
X75807143Y-71807143D01*
X75950001Y-71950000D01*
X76164286Y-72021429D01*
X76307143Y-72021429D01*
X76521429Y-71950000D01*
X76592858Y-71878571D01*
X77950001Y-70521429D02*
X77235715Y-70521429D01*
X77235715Y-72021429D01*
X78450001Y-70521429D02*
X78450001Y-72021429D01*
X79307144Y-70521429D02*
X78664287Y-71378571D01*
X79307144Y-72021429D02*
X78450001Y-71164286D01*
X80735715Y-70521429D02*
X79878572Y-70521429D01*
X80307144Y-70521429D02*
X80307144Y-72021429D01*
X80164287Y-71807143D01*
X80021429Y-71664286D01*
X79878572Y-71592857D01*
X76592858Y-65564286D02*
X76521429Y-65492857D01*
X76307143Y-65421429D01*
X76164286Y-65421429D01*
X75950001Y-65492857D01*
X75807143Y-65635714D01*
X75735715Y-65778571D01*
X75664286Y-66064286D01*
X75664286Y-66278571D01*
X75735715Y-66564286D01*
X75807143Y-66707143D01*
X75950001Y-66850000D01*
X76164286Y-66921429D01*
X76307143Y-66921429D01*
X76521429Y-66850000D01*
X76592858Y-66778571D01*
X77950001Y-65421429D02*
X77235715Y-65421429D01*
X77235715Y-66921429D01*
X78450001Y-65421429D02*
X78450001Y-66921429D01*
X79307144Y-65421429D02*
X78664287Y-66278571D01*
X79307144Y-66921429D02*
X78450001Y-66064286D01*
X80235715Y-66921429D02*
X80378572Y-66921429D01*
X80521429Y-66850000D01*
X80592858Y-66778571D01*
X80664287Y-66635714D01*
X80735715Y-66350000D01*
X80735715Y-65992857D01*
X80664287Y-65707143D01*
X80592858Y-65564286D01*
X80521429Y-65492857D01*
X80378572Y-65421429D01*
X80235715Y-65421429D01*
X80092858Y-65492857D01*
X80021429Y-65564286D01*
X79950001Y-65707143D01*
X79878572Y-65992857D01*
X79878572Y-66350000D01*
X79950001Y-66635714D01*
X80021429Y-66778571D01*
X80092858Y-66850000D01*
X80235715Y-66921429D01*
X117391428Y-60368571D02*
X117391428Y-58868571D01*
X116820000Y-58868571D01*
X116677142Y-58940000D01*
X116605714Y-59011429D01*
X116534285Y-59154286D01*
X116534285Y-59368571D01*
X116605714Y-59511429D01*
X116677142Y-59582857D01*
X116820000Y-59654286D01*
X117391428Y-59654286D01*
X115034285Y-60368571D02*
X115534285Y-59654286D01*
X115891428Y-60368571D02*
X115891428Y-58868571D01*
X115320000Y-58868571D01*
X115177142Y-58940000D01*
X115105714Y-59011429D01*
X115034285Y-59154286D01*
X115034285Y-59368571D01*
X115105714Y-59511429D01*
X115177142Y-59582857D01*
X115320000Y-59654286D01*
X115891428Y-59654286D01*
X114391428Y-59582857D02*
X113891428Y-59582857D01*
X113677142Y-60368571D02*
X114391428Y-60368571D01*
X114391428Y-58868571D01*
X113677142Y-58868571D01*
X150959429Y-55772571D02*
X151673714Y-56272571D01*
X150959429Y-56629714D02*
X152459429Y-56629714D01*
X152459429Y-56058286D01*
X152388000Y-55915428D01*
X152316571Y-55844000D01*
X152173714Y-55772571D01*
X151959429Y-55772571D01*
X151816571Y-55844000D01*
X151745143Y-55915428D01*
X151673714Y-56058286D01*
X151673714Y-56629714D01*
X151745143Y-55129714D02*
X151745143Y-54629714D01*
X150959429Y-54415428D02*
X150959429Y-55129714D01*
X152459429Y-55129714D01*
X152459429Y-54415428D01*
X151030857Y-53844000D02*
X150959429Y-53629714D01*
X150959429Y-53272571D01*
X151030857Y-53129714D01*
X151102286Y-53058285D01*
X151245143Y-52986857D01*
X151388000Y-52986857D01*
X151530857Y-53058285D01*
X151602286Y-53129714D01*
X151673714Y-53272571D01*
X151745143Y-53558285D01*
X151816571Y-53701143D01*
X151888000Y-53772571D01*
X152030857Y-53844000D01*
X152173714Y-53844000D01*
X152316571Y-53772571D01*
X152388000Y-53701143D01*
X152459429Y-53558285D01*
X152459429Y-53201143D01*
X152388000Y-52986857D01*
X151745143Y-52344000D02*
X151745143Y-51844000D01*
X150959429Y-51629714D02*
X150959429Y-52344000D01*
X152459429Y-52344000D01*
X152459429Y-51629714D01*
X152459429Y-51201143D02*
X152459429Y-50344000D01*
X150959429Y-50772571D02*
X152459429Y-50772571D01*
X154078857Y-54506571D02*
X154007429Y-54292285D01*
X154007429Y-53935142D01*
X154078857Y-53792285D01*
X154150286Y-53720856D01*
X154293143Y-53649428D01*
X154436000Y-53649428D01*
X154578857Y-53720856D01*
X154650286Y-53792285D01*
X154721714Y-53935142D01*
X154793143Y-54220856D01*
X154864571Y-54363714D01*
X154936000Y-54435142D01*
X155078857Y-54506571D01*
X155221714Y-54506571D01*
X155364571Y-54435142D01*
X155436000Y-54363714D01*
X155507429Y-54220856D01*
X155507429Y-53863714D01*
X155436000Y-53649428D01*
X154150286Y-52149428D02*
X154078857Y-52220857D01*
X154007429Y-52435143D01*
X154007429Y-52578000D01*
X154078857Y-52792285D01*
X154221714Y-52935143D01*
X154364571Y-53006571D01*
X154650286Y-53078000D01*
X154864571Y-53078000D01*
X155150286Y-53006571D01*
X155293143Y-52935143D01*
X155436000Y-52792285D01*
X155507429Y-52578000D01*
X155507429Y-52435143D01*
X155436000Y-52220857D01*
X155364571Y-52149428D01*
X154007429Y-51506571D02*
X155507429Y-51506571D01*
X154007429Y-50649428D02*
X154864571Y-51292285D01*
X155507429Y-50649428D02*
X154650286Y-51506571D01*
X151842857Y-63750000D02*
X151985714Y-63678571D01*
X152200000Y-63678571D01*
X152414285Y-63750000D01*
X152557143Y-63892857D01*
X152628571Y-64035714D01*
X152700000Y-64321429D01*
X152700000Y-64535714D01*
X152628571Y-64821429D01*
X152557143Y-64964286D01*
X152414285Y-65107143D01*
X152200000Y-65178571D01*
X152057143Y-65178571D01*
X151842857Y-65107143D01*
X151771428Y-65035714D01*
X151771428Y-64535714D01*
X152057143Y-64535714D01*
X151128571Y-65178571D02*
X151128571Y-63678571D01*
X150271428Y-65178571D01*
X150271428Y-63678571D01*
X149557142Y-65178571D02*
X149557142Y-63678571D01*
X149199999Y-63678571D01*
X148985714Y-63750000D01*
X148842856Y-63892857D01*
X148771428Y-64035714D01*
X148699999Y-64321429D01*
X148699999Y-64535714D01*
X148771428Y-64821429D01*
X148842856Y-64964286D01*
X148985714Y-65107143D01*
X149199999Y-65178571D01*
X149557142Y-65178571D01*
X151887999Y-70274571D02*
X152387999Y-69560286D01*
X152745142Y-70274571D02*
X152745142Y-68774571D01*
X152173714Y-68774571D01*
X152030856Y-68846000D01*
X151959428Y-68917429D01*
X151887999Y-69060286D01*
X151887999Y-69274571D01*
X151959428Y-69417429D01*
X152030856Y-69488857D01*
X152173714Y-69560286D01*
X152745142Y-69560286D01*
X151387999Y-68774571D02*
X150387999Y-70274571D01*
X150387999Y-68774571D02*
X151387999Y-70274571D01*
X152780857Y-66234571D02*
X151923714Y-66234571D01*
X152352285Y-67734571D02*
X152352285Y-66234571D01*
X151566571Y-66234571D02*
X150566571Y-67734571D01*
X150566571Y-66234571D02*
X151566571Y-67734571D01*
X152700000Y-71478571D02*
X152200000Y-72978571D01*
X151700000Y-71478571D01*
X150342857Y-72835714D02*
X150414286Y-72907143D01*
X150628572Y-72978571D01*
X150771429Y-72978571D01*
X150985714Y-72907143D01*
X151128572Y-72764286D01*
X151200000Y-72621429D01*
X151271429Y-72335714D01*
X151271429Y-72121429D01*
X151200000Y-71835714D01*
X151128572Y-71692857D01*
X150985714Y-71550000D01*
X150771429Y-71478571D01*
X150628572Y-71478571D01*
X150414286Y-71550000D01*
X150342857Y-71621429D01*
X148842857Y-72835714D02*
X148914286Y-72907143D01*
X149128572Y-72978571D01*
X149271429Y-72978571D01*
X149485714Y-72907143D01*
X149628572Y-72764286D01*
X149700000Y-72621429D01*
X149771429Y-72335714D01*
X149771429Y-72121429D01*
X149700000Y-71835714D01*
X149628572Y-71692857D01*
X149485714Y-71550000D01*
X149271429Y-71478571D01*
X149128572Y-71478571D01*
X148914286Y-71550000D01*
X148842857Y-71621429D01*
X125027142Y-58868571D02*
X124169999Y-58868571D01*
X124598570Y-60368571D02*
X124598570Y-58868571D01*
X123812856Y-58868571D02*
X122812856Y-60368571D01*
X122812856Y-58868571D02*
X123812856Y-60368571D01*
X122598571Y-60511429D02*
X121455714Y-60511429D01*
X121098571Y-60368571D02*
X121098571Y-58868571D01*
X120527143Y-58868571D01*
X120384285Y-58940000D01*
X120312857Y-59011429D01*
X120241428Y-59154286D01*
X120241428Y-59368571D01*
X120312857Y-59511429D01*
X120384285Y-59582857D01*
X120527143Y-59654286D01*
X121098571Y-59654286D01*
X119670000Y-59940000D02*
X118955714Y-59940000D01*
X119812857Y-60368571D02*
X119312857Y-58868571D01*
X118812857Y-60368571D01*
X130682857Y-58868571D02*
X129825714Y-58868571D01*
X130254285Y-60368571D02*
X130254285Y-58868571D01*
X129468571Y-58868571D02*
X128468571Y-60368571D01*
X128468571Y-58868571D02*
X129468571Y-60368571D01*
X95307143Y-44385715D02*
X95307143Y-45528572D01*
X95878571Y-44957143D02*
X94735714Y-44957143D01*
X95878571Y-47028572D02*
X95878571Y-46171429D01*
X95878571Y-46600001D02*
X94378571Y-46600001D01*
X94592857Y-46457144D01*
X94735714Y-46314286D01*
X94807143Y-46171429D01*
X94378571Y-47528572D02*
X94378571Y-48457143D01*
X94950000Y-47957143D01*
X94950000Y-48171429D01*
X95021429Y-48314286D01*
X95092857Y-48385715D01*
X95235714Y-48457143D01*
X95592857Y-48457143D01*
X95735714Y-48385715D01*
X95807143Y-48314286D01*
X95878571Y-48171429D01*
X95878571Y-47742857D01*
X95807143Y-47600000D01*
X95735714Y-47528572D01*
X95735714Y-49100000D02*
X95807143Y-49171428D01*
X95878571Y-49100000D01*
X95807143Y-49028571D01*
X95735714Y-49100000D01*
X95878571Y-49100000D01*
X95021429Y-50028572D02*
X94950000Y-49885714D01*
X94878571Y-49814286D01*
X94735714Y-49742857D01*
X94664286Y-49742857D01*
X94521429Y-49814286D01*
X94450000Y-49885714D01*
X94378571Y-50028572D01*
X94378571Y-50314286D01*
X94450000Y-50457143D01*
X94521429Y-50528572D01*
X94664286Y-50600000D01*
X94735714Y-50600000D01*
X94878571Y-50528572D01*
X94950000Y-50457143D01*
X95021429Y-50314286D01*
X95021429Y-50028572D01*
X95092857Y-49885714D01*
X95164286Y-49814286D01*
X95307143Y-49742857D01*
X95592857Y-49742857D01*
X95735714Y-49814286D01*
X95807143Y-49885714D01*
X95878571Y-50028572D01*
X95878571Y-50314286D01*
X95807143Y-50457143D01*
X95735714Y-50528572D01*
X95592857Y-50600000D01*
X95307143Y-50600000D01*
X95164286Y-50528572D01*
X95092857Y-50457143D01*
X95021429Y-50314286D01*
X94378571Y-51028571D02*
X95878571Y-51528571D01*
X94378571Y-52028571D01*
X141671428Y-54492857D02*
X141457142Y-54564286D01*
X141385714Y-54635714D01*
X141314285Y-54778571D01*
X141314285Y-54992857D01*
X141385714Y-55135714D01*
X141457142Y-55207143D01*
X141600000Y-55278571D01*
X142171428Y-55278571D01*
X142171428Y-53778571D01*
X141671428Y-53778571D01*
X141528571Y-53850000D01*
X141457142Y-53921429D01*
X141385714Y-54064286D01*
X141385714Y-54207143D01*
X141457142Y-54350000D01*
X141528571Y-54421429D01*
X141671428Y-54492857D01*
X142171428Y-54492857D01*
X140742857Y-54850000D02*
X140028571Y-54850000D01*
X140885714Y-55278571D02*
X140385714Y-53778571D01*
X139885714Y-55278571D01*
X139385714Y-55278571D02*
X139385714Y-53778571D01*
X138528571Y-55278571D01*
X138528571Y-53778571D01*
X137814285Y-55278571D02*
X137814285Y-53778571D01*
X137457142Y-53778571D01*
X137242857Y-53850000D01*
X137099999Y-53992857D01*
X137028571Y-54135714D01*
X136957142Y-54421429D01*
X136957142Y-54635714D01*
X137028571Y-54921429D01*
X137099999Y-55064286D01*
X137242857Y-55207143D01*
X137457142Y-55278571D01*
X137814285Y-55278571D01*
X142921429Y-52292857D02*
X143707143Y-52292857D01*
X143850000Y-52364286D01*
X143921429Y-52507143D01*
X143921429Y-52792857D01*
X143850000Y-52935714D01*
X142992857Y-52292857D02*
X142921429Y-52435714D01*
X142921429Y-52792857D01*
X142992857Y-52935714D01*
X143135714Y-53007143D01*
X143278571Y-53007143D01*
X143421429Y-52935714D01*
X143492857Y-52792857D01*
X143492857Y-52435714D01*
X143564286Y-52292857D01*
X144421429Y-51721428D02*
X144421429Y-50792857D01*
X143850000Y-51292857D01*
X143850000Y-51078571D01*
X143778571Y-50935714D01*
X143707143Y-50864285D01*
X143564286Y-50792857D01*
X143207143Y-50792857D01*
X143064286Y-50864285D01*
X142992857Y-50935714D01*
X142921429Y-51078571D01*
X142921429Y-51507143D01*
X142992857Y-51650000D01*
X143064286Y-51721428D01*
X140321429Y-52292857D02*
X141107143Y-52292857D01*
X141250000Y-52364286D01*
X141321429Y-52507143D01*
X141321429Y-52792857D01*
X141250000Y-52935714D01*
X140392857Y-52292857D02*
X140321429Y-52435714D01*
X140321429Y-52792857D01*
X140392857Y-52935714D01*
X140535714Y-53007143D01*
X140678571Y-53007143D01*
X140821429Y-52935714D01*
X140892857Y-52792857D01*
X140892857Y-52435714D01*
X140964286Y-52292857D01*
X141678571Y-51650000D02*
X141750000Y-51578571D01*
X141821429Y-51435714D01*
X141821429Y-51078571D01*
X141750000Y-50935714D01*
X141678571Y-50864285D01*
X141535714Y-50792857D01*
X141392857Y-50792857D01*
X141178571Y-50864285D01*
X140321429Y-51721428D01*
X140321429Y-50792857D01*
X137921429Y-52292857D02*
X138707143Y-52292857D01*
X138850000Y-52364286D01*
X138921429Y-52507143D01*
X138921429Y-52792857D01*
X138850000Y-52935714D01*
X137992857Y-52292857D02*
X137921429Y-52435714D01*
X137921429Y-52792857D01*
X137992857Y-52935714D01*
X138135714Y-53007143D01*
X138278571Y-53007143D01*
X138421429Y-52935714D01*
X138492857Y-52792857D01*
X138492857Y-52435714D01*
X138564286Y-52292857D01*
X137921429Y-50792857D02*
X137921429Y-51650000D01*
X137921429Y-51221428D02*
X139421429Y-51221428D01*
X139207143Y-51364285D01*
X139064286Y-51507143D01*
X138992857Y-51650000D01*
X135221429Y-52392857D02*
X136007143Y-52392857D01*
X136150000Y-52464286D01*
X136221429Y-52607143D01*
X136221429Y-52892857D01*
X136150000Y-53035714D01*
X135292857Y-52392857D02*
X135221429Y-52535714D01*
X135221429Y-52892857D01*
X135292857Y-53035714D01*
X135435714Y-53107143D01*
X135578571Y-53107143D01*
X135721429Y-53035714D01*
X135792857Y-52892857D01*
X135792857Y-52535714D01*
X135864286Y-52392857D01*
X136721429Y-51392857D02*
X136721429Y-51250000D01*
X136650000Y-51107143D01*
X136578571Y-51035714D01*
X136435714Y-50964285D01*
X136150000Y-50892857D01*
X135792857Y-50892857D01*
X135507143Y-50964285D01*
X135364286Y-51035714D01*
X135292857Y-51107143D01*
X135221429Y-51250000D01*
X135221429Y-51392857D01*
X135292857Y-51535714D01*
X135364286Y-51607143D01*
X135507143Y-51678571D01*
X135792857Y-51750000D01*
X136150000Y-51750000D01*
X136435714Y-51678571D01*
X136578571Y-51607143D01*
X136650000Y-51535714D01*
X136721429Y-51392857D01*
D12*
X102170000Y-63695000D02*
X101260000Y-63695000D01*
X104470000Y-63695000D02*
X103570000Y-63695000D01*
X104480000Y-66770000D02*
X104480000Y-63695000D01*
X101260000Y-65845000D02*
X101260000Y-63695000D01*
X99950000Y-86800000D02*
X99950000Y-70825000D01*
X99950000Y-70825000D02*
X105050000Y-70825000D01*
X105050000Y-70825000D02*
X105050000Y-86800000D01*
D13*
X126100000Y-106700000D02*
X125600000Y-106700000D01*
X125600000Y-107900000D02*
X126100000Y-107900000D01*
X85760000Y-82300000D02*
X85760000Y-82800000D01*
X86960000Y-82800000D02*
X86960000Y-82300000D01*
X83750000Y-64800000D02*
X84250000Y-64800000D01*
X84250000Y-63600000D02*
X83750000Y-63600000D01*
X96700000Y-69550000D02*
X96700000Y-70050000D01*
X97900000Y-70050000D02*
X97900000Y-69550000D01*
X90700000Y-52675000D02*
X91500000Y-52675000D01*
X91500000Y-51325000D02*
X90700000Y-51325000D01*
X122790000Y-70525000D02*
X123590000Y-70525000D01*
X123590000Y-69175000D02*
X122790000Y-69175000D01*
X144275000Y-58300000D02*
X144275000Y-57500000D01*
X142925000Y-57500000D02*
X142925000Y-58300000D01*
X141575000Y-58300000D02*
X141575000Y-57500000D01*
X140225000Y-57500000D02*
X140225000Y-58300000D01*
X138975000Y-58300000D02*
X138975000Y-57500000D01*
X137625000Y-57500000D02*
X137625000Y-58300000D01*
X135125000Y-57500000D02*
X135125000Y-58300000D01*
X136475000Y-58300000D02*
X136475000Y-57500000D01*
X132675000Y-68180000D02*
X132675000Y-68980000D01*
X134025000Y-68980000D02*
X134025000Y-68180000D01*
X123900000Y-110850000D02*
X123400000Y-110850000D01*
X123400000Y-112050000D02*
X123900000Y-112050000D01*
X153000000Y-80260000D02*
X153000000Y-79760000D01*
X151800000Y-79760000D02*
X151800000Y-80260000D01*
X87500000Y-60650000D02*
X87500000Y-60150000D01*
X86300000Y-60150000D02*
X86300000Y-60650000D01*
X93200000Y-60650000D02*
X93200000Y-60150000D01*
X92000000Y-60150000D02*
X92000000Y-60650000D01*
X141600000Y-68650000D02*
X141600000Y-68150000D01*
X140400000Y-68150000D02*
X140400000Y-68650000D01*
D12*
X72921392Y-49542335D02*
G75*
G02X72764484Y-46310000I1078608J1672335D01*
G01*
X75078608Y-49542335D02*
G75*
G03X75235516Y-46310000I-1078608J1672335D01*
G01*
X72920163Y-48911130D02*
G75*
G02X72920000Y-46829039I1079837J1041130D01*
G01*
X75079837Y-48911130D02*
G75*
G03X75080000Y-46829039I-1079837J1041130D01*
G01*
X72764000Y-46310000D02*
X72920000Y-46310000D01*
X75080000Y-46310000D02*
X75236000Y-46310000D01*
X88250000Y-53700000D02*
X95550000Y-53700000D01*
X95550000Y-53700000D02*
X95550000Y-55700000D01*
X95550000Y-55700000D02*
X88250000Y-55700000D01*
X150790000Y-49730000D02*
X150790000Y-44530000D01*
X155930000Y-49730000D02*
X150790000Y-49730000D01*
X158530000Y-44530000D02*
X150790000Y-44530000D01*
X155930000Y-49730000D02*
X155930000Y-47130000D01*
X155930000Y-47130000D02*
X158530000Y-47130000D01*
X158530000Y-47130000D02*
X158530000Y-44530000D01*
X157200000Y-49730000D02*
X158530000Y-49730000D01*
X158530000Y-49730000D02*
X158530000Y-48400000D01*
X156140000Y-73430000D02*
X156140000Y-63150000D01*
X156140000Y-63150000D02*
X158800000Y-63150000D01*
X158800000Y-63150000D02*
X158800000Y-73430000D01*
X158800000Y-73430000D02*
X156140000Y-73430000D01*
X158800000Y-72480000D02*
X164800000Y-72480000D01*
X164800000Y-72480000D02*
X164800000Y-71720000D01*
X164800000Y-71720000D02*
X158800000Y-71720000D01*
X158800000Y-72420000D02*
X164800000Y-72420000D01*
X158800000Y-72300000D02*
X164800000Y-72300000D01*
X158800000Y-72180000D02*
X164800000Y-72180000D01*
X158800000Y-72060000D02*
X164800000Y-72060000D01*
X158800000Y-71940000D02*
X164800000Y-71940000D01*
X158800000Y-71820000D02*
X164800000Y-71820000D01*
X155810000Y-72480000D02*
X156140000Y-72480000D01*
X155810000Y-71720000D02*
X156140000Y-71720000D01*
X156140000Y-70830000D02*
X158800000Y-70830000D01*
X158800000Y-69940000D02*
X164800000Y-69940000D01*
X164800000Y-69940000D02*
X164800000Y-69180000D01*
X164800000Y-69180000D02*
X158800000Y-69180000D01*
X155742929Y-69940000D02*
X156140000Y-69940000D01*
X155742929Y-69180000D02*
X156140000Y-69180000D01*
X156140000Y-68290000D02*
X158800000Y-68290000D01*
X158800000Y-67400000D02*
X164800000Y-67400000D01*
X164800000Y-67400000D02*
X164800000Y-66640000D01*
X164800000Y-66640000D02*
X158800000Y-66640000D01*
X155742929Y-67400000D02*
X156140000Y-67400000D01*
X155742929Y-66640000D02*
X156140000Y-66640000D01*
X156140000Y-65750000D02*
X158800000Y-65750000D01*
X158800000Y-64860000D02*
X164800000Y-64860000D01*
X164800000Y-64860000D02*
X164800000Y-64100000D01*
X164800000Y-64100000D02*
X158800000Y-64100000D01*
X155742929Y-64860000D02*
X156140000Y-64860000D01*
X155742929Y-64100000D02*
X156140000Y-64100000D01*
X153430000Y-72100000D02*
X153430000Y-73370000D01*
X153430000Y-73370000D02*
X154700000Y-73370000D01*
X122490000Y-63695000D02*
X121580000Y-63695000D01*
X124790000Y-63695000D02*
X123890000Y-63695000D01*
X124800000Y-66770000D02*
X124800000Y-63695000D01*
X121580000Y-65845000D02*
X121580000Y-63695000D01*
X128465000Y-64200000D02*
X128465000Y-65110000D01*
X128465000Y-61900000D02*
X128465000Y-62800000D01*
X131540000Y-61890000D02*
X128465000Y-61890000D01*
X130615000Y-65110000D02*
X128465000Y-65110000D01*
D13*
X132675000Y-57500000D02*
X132675000Y-58300000D01*
X134025000Y-58300000D02*
X134025000Y-57500000D01*
X132675000Y-73260000D02*
X132675000Y-74060000D01*
X134025000Y-74060000D02*
X134025000Y-73260000D01*
X147720000Y-90765000D02*
X146920000Y-90765000D01*
X146920000Y-92115000D02*
X147720000Y-92115000D01*
X147720000Y-94575000D02*
X146920000Y-94575000D01*
X146920000Y-95925000D02*
X147720000Y-95925000D01*
X151725000Y-85960000D02*
X151725000Y-86760000D01*
X153075000Y-86760000D02*
X153075000Y-85960000D01*
X94380000Y-86955000D02*
X93580000Y-86955000D01*
X93580000Y-88305000D02*
X94380000Y-88305000D01*
X94400000Y-89625000D02*
X93600000Y-89625000D01*
X93600000Y-90975000D02*
X94400000Y-90975000D01*
X79525000Y-60100000D02*
X79525000Y-60900000D01*
X80875000Y-60900000D02*
X80875000Y-60100000D01*
X127200000Y-68875000D02*
X128000000Y-68875000D01*
X128000000Y-67525000D02*
X127200000Y-67525000D01*
X110090000Y-74335000D02*
X110890000Y-74335000D01*
X110890000Y-72985000D02*
X110090000Y-72985000D01*
X117710000Y-74335000D02*
X118510000Y-74335000D01*
X118510000Y-72985000D02*
X117710000Y-72985000D01*
X79300000Y-68125000D02*
X78500000Y-68125000D01*
X78500000Y-69475000D02*
X79300000Y-69475000D01*
X139515000Y-105095000D02*
X139290000Y-105095000D01*
X139515000Y-97845000D02*
X139190000Y-97845000D01*
X132265000Y-97845000D02*
X132590000Y-97845000D01*
X132265000Y-105095000D02*
X132590000Y-105095000D01*
X139515000Y-105095000D02*
X139515000Y-104770000D01*
X132265000Y-105095000D02*
X132265000Y-104770000D01*
X132265000Y-97845000D02*
X132265000Y-98170000D01*
X139515000Y-97845000D02*
X139515000Y-98170000D01*
X139290000Y-105095000D02*
X139290000Y-106520000D01*
X98195000Y-82955000D02*
X97970000Y-82955000D01*
X98195000Y-79605000D02*
X97895000Y-79605000D01*
X94845000Y-79605000D02*
X95145000Y-79605000D01*
X94845000Y-82955000D02*
X95145000Y-82955000D01*
X98195000Y-82955000D02*
X98195000Y-79605000D01*
X94845000Y-82955000D02*
X94845000Y-79605000D01*
X97970000Y-82955000D02*
X97970000Y-84180000D01*
D12*
X145820000Y-84860000D02*
X145820000Y-87860000D01*
X148820000Y-84860000D02*
X148820000Y-88860000D01*
D13*
X160055000Y-108755000D02*
X160005000Y-108755000D01*
X160055000Y-104605000D02*
X159910000Y-104605000D01*
X154905000Y-104605000D02*
X155050000Y-104605000D01*
X154905000Y-108755000D02*
X155050000Y-108755000D01*
X160055000Y-108755000D02*
X160055000Y-104605000D01*
X154905000Y-108755000D02*
X154905000Y-104605000D01*
X160005000Y-108755000D02*
X160005000Y-110155000D01*
D12*
X124610000Y-82390000D02*
X124610000Y-83650000D01*
X124610000Y-89210000D02*
X124610000Y-87950000D01*
X120850000Y-82390000D02*
X124610000Y-82390000D01*
X118600000Y-89210000D02*
X124610000Y-89210000D01*
X124610000Y-94240000D02*
X124610000Y-95500000D01*
X124610000Y-101060000D02*
X124610000Y-99800000D01*
X120850000Y-94240000D02*
X124610000Y-94240000D01*
X118600000Y-101060000D02*
X124610000Y-101060000D01*
X135305000Y-108835000D02*
X129055000Y-108835000D01*
X135305000Y-113885000D02*
X129055000Y-113885000D01*
X135305000Y-113885000D02*
G75*
G03X135305000Y-108835000I0J2525000D01*
G01*
X129055000Y-113885000D02*
G75*
G02X129055000Y-108835000I0J2525000D01*
G01*
X146975723Y-66036278D02*
G75*
G02X146976000Y-70647580I-1179723J-2305722D01*
G01*
X144616277Y-66036278D02*
G75*
G03X144616000Y-70647580I1179723J-2305722D01*
G01*
X144616277Y-66036278D02*
G75*
G02X146976000Y-66036420I1179723J-2305722D01*
G01*
X148346000Y-68342000D02*
X143246000Y-68342000D01*
X148346000Y-68302000D02*
X146776000Y-68302000D01*
X144816000Y-68302000D02*
X143246000Y-68302000D01*
X148345000Y-68262000D02*
X146776000Y-68262000D01*
X144816000Y-68262000D02*
X143247000Y-68262000D01*
X148344000Y-68222000D02*
X146776000Y-68222000D01*
X144816000Y-68222000D02*
X143248000Y-68222000D01*
X148342000Y-68182000D02*
X146776000Y-68182000D01*
X144816000Y-68182000D02*
X143250000Y-68182000D01*
X148339000Y-68142000D02*
X146776000Y-68142000D01*
X144816000Y-68142000D02*
X143253000Y-68142000D01*
X148335000Y-68102000D02*
X146776000Y-68102000D01*
X144816000Y-68102000D02*
X143257000Y-68102000D01*
X148331000Y-68062000D02*
X146776000Y-68062000D01*
X144816000Y-68062000D02*
X143261000Y-68062000D01*
X148327000Y-68022000D02*
X146776000Y-68022000D01*
X144816000Y-68022000D02*
X143265000Y-68022000D01*
X148321000Y-67982000D02*
X146776000Y-67982000D01*
X144816000Y-67982000D02*
X143271000Y-67982000D01*
X148315000Y-67942000D02*
X146776000Y-67942000D01*
X144816000Y-67942000D02*
X143277000Y-67942000D01*
X148309000Y-67902000D02*
X146776000Y-67902000D01*
X144816000Y-67902000D02*
X143283000Y-67902000D01*
X148302000Y-67862000D02*
X146776000Y-67862000D01*
X144816000Y-67862000D02*
X143290000Y-67862000D01*
X148294000Y-67822000D02*
X146776000Y-67822000D01*
X144816000Y-67822000D02*
X143298000Y-67822000D01*
X148285000Y-67782000D02*
X146776000Y-67782000D01*
X144816000Y-67782000D02*
X143307000Y-67782000D01*
X148276000Y-67742000D02*
X146776000Y-67742000D01*
X144816000Y-67742000D02*
X143316000Y-67742000D01*
X148266000Y-67702000D02*
X146776000Y-67702000D01*
X144816000Y-67702000D02*
X143326000Y-67702000D01*
X148256000Y-67662000D02*
X146776000Y-67662000D01*
X144816000Y-67662000D02*
X143336000Y-67662000D01*
X148244000Y-67621000D02*
X146776000Y-67621000D01*
X144816000Y-67621000D02*
X143348000Y-67621000D01*
X148232000Y-67581000D02*
X146776000Y-67581000D01*
X144816000Y-67581000D02*
X143360000Y-67581000D01*
X148220000Y-67541000D02*
X146776000Y-67541000D01*
X144816000Y-67541000D02*
X143372000Y-67541000D01*
X148206000Y-67501000D02*
X146776000Y-67501000D01*
X144816000Y-67501000D02*
X143386000Y-67501000D01*
X148192000Y-67461000D02*
X146776000Y-67461000D01*
X144816000Y-67461000D02*
X143400000Y-67461000D01*
X148178000Y-67421000D02*
X146776000Y-67421000D01*
X144816000Y-67421000D02*
X143414000Y-67421000D01*
X148162000Y-67381000D02*
X146776000Y-67381000D01*
X144816000Y-67381000D02*
X143430000Y-67381000D01*
X148146000Y-67341000D02*
X146776000Y-67341000D01*
X144816000Y-67341000D02*
X143446000Y-67341000D01*
X148129000Y-67301000D02*
X146776000Y-67301000D01*
X144816000Y-67301000D02*
X143463000Y-67301000D01*
X148111000Y-67261000D02*
X146776000Y-67261000D01*
X144816000Y-67261000D02*
X143481000Y-67261000D01*
X148092000Y-67221000D02*
X146776000Y-67221000D01*
X144816000Y-67221000D02*
X143500000Y-67221000D01*
X148072000Y-67181000D02*
X146776000Y-67181000D01*
X144816000Y-67181000D02*
X143520000Y-67181000D01*
X148052000Y-67141000D02*
X146776000Y-67141000D01*
X144816000Y-67141000D02*
X143540000Y-67141000D01*
X148030000Y-67101000D02*
X146776000Y-67101000D01*
X144816000Y-67101000D02*
X143562000Y-67101000D01*
X148008000Y-67061000D02*
X146776000Y-67061000D01*
X144816000Y-67061000D02*
X143584000Y-67061000D01*
X147985000Y-67021000D02*
X146776000Y-67021000D01*
X144816000Y-67021000D02*
X143607000Y-67021000D01*
X147961000Y-66981000D02*
X146776000Y-66981000D01*
X144816000Y-66981000D02*
X143631000Y-66981000D01*
X147936000Y-66941000D02*
X146776000Y-66941000D01*
X144816000Y-66941000D02*
X143656000Y-66941000D01*
X147909000Y-66901000D02*
X146776000Y-66901000D01*
X144816000Y-66901000D02*
X143683000Y-66901000D01*
X147882000Y-66861000D02*
X146776000Y-66861000D01*
X144816000Y-66861000D02*
X143710000Y-66861000D01*
X147854000Y-66821000D02*
X146776000Y-66821000D01*
X144816000Y-66821000D02*
X143738000Y-66821000D01*
X147824000Y-66781000D02*
X146776000Y-66781000D01*
X144816000Y-66781000D02*
X143768000Y-66781000D01*
X147793000Y-66741000D02*
X146776000Y-66741000D01*
X144816000Y-66741000D02*
X143799000Y-66741000D01*
X147761000Y-66701000D02*
X146776000Y-66701000D01*
X144816000Y-66701000D02*
X143831000Y-66701000D01*
X147728000Y-66661000D02*
X146776000Y-66661000D01*
X144816000Y-66661000D02*
X143864000Y-66661000D01*
X147693000Y-66621000D02*
X146776000Y-66621000D01*
X144816000Y-66621000D02*
X143899000Y-66621000D01*
X147657000Y-66581000D02*
X146776000Y-66581000D01*
X144816000Y-66581000D02*
X143935000Y-66581000D01*
X147619000Y-66541000D02*
X146776000Y-66541000D01*
X144816000Y-66541000D02*
X143973000Y-66541000D01*
X147579000Y-66501000D02*
X146776000Y-66501000D01*
X144816000Y-66501000D02*
X144013000Y-66501000D01*
X147538000Y-66461000D02*
X146776000Y-66461000D01*
X144816000Y-66461000D02*
X144054000Y-66461000D01*
X147495000Y-66421000D02*
X146776000Y-66421000D01*
X144816000Y-66421000D02*
X144097000Y-66421000D01*
X147450000Y-66381000D02*
X146776000Y-66381000D01*
X144816000Y-66381000D02*
X144142000Y-66381000D01*
X147402000Y-66341000D02*
X144190000Y-66341000D01*
X147352000Y-66301000D02*
X144240000Y-66301000D01*
X147300000Y-66261000D02*
X144292000Y-66261000D01*
X147244000Y-66221000D02*
X144348000Y-66221000D01*
X147186000Y-66181000D02*
X144406000Y-66181000D01*
X147123000Y-66141000D02*
X144469000Y-66141000D01*
X147057000Y-66101000D02*
X144535000Y-66101000D01*
X146985000Y-66061000D02*
X144607000Y-66061000D01*
X146908000Y-66021000D02*
X144684000Y-66021000D01*
X146824000Y-65981000D02*
X144768000Y-65981000D01*
X146730000Y-65941000D02*
X144862000Y-65941000D01*
X146625000Y-65901000D02*
X144967000Y-65901000D01*
X146503000Y-65861000D02*
X145089000Y-65861000D01*
X146355000Y-65821000D02*
X145237000Y-65821000D01*
X146150000Y-65781000D02*
X145442000Y-65781000D01*
X145796000Y-71542000D02*
X145796000Y-70342000D01*
X146446000Y-70942000D02*
X145146000Y-70942000D01*
X113220864Y-90667820D02*
G75*
G02X113220000Y-84632518I1179136J3017820D01*
G01*
X115579136Y-90667820D02*
G75*
G03X115580000Y-84632518I-1179136J3017820D01*
G01*
X115579136Y-90667820D02*
G75*
G02X113220000Y-90667482I-1179136J3017820D01*
G01*
X111200000Y-87650000D02*
X117600000Y-87650000D01*
X111200000Y-87690000D02*
X117600000Y-87690000D01*
X111200000Y-87730000D02*
X117600000Y-87730000D01*
X111202000Y-87770000D02*
X117598000Y-87770000D01*
X111203000Y-87810000D02*
X117597000Y-87810000D01*
X111206000Y-87850000D02*
X117594000Y-87850000D01*
X111208000Y-87890000D02*
X117592000Y-87890000D01*
X111212000Y-87930000D02*
X113420000Y-87930000D01*
X115380000Y-87930000D02*
X117588000Y-87930000D01*
X111215000Y-87970000D02*
X113420000Y-87970000D01*
X115380000Y-87970000D02*
X117585000Y-87970000D01*
X111220000Y-88010000D02*
X113420000Y-88010000D01*
X115380000Y-88010000D02*
X117580000Y-88010000D01*
X111224000Y-88050000D02*
X113420000Y-88050000D01*
X115380000Y-88050000D02*
X117576000Y-88050000D01*
X111230000Y-88090000D02*
X113420000Y-88090000D01*
X115380000Y-88090000D02*
X117570000Y-88090000D01*
X111235000Y-88130000D02*
X113420000Y-88130000D01*
X115380000Y-88130000D02*
X117565000Y-88130000D01*
X111242000Y-88170000D02*
X113420000Y-88170000D01*
X115380000Y-88170000D02*
X117558000Y-88170000D01*
X111248000Y-88210000D02*
X113420000Y-88210000D01*
X115380000Y-88210000D02*
X117552000Y-88210000D01*
X111256000Y-88250000D02*
X113420000Y-88250000D01*
X115380000Y-88250000D02*
X117544000Y-88250000D01*
X111263000Y-88290000D02*
X113420000Y-88290000D01*
X115380000Y-88290000D02*
X117537000Y-88290000D01*
X111272000Y-88330000D02*
X113420000Y-88330000D01*
X115380000Y-88330000D02*
X117528000Y-88330000D01*
X111281000Y-88371000D02*
X113420000Y-88371000D01*
X115380000Y-88371000D02*
X117519000Y-88371000D01*
X111290000Y-88411000D02*
X113420000Y-88411000D01*
X115380000Y-88411000D02*
X117510000Y-88411000D01*
X111300000Y-88451000D02*
X113420000Y-88451000D01*
X115380000Y-88451000D02*
X117500000Y-88451000D01*
X111310000Y-88491000D02*
X113420000Y-88491000D01*
X115380000Y-88491000D02*
X117490000Y-88491000D01*
X111321000Y-88531000D02*
X113420000Y-88531000D01*
X115380000Y-88531000D02*
X117479000Y-88531000D01*
X111333000Y-88571000D02*
X113420000Y-88571000D01*
X115380000Y-88571000D02*
X117467000Y-88571000D01*
X111345000Y-88611000D02*
X113420000Y-88611000D01*
X115380000Y-88611000D02*
X117455000Y-88611000D01*
X111358000Y-88651000D02*
X113420000Y-88651000D01*
X115380000Y-88651000D02*
X117442000Y-88651000D01*
X111371000Y-88691000D02*
X113420000Y-88691000D01*
X115380000Y-88691000D02*
X117429000Y-88691000D01*
X111385000Y-88731000D02*
X113420000Y-88731000D01*
X115380000Y-88731000D02*
X117415000Y-88731000D01*
X111399000Y-88771000D02*
X113420000Y-88771000D01*
X115380000Y-88771000D02*
X117401000Y-88771000D01*
X111414000Y-88811000D02*
X113420000Y-88811000D01*
X115380000Y-88811000D02*
X117386000Y-88811000D01*
X111430000Y-88851000D02*
X113420000Y-88851000D01*
X115380000Y-88851000D02*
X117370000Y-88851000D01*
X111446000Y-88891000D02*
X113420000Y-88891000D01*
X115380000Y-88891000D02*
X117354000Y-88891000D01*
X111463000Y-88931000D02*
X113420000Y-88931000D01*
X115380000Y-88931000D02*
X117337000Y-88931000D01*
X111481000Y-88971000D02*
X113420000Y-88971000D01*
X115380000Y-88971000D02*
X117319000Y-88971000D01*
X111499000Y-89011000D02*
X113420000Y-89011000D01*
X115380000Y-89011000D02*
X117301000Y-89011000D01*
X111518000Y-89051000D02*
X113420000Y-89051000D01*
X115380000Y-89051000D02*
X117282000Y-89051000D01*
X111537000Y-89091000D02*
X113420000Y-89091000D01*
X115380000Y-89091000D02*
X117263000Y-89091000D01*
X111557000Y-89131000D02*
X113420000Y-89131000D01*
X115380000Y-89131000D02*
X117243000Y-89131000D01*
X111578000Y-89171000D02*
X113420000Y-89171000D01*
X115380000Y-89171000D02*
X117222000Y-89171000D01*
X111600000Y-89211000D02*
X113420000Y-89211000D01*
X115380000Y-89211000D02*
X117200000Y-89211000D01*
X111622000Y-89251000D02*
X113420000Y-89251000D01*
X115380000Y-89251000D02*
X117178000Y-89251000D01*
X111645000Y-89291000D02*
X113420000Y-89291000D01*
X115380000Y-89291000D02*
X117155000Y-89291000D01*
X111669000Y-89331000D02*
X113420000Y-89331000D01*
X115380000Y-89331000D02*
X117131000Y-89331000D01*
X111694000Y-89371000D02*
X113420000Y-89371000D01*
X115380000Y-89371000D02*
X117106000Y-89371000D01*
X111719000Y-89411000D02*
X113420000Y-89411000D01*
X115380000Y-89411000D02*
X117081000Y-89411000D01*
X111746000Y-89451000D02*
X113420000Y-89451000D01*
X115380000Y-89451000D02*
X117054000Y-89451000D01*
X111773000Y-89491000D02*
X113420000Y-89491000D01*
X115380000Y-89491000D02*
X117027000Y-89491000D01*
X111801000Y-89531000D02*
X113420000Y-89531000D01*
X115380000Y-89531000D02*
X116999000Y-89531000D01*
X111830000Y-89571000D02*
X113420000Y-89571000D01*
X115380000Y-89571000D02*
X116970000Y-89571000D01*
X111860000Y-89611000D02*
X113420000Y-89611000D01*
X115380000Y-89611000D02*
X116940000Y-89611000D01*
X111890000Y-89651000D02*
X113420000Y-89651000D01*
X115380000Y-89651000D02*
X116910000Y-89651000D01*
X111922000Y-89691000D02*
X113420000Y-89691000D01*
X115380000Y-89691000D02*
X116878000Y-89691000D01*
X111955000Y-89731000D02*
X113420000Y-89731000D01*
X115380000Y-89731000D02*
X116845000Y-89731000D01*
X111989000Y-89771000D02*
X113420000Y-89771000D01*
X115380000Y-89771000D02*
X116811000Y-89771000D01*
X112025000Y-89811000D02*
X113420000Y-89811000D01*
X115380000Y-89811000D02*
X116775000Y-89811000D01*
X112061000Y-89851000D02*
X113420000Y-89851000D01*
X115380000Y-89851000D02*
X116739000Y-89851000D01*
X112099000Y-89891000D02*
X116701000Y-89891000D01*
X112138000Y-89931000D02*
X116662000Y-89931000D01*
X112178000Y-89971000D02*
X116622000Y-89971000D01*
X112220000Y-90011000D02*
X116580000Y-90011000D01*
X112263000Y-90051000D02*
X116537000Y-90051000D01*
X112308000Y-90091000D02*
X116492000Y-90091000D01*
X112355000Y-90131000D02*
X116445000Y-90131000D01*
X112403000Y-90171000D02*
X116397000Y-90171000D01*
X112454000Y-90211000D02*
X116346000Y-90211000D01*
X112506000Y-90251000D02*
X116294000Y-90251000D01*
X112561000Y-90291000D02*
X116239000Y-90291000D01*
X112619000Y-90331000D02*
X116181000Y-90331000D01*
X112679000Y-90371000D02*
X116121000Y-90371000D01*
X112742000Y-90411000D02*
X116058000Y-90411000D01*
X112809000Y-90451000D02*
X115991000Y-90451000D01*
X112880000Y-90491000D02*
X115920000Y-90491000D01*
X112955000Y-90531000D02*
X115845000Y-90531000D01*
X113036000Y-90571000D02*
X115764000Y-90571000D01*
X113122000Y-90611000D02*
X115678000Y-90611000D01*
X113216000Y-90651000D02*
X115584000Y-90651000D01*
X113319000Y-90691000D02*
X115481000Y-90691000D01*
X113434000Y-90731000D02*
X115366000Y-90731000D01*
X113566000Y-90771000D02*
X115234000Y-90771000D01*
X113724000Y-90811000D02*
X115076000Y-90811000D01*
X113932000Y-90851000D02*
X114868000Y-90851000D01*
X114400000Y-84200000D02*
X114400000Y-85400000D01*
X113750000Y-84800000D02*
X115050000Y-84800000D01*
X111920864Y-100267820D02*
G75*
G02X111920000Y-94232518I1179136J3017820D01*
G01*
X114279136Y-100267820D02*
G75*
G03X114280000Y-94232518I-1179136J3017820D01*
G01*
X114279136Y-100267820D02*
G75*
G02X111920000Y-100267482I-1179136J3017820D01*
G01*
X109900000Y-97250000D02*
X116300000Y-97250000D01*
X109900000Y-97290000D02*
X116300000Y-97290000D01*
X109900000Y-97330000D02*
X116300000Y-97330000D01*
X109902000Y-97370000D02*
X116298000Y-97370000D01*
X109903000Y-97410000D02*
X116297000Y-97410000D01*
X109906000Y-97450000D02*
X116294000Y-97450000D01*
X109908000Y-97490000D02*
X116292000Y-97490000D01*
X109912000Y-97530000D02*
X112120000Y-97530000D01*
X114080000Y-97530000D02*
X116288000Y-97530000D01*
X109915000Y-97570000D02*
X112120000Y-97570000D01*
X114080000Y-97570000D02*
X116285000Y-97570000D01*
X109920000Y-97610000D02*
X112120000Y-97610000D01*
X114080000Y-97610000D02*
X116280000Y-97610000D01*
X109924000Y-97650000D02*
X112120000Y-97650000D01*
X114080000Y-97650000D02*
X116276000Y-97650000D01*
X109930000Y-97690000D02*
X112120000Y-97690000D01*
X114080000Y-97690000D02*
X116270000Y-97690000D01*
X109935000Y-97730000D02*
X112120000Y-97730000D01*
X114080000Y-97730000D02*
X116265000Y-97730000D01*
X109942000Y-97770000D02*
X112120000Y-97770000D01*
X114080000Y-97770000D02*
X116258000Y-97770000D01*
X109948000Y-97810000D02*
X112120000Y-97810000D01*
X114080000Y-97810000D02*
X116252000Y-97810000D01*
X109956000Y-97850000D02*
X112120000Y-97850000D01*
X114080000Y-97850000D02*
X116244000Y-97850000D01*
X109963000Y-97890000D02*
X112120000Y-97890000D01*
X114080000Y-97890000D02*
X116237000Y-97890000D01*
X109972000Y-97930000D02*
X112120000Y-97930000D01*
X114080000Y-97930000D02*
X116228000Y-97930000D01*
X109981000Y-97971000D02*
X112120000Y-97971000D01*
X114080000Y-97971000D02*
X116219000Y-97971000D01*
X109990000Y-98011000D02*
X112120000Y-98011000D01*
X114080000Y-98011000D02*
X116210000Y-98011000D01*
X110000000Y-98051000D02*
X112120000Y-98051000D01*
X114080000Y-98051000D02*
X116200000Y-98051000D01*
X110010000Y-98091000D02*
X112120000Y-98091000D01*
X114080000Y-98091000D02*
X116190000Y-98091000D01*
X110021000Y-98131000D02*
X112120000Y-98131000D01*
X114080000Y-98131000D02*
X116179000Y-98131000D01*
X110033000Y-98171000D02*
X112120000Y-98171000D01*
X114080000Y-98171000D02*
X116167000Y-98171000D01*
X110045000Y-98211000D02*
X112120000Y-98211000D01*
X114080000Y-98211000D02*
X116155000Y-98211000D01*
X110058000Y-98251000D02*
X112120000Y-98251000D01*
X114080000Y-98251000D02*
X116142000Y-98251000D01*
X110071000Y-98291000D02*
X112120000Y-98291000D01*
X114080000Y-98291000D02*
X116129000Y-98291000D01*
X110085000Y-98331000D02*
X112120000Y-98331000D01*
X114080000Y-98331000D02*
X116115000Y-98331000D01*
X110099000Y-98371000D02*
X112120000Y-98371000D01*
X114080000Y-98371000D02*
X116101000Y-98371000D01*
X110114000Y-98411000D02*
X112120000Y-98411000D01*
X114080000Y-98411000D02*
X116086000Y-98411000D01*
X110130000Y-98451000D02*
X112120000Y-98451000D01*
X114080000Y-98451000D02*
X116070000Y-98451000D01*
X110146000Y-98491000D02*
X112120000Y-98491000D01*
X114080000Y-98491000D02*
X116054000Y-98491000D01*
X110163000Y-98531000D02*
X112120000Y-98531000D01*
X114080000Y-98531000D02*
X116037000Y-98531000D01*
X110181000Y-98571000D02*
X112120000Y-98571000D01*
X114080000Y-98571000D02*
X116019000Y-98571000D01*
X110199000Y-98611000D02*
X112120000Y-98611000D01*
X114080000Y-98611000D02*
X116001000Y-98611000D01*
X110218000Y-98651000D02*
X112120000Y-98651000D01*
X114080000Y-98651000D02*
X115982000Y-98651000D01*
X110237000Y-98691000D02*
X112120000Y-98691000D01*
X114080000Y-98691000D02*
X115963000Y-98691000D01*
X110257000Y-98731000D02*
X112120000Y-98731000D01*
X114080000Y-98731000D02*
X115943000Y-98731000D01*
X110278000Y-98771000D02*
X112120000Y-98771000D01*
X114080000Y-98771000D02*
X115922000Y-98771000D01*
X110300000Y-98811000D02*
X112120000Y-98811000D01*
X114080000Y-98811000D02*
X115900000Y-98811000D01*
X110322000Y-98851000D02*
X112120000Y-98851000D01*
X114080000Y-98851000D02*
X115878000Y-98851000D01*
X110345000Y-98891000D02*
X112120000Y-98891000D01*
X114080000Y-98891000D02*
X115855000Y-98891000D01*
X110369000Y-98931000D02*
X112120000Y-98931000D01*
X114080000Y-98931000D02*
X115831000Y-98931000D01*
X110394000Y-98971000D02*
X112120000Y-98971000D01*
X114080000Y-98971000D02*
X115806000Y-98971000D01*
X110419000Y-99011000D02*
X112120000Y-99011000D01*
X114080000Y-99011000D02*
X115781000Y-99011000D01*
X110446000Y-99051000D02*
X112120000Y-99051000D01*
X114080000Y-99051000D02*
X115754000Y-99051000D01*
X110473000Y-99091000D02*
X112120000Y-99091000D01*
X114080000Y-99091000D02*
X115727000Y-99091000D01*
X110501000Y-99131000D02*
X112120000Y-99131000D01*
X114080000Y-99131000D02*
X115699000Y-99131000D01*
X110530000Y-99171000D02*
X112120000Y-99171000D01*
X114080000Y-99171000D02*
X115670000Y-99171000D01*
X110560000Y-99211000D02*
X112120000Y-99211000D01*
X114080000Y-99211000D02*
X115640000Y-99211000D01*
X110590000Y-99251000D02*
X112120000Y-99251000D01*
X114080000Y-99251000D02*
X115610000Y-99251000D01*
X110622000Y-99291000D02*
X112120000Y-99291000D01*
X114080000Y-99291000D02*
X115578000Y-99291000D01*
X110655000Y-99331000D02*
X112120000Y-99331000D01*
X114080000Y-99331000D02*
X115545000Y-99331000D01*
X110689000Y-99371000D02*
X112120000Y-99371000D01*
X114080000Y-99371000D02*
X115511000Y-99371000D01*
X110725000Y-99411000D02*
X112120000Y-99411000D01*
X114080000Y-99411000D02*
X115475000Y-99411000D01*
X110761000Y-99451000D02*
X112120000Y-99451000D01*
X114080000Y-99451000D02*
X115439000Y-99451000D01*
X110799000Y-99491000D02*
X115401000Y-99491000D01*
X110838000Y-99531000D02*
X115362000Y-99531000D01*
X110878000Y-99571000D02*
X115322000Y-99571000D01*
X110920000Y-99611000D02*
X115280000Y-99611000D01*
X110963000Y-99651000D02*
X115237000Y-99651000D01*
X111008000Y-99691000D02*
X115192000Y-99691000D01*
X111055000Y-99731000D02*
X115145000Y-99731000D01*
X111103000Y-99771000D02*
X115097000Y-99771000D01*
X111154000Y-99811000D02*
X115046000Y-99811000D01*
X111206000Y-99851000D02*
X114994000Y-99851000D01*
X111261000Y-99891000D02*
X114939000Y-99891000D01*
X111319000Y-99931000D02*
X114881000Y-99931000D01*
X111379000Y-99971000D02*
X114821000Y-99971000D01*
X111442000Y-100011000D02*
X114758000Y-100011000D01*
X111509000Y-100051000D02*
X114691000Y-100051000D01*
X111580000Y-100091000D02*
X114620000Y-100091000D01*
X111655000Y-100131000D02*
X114545000Y-100131000D01*
X111736000Y-100171000D02*
X114464000Y-100171000D01*
X111822000Y-100211000D02*
X114378000Y-100211000D01*
X111916000Y-100251000D02*
X114284000Y-100251000D01*
X112019000Y-100291000D02*
X114181000Y-100291000D01*
X112134000Y-100331000D02*
X114066000Y-100331000D01*
X112266000Y-100371000D02*
X113934000Y-100371000D01*
X112424000Y-100411000D02*
X113776000Y-100411000D01*
X112632000Y-100451000D02*
X113568000Y-100451000D01*
X113100000Y-93800000D02*
X113100000Y-95000000D01*
X112450000Y-94400000D02*
X113750000Y-94400000D01*
D13*
X89400000Y-101850000D02*
X89400000Y-102350000D01*
X90600000Y-102350000D02*
X90600000Y-101850000D01*
D12*
X130870000Y-53170000D02*
X125670000Y-53170000D01*
X125670000Y-53170000D02*
X125670000Y-50510000D01*
X125670000Y-50510000D02*
X130870000Y-50510000D01*
X130870000Y-50510000D02*
X130870000Y-53170000D01*
X129920000Y-50510000D02*
X129920000Y-44510000D01*
X129920000Y-44510000D02*
X129160000Y-44510000D01*
X129160000Y-44510000D02*
X129160000Y-50510000D01*
X129860000Y-50510000D02*
X129860000Y-44510000D01*
X129740000Y-50510000D02*
X129740000Y-44510000D01*
X129620000Y-50510000D02*
X129620000Y-44510000D01*
X129500000Y-50510000D02*
X129500000Y-44510000D01*
X129380000Y-50510000D02*
X129380000Y-44510000D01*
X129260000Y-50510000D02*
X129260000Y-44510000D01*
X129920000Y-53500000D02*
X129920000Y-53170000D01*
X129160000Y-53500000D02*
X129160000Y-53170000D01*
X128270000Y-53170000D02*
X128270000Y-50510000D01*
X127380000Y-50510000D02*
X127380000Y-44510000D01*
X127380000Y-44510000D02*
X126620000Y-44510000D01*
X126620000Y-44510000D02*
X126620000Y-50510000D01*
X127380000Y-53567071D02*
X127380000Y-53170000D01*
X126620000Y-53567071D02*
X126620000Y-53170000D01*
X129540000Y-55880000D02*
X130810000Y-55880000D01*
X130810000Y-55880000D02*
X130810000Y-54610000D01*
X124520000Y-53170000D02*
X119320000Y-53170000D01*
X119320000Y-53170000D02*
X119320000Y-50510000D01*
X119320000Y-50510000D02*
X124520000Y-50510000D01*
X124520000Y-50510000D02*
X124520000Y-53170000D01*
X123570000Y-50510000D02*
X123570000Y-44510000D01*
X123570000Y-44510000D02*
X122810000Y-44510000D01*
X122810000Y-44510000D02*
X122810000Y-50510000D01*
X123510000Y-50510000D02*
X123510000Y-44510000D01*
X123390000Y-50510000D02*
X123390000Y-44510000D01*
X123270000Y-50510000D02*
X123270000Y-44510000D01*
X123150000Y-50510000D02*
X123150000Y-44510000D01*
X123030000Y-50510000D02*
X123030000Y-44510000D01*
X122910000Y-50510000D02*
X122910000Y-44510000D01*
X123570000Y-53500000D02*
X123570000Y-53170000D01*
X122810000Y-53500000D02*
X122810000Y-53170000D01*
X121920000Y-53170000D02*
X121920000Y-50510000D01*
X121030000Y-50510000D02*
X121030000Y-44510000D01*
X121030000Y-44510000D02*
X120270000Y-44510000D01*
X120270000Y-44510000D02*
X120270000Y-50510000D01*
X121030000Y-53567071D02*
X121030000Y-53170000D01*
X120270000Y-53567071D02*
X120270000Y-53170000D01*
X123190000Y-55880000D02*
X124460000Y-55880000D01*
X124460000Y-55880000D02*
X124460000Y-54610000D01*
X111820000Y-53170000D02*
X106620000Y-53170000D01*
X106620000Y-53170000D02*
X106620000Y-50510000D01*
X106620000Y-50510000D02*
X111820000Y-50510000D01*
X111820000Y-50510000D02*
X111820000Y-53170000D01*
X110870000Y-50510000D02*
X110870000Y-44510000D01*
X110870000Y-44510000D02*
X110110000Y-44510000D01*
X110110000Y-44510000D02*
X110110000Y-50510000D01*
X110810000Y-50510000D02*
X110810000Y-44510000D01*
X110690000Y-50510000D02*
X110690000Y-44510000D01*
X110570000Y-50510000D02*
X110570000Y-44510000D01*
X110450000Y-50510000D02*
X110450000Y-44510000D01*
X110330000Y-50510000D02*
X110330000Y-44510000D01*
X110210000Y-50510000D02*
X110210000Y-44510000D01*
X110870000Y-53500000D02*
X110870000Y-53170000D01*
X110110000Y-53500000D02*
X110110000Y-53170000D01*
X109220000Y-53170000D02*
X109220000Y-50510000D01*
X108330000Y-50510000D02*
X108330000Y-44510000D01*
X108330000Y-44510000D02*
X107570000Y-44510000D01*
X107570000Y-44510000D02*
X107570000Y-50510000D01*
X108330000Y-53567071D02*
X108330000Y-53170000D01*
X107570000Y-53567071D02*
X107570000Y-53170000D01*
X110490000Y-55880000D02*
X111760000Y-55880000D01*
X111760000Y-55880000D02*
X111760000Y-54610000D01*
X118170000Y-53170000D02*
X112970000Y-53170000D01*
X112970000Y-53170000D02*
X112970000Y-50510000D01*
X112970000Y-50510000D02*
X118170000Y-50510000D01*
X118170000Y-50510000D02*
X118170000Y-53170000D01*
X117220000Y-50510000D02*
X117220000Y-44510000D01*
X117220000Y-44510000D02*
X116460000Y-44510000D01*
X116460000Y-44510000D02*
X116460000Y-50510000D01*
X117160000Y-50510000D02*
X117160000Y-44510000D01*
X117040000Y-50510000D02*
X117040000Y-44510000D01*
X116920000Y-50510000D02*
X116920000Y-44510000D01*
X116800000Y-50510000D02*
X116800000Y-44510000D01*
X116680000Y-50510000D02*
X116680000Y-44510000D01*
X116560000Y-50510000D02*
X116560000Y-44510000D01*
X117220000Y-53500000D02*
X117220000Y-53170000D01*
X116460000Y-53500000D02*
X116460000Y-53170000D01*
X115570000Y-53170000D02*
X115570000Y-50510000D01*
X114680000Y-50510000D02*
X114680000Y-44510000D01*
X114680000Y-44510000D02*
X113920000Y-44510000D01*
X113920000Y-44510000D02*
X113920000Y-50510000D01*
X114680000Y-53567071D02*
X114680000Y-53170000D01*
X113920000Y-53567071D02*
X113920000Y-53170000D01*
X116840000Y-55880000D02*
X118110000Y-55880000D01*
X118110000Y-55880000D02*
X118110000Y-54610000D01*
X82594278Y-46120277D02*
G75*
G02X87205580Y-46120000I2305722J-1179723D01*
G01*
X82594278Y-48479723D02*
G75*
G03X87205580Y-48480000I2305722J1179723D01*
G01*
X82594278Y-48479723D02*
G75*
G02X82594420Y-46120000I2305722J1179723D01*
G01*
X84900000Y-44750000D02*
X84900000Y-49850000D01*
X84860000Y-44750000D02*
X84860000Y-46320000D01*
X84860000Y-48280000D02*
X84860000Y-49850000D01*
X84820000Y-44751000D02*
X84820000Y-46320000D01*
X84820000Y-48280000D02*
X84820000Y-49849000D01*
X84780000Y-44752000D02*
X84780000Y-46320000D01*
X84780000Y-48280000D02*
X84780000Y-49848000D01*
X84740000Y-44754000D02*
X84740000Y-46320000D01*
X84740000Y-48280000D02*
X84740000Y-49846000D01*
X84700000Y-44757000D02*
X84700000Y-46320000D01*
X84700000Y-48280000D02*
X84700000Y-49843000D01*
X84660000Y-44761000D02*
X84660000Y-46320000D01*
X84660000Y-48280000D02*
X84660000Y-49839000D01*
X84620000Y-44765000D02*
X84620000Y-46320000D01*
X84620000Y-48280000D02*
X84620000Y-49835000D01*
X84580000Y-44769000D02*
X84580000Y-46320000D01*
X84580000Y-48280000D02*
X84580000Y-49831000D01*
X84540000Y-44775000D02*
X84540000Y-46320000D01*
X84540000Y-48280000D02*
X84540000Y-49825000D01*
X84500000Y-44781000D02*
X84500000Y-46320000D01*
X84500000Y-48280000D02*
X84500000Y-49819000D01*
X84460000Y-44787000D02*
X84460000Y-46320000D01*
X84460000Y-48280000D02*
X84460000Y-49813000D01*
X84420000Y-44794000D02*
X84420000Y-46320000D01*
X84420000Y-48280000D02*
X84420000Y-49806000D01*
X84380000Y-44802000D02*
X84380000Y-46320000D01*
X84380000Y-48280000D02*
X84380000Y-49798000D01*
X84340000Y-44811000D02*
X84340000Y-46320000D01*
X84340000Y-48280000D02*
X84340000Y-49789000D01*
X84300000Y-44820000D02*
X84300000Y-46320000D01*
X84300000Y-48280000D02*
X84300000Y-49780000D01*
X84260000Y-44830000D02*
X84260000Y-46320000D01*
X84260000Y-48280000D02*
X84260000Y-49770000D01*
X84220000Y-44840000D02*
X84220000Y-46320000D01*
X84220000Y-48280000D02*
X84220000Y-49760000D01*
X84179000Y-44852000D02*
X84179000Y-46320000D01*
X84179000Y-48280000D02*
X84179000Y-49748000D01*
X84139000Y-44864000D02*
X84139000Y-46320000D01*
X84139000Y-48280000D02*
X84139000Y-49736000D01*
X84099000Y-44876000D02*
X84099000Y-46320000D01*
X84099000Y-48280000D02*
X84099000Y-49724000D01*
X84059000Y-44890000D02*
X84059000Y-46320000D01*
X84059000Y-48280000D02*
X84059000Y-49710000D01*
X84019000Y-44904000D02*
X84019000Y-46320000D01*
X84019000Y-48280000D02*
X84019000Y-49696000D01*
X83979000Y-44918000D02*
X83979000Y-46320000D01*
X83979000Y-48280000D02*
X83979000Y-49682000D01*
X83939000Y-44934000D02*
X83939000Y-46320000D01*
X83939000Y-48280000D02*
X83939000Y-49666000D01*
X83899000Y-44950000D02*
X83899000Y-46320000D01*
X83899000Y-48280000D02*
X83899000Y-49650000D01*
X83859000Y-44967000D02*
X83859000Y-46320000D01*
X83859000Y-48280000D02*
X83859000Y-49633000D01*
X83819000Y-44985000D02*
X83819000Y-46320000D01*
X83819000Y-48280000D02*
X83819000Y-49615000D01*
X83779000Y-45004000D02*
X83779000Y-46320000D01*
X83779000Y-48280000D02*
X83779000Y-49596000D01*
X83739000Y-45024000D02*
X83739000Y-46320000D01*
X83739000Y-48280000D02*
X83739000Y-49576000D01*
X83699000Y-45044000D02*
X83699000Y-46320000D01*
X83699000Y-48280000D02*
X83699000Y-49556000D01*
X83659000Y-45066000D02*
X83659000Y-46320000D01*
X83659000Y-48280000D02*
X83659000Y-49534000D01*
X83619000Y-45088000D02*
X83619000Y-46320000D01*
X83619000Y-48280000D02*
X83619000Y-49512000D01*
X83579000Y-45111000D02*
X83579000Y-46320000D01*
X83579000Y-48280000D02*
X83579000Y-49489000D01*
X83539000Y-45135000D02*
X83539000Y-46320000D01*
X83539000Y-48280000D02*
X83539000Y-49465000D01*
X83499000Y-45160000D02*
X83499000Y-46320000D01*
X83499000Y-48280000D02*
X83499000Y-49440000D01*
X83459000Y-45187000D02*
X83459000Y-46320000D01*
X83459000Y-48280000D02*
X83459000Y-49413000D01*
X83419000Y-45214000D02*
X83419000Y-46320000D01*
X83419000Y-48280000D02*
X83419000Y-49386000D01*
X83379000Y-45242000D02*
X83379000Y-46320000D01*
X83379000Y-48280000D02*
X83379000Y-49358000D01*
X83339000Y-45272000D02*
X83339000Y-46320000D01*
X83339000Y-48280000D02*
X83339000Y-49328000D01*
X83299000Y-45303000D02*
X83299000Y-46320000D01*
X83299000Y-48280000D02*
X83299000Y-49297000D01*
X83259000Y-45335000D02*
X83259000Y-46320000D01*
X83259000Y-48280000D02*
X83259000Y-49265000D01*
X83219000Y-45368000D02*
X83219000Y-46320000D01*
X83219000Y-48280000D02*
X83219000Y-49232000D01*
X83179000Y-45403000D02*
X83179000Y-46320000D01*
X83179000Y-48280000D02*
X83179000Y-49197000D01*
X83139000Y-45439000D02*
X83139000Y-46320000D01*
X83139000Y-48280000D02*
X83139000Y-49161000D01*
X83099000Y-45477000D02*
X83099000Y-46320000D01*
X83099000Y-48280000D02*
X83099000Y-49123000D01*
X83059000Y-45517000D02*
X83059000Y-46320000D01*
X83059000Y-48280000D02*
X83059000Y-49083000D01*
X83019000Y-45558000D02*
X83019000Y-46320000D01*
X83019000Y-48280000D02*
X83019000Y-49042000D01*
X82979000Y-45601000D02*
X82979000Y-46320000D01*
X82979000Y-48280000D02*
X82979000Y-48999000D01*
X82939000Y-45646000D02*
X82939000Y-46320000D01*
X82939000Y-48280000D02*
X82939000Y-48954000D01*
X82899000Y-45694000D02*
X82899000Y-48906000D01*
X82859000Y-45744000D02*
X82859000Y-48856000D01*
X82819000Y-45796000D02*
X82819000Y-48804000D01*
X82779000Y-45852000D02*
X82779000Y-48748000D01*
X82739000Y-45910000D02*
X82739000Y-48690000D01*
X82699000Y-45973000D02*
X82699000Y-48627000D01*
X82659000Y-46039000D02*
X82659000Y-48561000D01*
X82619000Y-46111000D02*
X82619000Y-48489000D01*
X82579000Y-46188000D02*
X82579000Y-48412000D01*
X82539000Y-46272000D02*
X82539000Y-48328000D01*
X82499000Y-46366000D02*
X82499000Y-48234000D01*
X82459000Y-46471000D02*
X82459000Y-48129000D01*
X82419000Y-46593000D02*
X82419000Y-48007000D01*
X82379000Y-46741000D02*
X82379000Y-47859000D01*
X82339000Y-46946000D02*
X82339000Y-47654000D01*
X88100000Y-47300000D02*
X86900000Y-47300000D01*
X87500000Y-46650000D02*
X87500000Y-47950000D01*
D13*
X104700000Y-96850000D02*
X104700000Y-97350000D01*
X105900000Y-97350000D02*
X105900000Y-96850000D01*
D12*
X91410000Y-94530000D02*
X88790000Y-94530000D01*
X88790000Y-94530000D02*
X88790000Y-88110000D01*
X88790000Y-88110000D02*
X91410000Y-88110000D01*
X91410000Y-88110000D02*
X91410000Y-94530000D01*
X90100000Y-95420000D02*
X90100000Y-94530000D01*
X90100000Y-87220000D02*
X90100000Y-88110000D01*
D13*
X144050000Y-105100000D02*
X143550000Y-105100000D01*
X143550000Y-106300000D02*
X144050000Y-106300000D01*
X113450000Y-81700000D02*
X112950000Y-81700000D01*
X112950000Y-82900000D02*
X113450000Y-82900000D01*
D12*
X105370000Y-78070000D02*
X107990000Y-78070000D01*
X107990000Y-78070000D02*
X107990000Y-84490000D01*
X107990000Y-84490000D02*
X105370000Y-84490000D01*
X105370000Y-84490000D02*
X105370000Y-78070000D01*
X106680000Y-77180000D02*
X106680000Y-78070000D01*
X106680000Y-85380000D02*
X106680000Y-84490000D01*
D13*
X83750000Y-73800000D02*
X84250000Y-73800000D01*
X84250000Y-72600000D02*
X83750000Y-72600000D01*
X94100000Y-74050000D02*
X94100000Y-74550000D01*
X95300000Y-74550000D02*
X95300000Y-74050000D01*
X151950000Y-108700000D02*
X151450000Y-108700000D01*
X151450000Y-109900000D02*
X151950000Y-109900000D01*
D12*
X149778608Y-77757665D02*
G75*
G02X149935516Y-80990000I-1078608J-1672335D01*
G01*
X147621392Y-77757665D02*
G75*
G03X147464484Y-80990000I1078608J-1672335D01*
G01*
X149779837Y-78388870D02*
G75*
G02X149780000Y-80470961I-1079837J-1041130D01*
G01*
X147620163Y-78388870D02*
G75*
G03X147620000Y-80470961I1079837J-1041130D01*
G01*
X149936000Y-80990000D02*
X149780000Y-80990000D01*
X147620000Y-80990000D02*
X147464000Y-80990000D01*
X141725000Y-75900000D02*
X141725000Y-76810000D01*
X141725000Y-73600000D02*
X141725000Y-74500000D01*
X144800000Y-73590000D02*
X141725000Y-73590000D01*
X143875000Y-76810000D02*
X141725000Y-76810000D01*
D13*
X143925000Y-79200000D02*
X143925000Y-80000000D01*
X145275000Y-80000000D02*
X145275000Y-79200000D01*
X149050000Y-74425000D02*
X148250000Y-74425000D01*
X148250000Y-75775000D02*
X149050000Y-75775000D01*
D12*
X90260277Y-84585722D02*
G75*
G02X90260000Y-79974420I1179723J2305722D01*
G01*
X92619723Y-84585722D02*
G75*
G03X92620000Y-79974420I-1179723J2305722D01*
G01*
X92619723Y-84585722D02*
G75*
G02X90260000Y-84585580I-1179723J2305722D01*
G01*
X88890000Y-82280000D02*
X93990000Y-82280000D01*
X88890000Y-82320000D02*
X90460000Y-82320000D01*
X92420000Y-82320000D02*
X93990000Y-82320000D01*
X88891000Y-82360000D02*
X90460000Y-82360000D01*
X92420000Y-82360000D02*
X93989000Y-82360000D01*
X88892000Y-82400000D02*
X90460000Y-82400000D01*
X92420000Y-82400000D02*
X93988000Y-82400000D01*
X88894000Y-82440000D02*
X90460000Y-82440000D01*
X92420000Y-82440000D02*
X93986000Y-82440000D01*
X88897000Y-82480000D02*
X90460000Y-82480000D01*
X92420000Y-82480000D02*
X93983000Y-82480000D01*
X88901000Y-82520000D02*
X90460000Y-82520000D01*
X92420000Y-82520000D02*
X93979000Y-82520000D01*
X88905000Y-82560000D02*
X90460000Y-82560000D01*
X92420000Y-82560000D02*
X93975000Y-82560000D01*
X88909000Y-82600000D02*
X90460000Y-82600000D01*
X92420000Y-82600000D02*
X93971000Y-82600000D01*
X88915000Y-82640000D02*
X90460000Y-82640000D01*
X92420000Y-82640000D02*
X93965000Y-82640000D01*
X88921000Y-82680000D02*
X90460000Y-82680000D01*
X92420000Y-82680000D02*
X93959000Y-82680000D01*
X88927000Y-82720000D02*
X90460000Y-82720000D01*
X92420000Y-82720000D02*
X93953000Y-82720000D01*
X88934000Y-82760000D02*
X90460000Y-82760000D01*
X92420000Y-82760000D02*
X93946000Y-82760000D01*
X88942000Y-82800000D02*
X90460000Y-82800000D01*
X92420000Y-82800000D02*
X93938000Y-82800000D01*
X88951000Y-82840000D02*
X90460000Y-82840000D01*
X92420000Y-82840000D02*
X93929000Y-82840000D01*
X88960000Y-82880000D02*
X90460000Y-82880000D01*
X92420000Y-82880000D02*
X93920000Y-82880000D01*
X88970000Y-82920000D02*
X90460000Y-82920000D01*
X92420000Y-82920000D02*
X93910000Y-82920000D01*
X88980000Y-82960000D02*
X90460000Y-82960000D01*
X92420000Y-82960000D02*
X93900000Y-82960000D01*
X88992000Y-83001000D02*
X90460000Y-83001000D01*
X92420000Y-83001000D02*
X93888000Y-83001000D01*
X89004000Y-83041000D02*
X90460000Y-83041000D01*
X92420000Y-83041000D02*
X93876000Y-83041000D01*
X89016000Y-83081000D02*
X90460000Y-83081000D01*
X92420000Y-83081000D02*
X93864000Y-83081000D01*
X89030000Y-83121000D02*
X90460000Y-83121000D01*
X92420000Y-83121000D02*
X93850000Y-83121000D01*
X89044000Y-83161000D02*
X90460000Y-83161000D01*
X92420000Y-83161000D02*
X93836000Y-83161000D01*
X89058000Y-83201000D02*
X90460000Y-83201000D01*
X92420000Y-83201000D02*
X93822000Y-83201000D01*
X89074000Y-83241000D02*
X90460000Y-83241000D01*
X92420000Y-83241000D02*
X93806000Y-83241000D01*
X89090000Y-83281000D02*
X90460000Y-83281000D01*
X92420000Y-83281000D02*
X93790000Y-83281000D01*
X89107000Y-83321000D02*
X90460000Y-83321000D01*
X92420000Y-83321000D02*
X93773000Y-83321000D01*
X89125000Y-83361000D02*
X90460000Y-83361000D01*
X92420000Y-83361000D02*
X93755000Y-83361000D01*
X89144000Y-83401000D02*
X90460000Y-83401000D01*
X92420000Y-83401000D02*
X93736000Y-83401000D01*
X89164000Y-83441000D02*
X90460000Y-83441000D01*
X92420000Y-83441000D02*
X93716000Y-83441000D01*
X89184000Y-83481000D02*
X90460000Y-83481000D01*
X92420000Y-83481000D02*
X93696000Y-83481000D01*
X89206000Y-83521000D02*
X90460000Y-83521000D01*
X92420000Y-83521000D02*
X93674000Y-83521000D01*
X89228000Y-83561000D02*
X90460000Y-83561000D01*
X92420000Y-83561000D02*
X93652000Y-83561000D01*
X89251000Y-83601000D02*
X90460000Y-83601000D01*
X92420000Y-83601000D02*
X93629000Y-83601000D01*
X89275000Y-83641000D02*
X90460000Y-83641000D01*
X92420000Y-83641000D02*
X93605000Y-83641000D01*
X89300000Y-83681000D02*
X90460000Y-83681000D01*
X92420000Y-83681000D02*
X93580000Y-83681000D01*
X89327000Y-83721000D02*
X90460000Y-83721000D01*
X92420000Y-83721000D02*
X93553000Y-83721000D01*
X89354000Y-83761000D02*
X90460000Y-83761000D01*
X92420000Y-83761000D02*
X93526000Y-83761000D01*
X89382000Y-83801000D02*
X90460000Y-83801000D01*
X92420000Y-83801000D02*
X93498000Y-83801000D01*
X89412000Y-83841000D02*
X90460000Y-83841000D01*
X92420000Y-83841000D02*
X93468000Y-83841000D01*
X89443000Y-83881000D02*
X90460000Y-83881000D01*
X92420000Y-83881000D02*
X93437000Y-83881000D01*
X89475000Y-83921000D02*
X90460000Y-83921000D01*
X92420000Y-83921000D02*
X93405000Y-83921000D01*
X89508000Y-83961000D02*
X90460000Y-83961000D01*
X92420000Y-83961000D02*
X93372000Y-83961000D01*
X89543000Y-84001000D02*
X90460000Y-84001000D01*
X92420000Y-84001000D02*
X93337000Y-84001000D01*
X89579000Y-84041000D02*
X90460000Y-84041000D01*
X92420000Y-84041000D02*
X93301000Y-84041000D01*
X89617000Y-84081000D02*
X90460000Y-84081000D01*
X92420000Y-84081000D02*
X93263000Y-84081000D01*
X89657000Y-84121000D02*
X90460000Y-84121000D01*
X92420000Y-84121000D02*
X93223000Y-84121000D01*
X89698000Y-84161000D02*
X90460000Y-84161000D01*
X92420000Y-84161000D02*
X93182000Y-84161000D01*
X89741000Y-84201000D02*
X90460000Y-84201000D01*
X92420000Y-84201000D02*
X93139000Y-84201000D01*
X89786000Y-84241000D02*
X90460000Y-84241000D01*
X92420000Y-84241000D02*
X93094000Y-84241000D01*
X89834000Y-84281000D02*
X93046000Y-84281000D01*
X89884000Y-84321000D02*
X92996000Y-84321000D01*
X89936000Y-84361000D02*
X92944000Y-84361000D01*
X89992000Y-84401000D02*
X92888000Y-84401000D01*
X90050000Y-84441000D02*
X92830000Y-84441000D01*
X90113000Y-84481000D02*
X92767000Y-84481000D01*
X90179000Y-84521000D02*
X92701000Y-84521000D01*
X90251000Y-84561000D02*
X92629000Y-84561000D01*
X90328000Y-84601000D02*
X92552000Y-84601000D01*
X90412000Y-84641000D02*
X92468000Y-84641000D01*
X90506000Y-84681000D02*
X92374000Y-84681000D01*
X90611000Y-84721000D02*
X92269000Y-84721000D01*
X90733000Y-84761000D02*
X92147000Y-84761000D01*
X90881000Y-84801000D02*
X91999000Y-84801000D01*
X91086000Y-84841000D02*
X91794000Y-84841000D01*
X91440000Y-79080000D02*
X91440000Y-80280000D01*
X90790000Y-79680000D02*
X92090000Y-79680000D01*
X95020864Y-104667820D02*
G75*
G02X95020000Y-98632518I1179136J3017820D01*
G01*
X97379136Y-104667820D02*
G75*
G03X97380000Y-98632518I-1179136J3017820D01*
G01*
X97379136Y-104667820D02*
G75*
G02X95020000Y-104667482I-1179136J3017820D01*
G01*
X93000000Y-101650000D02*
X99400000Y-101650000D01*
X93000000Y-101690000D02*
X99400000Y-101690000D01*
X93000000Y-101730000D02*
X99400000Y-101730000D01*
X93002000Y-101770000D02*
X99398000Y-101770000D01*
X93003000Y-101810000D02*
X99397000Y-101810000D01*
X93006000Y-101850000D02*
X99394000Y-101850000D01*
X93008000Y-101890000D02*
X99392000Y-101890000D01*
X93012000Y-101930000D02*
X95220000Y-101930000D01*
X97180000Y-101930000D02*
X99388000Y-101930000D01*
X93015000Y-101970000D02*
X95220000Y-101970000D01*
X97180000Y-101970000D02*
X99385000Y-101970000D01*
X93020000Y-102010000D02*
X95220000Y-102010000D01*
X97180000Y-102010000D02*
X99380000Y-102010000D01*
X93024000Y-102050000D02*
X95220000Y-102050000D01*
X97180000Y-102050000D02*
X99376000Y-102050000D01*
X93030000Y-102090000D02*
X95220000Y-102090000D01*
X97180000Y-102090000D02*
X99370000Y-102090000D01*
X93035000Y-102130000D02*
X95220000Y-102130000D01*
X97180000Y-102130000D02*
X99365000Y-102130000D01*
X93042000Y-102170000D02*
X95220000Y-102170000D01*
X97180000Y-102170000D02*
X99358000Y-102170000D01*
X93048000Y-102210000D02*
X95220000Y-102210000D01*
X97180000Y-102210000D02*
X99352000Y-102210000D01*
X93056000Y-102250000D02*
X95220000Y-102250000D01*
X97180000Y-102250000D02*
X99344000Y-102250000D01*
X93063000Y-102290000D02*
X95220000Y-102290000D01*
X97180000Y-102290000D02*
X99337000Y-102290000D01*
X93072000Y-102330000D02*
X95220000Y-102330000D01*
X97180000Y-102330000D02*
X99328000Y-102330000D01*
X93081000Y-102371000D02*
X95220000Y-102371000D01*
X97180000Y-102371000D02*
X99319000Y-102371000D01*
X93090000Y-102411000D02*
X95220000Y-102411000D01*
X97180000Y-102411000D02*
X99310000Y-102411000D01*
X93100000Y-102451000D02*
X95220000Y-102451000D01*
X97180000Y-102451000D02*
X99300000Y-102451000D01*
X93110000Y-102491000D02*
X95220000Y-102491000D01*
X97180000Y-102491000D02*
X99290000Y-102491000D01*
X93121000Y-102531000D02*
X95220000Y-102531000D01*
X97180000Y-102531000D02*
X99279000Y-102531000D01*
X93133000Y-102571000D02*
X95220000Y-102571000D01*
X97180000Y-102571000D02*
X99267000Y-102571000D01*
X93145000Y-102611000D02*
X95220000Y-102611000D01*
X97180000Y-102611000D02*
X99255000Y-102611000D01*
X93158000Y-102651000D02*
X95220000Y-102651000D01*
X97180000Y-102651000D02*
X99242000Y-102651000D01*
X93171000Y-102691000D02*
X95220000Y-102691000D01*
X97180000Y-102691000D02*
X99229000Y-102691000D01*
X93185000Y-102731000D02*
X95220000Y-102731000D01*
X97180000Y-102731000D02*
X99215000Y-102731000D01*
X93199000Y-102771000D02*
X95220000Y-102771000D01*
X97180000Y-102771000D02*
X99201000Y-102771000D01*
X93214000Y-102811000D02*
X95220000Y-102811000D01*
X97180000Y-102811000D02*
X99186000Y-102811000D01*
X93230000Y-102851000D02*
X95220000Y-102851000D01*
X97180000Y-102851000D02*
X99170000Y-102851000D01*
X93246000Y-102891000D02*
X95220000Y-102891000D01*
X97180000Y-102891000D02*
X99154000Y-102891000D01*
X93263000Y-102931000D02*
X95220000Y-102931000D01*
X97180000Y-102931000D02*
X99137000Y-102931000D01*
X93281000Y-102971000D02*
X95220000Y-102971000D01*
X97180000Y-102971000D02*
X99119000Y-102971000D01*
X93299000Y-103011000D02*
X95220000Y-103011000D01*
X97180000Y-103011000D02*
X99101000Y-103011000D01*
X93318000Y-103051000D02*
X95220000Y-103051000D01*
X97180000Y-103051000D02*
X99082000Y-103051000D01*
X93337000Y-103091000D02*
X95220000Y-103091000D01*
X97180000Y-103091000D02*
X99063000Y-103091000D01*
X93357000Y-103131000D02*
X95220000Y-103131000D01*
X97180000Y-103131000D02*
X99043000Y-103131000D01*
X93378000Y-103171000D02*
X95220000Y-103171000D01*
X97180000Y-103171000D02*
X99022000Y-103171000D01*
X93400000Y-103211000D02*
X95220000Y-103211000D01*
X97180000Y-103211000D02*
X99000000Y-103211000D01*
X93422000Y-103251000D02*
X95220000Y-103251000D01*
X97180000Y-103251000D02*
X98978000Y-103251000D01*
X93445000Y-103291000D02*
X95220000Y-103291000D01*
X97180000Y-103291000D02*
X98955000Y-103291000D01*
X93469000Y-103331000D02*
X95220000Y-103331000D01*
X97180000Y-103331000D02*
X98931000Y-103331000D01*
X93494000Y-103371000D02*
X95220000Y-103371000D01*
X97180000Y-103371000D02*
X98906000Y-103371000D01*
X93519000Y-103411000D02*
X95220000Y-103411000D01*
X97180000Y-103411000D02*
X98881000Y-103411000D01*
X93546000Y-103451000D02*
X95220000Y-103451000D01*
X97180000Y-103451000D02*
X98854000Y-103451000D01*
X93573000Y-103491000D02*
X95220000Y-103491000D01*
X97180000Y-103491000D02*
X98827000Y-103491000D01*
X93601000Y-103531000D02*
X95220000Y-103531000D01*
X97180000Y-103531000D02*
X98799000Y-103531000D01*
X93630000Y-103571000D02*
X95220000Y-103571000D01*
X97180000Y-103571000D02*
X98770000Y-103571000D01*
X93660000Y-103611000D02*
X95220000Y-103611000D01*
X97180000Y-103611000D02*
X98740000Y-103611000D01*
X93690000Y-103651000D02*
X95220000Y-103651000D01*
X97180000Y-103651000D02*
X98710000Y-103651000D01*
X93722000Y-103691000D02*
X95220000Y-103691000D01*
X97180000Y-103691000D02*
X98678000Y-103691000D01*
X93755000Y-103731000D02*
X95220000Y-103731000D01*
X97180000Y-103731000D02*
X98645000Y-103731000D01*
X93789000Y-103771000D02*
X95220000Y-103771000D01*
X97180000Y-103771000D02*
X98611000Y-103771000D01*
X93825000Y-103811000D02*
X95220000Y-103811000D01*
X97180000Y-103811000D02*
X98575000Y-103811000D01*
X93861000Y-103851000D02*
X95220000Y-103851000D01*
X97180000Y-103851000D02*
X98539000Y-103851000D01*
X93899000Y-103891000D02*
X98501000Y-103891000D01*
X93938000Y-103931000D02*
X98462000Y-103931000D01*
X93978000Y-103971000D02*
X98422000Y-103971000D01*
X94020000Y-104011000D02*
X98380000Y-104011000D01*
X94063000Y-104051000D02*
X98337000Y-104051000D01*
X94108000Y-104091000D02*
X98292000Y-104091000D01*
X94155000Y-104131000D02*
X98245000Y-104131000D01*
X94203000Y-104171000D02*
X98197000Y-104171000D01*
X94254000Y-104211000D02*
X98146000Y-104211000D01*
X94306000Y-104251000D02*
X98094000Y-104251000D01*
X94361000Y-104291000D02*
X98039000Y-104291000D01*
X94419000Y-104331000D02*
X97981000Y-104331000D01*
X94479000Y-104371000D02*
X97921000Y-104371000D01*
X94542000Y-104411000D02*
X97858000Y-104411000D01*
X94609000Y-104451000D02*
X97791000Y-104451000D01*
X94680000Y-104491000D02*
X97720000Y-104491000D01*
X94755000Y-104531000D02*
X97645000Y-104531000D01*
X94836000Y-104571000D02*
X97564000Y-104571000D01*
X94922000Y-104611000D02*
X97478000Y-104611000D01*
X95016000Y-104651000D02*
X97384000Y-104651000D01*
X95119000Y-104691000D02*
X97281000Y-104691000D01*
X95234000Y-104731000D02*
X97166000Y-104731000D01*
X95366000Y-104771000D02*
X97034000Y-104771000D01*
X95524000Y-104811000D02*
X96876000Y-104811000D01*
X95732000Y-104851000D02*
X96668000Y-104851000D01*
X96200000Y-98200000D02*
X96200000Y-99400000D01*
X95550000Y-98800000D02*
X96850000Y-98800000D01*
D13*
X87500000Y-69950000D02*
X87500000Y-69450000D01*
X86300000Y-69450000D02*
X86300000Y-69950000D01*
X93300000Y-69950000D02*
X93300000Y-69450000D01*
X92100000Y-69450000D02*
X92100000Y-69950000D01*
X91850000Y-78400000D02*
X92350000Y-78400000D01*
X92350000Y-77200000D02*
X91850000Y-77200000D01*
X89450000Y-64800000D02*
X89950000Y-64800000D01*
X89950000Y-63600000D02*
X89450000Y-63600000D01*
X89450000Y-73800000D02*
X89950000Y-73800000D01*
X89950000Y-72600000D02*
X89450000Y-72600000D01*
X78775000Y-80000000D02*
X78775000Y-79200000D01*
X77425000Y-79200000D02*
X77425000Y-80000000D01*
D12*
X80060000Y-82070000D02*
X80060000Y-112670000D01*
X80060000Y-112670000D02*
X77400000Y-112670000D01*
X77400000Y-112670000D02*
X77400000Y-82070000D01*
X77400000Y-82070000D02*
X80060000Y-82070000D01*
X77400000Y-83020000D02*
X71400000Y-83020000D01*
X71400000Y-83020000D02*
X71400000Y-83780000D01*
X71400000Y-83780000D02*
X77400000Y-83780000D01*
X77400000Y-83080000D02*
X71400000Y-83080000D01*
X77400000Y-83200000D02*
X71400000Y-83200000D01*
X77400000Y-83320000D02*
X71400000Y-83320000D01*
X77400000Y-83440000D02*
X71400000Y-83440000D01*
X77400000Y-83560000D02*
X71400000Y-83560000D01*
X77400000Y-83680000D02*
X71400000Y-83680000D01*
X80390000Y-83020000D02*
X80060000Y-83020000D01*
X80390000Y-83780000D02*
X80060000Y-83780000D01*
X80060000Y-84670000D02*
X77400000Y-84670000D01*
X77400000Y-85560000D02*
X71400000Y-85560000D01*
X71400000Y-85560000D02*
X71400000Y-86320000D01*
X71400000Y-86320000D02*
X77400000Y-86320000D01*
X80457071Y-85560000D02*
X80060000Y-85560000D01*
X80457071Y-86320000D02*
X80060000Y-86320000D01*
X80060000Y-87210000D02*
X77400000Y-87210000D01*
X77400000Y-88100000D02*
X71400000Y-88100000D01*
X71400000Y-88100000D02*
X71400000Y-88860000D01*
X71400000Y-88860000D02*
X77400000Y-88860000D01*
X80457071Y-88100000D02*
X80060000Y-88100000D01*
X80457071Y-88860000D02*
X80060000Y-88860000D01*
X80060000Y-89750000D02*
X77400000Y-89750000D01*
X77400000Y-90640000D02*
X71400000Y-90640000D01*
X71400000Y-90640000D02*
X71400000Y-91400000D01*
X71400000Y-91400000D02*
X77400000Y-91400000D01*
X80457071Y-90640000D02*
X80060000Y-90640000D01*
X80457071Y-91400000D02*
X80060000Y-91400000D01*
X80060000Y-92290000D02*
X77400000Y-92290000D01*
X77400000Y-93180000D02*
X71400000Y-93180000D01*
X71400000Y-93180000D02*
X71400000Y-93940000D01*
X71400000Y-93940000D02*
X77400000Y-93940000D01*
X80457071Y-93180000D02*
X80060000Y-93180000D01*
X80457071Y-93940000D02*
X80060000Y-93940000D01*
X80060000Y-94830000D02*
X77400000Y-94830000D01*
X77400000Y-95720000D02*
X71400000Y-95720000D01*
X71400000Y-95720000D02*
X71400000Y-96480000D01*
X71400000Y-96480000D02*
X77400000Y-96480000D01*
X80457071Y-95720000D02*
X80060000Y-95720000D01*
X80457071Y-96480000D02*
X80060000Y-96480000D01*
X80060000Y-97370000D02*
X77400000Y-97370000D01*
X77400000Y-98260000D02*
X71400000Y-98260000D01*
X71400000Y-98260000D02*
X71400000Y-99020000D01*
X71400000Y-99020000D02*
X77400000Y-99020000D01*
X80457071Y-98260000D02*
X80060000Y-98260000D01*
X80457071Y-99020000D02*
X80060000Y-99020000D01*
X80060000Y-99910000D02*
X77400000Y-99910000D01*
X77400000Y-100800000D02*
X71400000Y-100800000D01*
X71400000Y-100800000D02*
X71400000Y-101560000D01*
X71400000Y-101560000D02*
X77400000Y-101560000D01*
X80457071Y-100800000D02*
X80060000Y-100800000D01*
X80457071Y-101560000D02*
X80060000Y-101560000D01*
X80060000Y-102450000D02*
X77400000Y-102450000D01*
X77400000Y-103340000D02*
X71400000Y-103340000D01*
X71400000Y-103340000D02*
X71400000Y-104100000D01*
X71400000Y-104100000D02*
X77400000Y-104100000D01*
X80457071Y-103340000D02*
X80060000Y-103340000D01*
X80457071Y-104100000D02*
X80060000Y-104100000D01*
X80060000Y-104990000D02*
X77400000Y-104990000D01*
X77400000Y-105880000D02*
X71400000Y-105880000D01*
X71400000Y-105880000D02*
X71400000Y-106640000D01*
X71400000Y-106640000D02*
X77400000Y-106640000D01*
X80457071Y-105880000D02*
X80060000Y-105880000D01*
X80457071Y-106640000D02*
X80060000Y-106640000D01*
X80060000Y-107530000D02*
X77400000Y-107530000D01*
X77400000Y-108420000D02*
X71400000Y-108420000D01*
X71400000Y-108420000D02*
X71400000Y-109180000D01*
X71400000Y-109180000D02*
X77400000Y-109180000D01*
X80457071Y-108420000D02*
X80060000Y-108420000D01*
X80457071Y-109180000D02*
X80060000Y-109180000D01*
X80060000Y-110070000D02*
X77400000Y-110070000D01*
X77400000Y-110960000D02*
X71400000Y-110960000D01*
X71400000Y-110960000D02*
X71400000Y-111720000D01*
X71400000Y-111720000D02*
X77400000Y-111720000D01*
X80457071Y-110960000D02*
X80060000Y-110960000D01*
X80457071Y-111720000D02*
X80060000Y-111720000D01*
X82770000Y-83400000D02*
X82770000Y-82130000D01*
X82770000Y-82130000D02*
X81500000Y-82130000D01*
X103800000Y-51550000D02*
X103800000Y-58850000D01*
X103800000Y-58850000D02*
X101800000Y-58850000D01*
X101800000Y-58850000D02*
X101800000Y-51550000D01*
X109800000Y-68750000D02*
X109800000Y-61450000D01*
X109800000Y-61450000D02*
X111800000Y-61450000D01*
X111800000Y-61450000D02*
X111800000Y-68750000D01*
X113600000Y-63695000D02*
X112690000Y-63695000D01*
X115900000Y-63695000D02*
X115000000Y-63695000D01*
X115910000Y-66770000D02*
X115910000Y-63695000D01*
X112690000Y-65845000D02*
X112690000Y-63695000D01*
D13*
X102500000Y-70075000D02*
X103300000Y-70075000D01*
X103300000Y-68725000D02*
X102500000Y-68725000D01*
X113625000Y-71990000D02*
X113625000Y-72790000D01*
X114975000Y-72790000D02*
X114975000Y-71990000D01*
D12*
X85520000Y-111940000D02*
X93260000Y-111940000D01*
X93260000Y-111940000D02*
X93260000Y-114600000D01*
X93260000Y-114600000D02*
X85520000Y-114600000D01*
X85520000Y-114600000D02*
X85520000Y-111940000D01*
X86470000Y-114600000D02*
X86470000Y-120600000D01*
X86470000Y-120600000D02*
X87230000Y-120600000D01*
X87230000Y-120600000D02*
X87230000Y-114600000D01*
X86530000Y-114600000D02*
X86530000Y-120600000D01*
X86650000Y-114600000D02*
X86650000Y-120600000D01*
X86770000Y-114600000D02*
X86770000Y-120600000D01*
X86890000Y-114600000D02*
X86890000Y-120600000D01*
X87010000Y-114600000D02*
X87010000Y-120600000D01*
X87130000Y-114600000D02*
X87130000Y-120600000D01*
X86470000Y-111610000D02*
X86470000Y-111940000D01*
X87230000Y-111610000D02*
X87230000Y-111940000D01*
X88120000Y-111940000D02*
X88120000Y-114600000D01*
X89010000Y-114600000D02*
X89010000Y-120600000D01*
X89010000Y-120600000D02*
X89770000Y-120600000D01*
X89770000Y-120600000D02*
X89770000Y-114600000D01*
X89010000Y-111542929D02*
X89010000Y-111940000D01*
X89770000Y-111542929D02*
X89770000Y-111940000D01*
X90660000Y-111940000D02*
X90660000Y-114600000D01*
X91550000Y-114600000D02*
X91550000Y-120600000D01*
X91550000Y-120600000D02*
X92310000Y-120600000D01*
X92310000Y-120600000D02*
X92310000Y-114600000D01*
X91550000Y-111542929D02*
X91550000Y-111940000D01*
X92310000Y-111542929D02*
X92310000Y-111940000D01*
X86850000Y-109230000D02*
X85580000Y-109230000D01*
X85580000Y-109230000D02*
X85580000Y-110500000D01*
D13*
X114150000Y-109325000D02*
X113350000Y-109325000D01*
X113350000Y-110675000D02*
X114150000Y-110675000D01*
X108300000Y-112525000D02*
X107500000Y-112525000D01*
X107500000Y-113875000D02*
X108300000Y-113875000D01*
X101600000Y-113875000D02*
X102400000Y-113875000D01*
X102400000Y-112525000D02*
X101600000Y-112525000D01*
X95700000Y-110675000D02*
X96500000Y-110675000D01*
X96500000Y-109325000D02*
X95700000Y-109325000D01*
X95900000Y-113800000D02*
X96400000Y-113800000D01*
X96400000Y-112600000D02*
X95900000Y-112600000D01*
X114050000Y-112600000D02*
X113550000Y-112600000D01*
X113550000Y-113800000D02*
X114050000Y-113800000D01*
X105917619Y-64674762D02*
X105870000Y-64579524D01*
X105774762Y-64484286D01*
X105631905Y-64341429D01*
X105584286Y-64246190D01*
X105584286Y-64150952D01*
X105822381Y-64198571D02*
X105774762Y-64103333D01*
X105679524Y-64008095D01*
X105489048Y-63960476D01*
X105155714Y-63960476D01*
X104965238Y-64008095D01*
X104870000Y-64103333D01*
X104822381Y-64198571D01*
X104822381Y-64389048D01*
X104870000Y-64484286D01*
X104965238Y-64579524D01*
X105155714Y-64627143D01*
X105489048Y-64627143D01*
X105679524Y-64579524D01*
X105774762Y-64484286D01*
X105822381Y-64389048D01*
X105822381Y-64198571D01*
X105155714Y-65484286D02*
X105822381Y-65484286D01*
X104774762Y-65246190D02*
X105489048Y-65008095D01*
X105489048Y-65627143D01*
X99176190Y-75723809D02*
X99652381Y-75723809D01*
X98652381Y-75390476D02*
X99176190Y-75723809D01*
X98652381Y-76057143D01*
X98747619Y-76342857D02*
X98700000Y-76390476D01*
X98652381Y-76485714D01*
X98652381Y-76723810D01*
X98700000Y-76819048D01*
X98747619Y-76866667D01*
X98842857Y-76914286D01*
X98938095Y-76914286D01*
X99080952Y-76866667D01*
X99652381Y-76295238D01*
X99652381Y-76914286D01*
X126016666Y-105957143D02*
X126064285Y-106004762D01*
X126207142Y-106052381D01*
X126302380Y-106052381D01*
X126445238Y-106004762D01*
X126540476Y-105909524D01*
X126588095Y-105814286D01*
X126635714Y-105623810D01*
X126635714Y-105480952D01*
X126588095Y-105290476D01*
X126540476Y-105195238D01*
X126445238Y-105100000D01*
X126302380Y-105052381D01*
X126207142Y-105052381D01*
X126064285Y-105100000D01*
X126016666Y-105147619D01*
X125635714Y-105147619D02*
X125588095Y-105100000D01*
X125492857Y-105052381D01*
X125254761Y-105052381D01*
X125159523Y-105100000D01*
X125111904Y-105147619D01*
X125064285Y-105242857D01*
X125064285Y-105338095D01*
X125111904Y-105480952D01*
X125683333Y-106052381D01*
X125064285Y-106052381D01*
X86707143Y-79133334D02*
X86754762Y-79085715D01*
X86802381Y-78942858D01*
X86802381Y-78847620D01*
X86754762Y-78704762D01*
X86659524Y-78609524D01*
X86564286Y-78561905D01*
X86373810Y-78514286D01*
X86230952Y-78514286D01*
X86040476Y-78561905D01*
X85945238Y-78609524D01*
X85850000Y-78704762D01*
X85802381Y-78847620D01*
X85802381Y-78942858D01*
X85850000Y-79085715D01*
X85897619Y-79133334D01*
X86135714Y-79990477D02*
X86802381Y-79990477D01*
X85754762Y-79752381D02*
X86469048Y-79514286D01*
X86469048Y-80133334D01*
X84166666Y-66357143D02*
X84214285Y-66404762D01*
X84357142Y-66452381D01*
X84452380Y-66452381D01*
X84595238Y-66404762D01*
X84690476Y-66309524D01*
X84738095Y-66214286D01*
X84785714Y-66023810D01*
X84785714Y-65880952D01*
X84738095Y-65690476D01*
X84690476Y-65595238D01*
X84595238Y-65500000D01*
X84452380Y-65452381D01*
X84357142Y-65452381D01*
X84214285Y-65500000D01*
X84166666Y-65547619D01*
X83309523Y-65452381D02*
X83500000Y-65452381D01*
X83595238Y-65500000D01*
X83642857Y-65547619D01*
X83738095Y-65690476D01*
X83785714Y-65880952D01*
X83785714Y-66261905D01*
X83738095Y-66357143D01*
X83690476Y-66404762D01*
X83595238Y-66452381D01*
X83404761Y-66452381D01*
X83309523Y-66404762D01*
X83261904Y-66357143D01*
X83214285Y-66261905D01*
X83214285Y-66023810D01*
X83261904Y-65928571D01*
X83309523Y-65880952D01*
X83404761Y-65833333D01*
X83595238Y-65833333D01*
X83690476Y-65880952D01*
X83738095Y-65928571D01*
X83785714Y-66023810D01*
X99357143Y-69633334D02*
X99404762Y-69585715D01*
X99452381Y-69442858D01*
X99452381Y-69347620D01*
X99404762Y-69204762D01*
X99309524Y-69109524D01*
X99214286Y-69061905D01*
X99023810Y-69014286D01*
X98880952Y-69014286D01*
X98690476Y-69061905D01*
X98595238Y-69109524D01*
X98500000Y-69204762D01*
X98452381Y-69347620D01*
X98452381Y-69442858D01*
X98500000Y-69585715D01*
X98547619Y-69633334D01*
X98452381Y-69966667D02*
X98452381Y-70633334D01*
X99452381Y-70204762D01*
X91266666Y-50552381D02*
X91600000Y-50076190D01*
X91838095Y-50552381D02*
X91838095Y-49552381D01*
X91457142Y-49552381D01*
X91361904Y-49600000D01*
X91314285Y-49647619D01*
X91266666Y-49742857D01*
X91266666Y-49885714D01*
X91314285Y-49980952D01*
X91361904Y-50028571D01*
X91457142Y-50076190D01*
X91838095Y-50076190D01*
X90314285Y-50552381D02*
X90885714Y-50552381D01*
X90600000Y-50552381D02*
X90600000Y-49552381D01*
X90695238Y-49695238D01*
X90790476Y-49790476D01*
X90885714Y-49838095D01*
X123366666Y-72152381D02*
X123700000Y-71676190D01*
X123938095Y-72152381D02*
X123938095Y-71152381D01*
X123557142Y-71152381D01*
X123461904Y-71200000D01*
X123414285Y-71247619D01*
X123366666Y-71342857D01*
X123366666Y-71485714D01*
X123414285Y-71580952D01*
X123461904Y-71628571D01*
X123557142Y-71676190D01*
X123938095Y-71676190D01*
X122985714Y-71247619D02*
X122938095Y-71200000D01*
X122842857Y-71152381D01*
X122604761Y-71152381D01*
X122509523Y-71200000D01*
X122461904Y-71247619D01*
X122414285Y-71342857D01*
X122414285Y-71438095D01*
X122461904Y-71580952D01*
X123033333Y-72152381D01*
X122414285Y-72152381D01*
X144052381Y-60733334D02*
X143576190Y-60400000D01*
X144052381Y-60161905D02*
X143052381Y-60161905D01*
X143052381Y-60542858D01*
X143100000Y-60638096D01*
X143147619Y-60685715D01*
X143242857Y-60733334D01*
X143385714Y-60733334D01*
X143480952Y-60685715D01*
X143528571Y-60638096D01*
X143576190Y-60542858D01*
X143576190Y-60161905D01*
X143052381Y-61066667D02*
X143052381Y-61685715D01*
X143433333Y-61352381D01*
X143433333Y-61495239D01*
X143480952Y-61590477D01*
X143528571Y-61638096D01*
X143623810Y-61685715D01*
X143861905Y-61685715D01*
X143957143Y-61638096D01*
X144004762Y-61590477D01*
X144052381Y-61495239D01*
X144052381Y-61209524D01*
X144004762Y-61114286D01*
X143957143Y-61066667D01*
X141352381Y-60733334D02*
X140876190Y-60400000D01*
X141352381Y-60161905D02*
X140352381Y-60161905D01*
X140352381Y-60542858D01*
X140400000Y-60638096D01*
X140447619Y-60685715D01*
X140542857Y-60733334D01*
X140685714Y-60733334D01*
X140780952Y-60685715D01*
X140828571Y-60638096D01*
X140876190Y-60542858D01*
X140876190Y-60161905D01*
X140685714Y-61590477D02*
X141352381Y-61590477D01*
X140304762Y-61352381D02*
X141019048Y-61114286D01*
X141019048Y-61733334D01*
X138852381Y-60733334D02*
X138376190Y-60400000D01*
X138852381Y-60161905D02*
X137852381Y-60161905D01*
X137852381Y-60542858D01*
X137900000Y-60638096D01*
X137947619Y-60685715D01*
X138042857Y-60733334D01*
X138185714Y-60733334D01*
X138280952Y-60685715D01*
X138328571Y-60638096D01*
X138376190Y-60542858D01*
X138376190Y-60161905D01*
X137852381Y-61638096D02*
X137852381Y-61161905D01*
X138328571Y-61114286D01*
X138280952Y-61161905D01*
X138233333Y-61257143D01*
X138233333Y-61495239D01*
X138280952Y-61590477D01*
X138328571Y-61638096D01*
X138423810Y-61685715D01*
X138661905Y-61685715D01*
X138757143Y-61638096D01*
X138804762Y-61590477D01*
X138852381Y-61495239D01*
X138852381Y-61257143D01*
X138804762Y-61161905D01*
X138757143Y-61114286D01*
X136252381Y-60733334D02*
X135776190Y-60400000D01*
X136252381Y-60161905D02*
X135252381Y-60161905D01*
X135252381Y-60542858D01*
X135300000Y-60638096D01*
X135347619Y-60685715D01*
X135442857Y-60733334D01*
X135585714Y-60733334D01*
X135680952Y-60685715D01*
X135728571Y-60638096D01*
X135776190Y-60542858D01*
X135776190Y-60161905D01*
X135252381Y-61590477D02*
X135252381Y-61400000D01*
X135300000Y-61304762D01*
X135347619Y-61257143D01*
X135490476Y-61161905D01*
X135680952Y-61114286D01*
X136061905Y-61114286D01*
X136157143Y-61161905D01*
X136204762Y-61209524D01*
X136252381Y-61304762D01*
X136252381Y-61495239D01*
X136204762Y-61590477D01*
X136157143Y-61638096D01*
X136061905Y-61685715D01*
X135823810Y-61685715D01*
X135728571Y-61638096D01*
X135680952Y-61590477D01*
X135633333Y-61495239D01*
X135633333Y-61304762D01*
X135680952Y-61209524D01*
X135728571Y-61161905D01*
X135823810Y-61114286D01*
X135677381Y-68383334D02*
X135201190Y-68050000D01*
X135677381Y-67811905D02*
X134677381Y-67811905D01*
X134677381Y-68192858D01*
X134725000Y-68288096D01*
X134772619Y-68335715D01*
X134867857Y-68383334D01*
X135010714Y-68383334D01*
X135105952Y-68335715D01*
X135153571Y-68288096D01*
X135201190Y-68192858D01*
X135201190Y-67811905D01*
X134677381Y-68716667D02*
X134677381Y-69383334D01*
X135677381Y-68954762D01*
X123816666Y-113507143D02*
X123864285Y-113554762D01*
X124007142Y-113602381D01*
X124102380Y-113602381D01*
X124245238Y-113554762D01*
X124340476Y-113459524D01*
X124388095Y-113364286D01*
X124435714Y-113173810D01*
X124435714Y-113030952D01*
X124388095Y-112840476D01*
X124340476Y-112745238D01*
X124245238Y-112650000D01*
X124102380Y-112602381D01*
X124007142Y-112602381D01*
X123864285Y-112650000D01*
X123816666Y-112697619D01*
X122864285Y-113602381D02*
X123435714Y-113602381D01*
X123150000Y-113602381D02*
X123150000Y-112602381D01*
X123245238Y-112745238D01*
X123340476Y-112840476D01*
X123435714Y-112888095D01*
X154657143Y-79843334D02*
X154704762Y-79795715D01*
X154752381Y-79652858D01*
X154752381Y-79557620D01*
X154704762Y-79414762D01*
X154609524Y-79319524D01*
X154514286Y-79271905D01*
X154323810Y-79224286D01*
X154180952Y-79224286D01*
X153990476Y-79271905D01*
X153895238Y-79319524D01*
X153800000Y-79414762D01*
X153752381Y-79557620D01*
X153752381Y-79652858D01*
X153800000Y-79795715D01*
X153847619Y-79843334D01*
X153752381Y-80748096D02*
X153752381Y-80271905D01*
X154228571Y-80224286D01*
X154180952Y-80271905D01*
X154133333Y-80367143D01*
X154133333Y-80605239D01*
X154180952Y-80700477D01*
X154228571Y-80748096D01*
X154323810Y-80795715D01*
X154561905Y-80795715D01*
X154657143Y-80748096D01*
X154704762Y-80700477D01*
X154752381Y-80605239D01*
X154752381Y-80367143D01*
X154704762Y-80271905D01*
X154657143Y-80224286D01*
X85557143Y-60233334D02*
X85604762Y-60185715D01*
X85652381Y-60042858D01*
X85652381Y-59947620D01*
X85604762Y-59804762D01*
X85509524Y-59709524D01*
X85414286Y-59661905D01*
X85223810Y-59614286D01*
X85080952Y-59614286D01*
X84890476Y-59661905D01*
X84795238Y-59709524D01*
X84700000Y-59804762D01*
X84652381Y-59947620D01*
X84652381Y-60042858D01*
X84700000Y-60185715D01*
X84747619Y-60233334D01*
X85080952Y-60804762D02*
X85033333Y-60709524D01*
X84985714Y-60661905D01*
X84890476Y-60614286D01*
X84842857Y-60614286D01*
X84747619Y-60661905D01*
X84700000Y-60709524D01*
X84652381Y-60804762D01*
X84652381Y-60995239D01*
X84700000Y-61090477D01*
X84747619Y-61138096D01*
X84842857Y-61185715D01*
X84890476Y-61185715D01*
X84985714Y-61138096D01*
X85033333Y-61090477D01*
X85080952Y-60995239D01*
X85080952Y-60804762D01*
X85128571Y-60709524D01*
X85176190Y-60661905D01*
X85271429Y-60614286D01*
X85461905Y-60614286D01*
X85557143Y-60661905D01*
X85604762Y-60709524D01*
X85652381Y-60804762D01*
X85652381Y-60995239D01*
X85604762Y-61090477D01*
X85557143Y-61138096D01*
X85461905Y-61185715D01*
X85271429Y-61185715D01*
X85176190Y-61138096D01*
X85128571Y-61090477D01*
X85080952Y-60995239D01*
X91257143Y-60233334D02*
X91304762Y-60185715D01*
X91352381Y-60042858D01*
X91352381Y-59947620D01*
X91304762Y-59804762D01*
X91209524Y-59709524D01*
X91114286Y-59661905D01*
X90923810Y-59614286D01*
X90780952Y-59614286D01*
X90590476Y-59661905D01*
X90495238Y-59709524D01*
X90400000Y-59804762D01*
X90352381Y-59947620D01*
X90352381Y-60042858D01*
X90400000Y-60185715D01*
X90447619Y-60233334D01*
X91352381Y-60709524D02*
X91352381Y-60900000D01*
X91304762Y-60995239D01*
X91257143Y-61042858D01*
X91114286Y-61138096D01*
X90923810Y-61185715D01*
X90542857Y-61185715D01*
X90447619Y-61138096D01*
X90400000Y-61090477D01*
X90352381Y-60995239D01*
X90352381Y-60804762D01*
X90400000Y-60709524D01*
X90447619Y-60661905D01*
X90542857Y-60614286D01*
X90780952Y-60614286D01*
X90876190Y-60661905D01*
X90923810Y-60709524D01*
X90971429Y-60804762D01*
X90971429Y-60995239D01*
X90923810Y-61090477D01*
X90876190Y-61138096D01*
X90780952Y-61185715D01*
X139557143Y-67857143D02*
X139604762Y-67809524D01*
X139652381Y-67666667D01*
X139652381Y-67571429D01*
X139604762Y-67428571D01*
X139509524Y-67333333D01*
X139414286Y-67285714D01*
X139223810Y-67238095D01*
X139080952Y-67238095D01*
X138890476Y-67285714D01*
X138795238Y-67333333D01*
X138700000Y-67428571D01*
X138652381Y-67571429D01*
X138652381Y-67666667D01*
X138700000Y-67809524D01*
X138747619Y-67857143D01*
X139652381Y-68809524D02*
X139652381Y-68238095D01*
X139652381Y-68523809D02*
X138652381Y-68523809D01*
X138795238Y-68428571D01*
X138890476Y-68333333D01*
X138938095Y-68238095D01*
X138747619Y-69190476D02*
X138700000Y-69238095D01*
X138652381Y-69333333D01*
X138652381Y-69571429D01*
X138700000Y-69666667D01*
X138747619Y-69714286D01*
X138842857Y-69761905D01*
X138938095Y-69761905D01*
X139080952Y-69714286D01*
X139652381Y-69142857D01*
X139652381Y-69761905D01*
X77852381Y-47361905D02*
X76852381Y-47361905D01*
X76852381Y-47600000D01*
X76900000Y-47742858D01*
X76995238Y-47838096D01*
X77090476Y-47885715D01*
X77280952Y-47933334D01*
X77423810Y-47933334D01*
X77614286Y-47885715D01*
X77709524Y-47838096D01*
X77804762Y-47742858D01*
X77852381Y-47600000D01*
X77852381Y-47361905D01*
X77852381Y-48885715D02*
X77852381Y-48314286D01*
X77852381Y-48600000D02*
X76852381Y-48600000D01*
X76995238Y-48504762D01*
X77090476Y-48409524D01*
X77138095Y-48314286D01*
X91838095Y-57052381D02*
X91838095Y-56052381D01*
X91600000Y-56052381D01*
X91457142Y-56100000D01*
X91361904Y-56195238D01*
X91314285Y-56290476D01*
X91266666Y-56480952D01*
X91266666Y-56623810D01*
X91314285Y-56814286D01*
X91361904Y-56909524D01*
X91457142Y-57004762D01*
X91600000Y-57052381D01*
X91838095Y-57052381D01*
X90885714Y-56147619D02*
X90838095Y-56100000D01*
X90742857Y-56052381D01*
X90504761Y-56052381D01*
X90409523Y-56100000D01*
X90361904Y-56147619D01*
X90314285Y-56242857D01*
X90314285Y-56338095D01*
X90361904Y-56480952D01*
X90933333Y-57052381D01*
X90314285Y-57052381D01*
X158982381Y-46796667D02*
X159696667Y-46796667D01*
X159839524Y-46749047D01*
X159934762Y-46653809D01*
X159982381Y-46510952D01*
X159982381Y-46415714D01*
X159982381Y-47796667D02*
X159982381Y-47225238D01*
X159982381Y-47510952D02*
X158982381Y-47510952D01*
X159125238Y-47415714D01*
X159220476Y-47320476D01*
X159268095Y-47225238D01*
X157559333Y-61682381D02*
X157559333Y-62396667D01*
X157606953Y-62539524D01*
X157702191Y-62634762D01*
X157845048Y-62682381D01*
X157940286Y-62682381D01*
X156654571Y-62015714D02*
X156654571Y-62682381D01*
X156892667Y-61634762D02*
X157130762Y-62349048D01*
X156511714Y-62349048D01*
X121247619Y-64704762D02*
X121200000Y-64609524D01*
X121104762Y-64514286D01*
X120961905Y-64371429D01*
X120914286Y-64276190D01*
X120914286Y-64180952D01*
X121152381Y-64228571D02*
X121104762Y-64133333D01*
X121009524Y-64038095D01*
X120819048Y-63990476D01*
X120485714Y-63990476D01*
X120295238Y-64038095D01*
X120200000Y-64133333D01*
X120152381Y-64228571D01*
X120152381Y-64419048D01*
X120200000Y-64514286D01*
X120295238Y-64609524D01*
X120485714Y-64657143D01*
X120819048Y-64657143D01*
X121009524Y-64609524D01*
X121104762Y-64514286D01*
X121152381Y-64419048D01*
X121152381Y-64228571D01*
X121152381Y-65609524D02*
X121152381Y-65038095D01*
X121152381Y-65323809D02*
X120152381Y-65323809D01*
X120295238Y-65228571D01*
X120390476Y-65133333D01*
X120438095Y-65038095D01*
X129695238Y-66647619D02*
X129790476Y-66600000D01*
X129885714Y-66504762D01*
X130028571Y-66361905D01*
X130123810Y-66314286D01*
X130219048Y-66314286D01*
X130171429Y-66552381D02*
X130266667Y-66504762D01*
X130361905Y-66409524D01*
X130409524Y-66219048D01*
X130409524Y-65885714D01*
X130361905Y-65695238D01*
X130266667Y-65600000D01*
X130171429Y-65552381D01*
X129980952Y-65552381D01*
X129885714Y-65600000D01*
X129790476Y-65695238D01*
X129742857Y-65885714D01*
X129742857Y-66219048D01*
X129790476Y-66409524D01*
X129885714Y-66504762D01*
X129980952Y-66552381D01*
X130171429Y-66552381D01*
X129361905Y-65647619D02*
X129314286Y-65600000D01*
X129219048Y-65552381D01*
X128980952Y-65552381D01*
X128885714Y-65600000D01*
X128838095Y-65647619D01*
X128790476Y-65742857D01*
X128790476Y-65838095D01*
X128838095Y-65980952D01*
X129409524Y-66552381D01*
X128790476Y-66552381D01*
X133852381Y-60733334D02*
X133376190Y-60400000D01*
X133852381Y-60161905D02*
X132852381Y-60161905D01*
X132852381Y-60542858D01*
X132900000Y-60638096D01*
X132947619Y-60685715D01*
X133042857Y-60733334D01*
X133185714Y-60733334D01*
X133280952Y-60685715D01*
X133328571Y-60638096D01*
X133376190Y-60542858D01*
X133376190Y-60161905D01*
X133280952Y-61304762D02*
X133233333Y-61209524D01*
X133185714Y-61161905D01*
X133090476Y-61114286D01*
X133042857Y-61114286D01*
X132947619Y-61161905D01*
X132900000Y-61209524D01*
X132852381Y-61304762D01*
X132852381Y-61495239D01*
X132900000Y-61590477D01*
X132947619Y-61638096D01*
X133042857Y-61685715D01*
X133090476Y-61685715D01*
X133185714Y-61638096D01*
X133233333Y-61590477D01*
X133280952Y-61495239D01*
X133280952Y-61304762D01*
X133328571Y-61209524D01*
X133376190Y-61161905D01*
X133471429Y-61114286D01*
X133661905Y-61114286D01*
X133757143Y-61161905D01*
X133804762Y-61209524D01*
X133852381Y-61304762D01*
X133852381Y-61495239D01*
X133804762Y-61590477D01*
X133757143Y-61638096D01*
X133661905Y-61685715D01*
X133471429Y-61685715D01*
X133376190Y-61638096D01*
X133328571Y-61590477D01*
X133280952Y-61495239D01*
X135702381Y-73493334D02*
X135226190Y-73160000D01*
X135702381Y-72921905D02*
X134702381Y-72921905D01*
X134702381Y-73302858D01*
X134750000Y-73398096D01*
X134797619Y-73445715D01*
X134892857Y-73493334D01*
X135035714Y-73493334D01*
X135130952Y-73445715D01*
X135178571Y-73398096D01*
X135226190Y-73302858D01*
X135226190Y-72921905D01*
X135702381Y-73969524D02*
X135702381Y-74160000D01*
X135654762Y-74255239D01*
X135607143Y-74302858D01*
X135464286Y-74398096D01*
X135273810Y-74445715D01*
X134892857Y-74445715D01*
X134797619Y-74398096D01*
X134750000Y-74350477D01*
X134702381Y-74255239D01*
X134702381Y-74064762D01*
X134750000Y-73969524D01*
X134797619Y-73921905D01*
X134892857Y-73874286D01*
X135130952Y-73874286D01*
X135226190Y-73921905D01*
X135273810Y-73969524D01*
X135321429Y-74064762D01*
X135321429Y-74255239D01*
X135273810Y-74350477D01*
X135226190Y-74398096D01*
X135130952Y-74445715D01*
X147962857Y-93792381D02*
X148296191Y-93316190D01*
X148534286Y-93792381D02*
X148534286Y-92792381D01*
X148153333Y-92792381D01*
X148058095Y-92840000D01*
X148010476Y-92887619D01*
X147962857Y-92982857D01*
X147962857Y-93125714D01*
X148010476Y-93220952D01*
X148058095Y-93268571D01*
X148153333Y-93316190D01*
X148534286Y-93316190D01*
X147010476Y-93792381D02*
X147581905Y-93792381D01*
X147296191Y-93792381D02*
X147296191Y-92792381D01*
X147391429Y-92935238D01*
X147486667Y-93030476D01*
X147581905Y-93078095D01*
X146391429Y-92792381D02*
X146296190Y-92792381D01*
X146200952Y-92840000D01*
X146153333Y-92887619D01*
X146105714Y-92982857D01*
X146058095Y-93173333D01*
X146058095Y-93411429D01*
X146105714Y-93601905D01*
X146153333Y-93697143D01*
X146200952Y-93744762D01*
X146296190Y-93792381D01*
X146391429Y-93792381D01*
X146486667Y-93744762D01*
X146534286Y-93697143D01*
X146581905Y-93601905D01*
X146629524Y-93411429D01*
X146629524Y-93173333D01*
X146581905Y-92982857D01*
X146534286Y-92887619D01*
X146486667Y-92840000D01*
X146391429Y-92792381D01*
X147962857Y-97602381D02*
X148296191Y-97126190D01*
X148534286Y-97602381D02*
X148534286Y-96602381D01*
X148153333Y-96602381D01*
X148058095Y-96650000D01*
X148010476Y-96697619D01*
X147962857Y-96792857D01*
X147962857Y-96935714D01*
X148010476Y-97030952D01*
X148058095Y-97078571D01*
X148153333Y-97126190D01*
X148534286Y-97126190D01*
X147010476Y-97602381D02*
X147581905Y-97602381D01*
X147296191Y-97602381D02*
X147296191Y-96602381D01*
X147391429Y-96745238D01*
X147486667Y-96840476D01*
X147581905Y-96888095D01*
X146058095Y-97602381D02*
X146629524Y-97602381D01*
X146343810Y-97602381D02*
X146343810Y-96602381D01*
X146439048Y-96745238D01*
X146534286Y-96840476D01*
X146629524Y-96888095D01*
X154652381Y-85657143D02*
X154176190Y-85323809D01*
X154652381Y-85085714D02*
X153652381Y-85085714D01*
X153652381Y-85466667D01*
X153700000Y-85561905D01*
X153747619Y-85609524D01*
X153842857Y-85657143D01*
X153985714Y-85657143D01*
X154080952Y-85609524D01*
X154128571Y-85561905D01*
X154176190Y-85466667D01*
X154176190Y-85085714D01*
X154652381Y-86609524D02*
X154652381Y-86038095D01*
X154652381Y-86323809D02*
X153652381Y-86323809D01*
X153795238Y-86228571D01*
X153890476Y-86133333D01*
X153938095Y-86038095D01*
X153747619Y-86990476D02*
X153700000Y-87038095D01*
X153652381Y-87133333D01*
X153652381Y-87371429D01*
X153700000Y-87466667D01*
X153747619Y-87514286D01*
X153842857Y-87561905D01*
X153938095Y-87561905D01*
X154080952Y-87514286D01*
X154652381Y-86942857D01*
X154652381Y-87561905D01*
X98242857Y-88077381D02*
X98576191Y-87601190D01*
X98814286Y-88077381D02*
X98814286Y-87077381D01*
X98433333Y-87077381D01*
X98338095Y-87125000D01*
X98290476Y-87172619D01*
X98242857Y-87267857D01*
X98242857Y-87410714D01*
X98290476Y-87505952D01*
X98338095Y-87553571D01*
X98433333Y-87601190D01*
X98814286Y-87601190D01*
X97290476Y-88077381D02*
X97861905Y-88077381D01*
X97576191Y-88077381D02*
X97576191Y-87077381D01*
X97671429Y-87220238D01*
X97766667Y-87315476D01*
X97861905Y-87363095D01*
X96957143Y-87077381D02*
X96338095Y-87077381D01*
X96671429Y-87458333D01*
X96528571Y-87458333D01*
X96433333Y-87505952D01*
X96385714Y-87553571D01*
X96338095Y-87648810D01*
X96338095Y-87886905D01*
X96385714Y-87982143D01*
X96433333Y-88029762D01*
X96528571Y-88077381D01*
X96814286Y-88077381D01*
X96909524Y-88029762D01*
X96957143Y-87982143D01*
X98217857Y-90752381D02*
X98551191Y-90276190D01*
X98789286Y-90752381D02*
X98789286Y-89752381D01*
X98408333Y-89752381D01*
X98313095Y-89800000D01*
X98265476Y-89847619D01*
X98217857Y-89942857D01*
X98217857Y-90085714D01*
X98265476Y-90180952D01*
X98313095Y-90228571D01*
X98408333Y-90276190D01*
X98789286Y-90276190D01*
X97265476Y-90752381D02*
X97836905Y-90752381D01*
X97551191Y-90752381D02*
X97551191Y-89752381D01*
X97646429Y-89895238D01*
X97741667Y-89990476D01*
X97836905Y-90038095D01*
X96408333Y-90085714D02*
X96408333Y-90752381D01*
X96646429Y-89704762D02*
X96884524Y-90419048D01*
X96265476Y-90419048D01*
X78752381Y-60457143D02*
X78276190Y-60123809D01*
X78752381Y-59885714D02*
X77752381Y-59885714D01*
X77752381Y-60266667D01*
X77800000Y-60361905D01*
X77847619Y-60409524D01*
X77942857Y-60457143D01*
X78085714Y-60457143D01*
X78180952Y-60409524D01*
X78228571Y-60361905D01*
X78276190Y-60266667D01*
X78276190Y-59885714D01*
X78752381Y-61409524D02*
X78752381Y-60838095D01*
X78752381Y-61123809D02*
X77752381Y-61123809D01*
X77895238Y-61028571D01*
X77990476Y-60933333D01*
X78038095Y-60838095D01*
X77752381Y-62314286D02*
X77752381Y-61838095D01*
X78228571Y-61790476D01*
X78180952Y-61838095D01*
X78133333Y-61933333D01*
X78133333Y-62171429D01*
X78180952Y-62266667D01*
X78228571Y-62314286D01*
X78323810Y-62361905D01*
X78561905Y-62361905D01*
X78657143Y-62314286D01*
X78704762Y-62266667D01*
X78752381Y-62171429D01*
X78752381Y-61933333D01*
X78704762Y-61838095D01*
X78657143Y-61790476D01*
X128242857Y-70452381D02*
X128576191Y-69976190D01*
X128814286Y-70452381D02*
X128814286Y-69452381D01*
X128433333Y-69452381D01*
X128338095Y-69500000D01*
X128290476Y-69547619D01*
X128242857Y-69642857D01*
X128242857Y-69785714D01*
X128290476Y-69880952D01*
X128338095Y-69928571D01*
X128433333Y-69976190D01*
X128814286Y-69976190D01*
X127290476Y-70452381D02*
X127861905Y-70452381D01*
X127576191Y-70452381D02*
X127576191Y-69452381D01*
X127671429Y-69595238D01*
X127766667Y-69690476D01*
X127861905Y-69738095D01*
X126433333Y-69452381D02*
X126623810Y-69452381D01*
X126719048Y-69500000D01*
X126766667Y-69547619D01*
X126861905Y-69690476D01*
X126909524Y-69880952D01*
X126909524Y-70261905D01*
X126861905Y-70357143D01*
X126814286Y-70404762D01*
X126719048Y-70452381D01*
X126528571Y-70452381D01*
X126433333Y-70404762D01*
X126385714Y-70357143D01*
X126338095Y-70261905D01*
X126338095Y-70023810D01*
X126385714Y-69928571D01*
X126433333Y-69880952D01*
X126528571Y-69833333D01*
X126719048Y-69833333D01*
X126814286Y-69880952D01*
X126861905Y-69928571D01*
X126909524Y-70023810D01*
X111132857Y-72212381D02*
X111466191Y-71736190D01*
X111704286Y-72212381D02*
X111704286Y-71212381D01*
X111323333Y-71212381D01*
X111228095Y-71260000D01*
X111180476Y-71307619D01*
X111132857Y-71402857D01*
X111132857Y-71545714D01*
X111180476Y-71640952D01*
X111228095Y-71688571D01*
X111323333Y-71736190D01*
X111704286Y-71736190D01*
X110180476Y-72212381D02*
X110751905Y-72212381D01*
X110466191Y-72212381D02*
X110466191Y-71212381D01*
X110561429Y-71355238D01*
X110656667Y-71450476D01*
X110751905Y-71498095D01*
X109847143Y-71212381D02*
X109180476Y-71212381D01*
X109609048Y-72212381D01*
X118752857Y-72212381D02*
X119086191Y-71736190D01*
X119324286Y-72212381D02*
X119324286Y-71212381D01*
X118943333Y-71212381D01*
X118848095Y-71260000D01*
X118800476Y-71307619D01*
X118752857Y-71402857D01*
X118752857Y-71545714D01*
X118800476Y-71640952D01*
X118848095Y-71688571D01*
X118943333Y-71736190D01*
X119324286Y-71736190D01*
X117800476Y-72212381D02*
X118371905Y-72212381D01*
X118086191Y-72212381D02*
X118086191Y-71212381D01*
X118181429Y-71355238D01*
X118276667Y-71450476D01*
X118371905Y-71498095D01*
X117229048Y-71640952D02*
X117324286Y-71593333D01*
X117371905Y-71545714D01*
X117419524Y-71450476D01*
X117419524Y-71402857D01*
X117371905Y-71307619D01*
X117324286Y-71260000D01*
X117229048Y-71212381D01*
X117038571Y-71212381D01*
X116943333Y-71260000D01*
X116895714Y-71307619D01*
X116848095Y-71402857D01*
X116848095Y-71450476D01*
X116895714Y-71545714D01*
X116943333Y-71593333D01*
X117038571Y-71640952D01*
X117229048Y-71640952D01*
X117324286Y-71688571D01*
X117371905Y-71736190D01*
X117419524Y-71831429D01*
X117419524Y-72021905D01*
X117371905Y-72117143D01*
X117324286Y-72164762D01*
X117229048Y-72212381D01*
X117038571Y-72212381D01*
X116943333Y-72164762D01*
X116895714Y-72117143D01*
X116848095Y-72021905D01*
X116848095Y-71831429D01*
X116895714Y-71736190D01*
X116943333Y-71688571D01*
X117038571Y-71640952D01*
X83142857Y-69252381D02*
X83476191Y-68776190D01*
X83714286Y-69252381D02*
X83714286Y-68252381D01*
X83333333Y-68252381D01*
X83238095Y-68300000D01*
X83190476Y-68347619D01*
X83142857Y-68442857D01*
X83142857Y-68585714D01*
X83190476Y-68680952D01*
X83238095Y-68728571D01*
X83333333Y-68776190D01*
X83714286Y-68776190D01*
X82761905Y-68347619D02*
X82714286Y-68300000D01*
X82619048Y-68252381D01*
X82380952Y-68252381D01*
X82285714Y-68300000D01*
X82238095Y-68347619D01*
X82190476Y-68442857D01*
X82190476Y-68538095D01*
X82238095Y-68680952D01*
X82809524Y-69252381D01*
X82190476Y-69252381D01*
X81571429Y-68252381D02*
X81476190Y-68252381D01*
X81380952Y-68300000D01*
X81333333Y-68347619D01*
X81285714Y-68442857D01*
X81238095Y-68633333D01*
X81238095Y-68871429D01*
X81285714Y-69061905D01*
X81333333Y-69157143D01*
X81380952Y-69204762D01*
X81476190Y-69252381D01*
X81571429Y-69252381D01*
X81666667Y-69204762D01*
X81714286Y-69157143D01*
X81761905Y-69061905D01*
X81809524Y-68871429D01*
X81809524Y-68633333D01*
X81761905Y-68442857D01*
X81714286Y-68347619D01*
X81666667Y-68300000D01*
X81571429Y-68252381D01*
X141392381Y-100708095D02*
X142201905Y-100708095D01*
X142297143Y-100755714D01*
X142344762Y-100803333D01*
X142392381Y-100898571D01*
X142392381Y-101089048D01*
X142344762Y-101184286D01*
X142297143Y-101231905D01*
X142201905Y-101279524D01*
X141392381Y-101279524D01*
X142392381Y-102279524D02*
X142392381Y-101708095D01*
X142392381Y-101993809D02*
X141392381Y-101993809D01*
X141535238Y-101898571D01*
X141630476Y-101803333D01*
X141678095Y-101708095D01*
X98572381Y-80518095D02*
X99381905Y-80518095D01*
X99477143Y-80565714D01*
X99524762Y-80613333D01*
X99572381Y-80708571D01*
X99572381Y-80899048D01*
X99524762Y-80994286D01*
X99477143Y-81041905D01*
X99381905Y-81089524D01*
X98572381Y-81089524D01*
X98667619Y-81518095D02*
X98620000Y-81565714D01*
X98572381Y-81660952D01*
X98572381Y-81899048D01*
X98620000Y-81994286D01*
X98667619Y-82041905D01*
X98762857Y-82089524D01*
X98858095Y-82089524D01*
X99000952Y-82041905D01*
X99572381Y-81470476D01*
X99572381Y-82089524D01*
X149172381Y-85598095D02*
X149981905Y-85598095D01*
X150077143Y-85645714D01*
X150124762Y-85693333D01*
X150172381Y-85788571D01*
X150172381Y-85979048D01*
X150124762Y-86074286D01*
X150077143Y-86121905D01*
X149981905Y-86169524D01*
X149172381Y-86169524D01*
X149172381Y-86550476D02*
X149172381Y-87169524D01*
X149553333Y-86836190D01*
X149553333Y-86979048D01*
X149600952Y-87074286D01*
X149648571Y-87121905D01*
X149743810Y-87169524D01*
X149981905Y-87169524D01*
X150077143Y-87121905D01*
X150124762Y-87074286D01*
X150172381Y-86979048D01*
X150172381Y-86693333D01*
X150124762Y-86598095D01*
X150077143Y-86550476D01*
X160432381Y-105918095D02*
X161241905Y-105918095D01*
X161337143Y-105965714D01*
X161384762Y-106013333D01*
X161432381Y-106108571D01*
X161432381Y-106299048D01*
X161384762Y-106394286D01*
X161337143Y-106441905D01*
X161241905Y-106489524D01*
X160432381Y-106489524D01*
X160765714Y-107394286D02*
X161432381Y-107394286D01*
X160384762Y-107156190D02*
X161099048Y-106918095D01*
X161099048Y-107537143D01*
X123521905Y-80912381D02*
X123521905Y-81721905D01*
X123474286Y-81817143D01*
X123426667Y-81864762D01*
X123331429Y-81912381D01*
X123140952Y-81912381D01*
X123045714Y-81864762D01*
X122998095Y-81817143D01*
X122950476Y-81721905D01*
X122950476Y-80912381D01*
X121998095Y-80912381D02*
X122474286Y-80912381D01*
X122521905Y-81388571D01*
X122474286Y-81340952D01*
X122379048Y-81293333D01*
X122140952Y-81293333D01*
X122045714Y-81340952D01*
X121998095Y-81388571D01*
X121950476Y-81483810D01*
X121950476Y-81721905D01*
X121998095Y-81817143D01*
X122045714Y-81864762D01*
X122140952Y-81912381D01*
X122379048Y-81912381D01*
X122474286Y-81864762D01*
X122521905Y-81817143D01*
X123441905Y-92762381D02*
X123441905Y-93571905D01*
X123394286Y-93667143D01*
X123346667Y-93714762D01*
X123251429Y-93762381D01*
X123060952Y-93762381D01*
X122965714Y-93714762D01*
X122918095Y-93667143D01*
X122870476Y-93571905D01*
X122870476Y-92762381D01*
X121965714Y-92762381D02*
X122156191Y-92762381D01*
X122251429Y-92810000D01*
X122299048Y-92857619D01*
X122394286Y-93000476D01*
X122441905Y-93190952D01*
X122441905Y-93571905D01*
X122394286Y-93667143D01*
X122346667Y-93714762D01*
X122251429Y-93762381D01*
X122060952Y-93762381D01*
X121965714Y-93714762D01*
X121918095Y-93667143D01*
X121870476Y-93571905D01*
X121870476Y-93333810D01*
X121918095Y-93238571D01*
X121965714Y-93190952D01*
X122060952Y-93143333D01*
X122251429Y-93143333D01*
X122346667Y-93190952D01*
X122394286Y-93238571D01*
X122441905Y-93333810D01*
X132656191Y-107811190D02*
X132656191Y-108287381D01*
X132989524Y-107287381D02*
X132656191Y-107811190D01*
X132322857Y-107287381D01*
X131465714Y-108287381D02*
X132037143Y-108287381D01*
X131751429Y-108287381D02*
X131751429Y-107287381D01*
X131846667Y-107430238D01*
X131941905Y-107525476D01*
X132037143Y-107573095D01*
X146442857Y-65057143D02*
X146490476Y-65104762D01*
X146633333Y-65152381D01*
X146728571Y-65152381D01*
X146871429Y-65104762D01*
X146966667Y-65009524D01*
X147014286Y-64914286D01*
X147061905Y-64723810D01*
X147061905Y-64580952D01*
X147014286Y-64390476D01*
X146966667Y-64295238D01*
X146871429Y-64200000D01*
X146728571Y-64152381D01*
X146633333Y-64152381D01*
X146490476Y-64200000D01*
X146442857Y-64247619D01*
X145490476Y-65152381D02*
X146061905Y-65152381D01*
X145776191Y-65152381D02*
X145776191Y-64152381D01*
X145871429Y-64295238D01*
X145966667Y-64390476D01*
X146061905Y-64438095D01*
X144538095Y-65152381D02*
X145109524Y-65152381D01*
X144823810Y-65152381D02*
X144823810Y-64152381D01*
X144919048Y-64295238D01*
X145014286Y-64390476D01*
X145109524Y-64438095D01*
X110297143Y-87007143D02*
X110344762Y-86959524D01*
X110392381Y-86816667D01*
X110392381Y-86721429D01*
X110344762Y-86578571D01*
X110249524Y-86483333D01*
X110154286Y-86435714D01*
X109963810Y-86388095D01*
X109820952Y-86388095D01*
X109630476Y-86435714D01*
X109535238Y-86483333D01*
X109440000Y-86578571D01*
X109392381Y-86721429D01*
X109392381Y-86816667D01*
X109440000Y-86959524D01*
X109487619Y-87007143D01*
X110392381Y-87959524D02*
X110392381Y-87388095D01*
X110392381Y-87673809D02*
X109392381Y-87673809D01*
X109535238Y-87578571D01*
X109630476Y-87483333D01*
X109678095Y-87388095D01*
X109392381Y-88292857D02*
X109392381Y-88911905D01*
X109773333Y-88578571D01*
X109773333Y-88721429D01*
X109820952Y-88816667D01*
X109868571Y-88864286D01*
X109963810Y-88911905D01*
X110201905Y-88911905D01*
X110297143Y-88864286D01*
X110344762Y-88816667D01*
X110392381Y-88721429D01*
X110392381Y-88435714D01*
X110344762Y-88340476D01*
X110297143Y-88292857D01*
X108997143Y-96607143D02*
X109044762Y-96559524D01*
X109092381Y-96416667D01*
X109092381Y-96321429D01*
X109044762Y-96178571D01*
X108949524Y-96083333D01*
X108854286Y-96035714D01*
X108663810Y-95988095D01*
X108520952Y-95988095D01*
X108330476Y-96035714D01*
X108235238Y-96083333D01*
X108140000Y-96178571D01*
X108092381Y-96321429D01*
X108092381Y-96416667D01*
X108140000Y-96559524D01*
X108187619Y-96607143D01*
X109092381Y-97559524D02*
X109092381Y-96988095D01*
X109092381Y-97273809D02*
X108092381Y-97273809D01*
X108235238Y-97178571D01*
X108330476Y-97083333D01*
X108378095Y-96988095D01*
X108092381Y-98464286D02*
X108092381Y-97988095D01*
X108568571Y-97940476D01*
X108520952Y-97988095D01*
X108473333Y-98083333D01*
X108473333Y-98321429D01*
X108520952Y-98416667D01*
X108568571Y-98464286D01*
X108663810Y-98511905D01*
X108901905Y-98511905D01*
X108997143Y-98464286D01*
X109044762Y-98416667D01*
X109092381Y-98321429D01*
X109092381Y-98083333D01*
X109044762Y-97988095D01*
X108997143Y-97940476D01*
X91957143Y-101457143D02*
X92004762Y-101409524D01*
X92052381Y-101266667D01*
X92052381Y-101171429D01*
X92004762Y-101028571D01*
X91909524Y-100933333D01*
X91814286Y-100885714D01*
X91623810Y-100838095D01*
X91480952Y-100838095D01*
X91290476Y-100885714D01*
X91195238Y-100933333D01*
X91100000Y-101028571D01*
X91052381Y-101171429D01*
X91052381Y-101266667D01*
X91100000Y-101409524D01*
X91147619Y-101457143D01*
X92052381Y-102409524D02*
X92052381Y-101838095D01*
X92052381Y-102123809D02*
X91052381Y-102123809D01*
X91195238Y-102028571D01*
X91290476Y-101933333D01*
X91338095Y-101838095D01*
X91480952Y-102980952D02*
X91433333Y-102885714D01*
X91385714Y-102838095D01*
X91290476Y-102790476D01*
X91242857Y-102790476D01*
X91147619Y-102838095D01*
X91100000Y-102885714D01*
X91052381Y-102980952D01*
X91052381Y-103171429D01*
X91100000Y-103266667D01*
X91147619Y-103314286D01*
X91242857Y-103361905D01*
X91290476Y-103361905D01*
X91385714Y-103314286D01*
X91433333Y-103266667D01*
X91480952Y-103171429D01*
X91480952Y-102980952D01*
X91528571Y-102885714D01*
X91576190Y-102838095D01*
X91671429Y-102790476D01*
X91861905Y-102790476D01*
X91957143Y-102838095D01*
X92004762Y-102885714D01*
X92052381Y-102980952D01*
X92052381Y-103171429D01*
X92004762Y-103266667D01*
X91957143Y-103314286D01*
X91861905Y-103361905D01*
X91671429Y-103361905D01*
X91576190Y-103314286D01*
X91528571Y-103266667D01*
X91480952Y-103171429D01*
X128603333Y-56602381D02*
X128603333Y-57316667D01*
X128650953Y-57459524D01*
X128746191Y-57554762D01*
X128889048Y-57602381D01*
X128984286Y-57602381D01*
X128222381Y-56602381D02*
X127603333Y-56602381D01*
X127936667Y-56983333D01*
X127793809Y-56983333D01*
X127698571Y-57030952D01*
X127650952Y-57078571D01*
X127603333Y-57173810D01*
X127603333Y-57411905D01*
X127650952Y-57507143D01*
X127698571Y-57554762D01*
X127793809Y-57602381D01*
X128079524Y-57602381D01*
X128174762Y-57554762D01*
X128222381Y-57507143D01*
X122253333Y-56602381D02*
X122253333Y-57316667D01*
X122300953Y-57459524D01*
X122396191Y-57554762D01*
X122539048Y-57602381D01*
X122634286Y-57602381D01*
X121300952Y-56602381D02*
X121777143Y-56602381D01*
X121824762Y-57078571D01*
X121777143Y-57030952D01*
X121681905Y-56983333D01*
X121443809Y-56983333D01*
X121348571Y-57030952D01*
X121300952Y-57078571D01*
X121253333Y-57173810D01*
X121253333Y-57411905D01*
X121300952Y-57507143D01*
X121348571Y-57554762D01*
X121443809Y-57602381D01*
X121681905Y-57602381D01*
X121777143Y-57554762D01*
X121824762Y-57507143D01*
X109553333Y-56602381D02*
X109553333Y-57316667D01*
X109600953Y-57459524D01*
X109696191Y-57554762D01*
X109839048Y-57602381D01*
X109934286Y-57602381D01*
X108934286Y-57030952D02*
X109029524Y-56983333D01*
X109077143Y-56935714D01*
X109124762Y-56840476D01*
X109124762Y-56792857D01*
X109077143Y-56697619D01*
X109029524Y-56650000D01*
X108934286Y-56602381D01*
X108743809Y-56602381D01*
X108648571Y-56650000D01*
X108600952Y-56697619D01*
X108553333Y-56792857D01*
X108553333Y-56840476D01*
X108600952Y-56935714D01*
X108648571Y-56983333D01*
X108743809Y-57030952D01*
X108934286Y-57030952D01*
X109029524Y-57078571D01*
X109077143Y-57126190D01*
X109124762Y-57221429D01*
X109124762Y-57411905D01*
X109077143Y-57507143D01*
X109029524Y-57554762D01*
X108934286Y-57602381D01*
X108743809Y-57602381D01*
X108648571Y-57554762D01*
X108600952Y-57507143D01*
X108553333Y-57411905D01*
X108553333Y-57221429D01*
X108600952Y-57126190D01*
X108648571Y-57078571D01*
X108743809Y-57030952D01*
X115903333Y-56602381D02*
X115903333Y-57316667D01*
X115950953Y-57459524D01*
X116046191Y-57554762D01*
X116189048Y-57602381D01*
X116284286Y-57602381D01*
X115379524Y-57602381D02*
X115189048Y-57602381D01*
X115093809Y-57554762D01*
X115046190Y-57507143D01*
X114950952Y-57364286D01*
X114903333Y-57173810D01*
X114903333Y-56792857D01*
X114950952Y-56697619D01*
X114998571Y-56650000D01*
X115093809Y-56602381D01*
X115284286Y-56602381D01*
X115379524Y-56650000D01*
X115427143Y-56697619D01*
X115474762Y-56792857D01*
X115474762Y-57030952D01*
X115427143Y-57126190D01*
X115379524Y-57173810D01*
X115284286Y-57221429D01*
X115093809Y-57221429D01*
X114998571Y-57173810D01*
X114950952Y-57126190D01*
X114903333Y-57030952D01*
X85742857Y-51257143D02*
X85790476Y-51304762D01*
X85933333Y-51352381D01*
X86028571Y-51352381D01*
X86171429Y-51304762D01*
X86266667Y-51209524D01*
X86314286Y-51114286D01*
X86361905Y-50923810D01*
X86361905Y-50780952D01*
X86314286Y-50590476D01*
X86266667Y-50495238D01*
X86171429Y-50400000D01*
X86028571Y-50352381D01*
X85933333Y-50352381D01*
X85790476Y-50400000D01*
X85742857Y-50447619D01*
X84790476Y-51352381D02*
X85361905Y-51352381D01*
X85076191Y-51352381D02*
X85076191Y-50352381D01*
X85171429Y-50495238D01*
X85266667Y-50590476D01*
X85361905Y-50638095D01*
X84171429Y-50352381D02*
X84076190Y-50352381D01*
X83980952Y-50400000D01*
X83933333Y-50447619D01*
X83885714Y-50542857D01*
X83838095Y-50733333D01*
X83838095Y-50971429D01*
X83885714Y-51161905D01*
X83933333Y-51257143D01*
X83980952Y-51304762D01*
X84076190Y-51352381D01*
X84171429Y-51352381D01*
X84266667Y-51304762D01*
X84314286Y-51257143D01*
X84361905Y-51161905D01*
X84409524Y-50971429D01*
X84409524Y-50733333D01*
X84361905Y-50542857D01*
X84314286Y-50447619D01*
X84266667Y-50400000D01*
X84171429Y-50352381D01*
X105892857Y-100457143D02*
X105940476Y-100504762D01*
X106083333Y-100552381D01*
X106178571Y-100552381D01*
X106321429Y-100504762D01*
X106416667Y-100409524D01*
X106464286Y-100314286D01*
X106511905Y-100123810D01*
X106511905Y-99980952D01*
X106464286Y-99790476D01*
X106416667Y-99695238D01*
X106321429Y-99600000D01*
X106178571Y-99552381D01*
X106083333Y-99552381D01*
X105940476Y-99600000D01*
X105892857Y-99647619D01*
X104940476Y-100552381D02*
X105511905Y-100552381D01*
X105226191Y-100552381D02*
X105226191Y-99552381D01*
X105321429Y-99695238D01*
X105416667Y-99790476D01*
X105511905Y-99838095D01*
X104083333Y-99552381D02*
X104273810Y-99552381D01*
X104369048Y-99600000D01*
X104416667Y-99647619D01*
X104511905Y-99790476D01*
X104559524Y-99980952D01*
X104559524Y-100361905D01*
X104511905Y-100457143D01*
X104464286Y-100504762D01*
X104369048Y-100552381D01*
X104178571Y-100552381D01*
X104083333Y-100504762D01*
X104035714Y-100457143D01*
X103988095Y-100361905D01*
X103988095Y-100123810D01*
X104035714Y-100028571D01*
X104083333Y-99980952D01*
X104178571Y-99933333D01*
X104369048Y-99933333D01*
X104464286Y-99980952D01*
X104511905Y-100028571D01*
X104559524Y-100123810D01*
X92902381Y-94883334D02*
X92902381Y-94407143D01*
X91902381Y-94407143D01*
X92902381Y-95740477D02*
X92902381Y-95169048D01*
X92902381Y-95454762D02*
X91902381Y-95454762D01*
X92045238Y-95359524D01*
X92140476Y-95264286D01*
X92188095Y-95169048D01*
X144442857Y-107857143D02*
X144490476Y-107904762D01*
X144633333Y-107952381D01*
X144728571Y-107952381D01*
X144871429Y-107904762D01*
X144966667Y-107809524D01*
X145014286Y-107714286D01*
X145061905Y-107523810D01*
X145061905Y-107380952D01*
X145014286Y-107190476D01*
X144966667Y-107095238D01*
X144871429Y-107000000D01*
X144728571Y-106952381D01*
X144633333Y-106952381D01*
X144490476Y-107000000D01*
X144442857Y-107047619D01*
X144061905Y-107047619D02*
X144014286Y-107000000D01*
X143919048Y-106952381D01*
X143680952Y-106952381D01*
X143585714Y-107000000D01*
X143538095Y-107047619D01*
X143490476Y-107142857D01*
X143490476Y-107238095D01*
X143538095Y-107380952D01*
X144109524Y-107952381D01*
X143490476Y-107952381D01*
X142538095Y-107952381D02*
X143109524Y-107952381D01*
X142823810Y-107952381D02*
X142823810Y-106952381D01*
X142919048Y-107095238D01*
X143014286Y-107190476D01*
X143109524Y-107238095D01*
X113842857Y-81057143D02*
X113890476Y-81104762D01*
X114033333Y-81152381D01*
X114128571Y-81152381D01*
X114271429Y-81104762D01*
X114366667Y-81009524D01*
X114414286Y-80914286D01*
X114461905Y-80723810D01*
X114461905Y-80580952D01*
X114414286Y-80390476D01*
X114366667Y-80295238D01*
X114271429Y-80200000D01*
X114128571Y-80152381D01*
X114033333Y-80152381D01*
X113890476Y-80200000D01*
X113842857Y-80247619D01*
X112890476Y-81152381D02*
X113461905Y-81152381D01*
X113176191Y-81152381D02*
X113176191Y-80152381D01*
X113271429Y-80295238D01*
X113366667Y-80390476D01*
X113461905Y-80438095D01*
X112033333Y-80485714D02*
X112033333Y-81152381D01*
X112271429Y-80104762D02*
X112509524Y-80819048D01*
X111890476Y-80819048D01*
X109282381Y-79733334D02*
X109282381Y-79257143D01*
X108282381Y-79257143D01*
X108282381Y-79971429D02*
X108282381Y-80590477D01*
X108663333Y-80257143D01*
X108663333Y-80400001D01*
X108710952Y-80495239D01*
X108758571Y-80542858D01*
X108853810Y-80590477D01*
X109091905Y-80590477D01*
X109187143Y-80542858D01*
X109234762Y-80495239D01*
X109282381Y-80400001D01*
X109282381Y-80114286D01*
X109234762Y-80019048D01*
X109187143Y-79971429D01*
X84642857Y-75257143D02*
X84690476Y-75304762D01*
X84833333Y-75352381D01*
X84928571Y-75352381D01*
X85071429Y-75304762D01*
X85166667Y-75209524D01*
X85214286Y-75114286D01*
X85261905Y-74923810D01*
X85261905Y-74780952D01*
X85214286Y-74590476D01*
X85166667Y-74495238D01*
X85071429Y-74400000D01*
X84928571Y-74352381D01*
X84833333Y-74352381D01*
X84690476Y-74400000D01*
X84642857Y-74447619D01*
X84261905Y-74447619D02*
X84214286Y-74400000D01*
X84119048Y-74352381D01*
X83880952Y-74352381D01*
X83785714Y-74400000D01*
X83738095Y-74447619D01*
X83690476Y-74542857D01*
X83690476Y-74638095D01*
X83738095Y-74780952D01*
X84309524Y-75352381D01*
X83690476Y-75352381D01*
X83309524Y-74447619D02*
X83261905Y-74400000D01*
X83166667Y-74352381D01*
X82928571Y-74352381D01*
X82833333Y-74400000D01*
X82785714Y-74447619D01*
X82738095Y-74542857D01*
X82738095Y-74638095D01*
X82785714Y-74780952D01*
X83357143Y-75352381D01*
X82738095Y-75352381D01*
X96857143Y-73657143D02*
X96904762Y-73609524D01*
X96952381Y-73466667D01*
X96952381Y-73371429D01*
X96904762Y-73228571D01*
X96809524Y-73133333D01*
X96714286Y-73085714D01*
X96523810Y-73038095D01*
X96380952Y-73038095D01*
X96190476Y-73085714D01*
X96095238Y-73133333D01*
X96000000Y-73228571D01*
X95952381Y-73371429D01*
X95952381Y-73466667D01*
X96000000Y-73609524D01*
X96047619Y-73657143D01*
X96047619Y-74038095D02*
X96000000Y-74085714D01*
X95952381Y-74180952D01*
X95952381Y-74419048D01*
X96000000Y-74514286D01*
X96047619Y-74561905D01*
X96142857Y-74609524D01*
X96238095Y-74609524D01*
X96380952Y-74561905D01*
X96952381Y-73990476D01*
X96952381Y-74609524D01*
X95952381Y-74942857D02*
X95952381Y-75561905D01*
X96333333Y-75228571D01*
X96333333Y-75371429D01*
X96380952Y-75466667D01*
X96428571Y-75514286D01*
X96523810Y-75561905D01*
X96761905Y-75561905D01*
X96857143Y-75514286D01*
X96904762Y-75466667D01*
X96952381Y-75371429D01*
X96952381Y-75085714D01*
X96904762Y-74990476D01*
X96857143Y-74942857D01*
X152342857Y-111457143D02*
X152390476Y-111504762D01*
X152533333Y-111552381D01*
X152628571Y-111552381D01*
X152771429Y-111504762D01*
X152866667Y-111409524D01*
X152914286Y-111314286D01*
X152961905Y-111123810D01*
X152961905Y-110980952D01*
X152914286Y-110790476D01*
X152866667Y-110695238D01*
X152771429Y-110600000D01*
X152628571Y-110552381D01*
X152533333Y-110552381D01*
X152390476Y-110600000D01*
X152342857Y-110647619D01*
X151961905Y-110647619D02*
X151914286Y-110600000D01*
X151819048Y-110552381D01*
X151580952Y-110552381D01*
X151485714Y-110600000D01*
X151438095Y-110647619D01*
X151390476Y-110742857D01*
X151390476Y-110838095D01*
X151438095Y-110980952D01*
X152009524Y-111552381D01*
X151390476Y-111552381D01*
X150533333Y-110885714D02*
X150533333Y-111552381D01*
X150771429Y-110504762D02*
X151009524Y-111219048D01*
X150390476Y-111219048D01*
X149488095Y-83152381D02*
X149488095Y-82152381D01*
X149250000Y-82152381D01*
X149107142Y-82200000D01*
X149011904Y-82295238D01*
X148964285Y-82390476D01*
X148916666Y-82580952D01*
X148916666Y-82723810D01*
X148964285Y-82914286D01*
X149011904Y-83009524D01*
X149107142Y-83104762D01*
X149250000Y-83152381D01*
X149488095Y-83152381D01*
X148583333Y-82152381D02*
X147964285Y-82152381D01*
X148297619Y-82533333D01*
X148154761Y-82533333D01*
X148059523Y-82580952D01*
X148011904Y-82628571D01*
X147964285Y-82723810D01*
X147964285Y-82961905D01*
X148011904Y-83057143D01*
X148059523Y-83104762D01*
X148154761Y-83152381D01*
X148440476Y-83152381D01*
X148535714Y-83104762D01*
X148583333Y-83057143D01*
X142895238Y-73247619D02*
X142990476Y-73200000D01*
X143085714Y-73104762D01*
X143228571Y-72961905D01*
X143323810Y-72914286D01*
X143419048Y-72914286D01*
X143371429Y-73152381D02*
X143466667Y-73104762D01*
X143561905Y-73009524D01*
X143609524Y-72819048D01*
X143609524Y-72485714D01*
X143561905Y-72295238D01*
X143466667Y-72200000D01*
X143371429Y-72152381D01*
X143180952Y-72152381D01*
X143085714Y-72200000D01*
X142990476Y-72295238D01*
X142942857Y-72485714D01*
X142942857Y-72819048D01*
X142990476Y-73009524D01*
X143085714Y-73104762D01*
X143180952Y-73152381D01*
X143371429Y-73152381D01*
X142609524Y-72152381D02*
X141990476Y-72152381D01*
X142323810Y-72533333D01*
X142180952Y-72533333D01*
X142085714Y-72580952D01*
X142038095Y-72628571D01*
X141990476Y-72723810D01*
X141990476Y-72961905D01*
X142038095Y-73057143D01*
X142085714Y-73104762D01*
X142180952Y-73152381D01*
X142466667Y-73152381D01*
X142561905Y-73104762D01*
X142609524Y-73057143D01*
X143352381Y-78957143D02*
X142876190Y-78623809D01*
X143352381Y-78385714D02*
X142352381Y-78385714D01*
X142352381Y-78766667D01*
X142400000Y-78861905D01*
X142447619Y-78909524D01*
X142542857Y-78957143D01*
X142685714Y-78957143D01*
X142780952Y-78909524D01*
X142828571Y-78861905D01*
X142876190Y-78766667D01*
X142876190Y-78385714D01*
X143352381Y-79909524D02*
X143352381Y-79338095D01*
X143352381Y-79623809D02*
X142352381Y-79623809D01*
X142495238Y-79528571D01*
X142590476Y-79433333D01*
X142638095Y-79338095D01*
X143352381Y-80385714D02*
X143352381Y-80576190D01*
X143304762Y-80671429D01*
X143257143Y-80719048D01*
X143114286Y-80814286D01*
X142923810Y-80861905D01*
X142542857Y-80861905D01*
X142447619Y-80814286D01*
X142400000Y-80766667D01*
X142352381Y-80671429D01*
X142352381Y-80480952D01*
X142400000Y-80385714D01*
X142447619Y-80338095D01*
X142542857Y-80290476D01*
X142780952Y-80290476D01*
X142876190Y-80338095D01*
X142923810Y-80385714D01*
X142971429Y-80480952D01*
X142971429Y-80671429D01*
X142923810Y-80766667D01*
X142876190Y-80814286D01*
X142780952Y-80861905D01*
X152788857Y-75382381D02*
X153122191Y-74906190D01*
X153360286Y-75382381D02*
X153360286Y-74382381D01*
X152979333Y-74382381D01*
X152884095Y-74430000D01*
X152836476Y-74477619D01*
X152788857Y-74572857D01*
X152788857Y-74715714D01*
X152836476Y-74810952D01*
X152884095Y-74858571D01*
X152979333Y-74906190D01*
X153360286Y-74906190D01*
X152407905Y-74477619D02*
X152360286Y-74430000D01*
X152265048Y-74382381D01*
X152026952Y-74382381D01*
X151931714Y-74430000D01*
X151884095Y-74477619D01*
X151836476Y-74572857D01*
X151836476Y-74668095D01*
X151884095Y-74810952D01*
X152455524Y-75382381D01*
X151836476Y-75382381D01*
X150979333Y-74715714D02*
X150979333Y-75382381D01*
X151217429Y-74334762D02*
X151455524Y-75049048D01*
X150836476Y-75049048D01*
X88457143Y-82033334D02*
X88504762Y-81985715D01*
X88552381Y-81842858D01*
X88552381Y-81747620D01*
X88504762Y-81604762D01*
X88409524Y-81509524D01*
X88314286Y-81461905D01*
X88123810Y-81414286D01*
X87980952Y-81414286D01*
X87790476Y-81461905D01*
X87695238Y-81509524D01*
X87600000Y-81604762D01*
X87552381Y-81747620D01*
X87552381Y-81842858D01*
X87600000Y-81985715D01*
X87647619Y-82033334D01*
X87552381Y-82366667D02*
X87552381Y-82985715D01*
X87933333Y-82652381D01*
X87933333Y-82795239D01*
X87980952Y-82890477D01*
X88028571Y-82938096D01*
X88123810Y-82985715D01*
X88361905Y-82985715D01*
X88457143Y-82938096D01*
X88504762Y-82890477D01*
X88552381Y-82795239D01*
X88552381Y-82509524D01*
X88504762Y-82414286D01*
X88457143Y-82366667D01*
X100757143Y-100557143D02*
X100804762Y-100509524D01*
X100852381Y-100366667D01*
X100852381Y-100271429D01*
X100804762Y-100128571D01*
X100709524Y-100033333D01*
X100614286Y-99985714D01*
X100423810Y-99938095D01*
X100280952Y-99938095D01*
X100090476Y-99985714D01*
X99995238Y-100033333D01*
X99900000Y-100128571D01*
X99852381Y-100271429D01*
X99852381Y-100366667D01*
X99900000Y-100509524D01*
X99947619Y-100557143D01*
X100852381Y-101509524D02*
X100852381Y-100938095D01*
X100852381Y-101223809D02*
X99852381Y-101223809D01*
X99995238Y-101128571D01*
X100090476Y-101033333D01*
X100138095Y-100938095D01*
X99852381Y-101842857D02*
X99852381Y-102509524D01*
X100852381Y-102080952D01*
X85557143Y-69057143D02*
X85604762Y-69009524D01*
X85652381Y-68866667D01*
X85652381Y-68771429D01*
X85604762Y-68628571D01*
X85509524Y-68533333D01*
X85414286Y-68485714D01*
X85223810Y-68438095D01*
X85080952Y-68438095D01*
X84890476Y-68485714D01*
X84795238Y-68533333D01*
X84700000Y-68628571D01*
X84652381Y-68771429D01*
X84652381Y-68866667D01*
X84700000Y-69009524D01*
X84747619Y-69057143D01*
X84747619Y-69438095D02*
X84700000Y-69485714D01*
X84652381Y-69580952D01*
X84652381Y-69819048D01*
X84700000Y-69914286D01*
X84747619Y-69961905D01*
X84842857Y-70009524D01*
X84938095Y-70009524D01*
X85080952Y-69961905D01*
X85652381Y-69390476D01*
X85652381Y-70009524D01*
X84652381Y-70914286D02*
X84652381Y-70438095D01*
X85128571Y-70390476D01*
X85080952Y-70438095D01*
X85033333Y-70533333D01*
X85033333Y-70771429D01*
X85080952Y-70866667D01*
X85128571Y-70914286D01*
X85223810Y-70961905D01*
X85461905Y-70961905D01*
X85557143Y-70914286D01*
X85604762Y-70866667D01*
X85652381Y-70771429D01*
X85652381Y-70533333D01*
X85604762Y-70438095D01*
X85557143Y-70390476D01*
X94957143Y-69057143D02*
X95004762Y-69009524D01*
X95052381Y-68866667D01*
X95052381Y-68771429D01*
X95004762Y-68628571D01*
X94909524Y-68533333D01*
X94814286Y-68485714D01*
X94623810Y-68438095D01*
X94480952Y-68438095D01*
X94290476Y-68485714D01*
X94195238Y-68533333D01*
X94100000Y-68628571D01*
X94052381Y-68771429D01*
X94052381Y-68866667D01*
X94100000Y-69009524D01*
X94147619Y-69057143D01*
X94147619Y-69438095D02*
X94100000Y-69485714D01*
X94052381Y-69580952D01*
X94052381Y-69819048D01*
X94100000Y-69914286D01*
X94147619Y-69961905D01*
X94242857Y-70009524D01*
X94338095Y-70009524D01*
X94480952Y-69961905D01*
X95052381Y-69390476D01*
X95052381Y-70009524D01*
X94052381Y-70866667D02*
X94052381Y-70676190D01*
X94100000Y-70580952D01*
X94147619Y-70533333D01*
X94290476Y-70438095D01*
X94480952Y-70390476D01*
X94861905Y-70390476D01*
X94957143Y-70438095D01*
X95004762Y-70485714D01*
X95052381Y-70580952D01*
X95052381Y-70771429D01*
X95004762Y-70866667D01*
X94957143Y-70914286D01*
X94861905Y-70961905D01*
X94623810Y-70961905D01*
X94528571Y-70914286D01*
X94480952Y-70866667D01*
X94433333Y-70771429D01*
X94433333Y-70580952D01*
X94480952Y-70485714D01*
X94528571Y-70438095D01*
X94623810Y-70390476D01*
X92742857Y-76457143D02*
X92790476Y-76504762D01*
X92933333Y-76552381D01*
X93028571Y-76552381D01*
X93171429Y-76504762D01*
X93266667Y-76409524D01*
X93314286Y-76314286D01*
X93361905Y-76123810D01*
X93361905Y-75980952D01*
X93314286Y-75790476D01*
X93266667Y-75695238D01*
X93171429Y-75600000D01*
X93028571Y-75552381D01*
X92933333Y-75552381D01*
X92790476Y-75600000D01*
X92742857Y-75647619D01*
X92361905Y-75647619D02*
X92314286Y-75600000D01*
X92219048Y-75552381D01*
X91980952Y-75552381D01*
X91885714Y-75600000D01*
X91838095Y-75647619D01*
X91790476Y-75742857D01*
X91790476Y-75838095D01*
X91838095Y-75980952D01*
X92409524Y-76552381D01*
X91790476Y-76552381D01*
X91219048Y-75980952D02*
X91314286Y-75933333D01*
X91361905Y-75885714D01*
X91409524Y-75790476D01*
X91409524Y-75742857D01*
X91361905Y-75647619D01*
X91314286Y-75600000D01*
X91219048Y-75552381D01*
X91028571Y-75552381D01*
X90933333Y-75600000D01*
X90885714Y-75647619D01*
X90838095Y-75742857D01*
X90838095Y-75790476D01*
X90885714Y-75885714D01*
X90933333Y-75933333D01*
X91028571Y-75980952D01*
X91219048Y-75980952D01*
X91314286Y-76028571D01*
X91361905Y-76076190D01*
X91409524Y-76171429D01*
X91409524Y-76361905D01*
X91361905Y-76457143D01*
X91314286Y-76504762D01*
X91219048Y-76552381D01*
X91028571Y-76552381D01*
X90933333Y-76504762D01*
X90885714Y-76457143D01*
X90838095Y-76361905D01*
X90838095Y-76171429D01*
X90885714Y-76076190D01*
X90933333Y-76028571D01*
X91028571Y-75980952D01*
X89866666Y-66552381D02*
X90342857Y-66552381D01*
X90342857Y-65552381D01*
X89580952Y-65647619D02*
X89533333Y-65600000D01*
X89438095Y-65552381D01*
X89199999Y-65552381D01*
X89104761Y-65600000D01*
X89057142Y-65647619D01*
X89009523Y-65742857D01*
X89009523Y-65838095D01*
X89057142Y-65980952D01*
X89628571Y-66552381D01*
X89009523Y-66552381D01*
X89866666Y-75552381D02*
X90342857Y-75552381D01*
X90342857Y-74552381D01*
X89104761Y-74885714D02*
X89104761Y-75552381D01*
X89342857Y-74504762D02*
X89580952Y-75219048D01*
X88961904Y-75219048D01*
X80452381Y-78957143D02*
X79976190Y-78623809D01*
X80452381Y-78385714D02*
X79452381Y-78385714D01*
X79452381Y-78766667D01*
X79500000Y-78861905D01*
X79547619Y-78909524D01*
X79642857Y-78957143D01*
X79785714Y-78957143D01*
X79880952Y-78909524D01*
X79928571Y-78861905D01*
X79976190Y-78766667D01*
X79976190Y-78385714D01*
X79547619Y-79338095D02*
X79500000Y-79385714D01*
X79452381Y-79480952D01*
X79452381Y-79719048D01*
X79500000Y-79814286D01*
X79547619Y-79861905D01*
X79642857Y-79909524D01*
X79738095Y-79909524D01*
X79880952Y-79861905D01*
X80452381Y-79290476D01*
X80452381Y-79909524D01*
X79452381Y-80242857D02*
X79452381Y-80861905D01*
X79833333Y-80528571D01*
X79833333Y-80671429D01*
X79880952Y-80766667D01*
X79928571Y-80814286D01*
X80023810Y-80861905D01*
X80261905Y-80861905D01*
X80357143Y-80814286D01*
X80404762Y-80766667D01*
X80452381Y-80671429D01*
X80452381Y-80385714D01*
X80404762Y-80290476D01*
X80357143Y-80242857D01*
X83402381Y-81965477D02*
X84116667Y-81965477D01*
X84259524Y-81917857D01*
X84354762Y-81822619D01*
X84402381Y-81679762D01*
X84402381Y-81584524D01*
X84402381Y-82965477D02*
X84402381Y-82394048D01*
X84402381Y-82679762D02*
X83402381Y-82679762D01*
X83545238Y-82584524D01*
X83640476Y-82489286D01*
X83688095Y-82394048D01*
X83402381Y-83584524D02*
X83402381Y-83679763D01*
X83450000Y-83775001D01*
X83497619Y-83822620D01*
X83592857Y-83870239D01*
X83783333Y-83917858D01*
X84021429Y-83917858D01*
X84211905Y-83870239D01*
X84307143Y-83822620D01*
X84354762Y-83775001D01*
X84402381Y-83679763D01*
X84402381Y-83584524D01*
X84354762Y-83489286D01*
X84307143Y-83441667D01*
X84211905Y-83394048D01*
X84021429Y-83346429D01*
X83783333Y-83346429D01*
X83592857Y-83394048D01*
X83497619Y-83441667D01*
X83450000Y-83489286D01*
X83402381Y-83584524D01*
X101352381Y-53591905D02*
X100352381Y-53591905D01*
X100352381Y-53830000D01*
X100400000Y-53972858D01*
X100495238Y-54068096D01*
X100590476Y-54115715D01*
X100780952Y-54163334D01*
X100923810Y-54163334D01*
X101114286Y-54115715D01*
X101209524Y-54068096D01*
X101304762Y-53972858D01*
X101352381Y-53830000D01*
X101352381Y-53591905D01*
X100685714Y-55020477D02*
X101352381Y-55020477D01*
X100304762Y-54782381D02*
X101019048Y-54544286D01*
X101019048Y-55163334D01*
X109502381Y-65261905D02*
X108502381Y-65261905D01*
X108502381Y-65500000D01*
X108550000Y-65642858D01*
X108645238Y-65738096D01*
X108740476Y-65785715D01*
X108930952Y-65833334D01*
X109073810Y-65833334D01*
X109264286Y-65785715D01*
X109359524Y-65738096D01*
X109454762Y-65642858D01*
X109502381Y-65500000D01*
X109502381Y-65261905D01*
X108502381Y-66738096D02*
X108502381Y-66261905D01*
X108978571Y-66214286D01*
X108930952Y-66261905D01*
X108883333Y-66357143D01*
X108883333Y-66595239D01*
X108930952Y-66690477D01*
X108978571Y-66738096D01*
X109073810Y-66785715D01*
X109311905Y-66785715D01*
X109407143Y-66738096D01*
X109454762Y-66690477D01*
X109502381Y-66595239D01*
X109502381Y-66357143D01*
X109454762Y-66261905D01*
X109407143Y-66214286D01*
X117347619Y-64674762D02*
X117300000Y-64579524D01*
X117204762Y-64484286D01*
X117061905Y-64341429D01*
X117014286Y-64246190D01*
X117014286Y-64150952D01*
X117252381Y-64198571D02*
X117204762Y-64103333D01*
X117109524Y-64008095D01*
X116919048Y-63960476D01*
X116585714Y-63960476D01*
X116395238Y-64008095D01*
X116300000Y-64103333D01*
X116252381Y-64198571D01*
X116252381Y-64389048D01*
X116300000Y-64484286D01*
X116395238Y-64579524D01*
X116585714Y-64627143D01*
X116919048Y-64627143D01*
X117109524Y-64579524D01*
X117204762Y-64484286D01*
X117252381Y-64389048D01*
X117252381Y-64198571D01*
X116252381Y-65531905D02*
X116252381Y-65055714D01*
X116728571Y-65008095D01*
X116680952Y-65055714D01*
X116633333Y-65150952D01*
X116633333Y-65389048D01*
X116680952Y-65484286D01*
X116728571Y-65531905D01*
X116823810Y-65579524D01*
X117061905Y-65579524D01*
X117157143Y-65531905D01*
X117204762Y-65484286D01*
X117252381Y-65389048D01*
X117252381Y-65150952D01*
X117204762Y-65055714D01*
X117157143Y-65008095D01*
X107042857Y-69852381D02*
X107376191Y-69376190D01*
X107614286Y-69852381D02*
X107614286Y-68852381D01*
X107233333Y-68852381D01*
X107138095Y-68900000D01*
X107090476Y-68947619D01*
X107042857Y-69042857D01*
X107042857Y-69185714D01*
X107090476Y-69280952D01*
X107138095Y-69328571D01*
X107233333Y-69376190D01*
X107614286Y-69376190D01*
X106661905Y-68947619D02*
X106614286Y-68900000D01*
X106519048Y-68852381D01*
X106280952Y-68852381D01*
X106185714Y-68900000D01*
X106138095Y-68947619D01*
X106090476Y-69042857D01*
X106090476Y-69138095D01*
X106138095Y-69280952D01*
X106709524Y-69852381D01*
X106090476Y-69852381D01*
X105138095Y-69852381D02*
X105709524Y-69852381D01*
X105423810Y-69852381D02*
X105423810Y-68852381D01*
X105519048Y-68995238D01*
X105614286Y-69090476D01*
X105709524Y-69138095D01*
X114842857Y-76052381D02*
X115176191Y-75576190D01*
X115414286Y-76052381D02*
X115414286Y-75052381D01*
X115033333Y-75052381D01*
X114938095Y-75100000D01*
X114890476Y-75147619D01*
X114842857Y-75242857D01*
X114842857Y-75385714D01*
X114890476Y-75480952D01*
X114938095Y-75528571D01*
X115033333Y-75576190D01*
X115414286Y-75576190D01*
X114461905Y-75147619D02*
X114414286Y-75100000D01*
X114319048Y-75052381D01*
X114080952Y-75052381D01*
X113985714Y-75100000D01*
X113938095Y-75147619D01*
X113890476Y-75242857D01*
X113890476Y-75338095D01*
X113938095Y-75480952D01*
X114509524Y-76052381D01*
X113890476Y-76052381D01*
X113509524Y-75147619D02*
X113461905Y-75100000D01*
X113366667Y-75052381D01*
X113128571Y-75052381D01*
X113033333Y-75100000D01*
X112985714Y-75147619D01*
X112938095Y-75242857D01*
X112938095Y-75338095D01*
X112985714Y-75480952D01*
X113557143Y-76052381D01*
X112938095Y-76052381D01*
X84032381Y-114075477D02*
X84746667Y-114075477D01*
X84889524Y-114027857D01*
X84984762Y-113932619D01*
X85032381Y-113789762D01*
X85032381Y-113694524D01*
X85032381Y-115075477D02*
X85032381Y-114504048D01*
X85032381Y-114789762D02*
X84032381Y-114789762D01*
X84175238Y-114694524D01*
X84270476Y-114599286D01*
X84318095Y-114504048D01*
X85032381Y-116027858D02*
X85032381Y-115456429D01*
X85032381Y-115742143D02*
X84032381Y-115742143D01*
X84175238Y-115646905D01*
X84270476Y-115551667D01*
X84318095Y-115456429D01*
X114392857Y-108802381D02*
X114726191Y-108326190D01*
X114964286Y-108802381D02*
X114964286Y-107802381D01*
X114583333Y-107802381D01*
X114488095Y-107850000D01*
X114440476Y-107897619D01*
X114392857Y-107992857D01*
X114392857Y-108135714D01*
X114440476Y-108230952D01*
X114488095Y-108278571D01*
X114583333Y-108326190D01*
X114964286Y-108326190D01*
X114011905Y-107897619D02*
X113964286Y-107850000D01*
X113869048Y-107802381D01*
X113630952Y-107802381D01*
X113535714Y-107850000D01*
X113488095Y-107897619D01*
X113440476Y-107992857D01*
X113440476Y-108088095D01*
X113488095Y-108230952D01*
X114059524Y-108802381D01*
X113440476Y-108802381D01*
X112535714Y-107802381D02*
X113011905Y-107802381D01*
X113059524Y-108278571D01*
X113011905Y-108230952D01*
X112916667Y-108183333D01*
X112678571Y-108183333D01*
X112583333Y-108230952D01*
X112535714Y-108278571D01*
X112488095Y-108373810D01*
X112488095Y-108611905D01*
X112535714Y-108707143D01*
X112583333Y-108754762D01*
X112678571Y-108802381D01*
X112916667Y-108802381D01*
X113011905Y-108754762D01*
X113059524Y-108707143D01*
X108542857Y-115552381D02*
X108876191Y-115076190D01*
X109114286Y-115552381D02*
X109114286Y-114552381D01*
X108733333Y-114552381D01*
X108638095Y-114600000D01*
X108590476Y-114647619D01*
X108542857Y-114742857D01*
X108542857Y-114885714D01*
X108590476Y-114980952D01*
X108638095Y-115028571D01*
X108733333Y-115076190D01*
X109114286Y-115076190D01*
X108161905Y-114647619D02*
X108114286Y-114600000D01*
X108019048Y-114552381D01*
X107780952Y-114552381D01*
X107685714Y-114600000D01*
X107638095Y-114647619D01*
X107590476Y-114742857D01*
X107590476Y-114838095D01*
X107638095Y-114980952D01*
X108209524Y-115552381D01*
X107590476Y-115552381D01*
X106733333Y-114552381D02*
X106923810Y-114552381D01*
X107019048Y-114600000D01*
X107066667Y-114647619D01*
X107161905Y-114790476D01*
X107209524Y-114980952D01*
X107209524Y-115361905D01*
X107161905Y-115457143D01*
X107114286Y-115504762D01*
X107019048Y-115552381D01*
X106828571Y-115552381D01*
X106733333Y-115504762D01*
X106685714Y-115457143D01*
X106638095Y-115361905D01*
X106638095Y-115123810D01*
X106685714Y-115028571D01*
X106733333Y-114980952D01*
X106828571Y-114933333D01*
X107019048Y-114933333D01*
X107114286Y-114980952D01*
X107161905Y-115028571D01*
X107209524Y-115123810D01*
X102642857Y-115452381D02*
X102976191Y-114976190D01*
X103214286Y-115452381D02*
X103214286Y-114452381D01*
X102833333Y-114452381D01*
X102738095Y-114500000D01*
X102690476Y-114547619D01*
X102642857Y-114642857D01*
X102642857Y-114785714D01*
X102690476Y-114880952D01*
X102738095Y-114928571D01*
X102833333Y-114976190D01*
X103214286Y-114976190D01*
X102261905Y-114547619D02*
X102214286Y-114500000D01*
X102119048Y-114452381D01*
X101880952Y-114452381D01*
X101785714Y-114500000D01*
X101738095Y-114547619D01*
X101690476Y-114642857D01*
X101690476Y-114738095D01*
X101738095Y-114880952D01*
X102309524Y-115452381D01*
X101690476Y-115452381D01*
X101357143Y-114452381D02*
X100690476Y-114452381D01*
X101119048Y-115452381D01*
X96742857Y-108552381D02*
X97076191Y-108076190D01*
X97314286Y-108552381D02*
X97314286Y-107552381D01*
X96933333Y-107552381D01*
X96838095Y-107600000D01*
X96790476Y-107647619D01*
X96742857Y-107742857D01*
X96742857Y-107885714D01*
X96790476Y-107980952D01*
X96838095Y-108028571D01*
X96933333Y-108076190D01*
X97314286Y-108076190D01*
X96361905Y-107647619D02*
X96314286Y-107600000D01*
X96219048Y-107552381D01*
X95980952Y-107552381D01*
X95885714Y-107600000D01*
X95838095Y-107647619D01*
X95790476Y-107742857D01*
X95790476Y-107838095D01*
X95838095Y-107980952D01*
X96409524Y-108552381D01*
X95790476Y-108552381D01*
X95219048Y-107980952D02*
X95314286Y-107933333D01*
X95361905Y-107885714D01*
X95409524Y-107790476D01*
X95409524Y-107742857D01*
X95361905Y-107647619D01*
X95314286Y-107600000D01*
X95219048Y-107552381D01*
X95028571Y-107552381D01*
X94933333Y-107600000D01*
X94885714Y-107647619D01*
X94838095Y-107742857D01*
X94838095Y-107790476D01*
X94885714Y-107885714D01*
X94933333Y-107933333D01*
X95028571Y-107980952D01*
X95219048Y-107980952D01*
X95314286Y-108028571D01*
X95361905Y-108076190D01*
X95409524Y-108171429D01*
X95409524Y-108361905D01*
X95361905Y-108457143D01*
X95314286Y-108504762D01*
X95219048Y-108552381D01*
X95028571Y-108552381D01*
X94933333Y-108504762D01*
X94885714Y-108457143D01*
X94838095Y-108361905D01*
X94838095Y-108171429D01*
X94885714Y-108076190D01*
X94933333Y-108028571D01*
X95028571Y-107980952D01*
X96792857Y-115457143D02*
X96840476Y-115504762D01*
X96983333Y-115552381D01*
X97078571Y-115552381D01*
X97221429Y-115504762D01*
X97316667Y-115409524D01*
X97364286Y-115314286D01*
X97411905Y-115123810D01*
X97411905Y-114980952D01*
X97364286Y-114790476D01*
X97316667Y-114695238D01*
X97221429Y-114600000D01*
X97078571Y-114552381D01*
X96983333Y-114552381D01*
X96840476Y-114600000D01*
X96792857Y-114647619D01*
X95840476Y-115552381D02*
X96411905Y-115552381D01*
X96126191Y-115552381D02*
X96126191Y-114552381D01*
X96221429Y-114695238D01*
X96316667Y-114790476D01*
X96411905Y-114838095D01*
X95364286Y-115552381D02*
X95173810Y-115552381D01*
X95078571Y-115504762D01*
X95030952Y-115457143D01*
X94935714Y-115314286D01*
X94888095Y-115123810D01*
X94888095Y-114742857D01*
X94935714Y-114647619D01*
X94983333Y-114600000D01*
X95078571Y-114552381D01*
X95269048Y-114552381D01*
X95364286Y-114600000D01*
X95411905Y-114647619D01*
X95459524Y-114742857D01*
X95459524Y-114980952D01*
X95411905Y-115076190D01*
X95364286Y-115123810D01*
X95269048Y-115171429D01*
X95078571Y-115171429D01*
X94983333Y-115123810D01*
X94935714Y-115076190D01*
X94888095Y-114980952D01*
X114442857Y-115357143D02*
X114490476Y-115404762D01*
X114633333Y-115452381D01*
X114728571Y-115452381D01*
X114871429Y-115404762D01*
X114966667Y-115309524D01*
X115014286Y-115214286D01*
X115061905Y-115023810D01*
X115061905Y-114880952D01*
X115014286Y-114690476D01*
X114966667Y-114595238D01*
X114871429Y-114500000D01*
X114728571Y-114452381D01*
X114633333Y-114452381D01*
X114490476Y-114500000D01*
X114442857Y-114547619D01*
X114061905Y-114547619D02*
X114014286Y-114500000D01*
X113919048Y-114452381D01*
X113680952Y-114452381D01*
X113585714Y-114500000D01*
X113538095Y-114547619D01*
X113490476Y-114642857D01*
X113490476Y-114738095D01*
X113538095Y-114880952D01*
X114109524Y-115452381D01*
X113490476Y-115452381D01*
X112871429Y-114452381D02*
X112776190Y-114452381D01*
X112680952Y-114500000D01*
X112633333Y-114547619D01*
X112585714Y-114642857D01*
X112538095Y-114833333D01*
X112538095Y-115071429D01*
X112585714Y-115261905D01*
X112633333Y-115357143D01*
X112680952Y-115404762D01*
X112776190Y-115452381D01*
X112871429Y-115452381D01*
X112966667Y-115404762D01*
X113014286Y-115357143D01*
X113061905Y-115261905D01*
X113109524Y-115071429D01*
X113109524Y-114833333D01*
X113061905Y-114642857D01*
X113014286Y-114547619D01*
X112966667Y-114500000D01*
X112871429Y-114452381D01*
M02*
