G04 #@! TF.FileFunction,Legend,Bot*
%FSLAX46Y46*%
G04 Gerber Fmt 4.6, Leading zero omitted, Abs format (unit mm)*
G04 Created by KiCad (PCBNEW 4.0.7-e2-6376~58~ubuntu14.04.1) date Mon Jan  1 10:43:33 2018*
%MOMM*%
%LPD*%
G01*
G04 APERTURE LIST*
%ADD10C,0.100000*%
%ADD11C,0.300000*%
%ADD12C,0.120000*%
%ADD13C,0.150000*%
G04 APERTURE END LIST*
D10*
D11*
X83667858Y-103021429D02*
X83667858Y-104521429D01*
X84025001Y-104521429D01*
X84239286Y-104450000D01*
X84382144Y-104307143D01*
X84453572Y-104164286D01*
X84525001Y-103878571D01*
X84525001Y-103664286D01*
X84453572Y-103378571D01*
X84382144Y-103235714D01*
X84239286Y-103092857D01*
X84025001Y-103021429D01*
X83667858Y-103021429D01*
X85667858Y-103807143D02*
X85882144Y-103735714D01*
X85953572Y-103664286D01*
X86025001Y-103521429D01*
X86025001Y-103307143D01*
X85953572Y-103164286D01*
X85882144Y-103092857D01*
X85739286Y-103021429D01*
X85167858Y-103021429D01*
X85167858Y-104521429D01*
X85667858Y-104521429D01*
X85810715Y-104450000D01*
X85882144Y-104378571D01*
X85953572Y-104235714D01*
X85953572Y-104092857D01*
X85882144Y-103950000D01*
X85810715Y-103878571D01*
X85667858Y-103807143D01*
X85167858Y-103807143D01*
X87310715Y-104021429D02*
X87310715Y-103021429D01*
X86953572Y-104592857D02*
X86596429Y-103521429D01*
X87525001Y-103521429D01*
X83703572Y-101257143D02*
X84203572Y-101257143D01*
X84417858Y-100471429D02*
X83703572Y-100471429D01*
X83703572Y-101971429D01*
X84417858Y-101971429D01*
X84475001Y-97921429D02*
X83975001Y-98635714D01*
X83617858Y-97921429D02*
X83617858Y-99421429D01*
X84189286Y-99421429D01*
X84332144Y-99350000D01*
X84403572Y-99278571D01*
X84475001Y-99135714D01*
X84475001Y-98921429D01*
X84403572Y-98778571D01*
X84332144Y-98707143D01*
X84189286Y-98635714D01*
X83617858Y-98635714D01*
X85046429Y-97992857D02*
X85260715Y-97921429D01*
X85617858Y-97921429D01*
X85760715Y-97992857D01*
X85832144Y-98064286D01*
X85903572Y-98207143D01*
X85903572Y-98350000D01*
X85832144Y-98492857D01*
X85760715Y-98564286D01*
X85617858Y-98635714D01*
X85332144Y-98707143D01*
X85189286Y-98778571D01*
X85117858Y-98850000D01*
X85046429Y-98992857D01*
X85046429Y-99135714D01*
X85117858Y-99278571D01*
X85189286Y-99350000D01*
X85332144Y-99421429D01*
X85689286Y-99421429D01*
X85903572Y-99350000D01*
X84407143Y-96825000D02*
X84264286Y-96896429D01*
X84050000Y-96896429D01*
X83835715Y-96825000D01*
X83692857Y-96682143D01*
X83621429Y-96539286D01*
X83550000Y-96253571D01*
X83550000Y-96039286D01*
X83621429Y-95753571D01*
X83692857Y-95610714D01*
X83835715Y-95467857D01*
X84050000Y-95396429D01*
X84192857Y-95396429D01*
X84407143Y-95467857D01*
X84478572Y-95539286D01*
X84478572Y-96039286D01*
X84192857Y-96039286D01*
X85121429Y-95396429D02*
X85121429Y-96896429D01*
X85978572Y-95396429D01*
X85978572Y-96896429D01*
X86692858Y-95396429D02*
X86692858Y-96896429D01*
X87050001Y-96896429D01*
X87264286Y-96825000D01*
X87407144Y-96682143D01*
X87478572Y-96539286D01*
X87550001Y-96253571D01*
X87550001Y-96039286D01*
X87478572Y-95753571D01*
X87407144Y-95610714D01*
X87264286Y-95467857D01*
X87050001Y-95396429D01*
X86692858Y-95396429D01*
X84207143Y-86032143D02*
X84421429Y-85960714D01*
X84492857Y-85889286D01*
X84564286Y-85746429D01*
X84564286Y-85532143D01*
X84492857Y-85389286D01*
X84421429Y-85317857D01*
X84278571Y-85246429D01*
X83707143Y-85246429D01*
X83707143Y-86746429D01*
X84207143Y-86746429D01*
X84350000Y-86675000D01*
X84421429Y-86603571D01*
X84492857Y-86460714D01*
X84492857Y-86317857D01*
X84421429Y-86175000D01*
X84350000Y-86103571D01*
X84207143Y-86032143D01*
X83707143Y-86032143D01*
X83742857Y-88250000D02*
X84457143Y-88250000D01*
X83600000Y-87821429D02*
X84100000Y-89321429D01*
X84600000Y-87821429D01*
X83610715Y-90296429D02*
X83610715Y-91796429D01*
X84467858Y-90296429D02*
X83825001Y-91153571D01*
X84467858Y-91796429D02*
X83610715Y-90939286D01*
X85110715Y-91082143D02*
X85610715Y-91082143D01*
X85825001Y-90296429D02*
X85110715Y-90296429D01*
X85110715Y-91796429D01*
X85825001Y-91796429D01*
X86753572Y-91010714D02*
X86753572Y-90296429D01*
X86253572Y-91796429D02*
X86753572Y-91010714D01*
X87253572Y-91796429D01*
X84435715Y-94221429D02*
X83721429Y-94221429D01*
X83650000Y-93507143D01*
X83721429Y-93578571D01*
X83864286Y-93650000D01*
X84221429Y-93650000D01*
X84364286Y-93578571D01*
X84435715Y-93507143D01*
X84507143Y-93364286D01*
X84507143Y-93007143D01*
X84435715Y-92864286D01*
X84364286Y-92792857D01*
X84221429Y-92721429D01*
X83864286Y-92721429D01*
X83721429Y-92792857D01*
X83650000Y-92864286D01*
X85007143Y-93721429D02*
X85364286Y-92721429D01*
X85721428Y-93721429D01*
X121385716Y-118571429D02*
X121385716Y-117357143D01*
X121457144Y-117214286D01*
X121528573Y-117142857D01*
X121671430Y-117071429D01*
X121957144Y-117071429D01*
X122100002Y-117142857D01*
X122171430Y-117214286D01*
X122242859Y-117357143D01*
X122242859Y-118571429D01*
X122742859Y-118571429D02*
X123600002Y-118571429D01*
X123171431Y-117071429D02*
X123171431Y-118571429D01*
X123957145Y-118571429D02*
X124885716Y-118571429D01*
X124385716Y-118000000D01*
X124600002Y-118000000D01*
X124742859Y-117928571D01*
X124814288Y-117857143D01*
X124885716Y-117714286D01*
X124885716Y-117357143D01*
X124814288Y-117214286D01*
X124742859Y-117142857D01*
X124600002Y-117071429D01*
X124171430Y-117071429D01*
X124028573Y-117142857D01*
X123957145Y-117214286D01*
X125528573Y-117071429D02*
X125528573Y-118571429D01*
X126028573Y-117500000D01*
X126528573Y-118571429D01*
X126528573Y-117071429D01*
X127242859Y-117071429D02*
X127242859Y-118571429D01*
X128100002Y-117071429D02*
X127457145Y-117928571D01*
X128100002Y-118571429D02*
X127242859Y-117714286D01*
X129671430Y-118571429D02*
X130171430Y-117071429D01*
X130671430Y-118571429D01*
X131671430Y-117857143D02*
X131171430Y-117857143D01*
X131171430Y-117071429D02*
X131171430Y-118571429D01*
X131885716Y-118571429D01*
X132742858Y-118571429D02*
X133028572Y-118571429D01*
X133171430Y-118500000D01*
X133314287Y-118357143D01*
X133385715Y-118071429D01*
X133385715Y-117571429D01*
X133314287Y-117285714D01*
X133171430Y-117142857D01*
X133028572Y-117071429D01*
X132742858Y-117071429D01*
X132600001Y-117142857D01*
X132457144Y-117285714D01*
X132385715Y-117571429D01*
X132385715Y-118071429D01*
X132457144Y-118357143D01*
X132600001Y-118500000D01*
X132742858Y-118571429D01*
X135100001Y-117142857D02*
X135314287Y-117071429D01*
X135671430Y-117071429D01*
X135814287Y-117142857D01*
X135885716Y-117214286D01*
X135957144Y-117357143D01*
X135957144Y-117500000D01*
X135885716Y-117642857D01*
X135814287Y-117714286D01*
X135671430Y-117785714D01*
X135385716Y-117857143D01*
X135242858Y-117928571D01*
X135171430Y-118000000D01*
X135100001Y-118142857D01*
X135100001Y-118285714D01*
X135171430Y-118428571D01*
X135242858Y-118500000D01*
X135385716Y-118571429D01*
X135742858Y-118571429D01*
X135957144Y-118500000D01*
X136600001Y-117071429D02*
X136600001Y-118571429D01*
X138028573Y-118571429D02*
X137314287Y-118571429D01*
X137242858Y-117857143D01*
X137314287Y-117928571D01*
X137457144Y-118000000D01*
X137814287Y-118000000D01*
X137957144Y-117928571D01*
X138028573Y-117857143D01*
X138100001Y-117714286D01*
X138100001Y-117357143D01*
X138028573Y-117214286D01*
X137957144Y-117142857D01*
X137814287Y-117071429D01*
X137457144Y-117071429D01*
X137314287Y-117142857D01*
X137242858Y-117214286D01*
X138600001Y-118571429D02*
X139528572Y-118571429D01*
X139028572Y-118000000D01*
X139242858Y-118000000D01*
X139385715Y-117928571D01*
X139457144Y-117857143D01*
X139528572Y-117714286D01*
X139528572Y-117357143D01*
X139457144Y-117214286D01*
X139385715Y-117142857D01*
X139242858Y-117071429D01*
X138814286Y-117071429D01*
X138671429Y-117142857D01*
X138600001Y-117214286D01*
X140885715Y-118571429D02*
X140171429Y-118571429D01*
X140100000Y-117857143D01*
X140171429Y-117928571D01*
X140314286Y-118000000D01*
X140671429Y-118000000D01*
X140814286Y-117928571D01*
X140885715Y-117857143D01*
X140957143Y-117714286D01*
X140957143Y-117357143D01*
X140885715Y-117214286D01*
X140814286Y-117142857D01*
X140671429Y-117071429D01*
X140314286Y-117071429D01*
X140171429Y-117142857D01*
X140100000Y-117214286D01*
X142385714Y-117071429D02*
X141528571Y-117071429D01*
X141957143Y-117071429D02*
X141957143Y-118571429D01*
X141814286Y-118357143D01*
X141671428Y-118214286D01*
X141528571Y-118142857D01*
X144028571Y-118071429D02*
X144385714Y-117071429D01*
X144742856Y-118071429D01*
X145314285Y-117214286D02*
X145385713Y-117142857D01*
X145314285Y-117071429D01*
X145242856Y-117142857D01*
X145314285Y-117214286D01*
X145314285Y-117071429D01*
X146814285Y-117071429D02*
X145957142Y-117071429D01*
X146385714Y-117071429D02*
X146385714Y-118571429D01*
X146242857Y-118357143D01*
X146099999Y-118214286D01*
X145957142Y-118142857D01*
X147457142Y-117214286D02*
X147528570Y-117142857D01*
X147457142Y-117071429D01*
X147385713Y-117142857D01*
X147457142Y-117214286D01*
X147457142Y-117071429D01*
X148457142Y-118571429D02*
X148599999Y-118571429D01*
X148742856Y-118500000D01*
X148814285Y-118428571D01*
X148885714Y-118285714D01*
X148957142Y-118000000D01*
X148957142Y-117642857D01*
X148885714Y-117357143D01*
X148814285Y-117214286D01*
X148742856Y-117142857D01*
X148599999Y-117071429D01*
X148457142Y-117071429D01*
X148314285Y-117142857D01*
X148242856Y-117214286D01*
X148171428Y-117357143D01*
X148099999Y-117642857D01*
X148099999Y-118000000D01*
X148171428Y-118285714D01*
X148242856Y-118428571D01*
X148314285Y-118500000D01*
X148457142Y-118571429D01*
X150242856Y-118071429D02*
X150242856Y-117071429D01*
X149885713Y-118642857D02*
X149528570Y-117571429D01*
X150457142Y-117571429D01*
X110720000Y-59940000D02*
X110005714Y-59940000D01*
X110862857Y-60368571D02*
X110362857Y-58868571D01*
X109862857Y-60368571D01*
X109577143Y-58868571D02*
X108720000Y-58868571D01*
X109148571Y-60368571D02*
X109148571Y-58868571D01*
X108434286Y-58868571D02*
X107577143Y-58868571D01*
X108005714Y-60368571D02*
X108005714Y-58868571D01*
X76592858Y-75764286D02*
X76521429Y-75692857D01*
X76307143Y-75621429D01*
X76164286Y-75621429D01*
X75950001Y-75692857D01*
X75807143Y-75835714D01*
X75735715Y-75978571D01*
X75664286Y-76264286D01*
X75664286Y-76478571D01*
X75735715Y-76764286D01*
X75807143Y-76907143D01*
X75950001Y-77050000D01*
X76164286Y-77121429D01*
X76307143Y-77121429D01*
X76521429Y-77050000D01*
X76592858Y-76978571D01*
X77950001Y-75621429D02*
X77235715Y-75621429D01*
X77235715Y-77121429D01*
X78450001Y-75621429D02*
X78450001Y-77121429D01*
X79307144Y-75621429D02*
X78664287Y-76478571D01*
X79307144Y-77121429D02*
X78450001Y-76264286D01*
X79878572Y-76978571D02*
X79950001Y-77050000D01*
X80092858Y-77121429D01*
X80450001Y-77121429D01*
X80592858Y-77050000D01*
X80664287Y-76978571D01*
X80735715Y-76835714D01*
X80735715Y-76692857D01*
X80664287Y-76478571D01*
X79807144Y-75621429D01*
X80735715Y-75621429D01*
X76592858Y-70664286D02*
X76521429Y-70592857D01*
X76307143Y-70521429D01*
X76164286Y-70521429D01*
X75950001Y-70592857D01*
X75807143Y-70735714D01*
X75735715Y-70878571D01*
X75664286Y-71164286D01*
X75664286Y-71378571D01*
X75735715Y-71664286D01*
X75807143Y-71807143D01*
X75950001Y-71950000D01*
X76164286Y-72021429D01*
X76307143Y-72021429D01*
X76521429Y-71950000D01*
X76592858Y-71878571D01*
X77950001Y-70521429D02*
X77235715Y-70521429D01*
X77235715Y-72021429D01*
X78450001Y-70521429D02*
X78450001Y-72021429D01*
X79307144Y-70521429D02*
X78664287Y-71378571D01*
X79307144Y-72021429D02*
X78450001Y-71164286D01*
X80735715Y-70521429D02*
X79878572Y-70521429D01*
X80307144Y-70521429D02*
X80307144Y-72021429D01*
X80164287Y-71807143D01*
X80021429Y-71664286D01*
X79878572Y-71592857D01*
X76592858Y-65564286D02*
X76521429Y-65492857D01*
X76307143Y-65421429D01*
X76164286Y-65421429D01*
X75950001Y-65492857D01*
X75807143Y-65635714D01*
X75735715Y-65778571D01*
X75664286Y-66064286D01*
X75664286Y-66278571D01*
X75735715Y-66564286D01*
X75807143Y-66707143D01*
X75950001Y-66850000D01*
X76164286Y-66921429D01*
X76307143Y-66921429D01*
X76521429Y-66850000D01*
X76592858Y-66778571D01*
X77950001Y-65421429D02*
X77235715Y-65421429D01*
X77235715Y-66921429D01*
X78450001Y-65421429D02*
X78450001Y-66921429D01*
X79307144Y-65421429D02*
X78664287Y-66278571D01*
X79307144Y-66921429D02*
X78450001Y-66064286D01*
X80235715Y-66921429D02*
X80378572Y-66921429D01*
X80521429Y-66850000D01*
X80592858Y-66778571D01*
X80664287Y-66635714D01*
X80735715Y-66350000D01*
X80735715Y-65992857D01*
X80664287Y-65707143D01*
X80592858Y-65564286D01*
X80521429Y-65492857D01*
X80378572Y-65421429D01*
X80235715Y-65421429D01*
X80092858Y-65492857D01*
X80021429Y-65564286D01*
X79950001Y-65707143D01*
X79878572Y-65992857D01*
X79878572Y-66350000D01*
X79950001Y-66635714D01*
X80021429Y-66778571D01*
X80092858Y-66850000D01*
X80235715Y-66921429D01*
X117391428Y-60368571D02*
X117391428Y-58868571D01*
X116820000Y-58868571D01*
X116677142Y-58940000D01*
X116605714Y-59011429D01*
X116534285Y-59154286D01*
X116534285Y-59368571D01*
X116605714Y-59511429D01*
X116677142Y-59582857D01*
X116820000Y-59654286D01*
X117391428Y-59654286D01*
X115034285Y-60368571D02*
X115534285Y-59654286D01*
X115891428Y-60368571D02*
X115891428Y-58868571D01*
X115320000Y-58868571D01*
X115177142Y-58940000D01*
X115105714Y-59011429D01*
X115034285Y-59154286D01*
X115034285Y-59368571D01*
X115105714Y-59511429D01*
X115177142Y-59582857D01*
X115320000Y-59654286D01*
X115891428Y-59654286D01*
X114391428Y-59582857D02*
X113891428Y-59582857D01*
X113677142Y-60368571D02*
X114391428Y-60368571D01*
X114391428Y-58868571D01*
X113677142Y-58868571D01*
X150959429Y-55772571D02*
X151673714Y-56272571D01*
X150959429Y-56629714D02*
X152459429Y-56629714D01*
X152459429Y-56058286D01*
X152388000Y-55915428D01*
X152316571Y-55844000D01*
X152173714Y-55772571D01*
X151959429Y-55772571D01*
X151816571Y-55844000D01*
X151745143Y-55915428D01*
X151673714Y-56058286D01*
X151673714Y-56629714D01*
X151745143Y-55129714D02*
X151745143Y-54629714D01*
X150959429Y-54415428D02*
X150959429Y-55129714D01*
X152459429Y-55129714D01*
X152459429Y-54415428D01*
X151030857Y-53844000D02*
X150959429Y-53629714D01*
X150959429Y-53272571D01*
X151030857Y-53129714D01*
X151102286Y-53058285D01*
X151245143Y-52986857D01*
X151388000Y-52986857D01*
X151530857Y-53058285D01*
X151602286Y-53129714D01*
X151673714Y-53272571D01*
X151745143Y-53558285D01*
X151816571Y-53701143D01*
X151888000Y-53772571D01*
X152030857Y-53844000D01*
X152173714Y-53844000D01*
X152316571Y-53772571D01*
X152388000Y-53701143D01*
X152459429Y-53558285D01*
X152459429Y-53201143D01*
X152388000Y-52986857D01*
X151745143Y-52344000D02*
X151745143Y-51844000D01*
X150959429Y-51629714D02*
X150959429Y-52344000D01*
X152459429Y-52344000D01*
X152459429Y-51629714D01*
X152459429Y-51201143D02*
X152459429Y-50344000D01*
X150959429Y-50772571D02*
X152459429Y-50772571D01*
X154078857Y-54506571D02*
X154007429Y-54292285D01*
X154007429Y-53935142D01*
X154078857Y-53792285D01*
X154150286Y-53720856D01*
X154293143Y-53649428D01*
X154436000Y-53649428D01*
X154578857Y-53720856D01*
X154650286Y-53792285D01*
X154721714Y-53935142D01*
X154793143Y-54220856D01*
X154864571Y-54363714D01*
X154936000Y-54435142D01*
X155078857Y-54506571D01*
X155221714Y-54506571D01*
X155364571Y-54435142D01*
X155436000Y-54363714D01*
X155507429Y-54220856D01*
X155507429Y-53863714D01*
X155436000Y-53649428D01*
X154150286Y-52149428D02*
X154078857Y-52220857D01*
X154007429Y-52435143D01*
X154007429Y-52578000D01*
X154078857Y-52792285D01*
X154221714Y-52935143D01*
X154364571Y-53006571D01*
X154650286Y-53078000D01*
X154864571Y-53078000D01*
X155150286Y-53006571D01*
X155293143Y-52935143D01*
X155436000Y-52792285D01*
X155507429Y-52578000D01*
X155507429Y-52435143D01*
X155436000Y-52220857D01*
X155364571Y-52149428D01*
X154007429Y-51506571D02*
X155507429Y-51506571D01*
X154007429Y-50649428D02*
X154864571Y-51292285D01*
X155507429Y-50649428D02*
X154650286Y-51506571D01*
X151842857Y-63750000D02*
X151985714Y-63678571D01*
X152200000Y-63678571D01*
X152414285Y-63750000D01*
X152557143Y-63892857D01*
X152628571Y-64035714D01*
X152700000Y-64321429D01*
X152700000Y-64535714D01*
X152628571Y-64821429D01*
X152557143Y-64964286D01*
X152414285Y-65107143D01*
X152200000Y-65178571D01*
X152057143Y-65178571D01*
X151842857Y-65107143D01*
X151771428Y-65035714D01*
X151771428Y-64535714D01*
X152057143Y-64535714D01*
X151128571Y-65178571D02*
X151128571Y-63678571D01*
X150271428Y-65178571D01*
X150271428Y-63678571D01*
X149557142Y-65178571D02*
X149557142Y-63678571D01*
X149199999Y-63678571D01*
X148985714Y-63750000D01*
X148842856Y-63892857D01*
X148771428Y-64035714D01*
X148699999Y-64321429D01*
X148699999Y-64535714D01*
X148771428Y-64821429D01*
X148842856Y-64964286D01*
X148985714Y-65107143D01*
X149199999Y-65178571D01*
X149557142Y-65178571D01*
X151887999Y-70274571D02*
X152387999Y-69560286D01*
X152745142Y-70274571D02*
X152745142Y-68774571D01*
X152173714Y-68774571D01*
X152030856Y-68846000D01*
X151959428Y-68917429D01*
X151887999Y-69060286D01*
X151887999Y-69274571D01*
X151959428Y-69417429D01*
X152030856Y-69488857D01*
X152173714Y-69560286D01*
X152745142Y-69560286D01*
X151387999Y-68774571D02*
X150387999Y-70274571D01*
X150387999Y-68774571D02*
X151387999Y-70274571D01*
X152780857Y-66234571D02*
X151923714Y-66234571D01*
X152352285Y-67734571D02*
X152352285Y-66234571D01*
X151566571Y-66234571D02*
X150566571Y-67734571D01*
X150566571Y-66234571D02*
X151566571Y-67734571D01*
X152700000Y-71478571D02*
X152200000Y-72978571D01*
X151700000Y-71478571D01*
X150342857Y-72835714D02*
X150414286Y-72907143D01*
X150628572Y-72978571D01*
X150771429Y-72978571D01*
X150985714Y-72907143D01*
X151128572Y-72764286D01*
X151200000Y-72621429D01*
X151271429Y-72335714D01*
X151271429Y-72121429D01*
X151200000Y-71835714D01*
X151128572Y-71692857D01*
X150985714Y-71550000D01*
X150771429Y-71478571D01*
X150628572Y-71478571D01*
X150414286Y-71550000D01*
X150342857Y-71621429D01*
X148842857Y-72835714D02*
X148914286Y-72907143D01*
X149128572Y-72978571D01*
X149271429Y-72978571D01*
X149485714Y-72907143D01*
X149628572Y-72764286D01*
X149700000Y-72621429D01*
X149771429Y-72335714D01*
X149771429Y-72121429D01*
X149700000Y-71835714D01*
X149628572Y-71692857D01*
X149485714Y-71550000D01*
X149271429Y-71478571D01*
X149128572Y-71478571D01*
X148914286Y-71550000D01*
X148842857Y-71621429D01*
X125027142Y-58868571D02*
X124169999Y-58868571D01*
X124598570Y-60368571D02*
X124598570Y-58868571D01*
X123812856Y-58868571D02*
X122812856Y-60368571D01*
X122812856Y-58868571D02*
X123812856Y-60368571D01*
X122598571Y-60511429D02*
X121455714Y-60511429D01*
X121098571Y-60368571D02*
X121098571Y-58868571D01*
X120527143Y-58868571D01*
X120384285Y-58940000D01*
X120312857Y-59011429D01*
X120241428Y-59154286D01*
X120241428Y-59368571D01*
X120312857Y-59511429D01*
X120384285Y-59582857D01*
X120527143Y-59654286D01*
X121098571Y-59654286D01*
X119670000Y-59940000D02*
X118955714Y-59940000D01*
X119812857Y-60368571D02*
X119312857Y-58868571D01*
X118812857Y-60368571D01*
X130682857Y-58868571D02*
X129825714Y-58868571D01*
X130254285Y-60368571D02*
X130254285Y-58868571D01*
X129468571Y-58868571D02*
X128468571Y-60368571D01*
X128468571Y-58868571D02*
X129468571Y-60368571D01*
X94607143Y-44285715D02*
X94607143Y-45428572D01*
X95178571Y-44857143D02*
X94035714Y-44857143D01*
X95178571Y-46928572D02*
X95178571Y-46071429D01*
X95178571Y-46500001D02*
X93678571Y-46500001D01*
X93892857Y-46357144D01*
X94035714Y-46214286D01*
X94107143Y-46071429D01*
X93678571Y-47428572D02*
X93678571Y-48357143D01*
X94250000Y-47857143D01*
X94250000Y-48071429D01*
X94321429Y-48214286D01*
X94392857Y-48285715D01*
X94535714Y-48357143D01*
X94892857Y-48357143D01*
X95035714Y-48285715D01*
X95107143Y-48214286D01*
X95178571Y-48071429D01*
X95178571Y-47642857D01*
X95107143Y-47500000D01*
X95035714Y-47428572D01*
X95035714Y-49000000D02*
X95107143Y-49071428D01*
X95178571Y-49000000D01*
X95107143Y-48928571D01*
X95035714Y-49000000D01*
X95178571Y-49000000D01*
X94321429Y-49928572D02*
X94250000Y-49785714D01*
X94178571Y-49714286D01*
X94035714Y-49642857D01*
X93964286Y-49642857D01*
X93821429Y-49714286D01*
X93750000Y-49785714D01*
X93678571Y-49928572D01*
X93678571Y-50214286D01*
X93750000Y-50357143D01*
X93821429Y-50428572D01*
X93964286Y-50500000D01*
X94035714Y-50500000D01*
X94178571Y-50428572D01*
X94250000Y-50357143D01*
X94321429Y-50214286D01*
X94321429Y-49928572D01*
X94392857Y-49785714D01*
X94464286Y-49714286D01*
X94607143Y-49642857D01*
X94892857Y-49642857D01*
X95035714Y-49714286D01*
X95107143Y-49785714D01*
X95178571Y-49928572D01*
X95178571Y-50214286D01*
X95107143Y-50357143D01*
X95035714Y-50428572D01*
X94892857Y-50500000D01*
X94607143Y-50500000D01*
X94464286Y-50428572D01*
X94392857Y-50357143D01*
X94321429Y-50214286D01*
X93678571Y-50928571D02*
X95178571Y-51428571D01*
X93678571Y-51928571D01*
X141671428Y-54492857D02*
X141457142Y-54564286D01*
X141385714Y-54635714D01*
X141314285Y-54778571D01*
X141314285Y-54992857D01*
X141385714Y-55135714D01*
X141457142Y-55207143D01*
X141600000Y-55278571D01*
X142171428Y-55278571D01*
X142171428Y-53778571D01*
X141671428Y-53778571D01*
X141528571Y-53850000D01*
X141457142Y-53921429D01*
X141385714Y-54064286D01*
X141385714Y-54207143D01*
X141457142Y-54350000D01*
X141528571Y-54421429D01*
X141671428Y-54492857D01*
X142171428Y-54492857D01*
X140742857Y-54850000D02*
X140028571Y-54850000D01*
X140885714Y-55278571D02*
X140385714Y-53778571D01*
X139885714Y-55278571D01*
X139385714Y-55278571D02*
X139385714Y-53778571D01*
X138528571Y-55278571D01*
X138528571Y-53778571D01*
X137814285Y-55278571D02*
X137814285Y-53778571D01*
X137457142Y-53778571D01*
X137242857Y-53850000D01*
X137099999Y-53992857D01*
X137028571Y-54135714D01*
X136957142Y-54421429D01*
X136957142Y-54635714D01*
X137028571Y-54921429D01*
X137099999Y-55064286D01*
X137242857Y-55207143D01*
X137457142Y-55278571D01*
X137814285Y-55278571D01*
X142921429Y-52292857D02*
X143707143Y-52292857D01*
X143850000Y-52364286D01*
X143921429Y-52507143D01*
X143921429Y-52792857D01*
X143850000Y-52935714D01*
X142992857Y-52292857D02*
X142921429Y-52435714D01*
X142921429Y-52792857D01*
X142992857Y-52935714D01*
X143135714Y-53007143D01*
X143278571Y-53007143D01*
X143421429Y-52935714D01*
X143492857Y-52792857D01*
X143492857Y-52435714D01*
X143564286Y-52292857D01*
X144421429Y-51721428D02*
X144421429Y-50792857D01*
X143850000Y-51292857D01*
X143850000Y-51078571D01*
X143778571Y-50935714D01*
X143707143Y-50864285D01*
X143564286Y-50792857D01*
X143207143Y-50792857D01*
X143064286Y-50864285D01*
X142992857Y-50935714D01*
X142921429Y-51078571D01*
X142921429Y-51507143D01*
X142992857Y-51650000D01*
X143064286Y-51721428D01*
X140321429Y-52292857D02*
X141107143Y-52292857D01*
X141250000Y-52364286D01*
X141321429Y-52507143D01*
X141321429Y-52792857D01*
X141250000Y-52935714D01*
X140392857Y-52292857D02*
X140321429Y-52435714D01*
X140321429Y-52792857D01*
X140392857Y-52935714D01*
X140535714Y-53007143D01*
X140678571Y-53007143D01*
X140821429Y-52935714D01*
X140892857Y-52792857D01*
X140892857Y-52435714D01*
X140964286Y-52292857D01*
X141678571Y-51650000D02*
X141750000Y-51578571D01*
X141821429Y-51435714D01*
X141821429Y-51078571D01*
X141750000Y-50935714D01*
X141678571Y-50864285D01*
X141535714Y-50792857D01*
X141392857Y-50792857D01*
X141178571Y-50864285D01*
X140321429Y-51721428D01*
X140321429Y-50792857D01*
X137921429Y-52292857D02*
X138707143Y-52292857D01*
X138850000Y-52364286D01*
X138921429Y-52507143D01*
X138921429Y-52792857D01*
X138850000Y-52935714D01*
X137992857Y-52292857D02*
X137921429Y-52435714D01*
X137921429Y-52792857D01*
X137992857Y-52935714D01*
X138135714Y-53007143D01*
X138278571Y-53007143D01*
X138421429Y-52935714D01*
X138492857Y-52792857D01*
X138492857Y-52435714D01*
X138564286Y-52292857D01*
X137921429Y-50792857D02*
X137921429Y-51650000D01*
X137921429Y-51221428D02*
X139421429Y-51221428D01*
X139207143Y-51364285D01*
X139064286Y-51507143D01*
X138992857Y-51650000D01*
X135221429Y-52392857D02*
X136007143Y-52392857D01*
X136150000Y-52464286D01*
X136221429Y-52607143D01*
X136221429Y-52892857D01*
X136150000Y-53035714D01*
X135292857Y-52392857D02*
X135221429Y-52535714D01*
X135221429Y-52892857D01*
X135292857Y-53035714D01*
X135435714Y-53107143D01*
X135578571Y-53107143D01*
X135721429Y-53035714D01*
X135792857Y-52892857D01*
X135792857Y-52535714D01*
X135864286Y-52392857D01*
X136721429Y-51392857D02*
X136721429Y-51250000D01*
X136650000Y-51107143D01*
X136578571Y-51035714D01*
X136435714Y-50964285D01*
X136150000Y-50892857D01*
X135792857Y-50892857D01*
X135507143Y-50964285D01*
X135364286Y-51035714D01*
X135292857Y-51107143D01*
X135221429Y-51250000D01*
X135221429Y-51392857D01*
X135292857Y-51535714D01*
X135364286Y-51607143D01*
X135507143Y-51678571D01*
X135792857Y-51750000D01*
X136150000Y-51750000D01*
X136435714Y-51678571D01*
X136578571Y-51607143D01*
X136650000Y-51535714D01*
X136721429Y-51392857D01*
D12*
X102170000Y-63695000D02*
X101260000Y-63695000D01*
X104470000Y-63695000D02*
X103570000Y-63695000D01*
X104480000Y-66770000D02*
X104480000Y-63695000D01*
X101260000Y-65845000D02*
X101260000Y-63695000D01*
X99950000Y-86800000D02*
X99950000Y-70825000D01*
X99950000Y-70825000D02*
X105050000Y-70825000D01*
X105050000Y-70825000D02*
X105050000Y-86800000D01*
D13*
X126100000Y-106700000D02*
X125600000Y-106700000D01*
X125600000Y-107900000D02*
X126100000Y-107900000D01*
X90070000Y-79720000D02*
X89570000Y-79720000D01*
X89570000Y-80920000D02*
X90070000Y-80920000D01*
X83750000Y-64800000D02*
X84250000Y-64800000D01*
X84250000Y-63600000D02*
X83750000Y-63600000D01*
X96700000Y-69550000D02*
X96700000Y-70050000D01*
X97900000Y-70050000D02*
X97900000Y-69550000D01*
X90700000Y-52675000D02*
X91500000Y-52675000D01*
X91500000Y-51325000D02*
X90700000Y-51325000D01*
X122790000Y-70525000D02*
X123590000Y-70525000D01*
X123590000Y-69175000D02*
X122790000Y-69175000D01*
X144275000Y-58300000D02*
X144275000Y-57500000D01*
X142925000Y-57500000D02*
X142925000Y-58300000D01*
X141575000Y-58300000D02*
X141575000Y-57500000D01*
X140225000Y-57500000D02*
X140225000Y-58300000D01*
X138975000Y-58300000D02*
X138975000Y-57500000D01*
X137625000Y-57500000D02*
X137625000Y-58300000D01*
X135125000Y-57500000D02*
X135125000Y-58300000D01*
X136475000Y-58300000D02*
X136475000Y-57500000D01*
X132675000Y-68180000D02*
X132675000Y-68980000D01*
X134025000Y-68980000D02*
X134025000Y-68180000D01*
X123900000Y-110850000D02*
X123400000Y-110850000D01*
X123400000Y-112050000D02*
X123900000Y-112050000D01*
X153000000Y-80260000D02*
X153000000Y-79760000D01*
X151800000Y-79760000D02*
X151800000Y-80260000D01*
X87500000Y-60650000D02*
X87500000Y-60150000D01*
X86300000Y-60150000D02*
X86300000Y-60650000D01*
X93200000Y-60650000D02*
X93200000Y-60150000D01*
X92000000Y-60150000D02*
X92000000Y-60650000D01*
X143940000Y-68480000D02*
X143940000Y-67980000D01*
X142740000Y-67980000D02*
X142740000Y-68480000D01*
D12*
X72921392Y-49542335D02*
G75*
G02X72764484Y-46310000I1078608J1672335D01*
G01*
X75078608Y-49542335D02*
G75*
G03X75235516Y-46310000I-1078608J1672335D01*
G01*
X72920163Y-48911130D02*
G75*
G02X72920000Y-46829039I1079837J1041130D01*
G01*
X75079837Y-48911130D02*
G75*
G03X75080000Y-46829039I-1079837J1041130D01*
G01*
X72764000Y-46310000D02*
X72920000Y-46310000D01*
X75080000Y-46310000D02*
X75236000Y-46310000D01*
X88250000Y-53700000D02*
X95550000Y-53700000D01*
X95550000Y-53700000D02*
X95550000Y-55700000D01*
X95550000Y-55700000D02*
X88250000Y-55700000D01*
X150790000Y-49730000D02*
X150790000Y-44530000D01*
X155930000Y-49730000D02*
X150790000Y-49730000D01*
X158530000Y-44530000D02*
X150790000Y-44530000D01*
X155930000Y-49730000D02*
X155930000Y-47130000D01*
X155930000Y-47130000D02*
X158530000Y-47130000D01*
X158530000Y-47130000D02*
X158530000Y-44530000D01*
X157200000Y-49730000D02*
X158530000Y-49730000D01*
X158530000Y-49730000D02*
X158530000Y-48400000D01*
X156140000Y-73430000D02*
X156140000Y-63150000D01*
X156140000Y-63150000D02*
X158800000Y-63150000D01*
X158800000Y-63150000D02*
X158800000Y-73430000D01*
X158800000Y-73430000D02*
X156140000Y-73430000D01*
X158800000Y-72480000D02*
X164800000Y-72480000D01*
X164800000Y-72480000D02*
X164800000Y-71720000D01*
X164800000Y-71720000D02*
X158800000Y-71720000D01*
X158800000Y-72420000D02*
X164800000Y-72420000D01*
X158800000Y-72300000D02*
X164800000Y-72300000D01*
X158800000Y-72180000D02*
X164800000Y-72180000D01*
X158800000Y-72060000D02*
X164800000Y-72060000D01*
X158800000Y-71940000D02*
X164800000Y-71940000D01*
X158800000Y-71820000D02*
X164800000Y-71820000D01*
X155810000Y-72480000D02*
X156140000Y-72480000D01*
X155810000Y-71720000D02*
X156140000Y-71720000D01*
X156140000Y-70830000D02*
X158800000Y-70830000D01*
X158800000Y-69940000D02*
X164800000Y-69940000D01*
X164800000Y-69940000D02*
X164800000Y-69180000D01*
X164800000Y-69180000D02*
X158800000Y-69180000D01*
X155742929Y-69940000D02*
X156140000Y-69940000D01*
X155742929Y-69180000D02*
X156140000Y-69180000D01*
X156140000Y-68290000D02*
X158800000Y-68290000D01*
X158800000Y-67400000D02*
X164800000Y-67400000D01*
X164800000Y-67400000D02*
X164800000Y-66640000D01*
X164800000Y-66640000D02*
X158800000Y-66640000D01*
X155742929Y-67400000D02*
X156140000Y-67400000D01*
X155742929Y-66640000D02*
X156140000Y-66640000D01*
X156140000Y-65750000D02*
X158800000Y-65750000D01*
X158800000Y-64860000D02*
X164800000Y-64860000D01*
X164800000Y-64860000D02*
X164800000Y-64100000D01*
X164800000Y-64100000D02*
X158800000Y-64100000D01*
X155742929Y-64860000D02*
X156140000Y-64860000D01*
X155742929Y-64100000D02*
X156140000Y-64100000D01*
X153430000Y-72100000D02*
X153430000Y-73370000D01*
X153430000Y-73370000D02*
X154700000Y-73370000D01*
X122490000Y-63695000D02*
X121580000Y-63695000D01*
X124790000Y-63695000D02*
X123890000Y-63695000D01*
X124800000Y-66770000D02*
X124800000Y-63695000D01*
X121580000Y-65845000D02*
X121580000Y-63695000D01*
X128465000Y-64200000D02*
X128465000Y-65110000D01*
X128465000Y-61900000D02*
X128465000Y-62800000D01*
X131540000Y-61890000D02*
X128465000Y-61890000D01*
X130615000Y-65110000D02*
X128465000Y-65110000D01*
D13*
X132675000Y-57500000D02*
X132675000Y-58300000D01*
X134025000Y-58300000D02*
X134025000Y-57500000D01*
X132675000Y-73260000D02*
X132675000Y-74060000D01*
X134025000Y-74060000D02*
X134025000Y-73260000D01*
X147720000Y-90765000D02*
X146920000Y-90765000D01*
X146920000Y-92115000D02*
X147720000Y-92115000D01*
X147720000Y-94575000D02*
X146920000Y-94575000D01*
X146920000Y-95925000D02*
X147720000Y-95925000D01*
X151725000Y-85960000D02*
X151725000Y-86760000D01*
X153075000Y-86760000D02*
X153075000Y-85960000D01*
X94380000Y-86955000D02*
X93580000Y-86955000D01*
X93580000Y-88305000D02*
X94380000Y-88305000D01*
X94400000Y-89625000D02*
X93600000Y-89625000D01*
X93600000Y-90975000D02*
X94400000Y-90975000D01*
X79525000Y-60100000D02*
X79525000Y-60900000D01*
X80875000Y-60900000D02*
X80875000Y-60100000D01*
X127200000Y-68875000D02*
X128000000Y-68875000D01*
X128000000Y-67525000D02*
X127200000Y-67525000D01*
X110090000Y-74335000D02*
X110890000Y-74335000D01*
X110890000Y-72985000D02*
X110090000Y-72985000D01*
X117710000Y-74335000D02*
X118510000Y-74335000D01*
X118510000Y-72985000D02*
X117710000Y-72985000D01*
X79300000Y-68125000D02*
X78500000Y-68125000D01*
X78500000Y-69475000D02*
X79300000Y-69475000D01*
X139515000Y-105095000D02*
X139290000Y-105095000D01*
X139515000Y-97845000D02*
X139190000Y-97845000D01*
X132265000Y-97845000D02*
X132590000Y-97845000D01*
X132265000Y-105095000D02*
X132590000Y-105095000D01*
X139515000Y-105095000D02*
X139515000Y-104770000D01*
X132265000Y-105095000D02*
X132265000Y-104770000D01*
X132265000Y-97845000D02*
X132265000Y-98170000D01*
X139515000Y-97845000D02*
X139515000Y-98170000D01*
X139290000Y-105095000D02*
X139290000Y-106520000D01*
X98195000Y-82955000D02*
X97970000Y-82955000D01*
X98195000Y-79605000D02*
X97895000Y-79605000D01*
X94845000Y-79605000D02*
X95145000Y-79605000D01*
X94845000Y-82955000D02*
X95145000Y-82955000D01*
X98195000Y-82955000D02*
X98195000Y-79605000D01*
X94845000Y-82955000D02*
X94845000Y-79605000D01*
X97970000Y-82955000D02*
X97970000Y-84180000D01*
D12*
X145820000Y-84860000D02*
X145820000Y-87860000D01*
X148820000Y-84860000D02*
X148820000Y-88860000D01*
D13*
X160055000Y-108755000D02*
X160005000Y-108755000D01*
X160055000Y-104605000D02*
X159910000Y-104605000D01*
X154905000Y-104605000D02*
X155050000Y-104605000D01*
X154905000Y-108755000D02*
X155050000Y-108755000D01*
X160055000Y-108755000D02*
X160055000Y-104605000D01*
X154905000Y-108755000D02*
X154905000Y-104605000D01*
X160005000Y-108755000D02*
X160005000Y-110155000D01*
D12*
X124610000Y-82390000D02*
X124610000Y-83650000D01*
X124610000Y-89210000D02*
X124610000Y-87950000D01*
X120850000Y-82390000D02*
X124610000Y-82390000D01*
X118600000Y-89210000D02*
X124610000Y-89210000D01*
X124610000Y-94240000D02*
X124610000Y-95500000D01*
X124610000Y-101060000D02*
X124610000Y-99800000D01*
X120850000Y-94240000D02*
X124610000Y-94240000D01*
X118600000Y-101060000D02*
X124610000Y-101060000D01*
X135305000Y-108835000D02*
X129055000Y-108835000D01*
X135305000Y-113885000D02*
X129055000Y-113885000D01*
X135305000Y-113885000D02*
G75*
G03X135305000Y-108835000I0J2525000D01*
G01*
X129055000Y-113885000D02*
G75*
G02X129055000Y-108835000I0J2525000D01*
G01*
D13*
X95500000Y-100120000D02*
X95000000Y-100120000D01*
X95000000Y-101320000D02*
X95500000Y-101320000D01*
D12*
X130870000Y-53170000D02*
X125670000Y-53170000D01*
X125670000Y-53170000D02*
X125670000Y-50510000D01*
X125670000Y-50510000D02*
X130870000Y-50510000D01*
X130870000Y-50510000D02*
X130870000Y-53170000D01*
X129920000Y-50510000D02*
X129920000Y-44510000D01*
X129920000Y-44510000D02*
X129160000Y-44510000D01*
X129160000Y-44510000D02*
X129160000Y-50510000D01*
X129860000Y-50510000D02*
X129860000Y-44510000D01*
X129740000Y-50510000D02*
X129740000Y-44510000D01*
X129620000Y-50510000D02*
X129620000Y-44510000D01*
X129500000Y-50510000D02*
X129500000Y-44510000D01*
X129380000Y-50510000D02*
X129380000Y-44510000D01*
X129260000Y-50510000D02*
X129260000Y-44510000D01*
X129920000Y-53500000D02*
X129920000Y-53170000D01*
X129160000Y-53500000D02*
X129160000Y-53170000D01*
X128270000Y-53170000D02*
X128270000Y-50510000D01*
X127380000Y-50510000D02*
X127380000Y-44510000D01*
X127380000Y-44510000D02*
X126620000Y-44510000D01*
X126620000Y-44510000D02*
X126620000Y-50510000D01*
X127380000Y-53567071D02*
X127380000Y-53170000D01*
X126620000Y-53567071D02*
X126620000Y-53170000D01*
X129540000Y-55880000D02*
X130810000Y-55880000D01*
X130810000Y-55880000D02*
X130810000Y-54610000D01*
X124520000Y-53170000D02*
X119320000Y-53170000D01*
X119320000Y-53170000D02*
X119320000Y-50510000D01*
X119320000Y-50510000D02*
X124520000Y-50510000D01*
X124520000Y-50510000D02*
X124520000Y-53170000D01*
X123570000Y-50510000D02*
X123570000Y-44510000D01*
X123570000Y-44510000D02*
X122810000Y-44510000D01*
X122810000Y-44510000D02*
X122810000Y-50510000D01*
X123510000Y-50510000D02*
X123510000Y-44510000D01*
X123390000Y-50510000D02*
X123390000Y-44510000D01*
X123270000Y-50510000D02*
X123270000Y-44510000D01*
X123150000Y-50510000D02*
X123150000Y-44510000D01*
X123030000Y-50510000D02*
X123030000Y-44510000D01*
X122910000Y-50510000D02*
X122910000Y-44510000D01*
X123570000Y-53500000D02*
X123570000Y-53170000D01*
X122810000Y-53500000D02*
X122810000Y-53170000D01*
X121920000Y-53170000D02*
X121920000Y-50510000D01*
X121030000Y-50510000D02*
X121030000Y-44510000D01*
X121030000Y-44510000D02*
X120270000Y-44510000D01*
X120270000Y-44510000D02*
X120270000Y-50510000D01*
X121030000Y-53567071D02*
X121030000Y-53170000D01*
X120270000Y-53567071D02*
X120270000Y-53170000D01*
X123190000Y-55880000D02*
X124460000Y-55880000D01*
X124460000Y-55880000D02*
X124460000Y-54610000D01*
X111820000Y-53170000D02*
X106620000Y-53170000D01*
X106620000Y-53170000D02*
X106620000Y-50510000D01*
X106620000Y-50510000D02*
X111820000Y-50510000D01*
X111820000Y-50510000D02*
X111820000Y-53170000D01*
X110870000Y-50510000D02*
X110870000Y-44510000D01*
X110870000Y-44510000D02*
X110110000Y-44510000D01*
X110110000Y-44510000D02*
X110110000Y-50510000D01*
X110810000Y-50510000D02*
X110810000Y-44510000D01*
X110690000Y-50510000D02*
X110690000Y-44510000D01*
X110570000Y-50510000D02*
X110570000Y-44510000D01*
X110450000Y-50510000D02*
X110450000Y-44510000D01*
X110330000Y-50510000D02*
X110330000Y-44510000D01*
X110210000Y-50510000D02*
X110210000Y-44510000D01*
X110870000Y-53500000D02*
X110870000Y-53170000D01*
X110110000Y-53500000D02*
X110110000Y-53170000D01*
X109220000Y-53170000D02*
X109220000Y-50510000D01*
X108330000Y-50510000D02*
X108330000Y-44510000D01*
X108330000Y-44510000D02*
X107570000Y-44510000D01*
X107570000Y-44510000D02*
X107570000Y-50510000D01*
X108330000Y-53567071D02*
X108330000Y-53170000D01*
X107570000Y-53567071D02*
X107570000Y-53170000D01*
X110490000Y-55880000D02*
X111760000Y-55880000D01*
X111760000Y-55880000D02*
X111760000Y-54610000D01*
X118170000Y-53170000D02*
X112970000Y-53170000D01*
X112970000Y-53170000D02*
X112970000Y-50510000D01*
X112970000Y-50510000D02*
X118170000Y-50510000D01*
X118170000Y-50510000D02*
X118170000Y-53170000D01*
X117220000Y-50510000D02*
X117220000Y-44510000D01*
X117220000Y-44510000D02*
X116460000Y-44510000D01*
X116460000Y-44510000D02*
X116460000Y-50510000D01*
X117160000Y-50510000D02*
X117160000Y-44510000D01*
X117040000Y-50510000D02*
X117040000Y-44510000D01*
X116920000Y-50510000D02*
X116920000Y-44510000D01*
X116800000Y-50510000D02*
X116800000Y-44510000D01*
X116680000Y-50510000D02*
X116680000Y-44510000D01*
X116560000Y-50510000D02*
X116560000Y-44510000D01*
X117220000Y-53500000D02*
X117220000Y-53170000D01*
X116460000Y-53500000D02*
X116460000Y-53170000D01*
X115570000Y-53170000D02*
X115570000Y-50510000D01*
X114680000Y-50510000D02*
X114680000Y-44510000D01*
X114680000Y-44510000D02*
X113920000Y-44510000D01*
X113920000Y-44510000D02*
X113920000Y-50510000D01*
X114680000Y-53567071D02*
X114680000Y-53170000D01*
X113920000Y-53567071D02*
X113920000Y-53170000D01*
X116840000Y-55880000D02*
X118110000Y-55880000D01*
X118110000Y-55880000D02*
X118110000Y-54610000D01*
D13*
X109330000Y-100120000D02*
X108830000Y-100120000D01*
X108830000Y-101320000D02*
X109330000Y-101320000D01*
D12*
X91410000Y-94530000D02*
X88790000Y-94530000D01*
X88790000Y-94530000D02*
X88790000Y-88110000D01*
X88790000Y-88110000D02*
X91410000Y-88110000D01*
X91410000Y-88110000D02*
X91410000Y-94530000D01*
X90100000Y-95420000D02*
X90100000Y-94530000D01*
X90100000Y-87220000D02*
X90100000Y-88110000D01*
D13*
X144050000Y-105100000D02*
X143550000Y-105100000D01*
X143550000Y-106300000D02*
X144050000Y-106300000D01*
X113450000Y-86330000D02*
X112950000Y-86330000D01*
X112950000Y-87530000D02*
X113450000Y-87530000D01*
D12*
X105370000Y-78070000D02*
X107990000Y-78070000D01*
X107990000Y-78070000D02*
X107990000Y-84490000D01*
X107990000Y-84490000D02*
X105370000Y-84490000D01*
X105370000Y-84490000D02*
X105370000Y-78070000D01*
X106680000Y-77180000D02*
X106680000Y-78070000D01*
X106680000Y-85380000D02*
X106680000Y-84490000D01*
D13*
X83750000Y-73800000D02*
X84250000Y-73800000D01*
X84250000Y-72600000D02*
X83750000Y-72600000D01*
X94100000Y-74050000D02*
X94100000Y-74550000D01*
X95300000Y-74550000D02*
X95300000Y-74050000D01*
X151950000Y-108700000D02*
X151450000Y-108700000D01*
X151450000Y-109900000D02*
X151950000Y-109900000D01*
D12*
X149778608Y-77757665D02*
G75*
G02X149935516Y-80990000I-1078608J-1672335D01*
G01*
X147621392Y-77757665D02*
G75*
G03X147464484Y-80990000I1078608J-1672335D01*
G01*
X149779837Y-78388870D02*
G75*
G02X149780000Y-80470961I-1079837J-1041130D01*
G01*
X147620163Y-78388870D02*
G75*
G03X147620000Y-80470961I1079837J-1041130D01*
G01*
X149936000Y-80990000D02*
X149780000Y-80990000D01*
X147620000Y-80990000D02*
X147464000Y-80990000D01*
X141725000Y-75900000D02*
X141725000Y-76810000D01*
X141725000Y-73600000D02*
X141725000Y-74500000D01*
X144800000Y-73590000D02*
X141725000Y-73590000D01*
X143875000Y-76810000D02*
X141725000Y-76810000D01*
D13*
X143925000Y-79200000D02*
X143925000Y-80000000D01*
X145275000Y-80000000D02*
X145275000Y-79200000D01*
X149050000Y-74425000D02*
X148250000Y-74425000D01*
X148250000Y-75775000D02*
X149050000Y-75775000D01*
X87500000Y-69950000D02*
X87500000Y-69450000D01*
X86300000Y-69450000D02*
X86300000Y-69950000D01*
X93300000Y-69950000D02*
X93300000Y-69450000D01*
X92100000Y-69450000D02*
X92100000Y-69950000D01*
X91850000Y-78400000D02*
X92350000Y-78400000D01*
X92350000Y-77200000D02*
X91850000Y-77200000D01*
X89450000Y-64800000D02*
X89950000Y-64800000D01*
X89950000Y-63600000D02*
X89450000Y-63600000D01*
X89450000Y-73800000D02*
X89950000Y-73800000D01*
X89950000Y-72600000D02*
X89450000Y-72600000D01*
X78775000Y-80000000D02*
X78775000Y-79200000D01*
X77425000Y-79200000D02*
X77425000Y-80000000D01*
D12*
X80060000Y-82070000D02*
X80060000Y-112670000D01*
X80060000Y-112670000D02*
X77400000Y-112670000D01*
X77400000Y-112670000D02*
X77400000Y-82070000D01*
X77400000Y-82070000D02*
X80060000Y-82070000D01*
X77400000Y-83020000D02*
X71400000Y-83020000D01*
X71400000Y-83020000D02*
X71400000Y-83780000D01*
X71400000Y-83780000D02*
X77400000Y-83780000D01*
X77400000Y-83080000D02*
X71400000Y-83080000D01*
X77400000Y-83200000D02*
X71400000Y-83200000D01*
X77400000Y-83320000D02*
X71400000Y-83320000D01*
X77400000Y-83440000D02*
X71400000Y-83440000D01*
X77400000Y-83560000D02*
X71400000Y-83560000D01*
X77400000Y-83680000D02*
X71400000Y-83680000D01*
X80390000Y-83020000D02*
X80060000Y-83020000D01*
X80390000Y-83780000D02*
X80060000Y-83780000D01*
X80060000Y-84670000D02*
X77400000Y-84670000D01*
X77400000Y-85560000D02*
X71400000Y-85560000D01*
X71400000Y-85560000D02*
X71400000Y-86320000D01*
X71400000Y-86320000D02*
X77400000Y-86320000D01*
X80457071Y-85560000D02*
X80060000Y-85560000D01*
X80457071Y-86320000D02*
X80060000Y-86320000D01*
X80060000Y-87210000D02*
X77400000Y-87210000D01*
X77400000Y-88100000D02*
X71400000Y-88100000D01*
X71400000Y-88100000D02*
X71400000Y-88860000D01*
X71400000Y-88860000D02*
X77400000Y-88860000D01*
X80457071Y-88100000D02*
X80060000Y-88100000D01*
X80457071Y-88860000D02*
X80060000Y-88860000D01*
X80060000Y-89750000D02*
X77400000Y-89750000D01*
X77400000Y-90640000D02*
X71400000Y-90640000D01*
X71400000Y-90640000D02*
X71400000Y-91400000D01*
X71400000Y-91400000D02*
X77400000Y-91400000D01*
X80457071Y-90640000D02*
X80060000Y-90640000D01*
X80457071Y-91400000D02*
X80060000Y-91400000D01*
X80060000Y-92290000D02*
X77400000Y-92290000D01*
X77400000Y-93180000D02*
X71400000Y-93180000D01*
X71400000Y-93180000D02*
X71400000Y-93940000D01*
X71400000Y-93940000D02*
X77400000Y-93940000D01*
X80457071Y-93180000D02*
X80060000Y-93180000D01*
X80457071Y-93940000D02*
X80060000Y-93940000D01*
X80060000Y-94830000D02*
X77400000Y-94830000D01*
X77400000Y-95720000D02*
X71400000Y-95720000D01*
X71400000Y-95720000D02*
X71400000Y-96480000D01*
X71400000Y-96480000D02*
X77400000Y-96480000D01*
X80457071Y-95720000D02*
X80060000Y-95720000D01*
X80457071Y-96480000D02*
X80060000Y-96480000D01*
X80060000Y-97370000D02*
X77400000Y-97370000D01*
X77400000Y-98260000D02*
X71400000Y-98260000D01*
X71400000Y-98260000D02*
X71400000Y-99020000D01*
X71400000Y-99020000D02*
X77400000Y-99020000D01*
X80457071Y-98260000D02*
X80060000Y-98260000D01*
X80457071Y-99020000D02*
X80060000Y-99020000D01*
X80060000Y-99910000D02*
X77400000Y-99910000D01*
X77400000Y-100800000D02*
X71400000Y-100800000D01*
X71400000Y-100800000D02*
X71400000Y-101560000D01*
X71400000Y-101560000D02*
X77400000Y-101560000D01*
X80457071Y-100800000D02*
X80060000Y-100800000D01*
X80457071Y-101560000D02*
X80060000Y-101560000D01*
X80060000Y-102450000D02*
X77400000Y-102450000D01*
X77400000Y-103340000D02*
X71400000Y-103340000D01*
X71400000Y-103340000D02*
X71400000Y-104100000D01*
X71400000Y-104100000D02*
X77400000Y-104100000D01*
X80457071Y-103340000D02*
X80060000Y-103340000D01*
X80457071Y-104100000D02*
X80060000Y-104100000D01*
X80060000Y-104990000D02*
X77400000Y-104990000D01*
X77400000Y-105880000D02*
X71400000Y-105880000D01*
X71400000Y-105880000D02*
X71400000Y-106640000D01*
X71400000Y-106640000D02*
X77400000Y-106640000D01*
X80457071Y-105880000D02*
X80060000Y-105880000D01*
X80457071Y-106640000D02*
X80060000Y-106640000D01*
X80060000Y-107530000D02*
X77400000Y-107530000D01*
X77400000Y-108420000D02*
X71400000Y-108420000D01*
X71400000Y-108420000D02*
X71400000Y-109180000D01*
X71400000Y-109180000D02*
X77400000Y-109180000D01*
X80457071Y-108420000D02*
X80060000Y-108420000D01*
X80457071Y-109180000D02*
X80060000Y-109180000D01*
X80060000Y-110070000D02*
X77400000Y-110070000D01*
X77400000Y-110960000D02*
X71400000Y-110960000D01*
X71400000Y-110960000D02*
X71400000Y-111720000D01*
X71400000Y-111720000D02*
X77400000Y-111720000D01*
X80457071Y-110960000D02*
X80060000Y-110960000D01*
X80457071Y-111720000D02*
X80060000Y-111720000D01*
X82770000Y-83400000D02*
X82770000Y-82130000D01*
X82770000Y-82130000D02*
X81500000Y-82130000D01*
X103800000Y-51550000D02*
X103800000Y-58850000D01*
X103800000Y-58850000D02*
X101800000Y-58850000D01*
X101800000Y-58850000D02*
X101800000Y-51550000D01*
X109800000Y-68750000D02*
X109800000Y-61450000D01*
X109800000Y-61450000D02*
X111800000Y-61450000D01*
X111800000Y-61450000D02*
X111800000Y-68750000D01*
X113600000Y-63695000D02*
X112690000Y-63695000D01*
X115900000Y-63695000D02*
X115000000Y-63695000D01*
X115910000Y-66770000D02*
X115910000Y-63695000D01*
X112690000Y-65845000D02*
X112690000Y-63695000D01*
D13*
X102500000Y-70075000D02*
X103300000Y-70075000D01*
X103300000Y-68725000D02*
X102500000Y-68725000D01*
X113625000Y-71990000D02*
X113625000Y-72790000D01*
X114975000Y-72790000D02*
X114975000Y-71990000D01*
D12*
X85520000Y-111940000D02*
X93260000Y-111940000D01*
X93260000Y-111940000D02*
X93260000Y-114600000D01*
X93260000Y-114600000D02*
X85520000Y-114600000D01*
X85520000Y-114600000D02*
X85520000Y-111940000D01*
X86470000Y-114600000D02*
X86470000Y-120600000D01*
X86470000Y-120600000D02*
X87230000Y-120600000D01*
X87230000Y-120600000D02*
X87230000Y-114600000D01*
X86530000Y-114600000D02*
X86530000Y-120600000D01*
X86650000Y-114600000D02*
X86650000Y-120600000D01*
X86770000Y-114600000D02*
X86770000Y-120600000D01*
X86890000Y-114600000D02*
X86890000Y-120600000D01*
X87010000Y-114600000D02*
X87010000Y-120600000D01*
X87130000Y-114600000D02*
X87130000Y-120600000D01*
X86470000Y-111610000D02*
X86470000Y-111940000D01*
X87230000Y-111610000D02*
X87230000Y-111940000D01*
X88120000Y-111940000D02*
X88120000Y-114600000D01*
X89010000Y-114600000D02*
X89010000Y-120600000D01*
X89010000Y-120600000D02*
X89770000Y-120600000D01*
X89770000Y-120600000D02*
X89770000Y-114600000D01*
X89010000Y-111542929D02*
X89010000Y-111940000D01*
X89770000Y-111542929D02*
X89770000Y-111940000D01*
X90660000Y-111940000D02*
X90660000Y-114600000D01*
X91550000Y-114600000D02*
X91550000Y-120600000D01*
X91550000Y-120600000D02*
X92310000Y-120600000D01*
X92310000Y-120600000D02*
X92310000Y-114600000D01*
X91550000Y-111542929D02*
X91550000Y-111940000D01*
X92310000Y-111542929D02*
X92310000Y-111940000D01*
X86850000Y-109230000D02*
X85580000Y-109230000D01*
X85580000Y-109230000D02*
X85580000Y-110500000D01*
D13*
X114150000Y-109325000D02*
X113350000Y-109325000D01*
X113350000Y-110675000D02*
X114150000Y-110675000D01*
X108300000Y-112525000D02*
X107500000Y-112525000D01*
X107500000Y-113875000D02*
X108300000Y-113875000D01*
X101600000Y-113875000D02*
X102400000Y-113875000D01*
X102400000Y-112525000D02*
X101600000Y-112525000D01*
X95700000Y-110675000D02*
X96500000Y-110675000D01*
X96500000Y-109325000D02*
X95700000Y-109325000D01*
X95900000Y-113800000D02*
X96400000Y-113800000D01*
X96400000Y-112600000D02*
X95900000Y-112600000D01*
X114050000Y-112600000D02*
X113550000Y-112600000D01*
X113550000Y-113800000D02*
X114050000Y-113800000D01*
D12*
X92840000Y-82150000D02*
X87340000Y-82150000D01*
X92840000Y-84250000D02*
X87340000Y-84250000D01*
X92840000Y-82150000D02*
X92840000Y-84250000D01*
X148270000Y-72180000D02*
X148270000Y-66680000D01*
X146170000Y-72180000D02*
X146170000Y-66680000D01*
X148270000Y-72180000D02*
X146170000Y-72180000D01*
X121760000Y-76920000D02*
X112160000Y-76920000D01*
X121760000Y-81720000D02*
X112160000Y-81720000D01*
X121760000Y-76920000D02*
X121760000Y-81720000D01*
X116950000Y-94600000D02*
X107350000Y-94600000D01*
X116950000Y-99400000D02*
X107350000Y-99400000D01*
X116950000Y-94600000D02*
X116950000Y-99400000D01*
X103770000Y-94600000D02*
X94170000Y-94600000D01*
X103770000Y-99400000D02*
X94170000Y-99400000D01*
X103770000Y-94600000D02*
X103770000Y-99400000D01*
X87900000Y-46450000D02*
X82400000Y-46450000D01*
X87900000Y-48550000D02*
X82400000Y-48550000D01*
X87900000Y-46450000D02*
X87900000Y-48550000D01*
D13*
X105917619Y-64674762D02*
X105870000Y-64579524D01*
X105774762Y-64484286D01*
X105631905Y-64341429D01*
X105584286Y-64246190D01*
X105584286Y-64150952D01*
X105822381Y-64198571D02*
X105774762Y-64103333D01*
X105679524Y-64008095D01*
X105489048Y-63960476D01*
X105155714Y-63960476D01*
X104965238Y-64008095D01*
X104870000Y-64103333D01*
X104822381Y-64198571D01*
X104822381Y-64389048D01*
X104870000Y-64484286D01*
X104965238Y-64579524D01*
X105155714Y-64627143D01*
X105489048Y-64627143D01*
X105679524Y-64579524D01*
X105774762Y-64484286D01*
X105822381Y-64389048D01*
X105822381Y-64198571D01*
X105155714Y-65484286D02*
X105822381Y-65484286D01*
X104774762Y-65246190D02*
X105489048Y-65008095D01*
X105489048Y-65627143D01*
X99176190Y-75723809D02*
X99652381Y-75723809D01*
X98652381Y-75390476D02*
X99176190Y-75723809D01*
X98652381Y-76057143D01*
X98747619Y-76342857D02*
X98700000Y-76390476D01*
X98652381Y-76485714D01*
X98652381Y-76723810D01*
X98700000Y-76819048D01*
X98747619Y-76866667D01*
X98842857Y-76914286D01*
X98938095Y-76914286D01*
X99080952Y-76866667D01*
X99652381Y-76295238D01*
X99652381Y-76914286D01*
X126016666Y-105957143D02*
X126064285Y-106004762D01*
X126207142Y-106052381D01*
X126302380Y-106052381D01*
X126445238Y-106004762D01*
X126540476Y-105909524D01*
X126588095Y-105814286D01*
X126635714Y-105623810D01*
X126635714Y-105480952D01*
X126588095Y-105290476D01*
X126540476Y-105195238D01*
X126445238Y-105100000D01*
X126302380Y-105052381D01*
X126207142Y-105052381D01*
X126064285Y-105100000D01*
X126016666Y-105147619D01*
X125635714Y-105147619D02*
X125588095Y-105100000D01*
X125492857Y-105052381D01*
X125254761Y-105052381D01*
X125159523Y-105100000D01*
X125111904Y-105147619D01*
X125064285Y-105242857D01*
X125064285Y-105338095D01*
X125111904Y-105480952D01*
X125683333Y-106052381D01*
X125064285Y-106052381D01*
X86776666Y-80707143D02*
X86824285Y-80754762D01*
X86967142Y-80802381D01*
X87062380Y-80802381D01*
X87205238Y-80754762D01*
X87300476Y-80659524D01*
X87348095Y-80564286D01*
X87395714Y-80373810D01*
X87395714Y-80230952D01*
X87348095Y-80040476D01*
X87300476Y-79945238D01*
X87205238Y-79850000D01*
X87062380Y-79802381D01*
X86967142Y-79802381D01*
X86824285Y-79850000D01*
X86776666Y-79897619D01*
X85919523Y-80135714D02*
X85919523Y-80802381D01*
X86157619Y-79754762D02*
X86395714Y-80469048D01*
X85776666Y-80469048D01*
X84166666Y-66357143D02*
X84214285Y-66404762D01*
X84357142Y-66452381D01*
X84452380Y-66452381D01*
X84595238Y-66404762D01*
X84690476Y-66309524D01*
X84738095Y-66214286D01*
X84785714Y-66023810D01*
X84785714Y-65880952D01*
X84738095Y-65690476D01*
X84690476Y-65595238D01*
X84595238Y-65500000D01*
X84452380Y-65452381D01*
X84357142Y-65452381D01*
X84214285Y-65500000D01*
X84166666Y-65547619D01*
X83309523Y-65452381D02*
X83500000Y-65452381D01*
X83595238Y-65500000D01*
X83642857Y-65547619D01*
X83738095Y-65690476D01*
X83785714Y-65880952D01*
X83785714Y-66261905D01*
X83738095Y-66357143D01*
X83690476Y-66404762D01*
X83595238Y-66452381D01*
X83404761Y-66452381D01*
X83309523Y-66404762D01*
X83261904Y-66357143D01*
X83214285Y-66261905D01*
X83214285Y-66023810D01*
X83261904Y-65928571D01*
X83309523Y-65880952D01*
X83404761Y-65833333D01*
X83595238Y-65833333D01*
X83690476Y-65880952D01*
X83738095Y-65928571D01*
X83785714Y-66023810D01*
X99357143Y-69633334D02*
X99404762Y-69585715D01*
X99452381Y-69442858D01*
X99452381Y-69347620D01*
X99404762Y-69204762D01*
X99309524Y-69109524D01*
X99214286Y-69061905D01*
X99023810Y-69014286D01*
X98880952Y-69014286D01*
X98690476Y-69061905D01*
X98595238Y-69109524D01*
X98500000Y-69204762D01*
X98452381Y-69347620D01*
X98452381Y-69442858D01*
X98500000Y-69585715D01*
X98547619Y-69633334D01*
X98452381Y-69966667D02*
X98452381Y-70633334D01*
X99452381Y-70204762D01*
X91266666Y-50552381D02*
X91600000Y-50076190D01*
X91838095Y-50552381D02*
X91838095Y-49552381D01*
X91457142Y-49552381D01*
X91361904Y-49600000D01*
X91314285Y-49647619D01*
X91266666Y-49742857D01*
X91266666Y-49885714D01*
X91314285Y-49980952D01*
X91361904Y-50028571D01*
X91457142Y-50076190D01*
X91838095Y-50076190D01*
X90314285Y-50552381D02*
X90885714Y-50552381D01*
X90600000Y-50552381D02*
X90600000Y-49552381D01*
X90695238Y-49695238D01*
X90790476Y-49790476D01*
X90885714Y-49838095D01*
X123366666Y-72152381D02*
X123700000Y-71676190D01*
X123938095Y-72152381D02*
X123938095Y-71152381D01*
X123557142Y-71152381D01*
X123461904Y-71200000D01*
X123414285Y-71247619D01*
X123366666Y-71342857D01*
X123366666Y-71485714D01*
X123414285Y-71580952D01*
X123461904Y-71628571D01*
X123557142Y-71676190D01*
X123938095Y-71676190D01*
X122985714Y-71247619D02*
X122938095Y-71200000D01*
X122842857Y-71152381D01*
X122604761Y-71152381D01*
X122509523Y-71200000D01*
X122461904Y-71247619D01*
X122414285Y-71342857D01*
X122414285Y-71438095D01*
X122461904Y-71580952D01*
X123033333Y-72152381D01*
X122414285Y-72152381D01*
X144052381Y-60733334D02*
X143576190Y-60400000D01*
X144052381Y-60161905D02*
X143052381Y-60161905D01*
X143052381Y-60542858D01*
X143100000Y-60638096D01*
X143147619Y-60685715D01*
X143242857Y-60733334D01*
X143385714Y-60733334D01*
X143480952Y-60685715D01*
X143528571Y-60638096D01*
X143576190Y-60542858D01*
X143576190Y-60161905D01*
X143052381Y-61066667D02*
X143052381Y-61685715D01*
X143433333Y-61352381D01*
X143433333Y-61495239D01*
X143480952Y-61590477D01*
X143528571Y-61638096D01*
X143623810Y-61685715D01*
X143861905Y-61685715D01*
X143957143Y-61638096D01*
X144004762Y-61590477D01*
X144052381Y-61495239D01*
X144052381Y-61209524D01*
X144004762Y-61114286D01*
X143957143Y-61066667D01*
X141352381Y-60733334D02*
X140876190Y-60400000D01*
X141352381Y-60161905D02*
X140352381Y-60161905D01*
X140352381Y-60542858D01*
X140400000Y-60638096D01*
X140447619Y-60685715D01*
X140542857Y-60733334D01*
X140685714Y-60733334D01*
X140780952Y-60685715D01*
X140828571Y-60638096D01*
X140876190Y-60542858D01*
X140876190Y-60161905D01*
X140685714Y-61590477D02*
X141352381Y-61590477D01*
X140304762Y-61352381D02*
X141019048Y-61114286D01*
X141019048Y-61733334D01*
X138852381Y-60733334D02*
X138376190Y-60400000D01*
X138852381Y-60161905D02*
X137852381Y-60161905D01*
X137852381Y-60542858D01*
X137900000Y-60638096D01*
X137947619Y-60685715D01*
X138042857Y-60733334D01*
X138185714Y-60733334D01*
X138280952Y-60685715D01*
X138328571Y-60638096D01*
X138376190Y-60542858D01*
X138376190Y-60161905D01*
X137852381Y-61638096D02*
X137852381Y-61161905D01*
X138328571Y-61114286D01*
X138280952Y-61161905D01*
X138233333Y-61257143D01*
X138233333Y-61495239D01*
X138280952Y-61590477D01*
X138328571Y-61638096D01*
X138423810Y-61685715D01*
X138661905Y-61685715D01*
X138757143Y-61638096D01*
X138804762Y-61590477D01*
X138852381Y-61495239D01*
X138852381Y-61257143D01*
X138804762Y-61161905D01*
X138757143Y-61114286D01*
X136252381Y-60733334D02*
X135776190Y-60400000D01*
X136252381Y-60161905D02*
X135252381Y-60161905D01*
X135252381Y-60542858D01*
X135300000Y-60638096D01*
X135347619Y-60685715D01*
X135442857Y-60733334D01*
X135585714Y-60733334D01*
X135680952Y-60685715D01*
X135728571Y-60638096D01*
X135776190Y-60542858D01*
X135776190Y-60161905D01*
X135252381Y-61590477D02*
X135252381Y-61400000D01*
X135300000Y-61304762D01*
X135347619Y-61257143D01*
X135490476Y-61161905D01*
X135680952Y-61114286D01*
X136061905Y-61114286D01*
X136157143Y-61161905D01*
X136204762Y-61209524D01*
X136252381Y-61304762D01*
X136252381Y-61495239D01*
X136204762Y-61590477D01*
X136157143Y-61638096D01*
X136061905Y-61685715D01*
X135823810Y-61685715D01*
X135728571Y-61638096D01*
X135680952Y-61590477D01*
X135633333Y-61495239D01*
X135633333Y-61304762D01*
X135680952Y-61209524D01*
X135728571Y-61161905D01*
X135823810Y-61114286D01*
X135677381Y-68383334D02*
X135201190Y-68050000D01*
X135677381Y-67811905D02*
X134677381Y-67811905D01*
X134677381Y-68192858D01*
X134725000Y-68288096D01*
X134772619Y-68335715D01*
X134867857Y-68383334D01*
X135010714Y-68383334D01*
X135105952Y-68335715D01*
X135153571Y-68288096D01*
X135201190Y-68192858D01*
X135201190Y-67811905D01*
X134677381Y-68716667D02*
X134677381Y-69383334D01*
X135677381Y-68954762D01*
X123816666Y-113507143D02*
X123864285Y-113554762D01*
X124007142Y-113602381D01*
X124102380Y-113602381D01*
X124245238Y-113554762D01*
X124340476Y-113459524D01*
X124388095Y-113364286D01*
X124435714Y-113173810D01*
X124435714Y-113030952D01*
X124388095Y-112840476D01*
X124340476Y-112745238D01*
X124245238Y-112650000D01*
X124102380Y-112602381D01*
X124007142Y-112602381D01*
X123864285Y-112650000D01*
X123816666Y-112697619D01*
X122864285Y-113602381D02*
X123435714Y-113602381D01*
X123150000Y-113602381D02*
X123150000Y-112602381D01*
X123245238Y-112745238D01*
X123340476Y-112840476D01*
X123435714Y-112888095D01*
X154657143Y-79843334D02*
X154704762Y-79795715D01*
X154752381Y-79652858D01*
X154752381Y-79557620D01*
X154704762Y-79414762D01*
X154609524Y-79319524D01*
X154514286Y-79271905D01*
X154323810Y-79224286D01*
X154180952Y-79224286D01*
X153990476Y-79271905D01*
X153895238Y-79319524D01*
X153800000Y-79414762D01*
X153752381Y-79557620D01*
X153752381Y-79652858D01*
X153800000Y-79795715D01*
X153847619Y-79843334D01*
X153752381Y-80748096D02*
X153752381Y-80271905D01*
X154228571Y-80224286D01*
X154180952Y-80271905D01*
X154133333Y-80367143D01*
X154133333Y-80605239D01*
X154180952Y-80700477D01*
X154228571Y-80748096D01*
X154323810Y-80795715D01*
X154561905Y-80795715D01*
X154657143Y-80748096D01*
X154704762Y-80700477D01*
X154752381Y-80605239D01*
X154752381Y-80367143D01*
X154704762Y-80271905D01*
X154657143Y-80224286D01*
X85557143Y-60233334D02*
X85604762Y-60185715D01*
X85652381Y-60042858D01*
X85652381Y-59947620D01*
X85604762Y-59804762D01*
X85509524Y-59709524D01*
X85414286Y-59661905D01*
X85223810Y-59614286D01*
X85080952Y-59614286D01*
X84890476Y-59661905D01*
X84795238Y-59709524D01*
X84700000Y-59804762D01*
X84652381Y-59947620D01*
X84652381Y-60042858D01*
X84700000Y-60185715D01*
X84747619Y-60233334D01*
X85080952Y-60804762D02*
X85033333Y-60709524D01*
X84985714Y-60661905D01*
X84890476Y-60614286D01*
X84842857Y-60614286D01*
X84747619Y-60661905D01*
X84700000Y-60709524D01*
X84652381Y-60804762D01*
X84652381Y-60995239D01*
X84700000Y-61090477D01*
X84747619Y-61138096D01*
X84842857Y-61185715D01*
X84890476Y-61185715D01*
X84985714Y-61138096D01*
X85033333Y-61090477D01*
X85080952Y-60995239D01*
X85080952Y-60804762D01*
X85128571Y-60709524D01*
X85176190Y-60661905D01*
X85271429Y-60614286D01*
X85461905Y-60614286D01*
X85557143Y-60661905D01*
X85604762Y-60709524D01*
X85652381Y-60804762D01*
X85652381Y-60995239D01*
X85604762Y-61090477D01*
X85557143Y-61138096D01*
X85461905Y-61185715D01*
X85271429Y-61185715D01*
X85176190Y-61138096D01*
X85128571Y-61090477D01*
X85080952Y-60995239D01*
X91257143Y-60233334D02*
X91304762Y-60185715D01*
X91352381Y-60042858D01*
X91352381Y-59947620D01*
X91304762Y-59804762D01*
X91209524Y-59709524D01*
X91114286Y-59661905D01*
X90923810Y-59614286D01*
X90780952Y-59614286D01*
X90590476Y-59661905D01*
X90495238Y-59709524D01*
X90400000Y-59804762D01*
X90352381Y-59947620D01*
X90352381Y-60042858D01*
X90400000Y-60185715D01*
X90447619Y-60233334D01*
X91352381Y-60709524D02*
X91352381Y-60900000D01*
X91304762Y-60995239D01*
X91257143Y-61042858D01*
X91114286Y-61138096D01*
X90923810Y-61185715D01*
X90542857Y-61185715D01*
X90447619Y-61138096D01*
X90400000Y-61090477D01*
X90352381Y-60995239D01*
X90352381Y-60804762D01*
X90400000Y-60709524D01*
X90447619Y-60661905D01*
X90542857Y-60614286D01*
X90780952Y-60614286D01*
X90876190Y-60661905D01*
X90923810Y-60709524D01*
X90971429Y-60804762D01*
X90971429Y-60995239D01*
X90923810Y-61090477D01*
X90876190Y-61138096D01*
X90780952Y-61185715D01*
X141897143Y-67687143D02*
X141944762Y-67639524D01*
X141992381Y-67496667D01*
X141992381Y-67401429D01*
X141944762Y-67258571D01*
X141849524Y-67163333D01*
X141754286Y-67115714D01*
X141563810Y-67068095D01*
X141420952Y-67068095D01*
X141230476Y-67115714D01*
X141135238Y-67163333D01*
X141040000Y-67258571D01*
X140992381Y-67401429D01*
X140992381Y-67496667D01*
X141040000Y-67639524D01*
X141087619Y-67687143D01*
X141992381Y-68639524D02*
X141992381Y-68068095D01*
X141992381Y-68353809D02*
X140992381Y-68353809D01*
X141135238Y-68258571D01*
X141230476Y-68163333D01*
X141278095Y-68068095D01*
X141087619Y-69020476D02*
X141040000Y-69068095D01*
X140992381Y-69163333D01*
X140992381Y-69401429D01*
X141040000Y-69496667D01*
X141087619Y-69544286D01*
X141182857Y-69591905D01*
X141278095Y-69591905D01*
X141420952Y-69544286D01*
X141992381Y-68972857D01*
X141992381Y-69591905D01*
X77852381Y-47361905D02*
X76852381Y-47361905D01*
X76852381Y-47600000D01*
X76900000Y-47742858D01*
X76995238Y-47838096D01*
X77090476Y-47885715D01*
X77280952Y-47933334D01*
X77423810Y-47933334D01*
X77614286Y-47885715D01*
X77709524Y-47838096D01*
X77804762Y-47742858D01*
X77852381Y-47600000D01*
X77852381Y-47361905D01*
X77852381Y-48885715D02*
X77852381Y-48314286D01*
X77852381Y-48600000D02*
X76852381Y-48600000D01*
X76995238Y-48504762D01*
X77090476Y-48409524D01*
X77138095Y-48314286D01*
X91838095Y-57052381D02*
X91838095Y-56052381D01*
X91600000Y-56052381D01*
X91457142Y-56100000D01*
X91361904Y-56195238D01*
X91314285Y-56290476D01*
X91266666Y-56480952D01*
X91266666Y-56623810D01*
X91314285Y-56814286D01*
X91361904Y-56909524D01*
X91457142Y-57004762D01*
X91600000Y-57052381D01*
X91838095Y-57052381D01*
X90885714Y-56147619D02*
X90838095Y-56100000D01*
X90742857Y-56052381D01*
X90504761Y-56052381D01*
X90409523Y-56100000D01*
X90361904Y-56147619D01*
X90314285Y-56242857D01*
X90314285Y-56338095D01*
X90361904Y-56480952D01*
X90933333Y-57052381D01*
X90314285Y-57052381D01*
X158982381Y-46796667D02*
X159696667Y-46796667D01*
X159839524Y-46749047D01*
X159934762Y-46653809D01*
X159982381Y-46510952D01*
X159982381Y-46415714D01*
X159982381Y-47796667D02*
X159982381Y-47225238D01*
X159982381Y-47510952D02*
X158982381Y-47510952D01*
X159125238Y-47415714D01*
X159220476Y-47320476D01*
X159268095Y-47225238D01*
X157559333Y-61682381D02*
X157559333Y-62396667D01*
X157606953Y-62539524D01*
X157702191Y-62634762D01*
X157845048Y-62682381D01*
X157940286Y-62682381D01*
X156654571Y-62015714D02*
X156654571Y-62682381D01*
X156892667Y-61634762D02*
X157130762Y-62349048D01*
X156511714Y-62349048D01*
X121247619Y-64704762D02*
X121200000Y-64609524D01*
X121104762Y-64514286D01*
X120961905Y-64371429D01*
X120914286Y-64276190D01*
X120914286Y-64180952D01*
X121152381Y-64228571D02*
X121104762Y-64133333D01*
X121009524Y-64038095D01*
X120819048Y-63990476D01*
X120485714Y-63990476D01*
X120295238Y-64038095D01*
X120200000Y-64133333D01*
X120152381Y-64228571D01*
X120152381Y-64419048D01*
X120200000Y-64514286D01*
X120295238Y-64609524D01*
X120485714Y-64657143D01*
X120819048Y-64657143D01*
X121009524Y-64609524D01*
X121104762Y-64514286D01*
X121152381Y-64419048D01*
X121152381Y-64228571D01*
X121152381Y-65609524D02*
X121152381Y-65038095D01*
X121152381Y-65323809D02*
X120152381Y-65323809D01*
X120295238Y-65228571D01*
X120390476Y-65133333D01*
X120438095Y-65038095D01*
X129695238Y-66647619D02*
X129790476Y-66600000D01*
X129885714Y-66504762D01*
X130028571Y-66361905D01*
X130123810Y-66314286D01*
X130219048Y-66314286D01*
X130171429Y-66552381D02*
X130266667Y-66504762D01*
X130361905Y-66409524D01*
X130409524Y-66219048D01*
X130409524Y-65885714D01*
X130361905Y-65695238D01*
X130266667Y-65600000D01*
X130171429Y-65552381D01*
X129980952Y-65552381D01*
X129885714Y-65600000D01*
X129790476Y-65695238D01*
X129742857Y-65885714D01*
X129742857Y-66219048D01*
X129790476Y-66409524D01*
X129885714Y-66504762D01*
X129980952Y-66552381D01*
X130171429Y-66552381D01*
X129361905Y-65647619D02*
X129314286Y-65600000D01*
X129219048Y-65552381D01*
X128980952Y-65552381D01*
X128885714Y-65600000D01*
X128838095Y-65647619D01*
X128790476Y-65742857D01*
X128790476Y-65838095D01*
X128838095Y-65980952D01*
X129409524Y-66552381D01*
X128790476Y-66552381D01*
X133852381Y-60733334D02*
X133376190Y-60400000D01*
X133852381Y-60161905D02*
X132852381Y-60161905D01*
X132852381Y-60542858D01*
X132900000Y-60638096D01*
X132947619Y-60685715D01*
X133042857Y-60733334D01*
X133185714Y-60733334D01*
X133280952Y-60685715D01*
X133328571Y-60638096D01*
X133376190Y-60542858D01*
X133376190Y-60161905D01*
X133280952Y-61304762D02*
X133233333Y-61209524D01*
X133185714Y-61161905D01*
X133090476Y-61114286D01*
X133042857Y-61114286D01*
X132947619Y-61161905D01*
X132900000Y-61209524D01*
X132852381Y-61304762D01*
X132852381Y-61495239D01*
X132900000Y-61590477D01*
X132947619Y-61638096D01*
X133042857Y-61685715D01*
X133090476Y-61685715D01*
X133185714Y-61638096D01*
X133233333Y-61590477D01*
X133280952Y-61495239D01*
X133280952Y-61304762D01*
X133328571Y-61209524D01*
X133376190Y-61161905D01*
X133471429Y-61114286D01*
X133661905Y-61114286D01*
X133757143Y-61161905D01*
X133804762Y-61209524D01*
X133852381Y-61304762D01*
X133852381Y-61495239D01*
X133804762Y-61590477D01*
X133757143Y-61638096D01*
X133661905Y-61685715D01*
X133471429Y-61685715D01*
X133376190Y-61638096D01*
X133328571Y-61590477D01*
X133280952Y-61495239D01*
X135702381Y-73493334D02*
X135226190Y-73160000D01*
X135702381Y-72921905D02*
X134702381Y-72921905D01*
X134702381Y-73302858D01*
X134750000Y-73398096D01*
X134797619Y-73445715D01*
X134892857Y-73493334D01*
X135035714Y-73493334D01*
X135130952Y-73445715D01*
X135178571Y-73398096D01*
X135226190Y-73302858D01*
X135226190Y-72921905D01*
X135702381Y-73969524D02*
X135702381Y-74160000D01*
X135654762Y-74255239D01*
X135607143Y-74302858D01*
X135464286Y-74398096D01*
X135273810Y-74445715D01*
X134892857Y-74445715D01*
X134797619Y-74398096D01*
X134750000Y-74350477D01*
X134702381Y-74255239D01*
X134702381Y-74064762D01*
X134750000Y-73969524D01*
X134797619Y-73921905D01*
X134892857Y-73874286D01*
X135130952Y-73874286D01*
X135226190Y-73921905D01*
X135273810Y-73969524D01*
X135321429Y-74064762D01*
X135321429Y-74255239D01*
X135273810Y-74350477D01*
X135226190Y-74398096D01*
X135130952Y-74445715D01*
X147962857Y-93792381D02*
X148296191Y-93316190D01*
X148534286Y-93792381D02*
X148534286Y-92792381D01*
X148153333Y-92792381D01*
X148058095Y-92840000D01*
X148010476Y-92887619D01*
X147962857Y-92982857D01*
X147962857Y-93125714D01*
X148010476Y-93220952D01*
X148058095Y-93268571D01*
X148153333Y-93316190D01*
X148534286Y-93316190D01*
X147010476Y-93792381D02*
X147581905Y-93792381D01*
X147296191Y-93792381D02*
X147296191Y-92792381D01*
X147391429Y-92935238D01*
X147486667Y-93030476D01*
X147581905Y-93078095D01*
X146391429Y-92792381D02*
X146296190Y-92792381D01*
X146200952Y-92840000D01*
X146153333Y-92887619D01*
X146105714Y-92982857D01*
X146058095Y-93173333D01*
X146058095Y-93411429D01*
X146105714Y-93601905D01*
X146153333Y-93697143D01*
X146200952Y-93744762D01*
X146296190Y-93792381D01*
X146391429Y-93792381D01*
X146486667Y-93744762D01*
X146534286Y-93697143D01*
X146581905Y-93601905D01*
X146629524Y-93411429D01*
X146629524Y-93173333D01*
X146581905Y-92982857D01*
X146534286Y-92887619D01*
X146486667Y-92840000D01*
X146391429Y-92792381D01*
X147962857Y-97602381D02*
X148296191Y-97126190D01*
X148534286Y-97602381D02*
X148534286Y-96602381D01*
X148153333Y-96602381D01*
X148058095Y-96650000D01*
X148010476Y-96697619D01*
X147962857Y-96792857D01*
X147962857Y-96935714D01*
X148010476Y-97030952D01*
X148058095Y-97078571D01*
X148153333Y-97126190D01*
X148534286Y-97126190D01*
X147010476Y-97602381D02*
X147581905Y-97602381D01*
X147296191Y-97602381D02*
X147296191Y-96602381D01*
X147391429Y-96745238D01*
X147486667Y-96840476D01*
X147581905Y-96888095D01*
X146058095Y-97602381D02*
X146629524Y-97602381D01*
X146343810Y-97602381D02*
X146343810Y-96602381D01*
X146439048Y-96745238D01*
X146534286Y-96840476D01*
X146629524Y-96888095D01*
X154652381Y-85657143D02*
X154176190Y-85323809D01*
X154652381Y-85085714D02*
X153652381Y-85085714D01*
X153652381Y-85466667D01*
X153700000Y-85561905D01*
X153747619Y-85609524D01*
X153842857Y-85657143D01*
X153985714Y-85657143D01*
X154080952Y-85609524D01*
X154128571Y-85561905D01*
X154176190Y-85466667D01*
X154176190Y-85085714D01*
X154652381Y-86609524D02*
X154652381Y-86038095D01*
X154652381Y-86323809D02*
X153652381Y-86323809D01*
X153795238Y-86228571D01*
X153890476Y-86133333D01*
X153938095Y-86038095D01*
X153747619Y-86990476D02*
X153700000Y-87038095D01*
X153652381Y-87133333D01*
X153652381Y-87371429D01*
X153700000Y-87466667D01*
X153747619Y-87514286D01*
X153842857Y-87561905D01*
X153938095Y-87561905D01*
X154080952Y-87514286D01*
X154652381Y-86942857D01*
X154652381Y-87561905D01*
X98242857Y-88077381D02*
X98576191Y-87601190D01*
X98814286Y-88077381D02*
X98814286Y-87077381D01*
X98433333Y-87077381D01*
X98338095Y-87125000D01*
X98290476Y-87172619D01*
X98242857Y-87267857D01*
X98242857Y-87410714D01*
X98290476Y-87505952D01*
X98338095Y-87553571D01*
X98433333Y-87601190D01*
X98814286Y-87601190D01*
X97290476Y-88077381D02*
X97861905Y-88077381D01*
X97576191Y-88077381D02*
X97576191Y-87077381D01*
X97671429Y-87220238D01*
X97766667Y-87315476D01*
X97861905Y-87363095D01*
X96957143Y-87077381D02*
X96338095Y-87077381D01*
X96671429Y-87458333D01*
X96528571Y-87458333D01*
X96433333Y-87505952D01*
X96385714Y-87553571D01*
X96338095Y-87648810D01*
X96338095Y-87886905D01*
X96385714Y-87982143D01*
X96433333Y-88029762D01*
X96528571Y-88077381D01*
X96814286Y-88077381D01*
X96909524Y-88029762D01*
X96957143Y-87982143D01*
X98217857Y-90752381D02*
X98551191Y-90276190D01*
X98789286Y-90752381D02*
X98789286Y-89752381D01*
X98408333Y-89752381D01*
X98313095Y-89800000D01*
X98265476Y-89847619D01*
X98217857Y-89942857D01*
X98217857Y-90085714D01*
X98265476Y-90180952D01*
X98313095Y-90228571D01*
X98408333Y-90276190D01*
X98789286Y-90276190D01*
X97265476Y-90752381D02*
X97836905Y-90752381D01*
X97551191Y-90752381D02*
X97551191Y-89752381D01*
X97646429Y-89895238D01*
X97741667Y-89990476D01*
X97836905Y-90038095D01*
X96408333Y-90085714D02*
X96408333Y-90752381D01*
X96646429Y-89704762D02*
X96884524Y-90419048D01*
X96265476Y-90419048D01*
X78752381Y-60457143D02*
X78276190Y-60123809D01*
X78752381Y-59885714D02*
X77752381Y-59885714D01*
X77752381Y-60266667D01*
X77800000Y-60361905D01*
X77847619Y-60409524D01*
X77942857Y-60457143D01*
X78085714Y-60457143D01*
X78180952Y-60409524D01*
X78228571Y-60361905D01*
X78276190Y-60266667D01*
X78276190Y-59885714D01*
X78752381Y-61409524D02*
X78752381Y-60838095D01*
X78752381Y-61123809D02*
X77752381Y-61123809D01*
X77895238Y-61028571D01*
X77990476Y-60933333D01*
X78038095Y-60838095D01*
X77752381Y-62314286D02*
X77752381Y-61838095D01*
X78228571Y-61790476D01*
X78180952Y-61838095D01*
X78133333Y-61933333D01*
X78133333Y-62171429D01*
X78180952Y-62266667D01*
X78228571Y-62314286D01*
X78323810Y-62361905D01*
X78561905Y-62361905D01*
X78657143Y-62314286D01*
X78704762Y-62266667D01*
X78752381Y-62171429D01*
X78752381Y-61933333D01*
X78704762Y-61838095D01*
X78657143Y-61790476D01*
X128242857Y-70452381D02*
X128576191Y-69976190D01*
X128814286Y-70452381D02*
X128814286Y-69452381D01*
X128433333Y-69452381D01*
X128338095Y-69500000D01*
X128290476Y-69547619D01*
X128242857Y-69642857D01*
X128242857Y-69785714D01*
X128290476Y-69880952D01*
X128338095Y-69928571D01*
X128433333Y-69976190D01*
X128814286Y-69976190D01*
X127290476Y-70452381D02*
X127861905Y-70452381D01*
X127576191Y-70452381D02*
X127576191Y-69452381D01*
X127671429Y-69595238D01*
X127766667Y-69690476D01*
X127861905Y-69738095D01*
X126433333Y-69452381D02*
X126623810Y-69452381D01*
X126719048Y-69500000D01*
X126766667Y-69547619D01*
X126861905Y-69690476D01*
X126909524Y-69880952D01*
X126909524Y-70261905D01*
X126861905Y-70357143D01*
X126814286Y-70404762D01*
X126719048Y-70452381D01*
X126528571Y-70452381D01*
X126433333Y-70404762D01*
X126385714Y-70357143D01*
X126338095Y-70261905D01*
X126338095Y-70023810D01*
X126385714Y-69928571D01*
X126433333Y-69880952D01*
X126528571Y-69833333D01*
X126719048Y-69833333D01*
X126814286Y-69880952D01*
X126861905Y-69928571D01*
X126909524Y-70023810D01*
X111132857Y-72212381D02*
X111466191Y-71736190D01*
X111704286Y-72212381D02*
X111704286Y-71212381D01*
X111323333Y-71212381D01*
X111228095Y-71260000D01*
X111180476Y-71307619D01*
X111132857Y-71402857D01*
X111132857Y-71545714D01*
X111180476Y-71640952D01*
X111228095Y-71688571D01*
X111323333Y-71736190D01*
X111704286Y-71736190D01*
X110180476Y-72212381D02*
X110751905Y-72212381D01*
X110466191Y-72212381D02*
X110466191Y-71212381D01*
X110561429Y-71355238D01*
X110656667Y-71450476D01*
X110751905Y-71498095D01*
X109847143Y-71212381D02*
X109180476Y-71212381D01*
X109609048Y-72212381D01*
X118752857Y-72212381D02*
X119086191Y-71736190D01*
X119324286Y-72212381D02*
X119324286Y-71212381D01*
X118943333Y-71212381D01*
X118848095Y-71260000D01*
X118800476Y-71307619D01*
X118752857Y-71402857D01*
X118752857Y-71545714D01*
X118800476Y-71640952D01*
X118848095Y-71688571D01*
X118943333Y-71736190D01*
X119324286Y-71736190D01*
X117800476Y-72212381D02*
X118371905Y-72212381D01*
X118086191Y-72212381D02*
X118086191Y-71212381D01*
X118181429Y-71355238D01*
X118276667Y-71450476D01*
X118371905Y-71498095D01*
X117229048Y-71640952D02*
X117324286Y-71593333D01*
X117371905Y-71545714D01*
X117419524Y-71450476D01*
X117419524Y-71402857D01*
X117371905Y-71307619D01*
X117324286Y-71260000D01*
X117229048Y-71212381D01*
X117038571Y-71212381D01*
X116943333Y-71260000D01*
X116895714Y-71307619D01*
X116848095Y-71402857D01*
X116848095Y-71450476D01*
X116895714Y-71545714D01*
X116943333Y-71593333D01*
X117038571Y-71640952D01*
X117229048Y-71640952D01*
X117324286Y-71688571D01*
X117371905Y-71736190D01*
X117419524Y-71831429D01*
X117419524Y-72021905D01*
X117371905Y-72117143D01*
X117324286Y-72164762D01*
X117229048Y-72212381D01*
X117038571Y-72212381D01*
X116943333Y-72164762D01*
X116895714Y-72117143D01*
X116848095Y-72021905D01*
X116848095Y-71831429D01*
X116895714Y-71736190D01*
X116943333Y-71688571D01*
X117038571Y-71640952D01*
X83142857Y-69252381D02*
X83476191Y-68776190D01*
X83714286Y-69252381D02*
X83714286Y-68252381D01*
X83333333Y-68252381D01*
X83238095Y-68300000D01*
X83190476Y-68347619D01*
X83142857Y-68442857D01*
X83142857Y-68585714D01*
X83190476Y-68680952D01*
X83238095Y-68728571D01*
X83333333Y-68776190D01*
X83714286Y-68776190D01*
X82761905Y-68347619D02*
X82714286Y-68300000D01*
X82619048Y-68252381D01*
X82380952Y-68252381D01*
X82285714Y-68300000D01*
X82238095Y-68347619D01*
X82190476Y-68442857D01*
X82190476Y-68538095D01*
X82238095Y-68680952D01*
X82809524Y-69252381D01*
X82190476Y-69252381D01*
X81571429Y-68252381D02*
X81476190Y-68252381D01*
X81380952Y-68300000D01*
X81333333Y-68347619D01*
X81285714Y-68442857D01*
X81238095Y-68633333D01*
X81238095Y-68871429D01*
X81285714Y-69061905D01*
X81333333Y-69157143D01*
X81380952Y-69204762D01*
X81476190Y-69252381D01*
X81571429Y-69252381D01*
X81666667Y-69204762D01*
X81714286Y-69157143D01*
X81761905Y-69061905D01*
X81809524Y-68871429D01*
X81809524Y-68633333D01*
X81761905Y-68442857D01*
X81714286Y-68347619D01*
X81666667Y-68300000D01*
X81571429Y-68252381D01*
X141392381Y-100708095D02*
X142201905Y-100708095D01*
X142297143Y-100755714D01*
X142344762Y-100803333D01*
X142392381Y-100898571D01*
X142392381Y-101089048D01*
X142344762Y-101184286D01*
X142297143Y-101231905D01*
X142201905Y-101279524D01*
X141392381Y-101279524D01*
X142392381Y-102279524D02*
X142392381Y-101708095D01*
X142392381Y-101993809D02*
X141392381Y-101993809D01*
X141535238Y-101898571D01*
X141630476Y-101803333D01*
X141678095Y-101708095D01*
X98572381Y-80518095D02*
X99381905Y-80518095D01*
X99477143Y-80565714D01*
X99524762Y-80613333D01*
X99572381Y-80708571D01*
X99572381Y-80899048D01*
X99524762Y-80994286D01*
X99477143Y-81041905D01*
X99381905Y-81089524D01*
X98572381Y-81089524D01*
X98667619Y-81518095D02*
X98620000Y-81565714D01*
X98572381Y-81660952D01*
X98572381Y-81899048D01*
X98620000Y-81994286D01*
X98667619Y-82041905D01*
X98762857Y-82089524D01*
X98858095Y-82089524D01*
X99000952Y-82041905D01*
X99572381Y-81470476D01*
X99572381Y-82089524D01*
X149172381Y-85598095D02*
X149981905Y-85598095D01*
X150077143Y-85645714D01*
X150124762Y-85693333D01*
X150172381Y-85788571D01*
X150172381Y-85979048D01*
X150124762Y-86074286D01*
X150077143Y-86121905D01*
X149981905Y-86169524D01*
X149172381Y-86169524D01*
X149172381Y-86550476D02*
X149172381Y-87169524D01*
X149553333Y-86836190D01*
X149553333Y-86979048D01*
X149600952Y-87074286D01*
X149648571Y-87121905D01*
X149743810Y-87169524D01*
X149981905Y-87169524D01*
X150077143Y-87121905D01*
X150124762Y-87074286D01*
X150172381Y-86979048D01*
X150172381Y-86693333D01*
X150124762Y-86598095D01*
X150077143Y-86550476D01*
X160432381Y-105918095D02*
X161241905Y-105918095D01*
X161337143Y-105965714D01*
X161384762Y-106013333D01*
X161432381Y-106108571D01*
X161432381Y-106299048D01*
X161384762Y-106394286D01*
X161337143Y-106441905D01*
X161241905Y-106489524D01*
X160432381Y-106489524D01*
X160765714Y-107394286D02*
X161432381Y-107394286D01*
X160384762Y-107156190D02*
X161099048Y-106918095D01*
X161099048Y-107537143D01*
X124211905Y-80922381D02*
X124211905Y-81731905D01*
X124164286Y-81827143D01*
X124116667Y-81874762D01*
X124021429Y-81922381D01*
X123830952Y-81922381D01*
X123735714Y-81874762D01*
X123688095Y-81827143D01*
X123640476Y-81731905D01*
X123640476Y-80922381D01*
X122688095Y-80922381D02*
X123164286Y-80922381D01*
X123211905Y-81398571D01*
X123164286Y-81350952D01*
X123069048Y-81303333D01*
X122830952Y-81303333D01*
X122735714Y-81350952D01*
X122688095Y-81398571D01*
X122640476Y-81493810D01*
X122640476Y-81731905D01*
X122688095Y-81827143D01*
X122735714Y-81874762D01*
X122830952Y-81922381D01*
X123069048Y-81922381D01*
X123164286Y-81874762D01*
X123211905Y-81827143D01*
X123441905Y-92762381D02*
X123441905Y-93571905D01*
X123394286Y-93667143D01*
X123346667Y-93714762D01*
X123251429Y-93762381D01*
X123060952Y-93762381D01*
X122965714Y-93714762D01*
X122918095Y-93667143D01*
X122870476Y-93571905D01*
X122870476Y-92762381D01*
X121965714Y-92762381D02*
X122156191Y-92762381D01*
X122251429Y-92810000D01*
X122299048Y-92857619D01*
X122394286Y-93000476D01*
X122441905Y-93190952D01*
X122441905Y-93571905D01*
X122394286Y-93667143D01*
X122346667Y-93714762D01*
X122251429Y-93762381D01*
X122060952Y-93762381D01*
X121965714Y-93714762D01*
X121918095Y-93667143D01*
X121870476Y-93571905D01*
X121870476Y-93333810D01*
X121918095Y-93238571D01*
X121965714Y-93190952D01*
X122060952Y-93143333D01*
X122251429Y-93143333D01*
X122346667Y-93190952D01*
X122394286Y-93238571D01*
X122441905Y-93333810D01*
X132656191Y-107811190D02*
X132656191Y-108287381D01*
X132989524Y-107287381D02*
X132656191Y-107811190D01*
X132322857Y-107287381D01*
X131465714Y-108287381D02*
X132037143Y-108287381D01*
X131751429Y-108287381D02*
X131751429Y-107287381D01*
X131846667Y-107430238D01*
X131941905Y-107525476D01*
X132037143Y-107573095D01*
X95892857Y-102777143D02*
X95940476Y-102824762D01*
X96083333Y-102872381D01*
X96178571Y-102872381D01*
X96321429Y-102824762D01*
X96416667Y-102729524D01*
X96464286Y-102634286D01*
X96511905Y-102443810D01*
X96511905Y-102300952D01*
X96464286Y-102110476D01*
X96416667Y-102015238D01*
X96321429Y-101920000D01*
X96178571Y-101872381D01*
X96083333Y-101872381D01*
X95940476Y-101920000D01*
X95892857Y-101967619D01*
X94940476Y-102872381D02*
X95511905Y-102872381D01*
X95226191Y-102872381D02*
X95226191Y-101872381D01*
X95321429Y-102015238D01*
X95416667Y-102110476D01*
X95511905Y-102158095D01*
X94369048Y-102300952D02*
X94464286Y-102253333D01*
X94511905Y-102205714D01*
X94559524Y-102110476D01*
X94559524Y-102062857D01*
X94511905Y-101967619D01*
X94464286Y-101920000D01*
X94369048Y-101872381D01*
X94178571Y-101872381D01*
X94083333Y-101920000D01*
X94035714Y-101967619D01*
X93988095Y-102062857D01*
X93988095Y-102110476D01*
X94035714Y-102205714D01*
X94083333Y-102253333D01*
X94178571Y-102300952D01*
X94369048Y-102300952D01*
X94464286Y-102348571D01*
X94511905Y-102396190D01*
X94559524Y-102491429D01*
X94559524Y-102681905D01*
X94511905Y-102777143D01*
X94464286Y-102824762D01*
X94369048Y-102872381D01*
X94178571Y-102872381D01*
X94083333Y-102824762D01*
X94035714Y-102777143D01*
X93988095Y-102681905D01*
X93988095Y-102491429D01*
X94035714Y-102396190D01*
X94083333Y-102348571D01*
X94178571Y-102300952D01*
X128603333Y-56602381D02*
X128603333Y-57316667D01*
X128650953Y-57459524D01*
X128746191Y-57554762D01*
X128889048Y-57602381D01*
X128984286Y-57602381D01*
X128222381Y-56602381D02*
X127603333Y-56602381D01*
X127936667Y-56983333D01*
X127793809Y-56983333D01*
X127698571Y-57030952D01*
X127650952Y-57078571D01*
X127603333Y-57173810D01*
X127603333Y-57411905D01*
X127650952Y-57507143D01*
X127698571Y-57554762D01*
X127793809Y-57602381D01*
X128079524Y-57602381D01*
X128174762Y-57554762D01*
X128222381Y-57507143D01*
X122253333Y-56602381D02*
X122253333Y-57316667D01*
X122300953Y-57459524D01*
X122396191Y-57554762D01*
X122539048Y-57602381D01*
X122634286Y-57602381D01*
X121300952Y-56602381D02*
X121777143Y-56602381D01*
X121824762Y-57078571D01*
X121777143Y-57030952D01*
X121681905Y-56983333D01*
X121443809Y-56983333D01*
X121348571Y-57030952D01*
X121300952Y-57078571D01*
X121253333Y-57173810D01*
X121253333Y-57411905D01*
X121300952Y-57507143D01*
X121348571Y-57554762D01*
X121443809Y-57602381D01*
X121681905Y-57602381D01*
X121777143Y-57554762D01*
X121824762Y-57507143D01*
X109553333Y-56602381D02*
X109553333Y-57316667D01*
X109600953Y-57459524D01*
X109696191Y-57554762D01*
X109839048Y-57602381D01*
X109934286Y-57602381D01*
X108934286Y-57030952D02*
X109029524Y-56983333D01*
X109077143Y-56935714D01*
X109124762Y-56840476D01*
X109124762Y-56792857D01*
X109077143Y-56697619D01*
X109029524Y-56650000D01*
X108934286Y-56602381D01*
X108743809Y-56602381D01*
X108648571Y-56650000D01*
X108600952Y-56697619D01*
X108553333Y-56792857D01*
X108553333Y-56840476D01*
X108600952Y-56935714D01*
X108648571Y-56983333D01*
X108743809Y-57030952D01*
X108934286Y-57030952D01*
X109029524Y-57078571D01*
X109077143Y-57126190D01*
X109124762Y-57221429D01*
X109124762Y-57411905D01*
X109077143Y-57507143D01*
X109029524Y-57554762D01*
X108934286Y-57602381D01*
X108743809Y-57602381D01*
X108648571Y-57554762D01*
X108600952Y-57507143D01*
X108553333Y-57411905D01*
X108553333Y-57221429D01*
X108600952Y-57126190D01*
X108648571Y-57078571D01*
X108743809Y-57030952D01*
X115903333Y-56602381D02*
X115903333Y-57316667D01*
X115950953Y-57459524D01*
X116046191Y-57554762D01*
X116189048Y-57602381D01*
X116284286Y-57602381D01*
X115379524Y-57602381D02*
X115189048Y-57602381D01*
X115093809Y-57554762D01*
X115046190Y-57507143D01*
X114950952Y-57364286D01*
X114903333Y-57173810D01*
X114903333Y-56792857D01*
X114950952Y-56697619D01*
X114998571Y-56650000D01*
X115093809Y-56602381D01*
X115284286Y-56602381D01*
X115379524Y-56650000D01*
X115427143Y-56697619D01*
X115474762Y-56792857D01*
X115474762Y-57030952D01*
X115427143Y-57126190D01*
X115379524Y-57173810D01*
X115284286Y-57221429D01*
X115093809Y-57221429D01*
X114998571Y-57173810D01*
X114950952Y-57126190D01*
X114903333Y-57030952D01*
X109722857Y-102777143D02*
X109770476Y-102824762D01*
X109913333Y-102872381D01*
X110008571Y-102872381D01*
X110151429Y-102824762D01*
X110246667Y-102729524D01*
X110294286Y-102634286D01*
X110341905Y-102443810D01*
X110341905Y-102300952D01*
X110294286Y-102110476D01*
X110246667Y-102015238D01*
X110151429Y-101920000D01*
X110008571Y-101872381D01*
X109913333Y-101872381D01*
X109770476Y-101920000D01*
X109722857Y-101967619D01*
X108770476Y-102872381D02*
X109341905Y-102872381D01*
X109056191Y-102872381D02*
X109056191Y-101872381D01*
X109151429Y-102015238D01*
X109246667Y-102110476D01*
X109341905Y-102158095D01*
X107913333Y-101872381D02*
X108103810Y-101872381D01*
X108199048Y-101920000D01*
X108246667Y-101967619D01*
X108341905Y-102110476D01*
X108389524Y-102300952D01*
X108389524Y-102681905D01*
X108341905Y-102777143D01*
X108294286Y-102824762D01*
X108199048Y-102872381D01*
X108008571Y-102872381D01*
X107913333Y-102824762D01*
X107865714Y-102777143D01*
X107818095Y-102681905D01*
X107818095Y-102443810D01*
X107865714Y-102348571D01*
X107913333Y-102300952D01*
X108008571Y-102253333D01*
X108199048Y-102253333D01*
X108294286Y-102300952D01*
X108341905Y-102348571D01*
X108389524Y-102443810D01*
X92902381Y-94883334D02*
X92902381Y-94407143D01*
X91902381Y-94407143D01*
X92902381Y-95740477D02*
X92902381Y-95169048D01*
X92902381Y-95454762D02*
X91902381Y-95454762D01*
X92045238Y-95359524D01*
X92140476Y-95264286D01*
X92188095Y-95169048D01*
X144442857Y-107857143D02*
X144490476Y-107904762D01*
X144633333Y-107952381D01*
X144728571Y-107952381D01*
X144871429Y-107904762D01*
X144966667Y-107809524D01*
X145014286Y-107714286D01*
X145061905Y-107523810D01*
X145061905Y-107380952D01*
X145014286Y-107190476D01*
X144966667Y-107095238D01*
X144871429Y-107000000D01*
X144728571Y-106952381D01*
X144633333Y-106952381D01*
X144490476Y-107000000D01*
X144442857Y-107047619D01*
X144061905Y-107047619D02*
X144014286Y-107000000D01*
X143919048Y-106952381D01*
X143680952Y-106952381D01*
X143585714Y-107000000D01*
X143538095Y-107047619D01*
X143490476Y-107142857D01*
X143490476Y-107238095D01*
X143538095Y-107380952D01*
X144109524Y-107952381D01*
X143490476Y-107952381D01*
X142538095Y-107952381D02*
X143109524Y-107952381D01*
X142823810Y-107952381D02*
X142823810Y-106952381D01*
X142919048Y-107095238D01*
X143014286Y-107190476D01*
X143109524Y-107238095D01*
X113842857Y-89037143D02*
X113890476Y-89084762D01*
X114033333Y-89132381D01*
X114128571Y-89132381D01*
X114271429Y-89084762D01*
X114366667Y-88989524D01*
X114414286Y-88894286D01*
X114461905Y-88703810D01*
X114461905Y-88560952D01*
X114414286Y-88370476D01*
X114366667Y-88275238D01*
X114271429Y-88180000D01*
X114128571Y-88132381D01*
X114033333Y-88132381D01*
X113890476Y-88180000D01*
X113842857Y-88227619D01*
X112890476Y-89132381D02*
X113461905Y-89132381D01*
X113176191Y-89132381D02*
X113176191Y-88132381D01*
X113271429Y-88275238D01*
X113366667Y-88370476D01*
X113461905Y-88418095D01*
X112033333Y-88465714D02*
X112033333Y-89132381D01*
X112271429Y-88084762D02*
X112509524Y-88799048D01*
X111890476Y-88799048D01*
X109282381Y-79733334D02*
X109282381Y-79257143D01*
X108282381Y-79257143D01*
X108282381Y-79971429D02*
X108282381Y-80590477D01*
X108663333Y-80257143D01*
X108663333Y-80400001D01*
X108710952Y-80495239D01*
X108758571Y-80542858D01*
X108853810Y-80590477D01*
X109091905Y-80590477D01*
X109187143Y-80542858D01*
X109234762Y-80495239D01*
X109282381Y-80400001D01*
X109282381Y-80114286D01*
X109234762Y-80019048D01*
X109187143Y-79971429D01*
X84642857Y-75257143D02*
X84690476Y-75304762D01*
X84833333Y-75352381D01*
X84928571Y-75352381D01*
X85071429Y-75304762D01*
X85166667Y-75209524D01*
X85214286Y-75114286D01*
X85261905Y-74923810D01*
X85261905Y-74780952D01*
X85214286Y-74590476D01*
X85166667Y-74495238D01*
X85071429Y-74400000D01*
X84928571Y-74352381D01*
X84833333Y-74352381D01*
X84690476Y-74400000D01*
X84642857Y-74447619D01*
X84261905Y-74447619D02*
X84214286Y-74400000D01*
X84119048Y-74352381D01*
X83880952Y-74352381D01*
X83785714Y-74400000D01*
X83738095Y-74447619D01*
X83690476Y-74542857D01*
X83690476Y-74638095D01*
X83738095Y-74780952D01*
X84309524Y-75352381D01*
X83690476Y-75352381D01*
X83309524Y-74447619D02*
X83261905Y-74400000D01*
X83166667Y-74352381D01*
X82928571Y-74352381D01*
X82833333Y-74400000D01*
X82785714Y-74447619D01*
X82738095Y-74542857D01*
X82738095Y-74638095D01*
X82785714Y-74780952D01*
X83357143Y-75352381D01*
X82738095Y-75352381D01*
X96857143Y-73657143D02*
X96904762Y-73609524D01*
X96952381Y-73466667D01*
X96952381Y-73371429D01*
X96904762Y-73228571D01*
X96809524Y-73133333D01*
X96714286Y-73085714D01*
X96523810Y-73038095D01*
X96380952Y-73038095D01*
X96190476Y-73085714D01*
X96095238Y-73133333D01*
X96000000Y-73228571D01*
X95952381Y-73371429D01*
X95952381Y-73466667D01*
X96000000Y-73609524D01*
X96047619Y-73657143D01*
X96047619Y-74038095D02*
X96000000Y-74085714D01*
X95952381Y-74180952D01*
X95952381Y-74419048D01*
X96000000Y-74514286D01*
X96047619Y-74561905D01*
X96142857Y-74609524D01*
X96238095Y-74609524D01*
X96380952Y-74561905D01*
X96952381Y-73990476D01*
X96952381Y-74609524D01*
X95952381Y-74942857D02*
X95952381Y-75561905D01*
X96333333Y-75228571D01*
X96333333Y-75371429D01*
X96380952Y-75466667D01*
X96428571Y-75514286D01*
X96523810Y-75561905D01*
X96761905Y-75561905D01*
X96857143Y-75514286D01*
X96904762Y-75466667D01*
X96952381Y-75371429D01*
X96952381Y-75085714D01*
X96904762Y-74990476D01*
X96857143Y-74942857D01*
X152342857Y-111457143D02*
X152390476Y-111504762D01*
X152533333Y-111552381D01*
X152628571Y-111552381D01*
X152771429Y-111504762D01*
X152866667Y-111409524D01*
X152914286Y-111314286D01*
X152961905Y-111123810D01*
X152961905Y-110980952D01*
X152914286Y-110790476D01*
X152866667Y-110695238D01*
X152771429Y-110600000D01*
X152628571Y-110552381D01*
X152533333Y-110552381D01*
X152390476Y-110600000D01*
X152342857Y-110647619D01*
X151961905Y-110647619D02*
X151914286Y-110600000D01*
X151819048Y-110552381D01*
X151580952Y-110552381D01*
X151485714Y-110600000D01*
X151438095Y-110647619D01*
X151390476Y-110742857D01*
X151390476Y-110838095D01*
X151438095Y-110980952D01*
X152009524Y-111552381D01*
X151390476Y-111552381D01*
X150533333Y-110885714D02*
X150533333Y-111552381D01*
X150771429Y-110504762D02*
X151009524Y-111219048D01*
X150390476Y-111219048D01*
X149488095Y-83152381D02*
X149488095Y-82152381D01*
X149250000Y-82152381D01*
X149107142Y-82200000D01*
X149011904Y-82295238D01*
X148964285Y-82390476D01*
X148916666Y-82580952D01*
X148916666Y-82723810D01*
X148964285Y-82914286D01*
X149011904Y-83009524D01*
X149107142Y-83104762D01*
X149250000Y-83152381D01*
X149488095Y-83152381D01*
X148583333Y-82152381D02*
X147964285Y-82152381D01*
X148297619Y-82533333D01*
X148154761Y-82533333D01*
X148059523Y-82580952D01*
X148011904Y-82628571D01*
X147964285Y-82723810D01*
X147964285Y-82961905D01*
X148011904Y-83057143D01*
X148059523Y-83104762D01*
X148154761Y-83152381D01*
X148440476Y-83152381D01*
X148535714Y-83104762D01*
X148583333Y-83057143D01*
X142895238Y-73247619D02*
X142990476Y-73200000D01*
X143085714Y-73104762D01*
X143228571Y-72961905D01*
X143323810Y-72914286D01*
X143419048Y-72914286D01*
X143371429Y-73152381D02*
X143466667Y-73104762D01*
X143561905Y-73009524D01*
X143609524Y-72819048D01*
X143609524Y-72485714D01*
X143561905Y-72295238D01*
X143466667Y-72200000D01*
X143371429Y-72152381D01*
X143180952Y-72152381D01*
X143085714Y-72200000D01*
X142990476Y-72295238D01*
X142942857Y-72485714D01*
X142942857Y-72819048D01*
X142990476Y-73009524D01*
X143085714Y-73104762D01*
X143180952Y-73152381D01*
X143371429Y-73152381D01*
X142609524Y-72152381D02*
X141990476Y-72152381D01*
X142323810Y-72533333D01*
X142180952Y-72533333D01*
X142085714Y-72580952D01*
X142038095Y-72628571D01*
X141990476Y-72723810D01*
X141990476Y-72961905D01*
X142038095Y-73057143D01*
X142085714Y-73104762D01*
X142180952Y-73152381D01*
X142466667Y-73152381D01*
X142561905Y-73104762D01*
X142609524Y-73057143D01*
X143352381Y-78957143D02*
X142876190Y-78623809D01*
X143352381Y-78385714D02*
X142352381Y-78385714D01*
X142352381Y-78766667D01*
X142400000Y-78861905D01*
X142447619Y-78909524D01*
X142542857Y-78957143D01*
X142685714Y-78957143D01*
X142780952Y-78909524D01*
X142828571Y-78861905D01*
X142876190Y-78766667D01*
X142876190Y-78385714D01*
X143352381Y-79909524D02*
X143352381Y-79338095D01*
X143352381Y-79623809D02*
X142352381Y-79623809D01*
X142495238Y-79528571D01*
X142590476Y-79433333D01*
X142638095Y-79338095D01*
X143352381Y-80385714D02*
X143352381Y-80576190D01*
X143304762Y-80671429D01*
X143257143Y-80719048D01*
X143114286Y-80814286D01*
X142923810Y-80861905D01*
X142542857Y-80861905D01*
X142447619Y-80814286D01*
X142400000Y-80766667D01*
X142352381Y-80671429D01*
X142352381Y-80480952D01*
X142400000Y-80385714D01*
X142447619Y-80338095D01*
X142542857Y-80290476D01*
X142780952Y-80290476D01*
X142876190Y-80338095D01*
X142923810Y-80385714D01*
X142971429Y-80480952D01*
X142971429Y-80671429D01*
X142923810Y-80766667D01*
X142876190Y-80814286D01*
X142780952Y-80861905D01*
X152788857Y-75382381D02*
X153122191Y-74906190D01*
X153360286Y-75382381D02*
X153360286Y-74382381D01*
X152979333Y-74382381D01*
X152884095Y-74430000D01*
X152836476Y-74477619D01*
X152788857Y-74572857D01*
X152788857Y-74715714D01*
X152836476Y-74810952D01*
X152884095Y-74858571D01*
X152979333Y-74906190D01*
X153360286Y-74906190D01*
X152407905Y-74477619D02*
X152360286Y-74430000D01*
X152265048Y-74382381D01*
X152026952Y-74382381D01*
X151931714Y-74430000D01*
X151884095Y-74477619D01*
X151836476Y-74572857D01*
X151836476Y-74668095D01*
X151884095Y-74810952D01*
X152455524Y-75382381D01*
X151836476Y-75382381D01*
X150979333Y-74715714D02*
X150979333Y-75382381D01*
X151217429Y-74334762D02*
X151455524Y-75049048D01*
X150836476Y-75049048D01*
X85557143Y-69057143D02*
X85604762Y-69009524D01*
X85652381Y-68866667D01*
X85652381Y-68771429D01*
X85604762Y-68628571D01*
X85509524Y-68533333D01*
X85414286Y-68485714D01*
X85223810Y-68438095D01*
X85080952Y-68438095D01*
X84890476Y-68485714D01*
X84795238Y-68533333D01*
X84700000Y-68628571D01*
X84652381Y-68771429D01*
X84652381Y-68866667D01*
X84700000Y-69009524D01*
X84747619Y-69057143D01*
X84747619Y-69438095D02*
X84700000Y-69485714D01*
X84652381Y-69580952D01*
X84652381Y-69819048D01*
X84700000Y-69914286D01*
X84747619Y-69961905D01*
X84842857Y-70009524D01*
X84938095Y-70009524D01*
X85080952Y-69961905D01*
X85652381Y-69390476D01*
X85652381Y-70009524D01*
X84652381Y-70914286D02*
X84652381Y-70438095D01*
X85128571Y-70390476D01*
X85080952Y-70438095D01*
X85033333Y-70533333D01*
X85033333Y-70771429D01*
X85080952Y-70866667D01*
X85128571Y-70914286D01*
X85223810Y-70961905D01*
X85461905Y-70961905D01*
X85557143Y-70914286D01*
X85604762Y-70866667D01*
X85652381Y-70771429D01*
X85652381Y-70533333D01*
X85604762Y-70438095D01*
X85557143Y-70390476D01*
X94957143Y-69057143D02*
X95004762Y-69009524D01*
X95052381Y-68866667D01*
X95052381Y-68771429D01*
X95004762Y-68628571D01*
X94909524Y-68533333D01*
X94814286Y-68485714D01*
X94623810Y-68438095D01*
X94480952Y-68438095D01*
X94290476Y-68485714D01*
X94195238Y-68533333D01*
X94100000Y-68628571D01*
X94052381Y-68771429D01*
X94052381Y-68866667D01*
X94100000Y-69009524D01*
X94147619Y-69057143D01*
X94147619Y-69438095D02*
X94100000Y-69485714D01*
X94052381Y-69580952D01*
X94052381Y-69819048D01*
X94100000Y-69914286D01*
X94147619Y-69961905D01*
X94242857Y-70009524D01*
X94338095Y-70009524D01*
X94480952Y-69961905D01*
X95052381Y-69390476D01*
X95052381Y-70009524D01*
X94052381Y-70866667D02*
X94052381Y-70676190D01*
X94100000Y-70580952D01*
X94147619Y-70533333D01*
X94290476Y-70438095D01*
X94480952Y-70390476D01*
X94861905Y-70390476D01*
X94957143Y-70438095D01*
X95004762Y-70485714D01*
X95052381Y-70580952D01*
X95052381Y-70771429D01*
X95004762Y-70866667D01*
X94957143Y-70914286D01*
X94861905Y-70961905D01*
X94623810Y-70961905D01*
X94528571Y-70914286D01*
X94480952Y-70866667D01*
X94433333Y-70771429D01*
X94433333Y-70580952D01*
X94480952Y-70485714D01*
X94528571Y-70438095D01*
X94623810Y-70390476D01*
X92742857Y-76457143D02*
X92790476Y-76504762D01*
X92933333Y-76552381D01*
X93028571Y-76552381D01*
X93171429Y-76504762D01*
X93266667Y-76409524D01*
X93314286Y-76314286D01*
X93361905Y-76123810D01*
X93361905Y-75980952D01*
X93314286Y-75790476D01*
X93266667Y-75695238D01*
X93171429Y-75600000D01*
X93028571Y-75552381D01*
X92933333Y-75552381D01*
X92790476Y-75600000D01*
X92742857Y-75647619D01*
X92361905Y-75647619D02*
X92314286Y-75600000D01*
X92219048Y-75552381D01*
X91980952Y-75552381D01*
X91885714Y-75600000D01*
X91838095Y-75647619D01*
X91790476Y-75742857D01*
X91790476Y-75838095D01*
X91838095Y-75980952D01*
X92409524Y-76552381D01*
X91790476Y-76552381D01*
X91219048Y-75980952D02*
X91314286Y-75933333D01*
X91361905Y-75885714D01*
X91409524Y-75790476D01*
X91409524Y-75742857D01*
X91361905Y-75647619D01*
X91314286Y-75600000D01*
X91219048Y-75552381D01*
X91028571Y-75552381D01*
X90933333Y-75600000D01*
X90885714Y-75647619D01*
X90838095Y-75742857D01*
X90838095Y-75790476D01*
X90885714Y-75885714D01*
X90933333Y-75933333D01*
X91028571Y-75980952D01*
X91219048Y-75980952D01*
X91314286Y-76028571D01*
X91361905Y-76076190D01*
X91409524Y-76171429D01*
X91409524Y-76361905D01*
X91361905Y-76457143D01*
X91314286Y-76504762D01*
X91219048Y-76552381D01*
X91028571Y-76552381D01*
X90933333Y-76504762D01*
X90885714Y-76457143D01*
X90838095Y-76361905D01*
X90838095Y-76171429D01*
X90885714Y-76076190D01*
X90933333Y-76028571D01*
X91028571Y-75980952D01*
X89866666Y-66552381D02*
X90342857Y-66552381D01*
X90342857Y-65552381D01*
X89580952Y-65647619D02*
X89533333Y-65600000D01*
X89438095Y-65552381D01*
X89199999Y-65552381D01*
X89104761Y-65600000D01*
X89057142Y-65647619D01*
X89009523Y-65742857D01*
X89009523Y-65838095D01*
X89057142Y-65980952D01*
X89628571Y-66552381D01*
X89009523Y-66552381D01*
X89866666Y-75552381D02*
X90342857Y-75552381D01*
X90342857Y-74552381D01*
X89104761Y-74885714D02*
X89104761Y-75552381D01*
X89342857Y-74504762D02*
X89580952Y-75219048D01*
X88961904Y-75219048D01*
X80452381Y-78957143D02*
X79976190Y-78623809D01*
X80452381Y-78385714D02*
X79452381Y-78385714D01*
X79452381Y-78766667D01*
X79500000Y-78861905D01*
X79547619Y-78909524D01*
X79642857Y-78957143D01*
X79785714Y-78957143D01*
X79880952Y-78909524D01*
X79928571Y-78861905D01*
X79976190Y-78766667D01*
X79976190Y-78385714D01*
X79547619Y-79338095D02*
X79500000Y-79385714D01*
X79452381Y-79480952D01*
X79452381Y-79719048D01*
X79500000Y-79814286D01*
X79547619Y-79861905D01*
X79642857Y-79909524D01*
X79738095Y-79909524D01*
X79880952Y-79861905D01*
X80452381Y-79290476D01*
X80452381Y-79909524D01*
X79452381Y-80242857D02*
X79452381Y-80861905D01*
X79833333Y-80528571D01*
X79833333Y-80671429D01*
X79880952Y-80766667D01*
X79928571Y-80814286D01*
X80023810Y-80861905D01*
X80261905Y-80861905D01*
X80357143Y-80814286D01*
X80404762Y-80766667D01*
X80452381Y-80671429D01*
X80452381Y-80385714D01*
X80404762Y-80290476D01*
X80357143Y-80242857D01*
X83402381Y-81965477D02*
X84116667Y-81965477D01*
X84259524Y-81917857D01*
X84354762Y-81822619D01*
X84402381Y-81679762D01*
X84402381Y-81584524D01*
X84402381Y-82965477D02*
X84402381Y-82394048D01*
X84402381Y-82679762D02*
X83402381Y-82679762D01*
X83545238Y-82584524D01*
X83640476Y-82489286D01*
X83688095Y-82394048D01*
X83402381Y-83584524D02*
X83402381Y-83679763D01*
X83450000Y-83775001D01*
X83497619Y-83822620D01*
X83592857Y-83870239D01*
X83783333Y-83917858D01*
X84021429Y-83917858D01*
X84211905Y-83870239D01*
X84307143Y-83822620D01*
X84354762Y-83775001D01*
X84402381Y-83679763D01*
X84402381Y-83584524D01*
X84354762Y-83489286D01*
X84307143Y-83441667D01*
X84211905Y-83394048D01*
X84021429Y-83346429D01*
X83783333Y-83346429D01*
X83592857Y-83394048D01*
X83497619Y-83441667D01*
X83450000Y-83489286D01*
X83402381Y-83584524D01*
X101352381Y-53591905D02*
X100352381Y-53591905D01*
X100352381Y-53830000D01*
X100400000Y-53972858D01*
X100495238Y-54068096D01*
X100590476Y-54115715D01*
X100780952Y-54163334D01*
X100923810Y-54163334D01*
X101114286Y-54115715D01*
X101209524Y-54068096D01*
X101304762Y-53972858D01*
X101352381Y-53830000D01*
X101352381Y-53591905D01*
X100685714Y-55020477D02*
X101352381Y-55020477D01*
X100304762Y-54782381D02*
X101019048Y-54544286D01*
X101019048Y-55163334D01*
X109502381Y-65261905D02*
X108502381Y-65261905D01*
X108502381Y-65500000D01*
X108550000Y-65642858D01*
X108645238Y-65738096D01*
X108740476Y-65785715D01*
X108930952Y-65833334D01*
X109073810Y-65833334D01*
X109264286Y-65785715D01*
X109359524Y-65738096D01*
X109454762Y-65642858D01*
X109502381Y-65500000D01*
X109502381Y-65261905D01*
X108502381Y-66738096D02*
X108502381Y-66261905D01*
X108978571Y-66214286D01*
X108930952Y-66261905D01*
X108883333Y-66357143D01*
X108883333Y-66595239D01*
X108930952Y-66690477D01*
X108978571Y-66738096D01*
X109073810Y-66785715D01*
X109311905Y-66785715D01*
X109407143Y-66738096D01*
X109454762Y-66690477D01*
X109502381Y-66595239D01*
X109502381Y-66357143D01*
X109454762Y-66261905D01*
X109407143Y-66214286D01*
X117347619Y-64674762D02*
X117300000Y-64579524D01*
X117204762Y-64484286D01*
X117061905Y-64341429D01*
X117014286Y-64246190D01*
X117014286Y-64150952D01*
X117252381Y-64198571D02*
X117204762Y-64103333D01*
X117109524Y-64008095D01*
X116919048Y-63960476D01*
X116585714Y-63960476D01*
X116395238Y-64008095D01*
X116300000Y-64103333D01*
X116252381Y-64198571D01*
X116252381Y-64389048D01*
X116300000Y-64484286D01*
X116395238Y-64579524D01*
X116585714Y-64627143D01*
X116919048Y-64627143D01*
X117109524Y-64579524D01*
X117204762Y-64484286D01*
X117252381Y-64389048D01*
X117252381Y-64198571D01*
X116252381Y-65531905D02*
X116252381Y-65055714D01*
X116728571Y-65008095D01*
X116680952Y-65055714D01*
X116633333Y-65150952D01*
X116633333Y-65389048D01*
X116680952Y-65484286D01*
X116728571Y-65531905D01*
X116823810Y-65579524D01*
X117061905Y-65579524D01*
X117157143Y-65531905D01*
X117204762Y-65484286D01*
X117252381Y-65389048D01*
X117252381Y-65150952D01*
X117204762Y-65055714D01*
X117157143Y-65008095D01*
X107042857Y-69852381D02*
X107376191Y-69376190D01*
X107614286Y-69852381D02*
X107614286Y-68852381D01*
X107233333Y-68852381D01*
X107138095Y-68900000D01*
X107090476Y-68947619D01*
X107042857Y-69042857D01*
X107042857Y-69185714D01*
X107090476Y-69280952D01*
X107138095Y-69328571D01*
X107233333Y-69376190D01*
X107614286Y-69376190D01*
X106661905Y-68947619D02*
X106614286Y-68900000D01*
X106519048Y-68852381D01*
X106280952Y-68852381D01*
X106185714Y-68900000D01*
X106138095Y-68947619D01*
X106090476Y-69042857D01*
X106090476Y-69138095D01*
X106138095Y-69280952D01*
X106709524Y-69852381D01*
X106090476Y-69852381D01*
X105138095Y-69852381D02*
X105709524Y-69852381D01*
X105423810Y-69852381D02*
X105423810Y-68852381D01*
X105519048Y-68995238D01*
X105614286Y-69090476D01*
X105709524Y-69138095D01*
X114842857Y-76052381D02*
X115176191Y-75576190D01*
X115414286Y-76052381D02*
X115414286Y-75052381D01*
X115033333Y-75052381D01*
X114938095Y-75100000D01*
X114890476Y-75147619D01*
X114842857Y-75242857D01*
X114842857Y-75385714D01*
X114890476Y-75480952D01*
X114938095Y-75528571D01*
X115033333Y-75576190D01*
X115414286Y-75576190D01*
X114461905Y-75147619D02*
X114414286Y-75100000D01*
X114319048Y-75052381D01*
X114080952Y-75052381D01*
X113985714Y-75100000D01*
X113938095Y-75147619D01*
X113890476Y-75242857D01*
X113890476Y-75338095D01*
X113938095Y-75480952D01*
X114509524Y-76052381D01*
X113890476Y-76052381D01*
X113509524Y-75147619D02*
X113461905Y-75100000D01*
X113366667Y-75052381D01*
X113128571Y-75052381D01*
X113033333Y-75100000D01*
X112985714Y-75147619D01*
X112938095Y-75242857D01*
X112938095Y-75338095D01*
X112985714Y-75480952D01*
X113557143Y-76052381D01*
X112938095Y-76052381D01*
X84032381Y-114075477D02*
X84746667Y-114075477D01*
X84889524Y-114027857D01*
X84984762Y-113932619D01*
X85032381Y-113789762D01*
X85032381Y-113694524D01*
X85032381Y-115075477D02*
X85032381Y-114504048D01*
X85032381Y-114789762D02*
X84032381Y-114789762D01*
X84175238Y-114694524D01*
X84270476Y-114599286D01*
X84318095Y-114504048D01*
X85032381Y-116027858D02*
X85032381Y-115456429D01*
X85032381Y-115742143D02*
X84032381Y-115742143D01*
X84175238Y-115646905D01*
X84270476Y-115551667D01*
X84318095Y-115456429D01*
X114392857Y-108802381D02*
X114726191Y-108326190D01*
X114964286Y-108802381D02*
X114964286Y-107802381D01*
X114583333Y-107802381D01*
X114488095Y-107850000D01*
X114440476Y-107897619D01*
X114392857Y-107992857D01*
X114392857Y-108135714D01*
X114440476Y-108230952D01*
X114488095Y-108278571D01*
X114583333Y-108326190D01*
X114964286Y-108326190D01*
X114011905Y-107897619D02*
X113964286Y-107850000D01*
X113869048Y-107802381D01*
X113630952Y-107802381D01*
X113535714Y-107850000D01*
X113488095Y-107897619D01*
X113440476Y-107992857D01*
X113440476Y-108088095D01*
X113488095Y-108230952D01*
X114059524Y-108802381D01*
X113440476Y-108802381D01*
X112535714Y-107802381D02*
X113011905Y-107802381D01*
X113059524Y-108278571D01*
X113011905Y-108230952D01*
X112916667Y-108183333D01*
X112678571Y-108183333D01*
X112583333Y-108230952D01*
X112535714Y-108278571D01*
X112488095Y-108373810D01*
X112488095Y-108611905D01*
X112535714Y-108707143D01*
X112583333Y-108754762D01*
X112678571Y-108802381D01*
X112916667Y-108802381D01*
X113011905Y-108754762D01*
X113059524Y-108707143D01*
X108542857Y-115552381D02*
X108876191Y-115076190D01*
X109114286Y-115552381D02*
X109114286Y-114552381D01*
X108733333Y-114552381D01*
X108638095Y-114600000D01*
X108590476Y-114647619D01*
X108542857Y-114742857D01*
X108542857Y-114885714D01*
X108590476Y-114980952D01*
X108638095Y-115028571D01*
X108733333Y-115076190D01*
X109114286Y-115076190D01*
X108161905Y-114647619D02*
X108114286Y-114600000D01*
X108019048Y-114552381D01*
X107780952Y-114552381D01*
X107685714Y-114600000D01*
X107638095Y-114647619D01*
X107590476Y-114742857D01*
X107590476Y-114838095D01*
X107638095Y-114980952D01*
X108209524Y-115552381D01*
X107590476Y-115552381D01*
X106733333Y-114552381D02*
X106923810Y-114552381D01*
X107019048Y-114600000D01*
X107066667Y-114647619D01*
X107161905Y-114790476D01*
X107209524Y-114980952D01*
X107209524Y-115361905D01*
X107161905Y-115457143D01*
X107114286Y-115504762D01*
X107019048Y-115552381D01*
X106828571Y-115552381D01*
X106733333Y-115504762D01*
X106685714Y-115457143D01*
X106638095Y-115361905D01*
X106638095Y-115123810D01*
X106685714Y-115028571D01*
X106733333Y-114980952D01*
X106828571Y-114933333D01*
X107019048Y-114933333D01*
X107114286Y-114980952D01*
X107161905Y-115028571D01*
X107209524Y-115123810D01*
X102642857Y-115452381D02*
X102976191Y-114976190D01*
X103214286Y-115452381D02*
X103214286Y-114452381D01*
X102833333Y-114452381D01*
X102738095Y-114500000D01*
X102690476Y-114547619D01*
X102642857Y-114642857D01*
X102642857Y-114785714D01*
X102690476Y-114880952D01*
X102738095Y-114928571D01*
X102833333Y-114976190D01*
X103214286Y-114976190D01*
X102261905Y-114547619D02*
X102214286Y-114500000D01*
X102119048Y-114452381D01*
X101880952Y-114452381D01*
X101785714Y-114500000D01*
X101738095Y-114547619D01*
X101690476Y-114642857D01*
X101690476Y-114738095D01*
X101738095Y-114880952D01*
X102309524Y-115452381D01*
X101690476Y-115452381D01*
X101357143Y-114452381D02*
X100690476Y-114452381D01*
X101119048Y-115452381D01*
X96742857Y-108552381D02*
X97076191Y-108076190D01*
X97314286Y-108552381D02*
X97314286Y-107552381D01*
X96933333Y-107552381D01*
X96838095Y-107600000D01*
X96790476Y-107647619D01*
X96742857Y-107742857D01*
X96742857Y-107885714D01*
X96790476Y-107980952D01*
X96838095Y-108028571D01*
X96933333Y-108076190D01*
X97314286Y-108076190D01*
X96361905Y-107647619D02*
X96314286Y-107600000D01*
X96219048Y-107552381D01*
X95980952Y-107552381D01*
X95885714Y-107600000D01*
X95838095Y-107647619D01*
X95790476Y-107742857D01*
X95790476Y-107838095D01*
X95838095Y-107980952D01*
X96409524Y-108552381D01*
X95790476Y-108552381D01*
X95219048Y-107980952D02*
X95314286Y-107933333D01*
X95361905Y-107885714D01*
X95409524Y-107790476D01*
X95409524Y-107742857D01*
X95361905Y-107647619D01*
X95314286Y-107600000D01*
X95219048Y-107552381D01*
X95028571Y-107552381D01*
X94933333Y-107600000D01*
X94885714Y-107647619D01*
X94838095Y-107742857D01*
X94838095Y-107790476D01*
X94885714Y-107885714D01*
X94933333Y-107933333D01*
X95028571Y-107980952D01*
X95219048Y-107980952D01*
X95314286Y-108028571D01*
X95361905Y-108076190D01*
X95409524Y-108171429D01*
X95409524Y-108361905D01*
X95361905Y-108457143D01*
X95314286Y-108504762D01*
X95219048Y-108552381D01*
X95028571Y-108552381D01*
X94933333Y-108504762D01*
X94885714Y-108457143D01*
X94838095Y-108361905D01*
X94838095Y-108171429D01*
X94885714Y-108076190D01*
X94933333Y-108028571D01*
X95028571Y-107980952D01*
X96792857Y-115457143D02*
X96840476Y-115504762D01*
X96983333Y-115552381D01*
X97078571Y-115552381D01*
X97221429Y-115504762D01*
X97316667Y-115409524D01*
X97364286Y-115314286D01*
X97411905Y-115123810D01*
X97411905Y-114980952D01*
X97364286Y-114790476D01*
X97316667Y-114695238D01*
X97221429Y-114600000D01*
X97078571Y-114552381D01*
X96983333Y-114552381D01*
X96840476Y-114600000D01*
X96792857Y-114647619D01*
X95840476Y-115552381D02*
X96411905Y-115552381D01*
X96126191Y-115552381D02*
X96126191Y-114552381D01*
X96221429Y-114695238D01*
X96316667Y-114790476D01*
X96411905Y-114838095D01*
X95364286Y-115552381D02*
X95173810Y-115552381D01*
X95078571Y-115504762D01*
X95030952Y-115457143D01*
X94935714Y-115314286D01*
X94888095Y-115123810D01*
X94888095Y-114742857D01*
X94935714Y-114647619D01*
X94983333Y-114600000D01*
X95078571Y-114552381D01*
X95269048Y-114552381D01*
X95364286Y-114600000D01*
X95411905Y-114647619D01*
X95459524Y-114742857D01*
X95459524Y-114980952D01*
X95411905Y-115076190D01*
X95364286Y-115123810D01*
X95269048Y-115171429D01*
X95078571Y-115171429D01*
X94983333Y-115123810D01*
X94935714Y-115076190D01*
X94888095Y-114980952D01*
X114442857Y-115357143D02*
X114490476Y-115404762D01*
X114633333Y-115452381D01*
X114728571Y-115452381D01*
X114871429Y-115404762D01*
X114966667Y-115309524D01*
X115014286Y-115214286D01*
X115061905Y-115023810D01*
X115061905Y-114880952D01*
X115014286Y-114690476D01*
X114966667Y-114595238D01*
X114871429Y-114500000D01*
X114728571Y-114452381D01*
X114633333Y-114452381D01*
X114490476Y-114500000D01*
X114442857Y-114547619D01*
X114061905Y-114547619D02*
X114014286Y-114500000D01*
X113919048Y-114452381D01*
X113680952Y-114452381D01*
X113585714Y-114500000D01*
X113538095Y-114547619D01*
X113490476Y-114642857D01*
X113490476Y-114738095D01*
X113538095Y-114880952D01*
X114109524Y-115452381D01*
X113490476Y-115452381D01*
X112871429Y-114452381D02*
X112776190Y-114452381D01*
X112680952Y-114500000D01*
X112633333Y-114547619D01*
X112585714Y-114642857D01*
X112538095Y-114833333D01*
X112538095Y-115071429D01*
X112585714Y-115261905D01*
X112633333Y-115357143D01*
X112680952Y-115404762D01*
X112776190Y-115452381D01*
X112871429Y-115452381D01*
X112966667Y-115404762D01*
X113014286Y-115357143D01*
X113061905Y-115261905D01*
X113109524Y-115071429D01*
X113109524Y-114833333D01*
X113061905Y-114642857D01*
X113014286Y-114547619D01*
X112966667Y-114500000D01*
X112871429Y-114452381D01*
X88176666Y-85587143D02*
X88224285Y-85634762D01*
X88367142Y-85682381D01*
X88462380Y-85682381D01*
X88605238Y-85634762D01*
X88700476Y-85539524D01*
X88748095Y-85444286D01*
X88795714Y-85253810D01*
X88795714Y-85110952D01*
X88748095Y-84920476D01*
X88700476Y-84825238D01*
X88605238Y-84730000D01*
X88462380Y-84682381D01*
X88367142Y-84682381D01*
X88224285Y-84730000D01*
X88176666Y-84777619D01*
X87843333Y-84682381D02*
X87224285Y-84682381D01*
X87557619Y-85063333D01*
X87414761Y-85063333D01*
X87319523Y-85110952D01*
X87271904Y-85158571D01*
X87224285Y-85253810D01*
X87224285Y-85491905D01*
X87271904Y-85587143D01*
X87319523Y-85634762D01*
X87414761Y-85682381D01*
X87700476Y-85682381D01*
X87795714Y-85634762D01*
X87843333Y-85587143D01*
X145727143Y-67617143D02*
X145774762Y-67569524D01*
X145822381Y-67426667D01*
X145822381Y-67331429D01*
X145774762Y-67188571D01*
X145679524Y-67093333D01*
X145584286Y-67045714D01*
X145393810Y-66998095D01*
X145250952Y-66998095D01*
X145060476Y-67045714D01*
X144965238Y-67093333D01*
X144870000Y-67188571D01*
X144822381Y-67331429D01*
X144822381Y-67426667D01*
X144870000Y-67569524D01*
X144917619Y-67617143D01*
X145822381Y-68569524D02*
X145822381Y-67998095D01*
X145822381Y-68283809D02*
X144822381Y-68283809D01*
X144965238Y-68188571D01*
X145060476Y-68093333D01*
X145108095Y-67998095D01*
X145822381Y-69521905D02*
X145822381Y-68950476D01*
X145822381Y-69236190D02*
X144822381Y-69236190D01*
X144965238Y-69140952D01*
X145060476Y-69045714D01*
X145108095Y-68950476D01*
X116912857Y-82937143D02*
X116960476Y-82984762D01*
X117103333Y-83032381D01*
X117198571Y-83032381D01*
X117341429Y-82984762D01*
X117436667Y-82889524D01*
X117484286Y-82794286D01*
X117531905Y-82603810D01*
X117531905Y-82460952D01*
X117484286Y-82270476D01*
X117436667Y-82175238D01*
X117341429Y-82080000D01*
X117198571Y-82032381D01*
X117103333Y-82032381D01*
X116960476Y-82080000D01*
X116912857Y-82127619D01*
X115960476Y-83032381D02*
X116531905Y-83032381D01*
X116246191Y-83032381D02*
X116246191Y-82032381D01*
X116341429Y-82175238D01*
X116436667Y-82270476D01*
X116531905Y-82318095D01*
X115627143Y-82032381D02*
X115008095Y-82032381D01*
X115341429Y-82413333D01*
X115198571Y-82413333D01*
X115103333Y-82460952D01*
X115055714Y-82508571D01*
X115008095Y-82603810D01*
X115008095Y-82841905D01*
X115055714Y-82937143D01*
X115103333Y-82984762D01*
X115198571Y-83032381D01*
X115484286Y-83032381D01*
X115579524Y-82984762D01*
X115627143Y-82937143D01*
X111662857Y-94057143D02*
X111710476Y-94104762D01*
X111853333Y-94152381D01*
X111948571Y-94152381D01*
X112091429Y-94104762D01*
X112186667Y-94009524D01*
X112234286Y-93914286D01*
X112281905Y-93723810D01*
X112281905Y-93580952D01*
X112234286Y-93390476D01*
X112186667Y-93295238D01*
X112091429Y-93200000D01*
X111948571Y-93152381D01*
X111853333Y-93152381D01*
X111710476Y-93200000D01*
X111662857Y-93247619D01*
X110710476Y-94152381D02*
X111281905Y-94152381D01*
X110996191Y-94152381D02*
X110996191Y-93152381D01*
X111091429Y-93295238D01*
X111186667Y-93390476D01*
X111281905Y-93438095D01*
X109805714Y-93152381D02*
X110281905Y-93152381D01*
X110329524Y-93628571D01*
X110281905Y-93580952D01*
X110186667Y-93533333D01*
X109948571Y-93533333D01*
X109853333Y-93580952D01*
X109805714Y-93628571D01*
X109758095Y-93723810D01*
X109758095Y-93961905D01*
X109805714Y-94057143D01*
X109853333Y-94104762D01*
X109948571Y-94152381D01*
X110186667Y-94152381D01*
X110281905Y-94104762D01*
X110329524Y-94057143D01*
X98452857Y-94017143D02*
X98500476Y-94064762D01*
X98643333Y-94112381D01*
X98738571Y-94112381D01*
X98881429Y-94064762D01*
X98976667Y-93969524D01*
X99024286Y-93874286D01*
X99071905Y-93683810D01*
X99071905Y-93540952D01*
X99024286Y-93350476D01*
X98976667Y-93255238D01*
X98881429Y-93160000D01*
X98738571Y-93112381D01*
X98643333Y-93112381D01*
X98500476Y-93160000D01*
X98452857Y-93207619D01*
X97500476Y-94112381D02*
X98071905Y-94112381D01*
X97786191Y-94112381D02*
X97786191Y-93112381D01*
X97881429Y-93255238D01*
X97976667Y-93350476D01*
X98071905Y-93398095D01*
X97167143Y-93112381D02*
X96500476Y-93112381D01*
X96929048Y-94112381D01*
X84642857Y-45857143D02*
X84690476Y-45904762D01*
X84833333Y-45952381D01*
X84928571Y-45952381D01*
X85071429Y-45904762D01*
X85166667Y-45809524D01*
X85214286Y-45714286D01*
X85261905Y-45523810D01*
X85261905Y-45380952D01*
X85214286Y-45190476D01*
X85166667Y-45095238D01*
X85071429Y-45000000D01*
X84928571Y-44952381D01*
X84833333Y-44952381D01*
X84690476Y-45000000D01*
X84642857Y-45047619D01*
X83690476Y-45952381D02*
X84261905Y-45952381D01*
X83976191Y-45952381D02*
X83976191Y-44952381D01*
X84071429Y-45095238D01*
X84166667Y-45190476D01*
X84261905Y-45238095D01*
X83071429Y-44952381D02*
X82976190Y-44952381D01*
X82880952Y-45000000D01*
X82833333Y-45047619D01*
X82785714Y-45142857D01*
X82738095Y-45333333D01*
X82738095Y-45571429D01*
X82785714Y-45761905D01*
X82833333Y-45857143D01*
X82880952Y-45904762D01*
X82976190Y-45952381D01*
X83071429Y-45952381D01*
X83166667Y-45904762D01*
X83214286Y-45857143D01*
X83261905Y-45761905D01*
X83309524Y-45571429D01*
X83309524Y-45333333D01*
X83261905Y-45142857D01*
X83214286Y-45047619D01*
X83166667Y-45000000D01*
X83071429Y-44952381D01*
M02*
