G04 #@! TF.FileFunction,Soldermask,Top*
%FSLAX46Y46*%
G04 Gerber Fmt 4.6, Leading zero omitted, Abs format (unit mm)*
G04 Created by KiCad (PCBNEW 4.0.7-e2-6376~58~ubuntu14.04.1) date Mon Jan  1 10:43:33 2018*
%MOMM*%
%LPD*%
G01*
G04 APERTURE LIST*
%ADD10C,0.100000*%
%ADD11R,1.800000X1.800000*%
%ADD12C,1.800000*%
%ADD13R,1.700000X1.700000*%
%ADD14O,1.700000X1.700000*%
%ADD15C,1.500000*%
%ADD16C,1.600000*%
%ADD17O,1.600000X1.600000*%
%ADD18C,5.600000*%
G04 APERTURE END LIST*
D10*
D11*
X74000000Y-46600000D03*
D12*
X74000000Y-49140000D03*
D13*
X157200000Y-48400000D03*
D14*
X157200000Y-45860000D03*
X154660000Y-48400000D03*
X154660000Y-45860000D03*
X152120000Y-48400000D03*
X152120000Y-45860000D03*
D13*
X146100000Y-45900000D03*
D14*
X146100000Y-48440000D03*
X143560000Y-45900000D03*
X143560000Y-48440000D03*
X141020000Y-45900000D03*
X141020000Y-48440000D03*
X138480000Y-45900000D03*
X138480000Y-48440000D03*
X135940000Y-45900000D03*
X135940000Y-48440000D03*
X133400000Y-45900000D03*
X133400000Y-48440000D03*
D13*
X154700000Y-72100000D03*
D14*
X154700000Y-69560000D03*
X154700000Y-67020000D03*
X154700000Y-64480000D03*
D13*
X91100000Y-48000000D03*
D14*
X91100000Y-45460000D03*
D15*
X134620000Y-111360000D03*
X129740000Y-111360000D03*
D13*
X129540000Y-54610000D03*
D14*
X127000000Y-54610000D03*
D13*
X123190000Y-54610000D03*
D14*
X120650000Y-54610000D03*
D13*
X110490000Y-54610000D03*
D14*
X107950000Y-54610000D03*
D13*
X116840000Y-54610000D03*
D14*
X114300000Y-54610000D03*
D16*
X90100000Y-96400000D03*
D17*
X90100000Y-86240000D03*
D16*
X106680000Y-76200000D03*
D17*
X106680000Y-86360000D03*
D11*
X148700000Y-80700000D03*
D12*
X148700000Y-78160000D03*
D13*
X73825000Y-63570000D03*
D14*
X73825000Y-66110000D03*
X73825000Y-68650000D03*
X73825000Y-71190000D03*
X73825000Y-73730000D03*
X73825000Y-76270000D03*
X73825000Y-78810000D03*
D18*
X75000000Y-57000000D03*
X158000000Y-57000000D03*
X158000000Y-117000000D03*
X75000000Y-117000000D03*
D13*
X81500000Y-83400000D03*
D14*
X81500000Y-85940000D03*
X81500000Y-88480000D03*
X81500000Y-91020000D03*
X81500000Y-93560000D03*
X81500000Y-96100000D03*
X81500000Y-98640000D03*
X81500000Y-101180000D03*
X81500000Y-103720000D03*
X81500000Y-106260000D03*
X81500000Y-108800000D03*
X81500000Y-111340000D03*
D13*
X86850000Y-110500000D03*
D14*
X89390000Y-110500000D03*
X91930000Y-110500000D03*
M02*
