G04 #@! TF.FileFunction,Copper,L1,Top,Signal*
%FSLAX46Y46*%
G04 Gerber Fmt 4.6, Leading zero omitted, Abs format (unit mm)*
G04 Created by KiCad (PCBNEW 4.0.7-e2-6376~58~ubuntu14.04.1) date Wed Dec 27 19:18:50 2017*
%MOMM*%
%LPD*%
G01*
G04 APERTURE LIST*
%ADD10C,0.100000*%
%ADD11C,5.500000*%
%ADD12R,1.800000X1.800000*%
%ADD13C,1.800000*%
%ADD14R,1.700000X1.700000*%
%ADD15O,1.700000X1.700000*%
%ADD16C,1.500000*%
%ADD17R,1.600000X1.600000*%
%ADD18C,1.600000*%
%ADD19C,1.620000*%
%ADD20O,1.600000X1.600000*%
%ADD21C,0.600000*%
%ADD22C,0.250000*%
%ADD23C,0.400000*%
%ADD24C,0.200000*%
G04 APERTURE END LIST*
D10*
D11*
X158000000Y-57000000D03*
X75000000Y-57000000D03*
X75000000Y-117000000D03*
X158000000Y-117000000D03*
D12*
X91440000Y-53340000D03*
D13*
X91440000Y-55880000D03*
D14*
X157200000Y-48400000D03*
D15*
X157200000Y-45860000D03*
X154660000Y-48400000D03*
X154660000Y-45860000D03*
X152120000Y-48400000D03*
X152120000Y-45860000D03*
D14*
X146100000Y-45900000D03*
D15*
X146100000Y-48440000D03*
X143560000Y-45900000D03*
X143560000Y-48440000D03*
X141020000Y-45900000D03*
X141020000Y-48440000D03*
X138480000Y-45900000D03*
X138480000Y-48440000D03*
X135940000Y-45900000D03*
X135940000Y-48440000D03*
X133400000Y-45900000D03*
X133400000Y-48440000D03*
D14*
X154700000Y-72100000D03*
D15*
X154700000Y-69560000D03*
X154700000Y-67020000D03*
X154700000Y-64480000D03*
D14*
X91100000Y-48000000D03*
D15*
X91100000Y-45460000D03*
D16*
X134620000Y-111360000D03*
X129740000Y-111360000D03*
D14*
X116840000Y-54610000D03*
D15*
X114300000Y-54610000D03*
X111760000Y-54610000D03*
X109220000Y-54610000D03*
D14*
X81500000Y-73200000D03*
D15*
X81500000Y-75740000D03*
X81500000Y-78280000D03*
X81500000Y-80820000D03*
X81500000Y-83360000D03*
X81500000Y-85900000D03*
X81500000Y-88440000D03*
X81500000Y-90980000D03*
X81500000Y-93520000D03*
X81500000Y-96060000D03*
X81500000Y-98600000D03*
X81500000Y-101140000D03*
X81500000Y-103680000D03*
X81500000Y-106220000D03*
X81500000Y-108760000D03*
X81500000Y-111300000D03*
D14*
X73825000Y-68650000D03*
D15*
X73825000Y-66110000D03*
X73825000Y-63570000D03*
D17*
X91440000Y-81280000D03*
D18*
X91440000Y-83280000D03*
D17*
X145796000Y-69342000D03*
D18*
X145796000Y-67342000D03*
D17*
X114400000Y-86400000D03*
D18*
X114400000Y-88900000D03*
D17*
X114400000Y-93400000D03*
D18*
X114400000Y-95900000D03*
D17*
X95650000Y-98800000D03*
D18*
X95650000Y-96300000D03*
D19*
X84400000Y-72500000D03*
X86900000Y-77500000D03*
X89400000Y-72500000D03*
D14*
X105410000Y-54610000D03*
D15*
X102870000Y-54610000D03*
D14*
X99060000Y-54610000D03*
D15*
X96520000Y-54610000D03*
D14*
X123190000Y-54610000D03*
D15*
X120650000Y-54610000D03*
D14*
X129540000Y-54610000D03*
D15*
X127000000Y-54610000D03*
D14*
X81500000Y-48260000D03*
D15*
X81500000Y-50800000D03*
D17*
X82300000Y-56000000D03*
D18*
X80300000Y-56000000D03*
X90100000Y-96400000D03*
D20*
X90100000Y-86240000D03*
D18*
X106700000Y-73250000D03*
D20*
X106700000Y-83410000D03*
D12*
X148700000Y-80700000D03*
D13*
X148700000Y-78160000D03*
D21*
X137200000Y-103900000D03*
X135500000Y-103950000D03*
X96900000Y-93300000D03*
X143500000Y-92200000D03*
X160400000Y-98100000D03*
X155800000Y-100800000D03*
X155200000Y-77600000D03*
X151300000Y-77000000D03*
X156000000Y-99400000D03*
X159000000Y-99400000D03*
X133350000Y-76250000D03*
X142800000Y-105700000D03*
X143800000Y-104350000D03*
X133700000Y-78000000D03*
X128800000Y-93600000D03*
X110900000Y-106650000D03*
X110900000Y-99400000D03*
X146900000Y-100800000D03*
X146900000Y-105750000D03*
X118200000Y-72850000D03*
X120350000Y-81950000D03*
X133900000Y-93600000D03*
X151600000Y-90600000D03*
X150700000Y-62800000D03*
X115600000Y-58300000D03*
X89700000Y-58300000D03*
X118100000Y-60700000D03*
X96200000Y-60700000D03*
X96200000Y-64000000D03*
X142000000Y-60800000D03*
X144400000Y-61500000D03*
X146100000Y-59500000D03*
X139100000Y-61100000D03*
X147700000Y-62900000D03*
X147700000Y-59300000D03*
X159000000Y-75500000D03*
X152600000Y-75300000D03*
X134600000Y-75500000D03*
X138700000Y-79600000D03*
X139850000Y-77500000D03*
X134800000Y-70500000D03*
X130100000Y-107600000D03*
X137900000Y-107600000D03*
X134700000Y-83600000D03*
X130700000Y-81200000D03*
X88800000Y-49800000D03*
X93900000Y-49800000D03*
X94400000Y-85800000D03*
X142700000Y-89500000D03*
X97600000Y-88700000D03*
X142800000Y-91100000D03*
X128000000Y-80100000D03*
X141200000Y-88200000D03*
D22*
X135550000Y-103900000D02*
X137200000Y-103900000D01*
X135500000Y-103950000D02*
X135550000Y-103900000D01*
X97350000Y-93300000D02*
X96900000Y-93300000D01*
X98850000Y-91800000D02*
X97350000Y-93300000D01*
X141250000Y-91800000D02*
X98850000Y-91800000D01*
X141650000Y-92200000D02*
X141250000Y-91800000D01*
X143500000Y-92200000D02*
X141650000Y-92200000D01*
D23*
X160400000Y-99600000D02*
X160400000Y-99800000D01*
X160400000Y-99800000D02*
X159400000Y-100800000D01*
X159400000Y-100800000D02*
X155800000Y-100800000D01*
X160400000Y-98100000D02*
X160400000Y-99600000D01*
X151900000Y-77600000D02*
X155200000Y-77600000D01*
X151300000Y-77000000D02*
X151900000Y-77600000D01*
X156000000Y-99400000D02*
X159000000Y-99400000D01*
X134500000Y-77400000D02*
X133350000Y-76250000D01*
X146000000Y-89700000D02*
X146000000Y-88900000D01*
X146000000Y-88900000D02*
X134500000Y-77400000D01*
X146000000Y-103800000D02*
X146000000Y-89700000D01*
X144100000Y-105700000D02*
X146000000Y-103800000D01*
X142800000Y-105700000D02*
X144100000Y-105700000D01*
X145000000Y-103150000D02*
X143800000Y-104350000D01*
X145000000Y-89300000D02*
X145000000Y-103150000D01*
X133700000Y-78000000D02*
X145000000Y-89300000D01*
X110900000Y-99400000D02*
X110900000Y-106650000D01*
X146900000Y-105750000D02*
X146900000Y-100800000D01*
X118200000Y-79800000D02*
X118200000Y-72850000D01*
X118200000Y-72850000D02*
X118200000Y-72700000D01*
X120350000Y-81950000D02*
X118200000Y-79800000D01*
X128800000Y-93600000D02*
X133900000Y-93600000D01*
X150200000Y-89200000D02*
X151600000Y-90600000D01*
X150200000Y-63300000D02*
X150200000Y-89200000D01*
X150700000Y-62800000D02*
X150200000Y-63300000D01*
X89700000Y-58300000D02*
X115600000Y-58300000D01*
X118100000Y-60700000D02*
X118200000Y-60800000D01*
X118200000Y-60800000D02*
X118200000Y-72700000D01*
X96200000Y-64000000D02*
X96200000Y-60700000D01*
X143700000Y-60800000D02*
X142000000Y-60800000D01*
X144400000Y-61500000D02*
X143700000Y-60800000D01*
X146100000Y-59500000D02*
X140900000Y-59500000D01*
X139300000Y-61100000D02*
X139100000Y-61100000D01*
X140900000Y-59500000D02*
X139300000Y-61100000D01*
X147700000Y-59300000D02*
X147700000Y-62900000D01*
X152800000Y-75500000D02*
X159000000Y-75500000D01*
X152600000Y-75300000D02*
X152800000Y-75500000D01*
X138700000Y-79600000D02*
X134600000Y-75500000D01*
X134800000Y-72450000D02*
X134800000Y-70500000D01*
X139850000Y-77500000D02*
X134800000Y-72450000D01*
X137900000Y-107600000D02*
X130100000Y-107600000D01*
X134700000Y-83600000D02*
X132300000Y-81200000D01*
X132300000Y-81200000D02*
X130700000Y-81200000D01*
X93900000Y-49800000D02*
X88800000Y-49800000D01*
D22*
X100725000Y-90425000D02*
X141775000Y-90425000D01*
X141775000Y-90425000D02*
X142700000Y-89500000D01*
X96100000Y-85800000D02*
X94400000Y-85800000D01*
X100725000Y-90425000D02*
X96100000Y-85800000D01*
X142800000Y-91100000D02*
X100000000Y-91100000D01*
X100000000Y-91100000D02*
X97600000Y-88700000D01*
D23*
X133100000Y-80100000D02*
X128000000Y-80100000D01*
X141200000Y-88200000D02*
X133100000Y-80100000D01*
D24*
G36*
X161650000Y-120650000D02*
X71350000Y-120650000D01*
X71350000Y-119260571D01*
X72952268Y-119260571D01*
X73284031Y-119617873D01*
X74416469Y-120075272D01*
X75637742Y-120064489D01*
X76715969Y-119617873D01*
X77047732Y-119260571D01*
X155952268Y-119260571D01*
X156284031Y-119617873D01*
X157416469Y-120075272D01*
X158637742Y-120064489D01*
X159715969Y-119617873D01*
X160047732Y-119260571D01*
X158000000Y-117212839D01*
X155952268Y-119260571D01*
X77047732Y-119260571D01*
X75000000Y-117212839D01*
X72952268Y-119260571D01*
X71350000Y-119260571D01*
X71350000Y-116416469D01*
X71924728Y-116416469D01*
X71935511Y-117637742D01*
X72382127Y-118715969D01*
X72739429Y-119047732D01*
X74787161Y-117000000D01*
X75212839Y-117000000D01*
X77260571Y-119047732D01*
X77617873Y-118715969D01*
X78075272Y-117583531D01*
X78064968Y-116416469D01*
X154924728Y-116416469D01*
X154935511Y-117637742D01*
X155382127Y-118715969D01*
X155739429Y-119047732D01*
X157787161Y-117000000D01*
X158212839Y-117000000D01*
X160260571Y-119047732D01*
X160617873Y-118715969D01*
X161075272Y-117583531D01*
X161064489Y-116362258D01*
X160617873Y-115284031D01*
X160260571Y-114952268D01*
X158212839Y-117000000D01*
X157787161Y-117000000D01*
X155739429Y-114952268D01*
X155382127Y-115284031D01*
X154924728Y-116416469D01*
X78064968Y-116416469D01*
X78064489Y-116362258D01*
X77617873Y-115284031D01*
X77260571Y-114952268D01*
X75212839Y-117000000D01*
X74787161Y-117000000D01*
X72739429Y-114952268D01*
X72382127Y-115284031D01*
X71924728Y-116416469D01*
X71350000Y-116416469D01*
X71350000Y-114739429D01*
X72952268Y-114739429D01*
X75000000Y-116787161D01*
X77047732Y-114739429D01*
X155952268Y-114739429D01*
X158000000Y-116787161D01*
X160047732Y-114739429D01*
X159715969Y-114382127D01*
X158583531Y-113924728D01*
X157362258Y-113935511D01*
X156284031Y-114382127D01*
X155952268Y-114739429D01*
X77047732Y-114739429D01*
X76715969Y-114382127D01*
X75583531Y-113924728D01*
X74362258Y-113935511D01*
X73284031Y-114382127D01*
X72952268Y-114739429D01*
X71350000Y-114739429D01*
X71350000Y-111630155D01*
X80377548Y-111630155D01*
X80472841Y-111860247D01*
X80765426Y-112210678D01*
X81169843Y-112422466D01*
X81349500Y-112380295D01*
X81349500Y-111450500D01*
X81650500Y-111450500D01*
X81650500Y-112380295D01*
X81830157Y-112422466D01*
X82234574Y-112210678D01*
X82527159Y-111860247D01*
X82622452Y-111630155D01*
X82607599Y-111567942D01*
X128689818Y-111567942D01*
X128849334Y-111954000D01*
X129144446Y-112249628D01*
X129530226Y-112409818D01*
X129947942Y-112410182D01*
X130334000Y-112250666D01*
X130629628Y-111955554D01*
X130789818Y-111569774D01*
X130789819Y-111567942D01*
X133569818Y-111567942D01*
X133729334Y-111954000D01*
X134024446Y-112249628D01*
X134410226Y-112409818D01*
X134827942Y-112410182D01*
X135214000Y-112250666D01*
X135509628Y-111955554D01*
X135669818Y-111569774D01*
X135670182Y-111152058D01*
X135510666Y-110766000D01*
X135215554Y-110470372D01*
X134829774Y-110310182D01*
X134412058Y-110309818D01*
X134026000Y-110469334D01*
X133730372Y-110764446D01*
X133570182Y-111150226D01*
X133569818Y-111567942D01*
X130789819Y-111567942D01*
X130790182Y-111152058D01*
X130630666Y-110766000D01*
X130335554Y-110470372D01*
X129949774Y-110310182D01*
X129532058Y-110309818D01*
X129146000Y-110469334D01*
X128850372Y-110764446D01*
X128690182Y-111150226D01*
X128689818Y-111567942D01*
X82607599Y-111567942D01*
X82579560Y-111450500D01*
X81650500Y-111450500D01*
X81349500Y-111450500D01*
X80420440Y-111450500D01*
X80377548Y-111630155D01*
X71350000Y-111630155D01*
X71350000Y-110969845D01*
X80377548Y-110969845D01*
X80420440Y-111149500D01*
X81349500Y-111149500D01*
X81349500Y-110219705D01*
X81650500Y-110219705D01*
X81650500Y-111149500D01*
X82579560Y-111149500D01*
X82622452Y-110969845D01*
X82527159Y-110739753D01*
X82234574Y-110389322D01*
X81830157Y-110177534D01*
X81650500Y-110219705D01*
X81349500Y-110219705D01*
X81169843Y-110177534D01*
X80765426Y-110389322D01*
X80472841Y-110739753D01*
X80377548Y-110969845D01*
X71350000Y-110969845D01*
X71350000Y-108760000D01*
X80327470Y-108760000D01*
X80415009Y-109200086D01*
X80664297Y-109573173D01*
X81037384Y-109822461D01*
X81477470Y-109910000D01*
X81522530Y-109910000D01*
X81962616Y-109822461D01*
X82335703Y-109573173D01*
X82584991Y-109200086D01*
X82672530Y-108760000D01*
X82584991Y-108319914D01*
X82335703Y-107946827D01*
X81994472Y-107718824D01*
X129499896Y-107718824D01*
X129591048Y-107939429D01*
X129759683Y-108108359D01*
X129980129Y-108199896D01*
X130218824Y-108200104D01*
X130439429Y-108108952D01*
X130448397Y-108100000D01*
X137551339Y-108100000D01*
X137559683Y-108108359D01*
X137780129Y-108199896D01*
X138018824Y-108200104D01*
X138239429Y-108108952D01*
X138408359Y-107940317D01*
X138499896Y-107719871D01*
X138500104Y-107481176D01*
X138408952Y-107260571D01*
X138240317Y-107091641D01*
X138019871Y-107000104D01*
X137781176Y-106999896D01*
X137560571Y-107091048D01*
X137551603Y-107100000D01*
X130448661Y-107100000D01*
X130440317Y-107091641D01*
X130219871Y-107000104D01*
X129981176Y-106999896D01*
X129760571Y-107091048D01*
X129591641Y-107259683D01*
X129500104Y-107480129D01*
X129499896Y-107718824D01*
X81994472Y-107718824D01*
X81962616Y-107697539D01*
X81522530Y-107610000D01*
X81477470Y-107610000D01*
X81037384Y-107697539D01*
X80664297Y-107946827D01*
X80415009Y-108319914D01*
X80327470Y-108760000D01*
X71350000Y-108760000D01*
X71350000Y-106220000D01*
X80327470Y-106220000D01*
X80415009Y-106660086D01*
X80664297Y-107033173D01*
X81037384Y-107282461D01*
X81477470Y-107370000D01*
X81522530Y-107370000D01*
X81962616Y-107282461D01*
X82335703Y-107033173D01*
X82584991Y-106660086D01*
X82672530Y-106220000D01*
X82584991Y-105779914D01*
X82335703Y-105406827D01*
X81962616Y-105157539D01*
X81522530Y-105070000D01*
X81477470Y-105070000D01*
X81037384Y-105157539D01*
X80664297Y-105406827D01*
X80415009Y-105779914D01*
X80327470Y-106220000D01*
X71350000Y-106220000D01*
X71350000Y-103680000D01*
X80327470Y-103680000D01*
X80415009Y-104120086D01*
X80664297Y-104493173D01*
X81037384Y-104742461D01*
X81477470Y-104830000D01*
X81522530Y-104830000D01*
X81962616Y-104742461D01*
X82335703Y-104493173D01*
X82584991Y-104120086D01*
X82672530Y-103680000D01*
X82584991Y-103239914D01*
X82335703Y-102866827D01*
X81962616Y-102617539D01*
X81522530Y-102530000D01*
X81477470Y-102530000D01*
X81037384Y-102617539D01*
X80664297Y-102866827D01*
X80415009Y-103239914D01*
X80327470Y-103680000D01*
X71350000Y-103680000D01*
X71350000Y-101140000D01*
X80327470Y-101140000D01*
X80415009Y-101580086D01*
X80664297Y-101953173D01*
X81037384Y-102202461D01*
X81477470Y-102290000D01*
X81522530Y-102290000D01*
X81962616Y-102202461D01*
X82335703Y-101953173D01*
X82584991Y-101580086D01*
X82672530Y-101140000D01*
X82584991Y-100699914D01*
X82335703Y-100326827D01*
X81962616Y-100077539D01*
X81522530Y-99990000D01*
X81477470Y-99990000D01*
X81037384Y-100077539D01*
X80664297Y-100326827D01*
X80415009Y-100699914D01*
X80327470Y-101140000D01*
X71350000Y-101140000D01*
X71350000Y-98600000D01*
X80327470Y-98600000D01*
X80415009Y-99040086D01*
X80664297Y-99413173D01*
X81037384Y-99662461D01*
X81477470Y-99750000D01*
X81522530Y-99750000D01*
X81962616Y-99662461D01*
X82335703Y-99413173D01*
X82584991Y-99040086D01*
X82672530Y-98600000D01*
X82584991Y-98159914D01*
X82478141Y-98000000D01*
X94544123Y-98000000D01*
X94544123Y-99600000D01*
X94565042Y-99711173D01*
X94630745Y-99813279D01*
X94730997Y-99881778D01*
X94850000Y-99905877D01*
X96450000Y-99905877D01*
X96561173Y-99884958D01*
X96663279Y-99819255D01*
X96731778Y-99719003D01*
X96755877Y-99600000D01*
X96755877Y-99518824D01*
X110299896Y-99518824D01*
X110391048Y-99739429D01*
X110400000Y-99748397D01*
X110400000Y-106301339D01*
X110391641Y-106309683D01*
X110300104Y-106530129D01*
X110299896Y-106768824D01*
X110391048Y-106989429D01*
X110559683Y-107158359D01*
X110780129Y-107249896D01*
X111018824Y-107250104D01*
X111239429Y-107158952D01*
X111408359Y-106990317D01*
X111499896Y-106769871D01*
X111500104Y-106531176D01*
X111408952Y-106310571D01*
X111400000Y-106301603D01*
X111400000Y-99748661D01*
X111408359Y-99740317D01*
X111499896Y-99519871D01*
X111500104Y-99281176D01*
X111408952Y-99060571D01*
X111240317Y-98891641D01*
X111019871Y-98800104D01*
X110781176Y-98799896D01*
X110560571Y-98891048D01*
X110391641Y-99059683D01*
X110300104Y-99280129D01*
X110299896Y-99518824D01*
X96755877Y-99518824D01*
X96755877Y-98000000D01*
X96734958Y-97888827D01*
X96669255Y-97786721D01*
X96569003Y-97718222D01*
X96450000Y-97694123D01*
X94850000Y-97694123D01*
X94738827Y-97715042D01*
X94636721Y-97780745D01*
X94568222Y-97880997D01*
X94544123Y-98000000D01*
X82478141Y-98000000D01*
X82335703Y-97786827D01*
X81962616Y-97537539D01*
X81522530Y-97450000D01*
X81477470Y-97450000D01*
X81037384Y-97537539D01*
X80664297Y-97786827D01*
X80415009Y-98159914D01*
X80327470Y-98600000D01*
X71350000Y-98600000D01*
X71350000Y-96060000D01*
X80327470Y-96060000D01*
X80415009Y-96500086D01*
X80664297Y-96873173D01*
X81037384Y-97122461D01*
X81477470Y-97210000D01*
X81522530Y-97210000D01*
X81962616Y-97122461D01*
X82335703Y-96873173D01*
X82506307Y-96617844D01*
X88999810Y-96617844D01*
X89166922Y-97022286D01*
X89476087Y-97331991D01*
X89880237Y-97499808D01*
X90317844Y-97500190D01*
X90722286Y-97333078D01*
X90905938Y-97149746D01*
X95013093Y-97149746D01*
X95106395Y-97304254D01*
X95532086Y-97435838D01*
X95975729Y-97394501D01*
X96193605Y-97304254D01*
X96286907Y-97149746D01*
X95650000Y-96512839D01*
X95013093Y-97149746D01*
X90905938Y-97149746D01*
X91031991Y-97023913D01*
X91199808Y-96619763D01*
X91200190Y-96182156D01*
X91200162Y-96182086D01*
X94514162Y-96182086D01*
X94555499Y-96625729D01*
X94645746Y-96843605D01*
X94800254Y-96936907D01*
X95437161Y-96300000D01*
X95862839Y-96300000D01*
X96499746Y-96936907D01*
X96654254Y-96843605D01*
X96683266Y-96749746D01*
X113763093Y-96749746D01*
X113856395Y-96904254D01*
X114282086Y-97035838D01*
X114725729Y-96994501D01*
X114943605Y-96904254D01*
X115036907Y-96749746D01*
X114400000Y-96112839D01*
X113763093Y-96749746D01*
X96683266Y-96749746D01*
X96785838Y-96417914D01*
X96744501Y-95974271D01*
X96664896Y-95782086D01*
X113264162Y-95782086D01*
X113305499Y-96225729D01*
X113395746Y-96443605D01*
X113550254Y-96536907D01*
X114187161Y-95900000D01*
X114612839Y-95900000D01*
X115249746Y-96536907D01*
X115404254Y-96443605D01*
X115535838Y-96017914D01*
X115494501Y-95574271D01*
X115404254Y-95356395D01*
X115249746Y-95263093D01*
X114612839Y-95900000D01*
X114187161Y-95900000D01*
X113550254Y-95263093D01*
X113395746Y-95356395D01*
X113264162Y-95782086D01*
X96664896Y-95782086D01*
X96654254Y-95756395D01*
X96499746Y-95663093D01*
X95862839Y-96300000D01*
X95437161Y-96300000D01*
X94800254Y-95663093D01*
X94645746Y-95756395D01*
X94514162Y-96182086D01*
X91200162Y-96182086D01*
X91033078Y-95777714D01*
X90723913Y-95468009D01*
X90681155Y-95450254D01*
X95013093Y-95450254D01*
X95650000Y-96087161D01*
X96286907Y-95450254D01*
X96193605Y-95295746D01*
X95767914Y-95164162D01*
X95324271Y-95205499D01*
X95106395Y-95295746D01*
X95013093Y-95450254D01*
X90681155Y-95450254D01*
X90319763Y-95300192D01*
X89882156Y-95299810D01*
X89477714Y-95466922D01*
X89168009Y-95776087D01*
X89000192Y-96180237D01*
X88999810Y-96617844D01*
X82506307Y-96617844D01*
X82584991Y-96500086D01*
X82672530Y-96060000D01*
X82584991Y-95619914D01*
X82335703Y-95246827D01*
X82041510Y-95050254D01*
X113763093Y-95050254D01*
X114400000Y-95687161D01*
X115036907Y-95050254D01*
X114943605Y-94895746D01*
X114517914Y-94764162D01*
X114074271Y-94805499D01*
X113856395Y-94895746D01*
X113763093Y-95050254D01*
X82041510Y-95050254D01*
X81962616Y-94997539D01*
X81522530Y-94910000D01*
X81477470Y-94910000D01*
X81037384Y-94997539D01*
X80664297Y-95246827D01*
X80415009Y-95619914D01*
X80327470Y-96060000D01*
X71350000Y-96060000D01*
X71350000Y-93520000D01*
X80327470Y-93520000D01*
X80415009Y-93960086D01*
X80664297Y-94333173D01*
X81037384Y-94582461D01*
X81477470Y-94670000D01*
X81522530Y-94670000D01*
X81962616Y-94582461D01*
X82335703Y-94333173D01*
X82584991Y-93960086D01*
X82672530Y-93520000D01*
X82584991Y-93079914D01*
X82335703Y-92706827D01*
X81962616Y-92457539D01*
X81522530Y-92370000D01*
X81477470Y-92370000D01*
X81037384Y-92457539D01*
X80664297Y-92706827D01*
X80415009Y-93079914D01*
X80327470Y-93520000D01*
X71350000Y-93520000D01*
X71350000Y-90980000D01*
X80327470Y-90980000D01*
X80415009Y-91420086D01*
X80664297Y-91793173D01*
X81037384Y-92042461D01*
X81477470Y-92130000D01*
X81522530Y-92130000D01*
X81962616Y-92042461D01*
X82335703Y-91793173D01*
X82584991Y-91420086D01*
X82672530Y-90980000D01*
X82584991Y-90539914D01*
X82335703Y-90166827D01*
X81962616Y-89917539D01*
X81522530Y-89830000D01*
X81477470Y-89830000D01*
X81037384Y-89917539D01*
X80664297Y-90166827D01*
X80415009Y-90539914D01*
X80327470Y-90980000D01*
X71350000Y-90980000D01*
X71350000Y-88440000D01*
X80327470Y-88440000D01*
X80415009Y-88880086D01*
X80664297Y-89253173D01*
X81037384Y-89502461D01*
X81477470Y-89590000D01*
X81522530Y-89590000D01*
X81962616Y-89502461D01*
X82335703Y-89253173D01*
X82584991Y-88880086D01*
X82672530Y-88440000D01*
X82584991Y-87999914D01*
X82335703Y-87626827D01*
X81962616Y-87377539D01*
X81522530Y-87290000D01*
X81477470Y-87290000D01*
X81037384Y-87377539D01*
X80664297Y-87626827D01*
X80415009Y-87999914D01*
X80327470Y-88440000D01*
X71350000Y-88440000D01*
X71350000Y-85900000D01*
X80327470Y-85900000D01*
X80415009Y-86340086D01*
X80664297Y-86713173D01*
X81037384Y-86962461D01*
X81477470Y-87050000D01*
X81522530Y-87050000D01*
X81962616Y-86962461D01*
X82335703Y-86713173D01*
X82584991Y-86340086D01*
X82609186Y-86218450D01*
X89000000Y-86218450D01*
X89000000Y-86261550D01*
X89083733Y-86682502D01*
X89322183Y-87039367D01*
X89679048Y-87277817D01*
X90100000Y-87361550D01*
X90520952Y-87277817D01*
X90877817Y-87039367D01*
X91116267Y-86682502D01*
X91200000Y-86261550D01*
X91200000Y-86218450D01*
X91140401Y-85918824D01*
X93799896Y-85918824D01*
X93891048Y-86139429D01*
X94059683Y-86308359D01*
X94280129Y-86399896D01*
X94518824Y-86400104D01*
X94739429Y-86308952D01*
X94823528Y-86225000D01*
X95923960Y-86225000D01*
X97855297Y-88156338D01*
X97719871Y-88100104D01*
X97481176Y-88099896D01*
X97260571Y-88191048D01*
X97091641Y-88359683D01*
X97000104Y-88580129D01*
X96999896Y-88818824D01*
X97091048Y-89039429D01*
X97259683Y-89208359D01*
X97480129Y-89299896D01*
X97598959Y-89300000D01*
X99673959Y-91375000D01*
X98850000Y-91375000D01*
X98687360Y-91407351D01*
X98687358Y-91407352D01*
X98687359Y-91407352D01*
X98549479Y-91499480D01*
X97248811Y-92800149D01*
X97240317Y-92791641D01*
X97019871Y-92700104D01*
X96781176Y-92699896D01*
X96560571Y-92791048D01*
X96391641Y-92959683D01*
X96300104Y-93180129D01*
X96299896Y-93418824D01*
X96391048Y-93639429D01*
X96559683Y-93808359D01*
X96780129Y-93899896D01*
X97018824Y-93900104D01*
X97239429Y-93808952D01*
X97323528Y-93725000D01*
X97350000Y-93725000D01*
X97485657Y-93698016D01*
X97512641Y-93692649D01*
X97650520Y-93600520D01*
X98651040Y-92600000D01*
X113294123Y-92600000D01*
X113294123Y-94200000D01*
X113315042Y-94311173D01*
X113380745Y-94413279D01*
X113480997Y-94481778D01*
X113600000Y-94505877D01*
X115200000Y-94505877D01*
X115311173Y-94484958D01*
X115413279Y-94419255D01*
X115481778Y-94319003D01*
X115505877Y-94200000D01*
X115505877Y-93718824D01*
X128199896Y-93718824D01*
X128291048Y-93939429D01*
X128459683Y-94108359D01*
X128680129Y-94199896D01*
X128918824Y-94200104D01*
X129139429Y-94108952D01*
X129148397Y-94100000D01*
X133551339Y-94100000D01*
X133559683Y-94108359D01*
X133780129Y-94199896D01*
X134018824Y-94200104D01*
X134239429Y-94108952D01*
X134408359Y-93940317D01*
X134499896Y-93719871D01*
X134500104Y-93481176D01*
X134408952Y-93260571D01*
X134240317Y-93091641D01*
X134019871Y-93000104D01*
X133781176Y-92999896D01*
X133560571Y-93091048D01*
X133551603Y-93100000D01*
X129148661Y-93100000D01*
X129140317Y-93091641D01*
X128919871Y-93000104D01*
X128681176Y-92999896D01*
X128460571Y-93091048D01*
X128291641Y-93259683D01*
X128200104Y-93480129D01*
X128199896Y-93718824D01*
X115505877Y-93718824D01*
X115505877Y-92600000D01*
X115484958Y-92488827D01*
X115419255Y-92386721D01*
X115319003Y-92318222D01*
X115200000Y-92294123D01*
X113600000Y-92294123D01*
X113488827Y-92315042D01*
X113386721Y-92380745D01*
X113318222Y-92480997D01*
X113294123Y-92600000D01*
X98651040Y-92600000D01*
X99026041Y-92225000D01*
X141073960Y-92225000D01*
X141349479Y-92500520D01*
X141407711Y-92539429D01*
X141487360Y-92592649D01*
X141650000Y-92625000D01*
X143076470Y-92625000D01*
X143159683Y-92708359D01*
X143380129Y-92799896D01*
X143618824Y-92800104D01*
X143839429Y-92708952D01*
X144008359Y-92540317D01*
X144099896Y-92319871D01*
X144100104Y-92081176D01*
X144008952Y-91860571D01*
X143840317Y-91691641D01*
X143619871Y-91600104D01*
X143381176Y-91599896D01*
X143160571Y-91691048D01*
X143076472Y-91775000D01*
X141826041Y-91775000D01*
X141576040Y-91525000D01*
X142376470Y-91525000D01*
X142459683Y-91608359D01*
X142680129Y-91699896D01*
X142918824Y-91700104D01*
X143139429Y-91608952D01*
X143308359Y-91440317D01*
X143399896Y-91219871D01*
X143400104Y-90981176D01*
X143308952Y-90760571D01*
X143140317Y-90591641D01*
X142919871Y-90500104D01*
X142681176Y-90499896D01*
X142460571Y-90591048D01*
X142376472Y-90675000D01*
X142126040Y-90675000D01*
X142701039Y-90100001D01*
X142818824Y-90100104D01*
X143039429Y-90008952D01*
X143208359Y-89840317D01*
X143299896Y-89619871D01*
X143300104Y-89381176D01*
X143208952Y-89160571D01*
X143040317Y-88991641D01*
X142819871Y-88900104D01*
X142581176Y-88899896D01*
X142360571Y-88991048D01*
X142191641Y-89159683D01*
X142100104Y-89380129D01*
X142100000Y-89498959D01*
X141598960Y-90000000D01*
X114666712Y-90000000D01*
X114725729Y-89994501D01*
X114943605Y-89904254D01*
X115036907Y-89749746D01*
X114400000Y-89112839D01*
X113763093Y-89749746D01*
X113856395Y-89904254D01*
X114166146Y-90000000D01*
X100901041Y-90000000D01*
X99683127Y-88782086D01*
X113264162Y-88782086D01*
X113305499Y-89225729D01*
X113395746Y-89443605D01*
X113550254Y-89536907D01*
X114187161Y-88900000D01*
X114612839Y-88900000D01*
X115249746Y-89536907D01*
X115404254Y-89443605D01*
X115535838Y-89017914D01*
X115494501Y-88574271D01*
X115404254Y-88356395D01*
X115249746Y-88263093D01*
X114612839Y-88900000D01*
X114187161Y-88900000D01*
X113550254Y-88263093D01*
X113395746Y-88356395D01*
X113264162Y-88782086D01*
X99683127Y-88782086D01*
X98951295Y-88050254D01*
X113763093Y-88050254D01*
X114400000Y-88687161D01*
X115036907Y-88050254D01*
X114943605Y-87895746D01*
X114517914Y-87764162D01*
X114074271Y-87805499D01*
X113856395Y-87895746D01*
X113763093Y-88050254D01*
X98951295Y-88050254D01*
X96501041Y-85600000D01*
X113294123Y-85600000D01*
X113294123Y-87200000D01*
X113315042Y-87311173D01*
X113380745Y-87413279D01*
X113480997Y-87481778D01*
X113600000Y-87505877D01*
X115200000Y-87505877D01*
X115311173Y-87484958D01*
X115413279Y-87419255D01*
X115481778Y-87319003D01*
X115505877Y-87200000D01*
X115505877Y-85600000D01*
X115484958Y-85488827D01*
X115419255Y-85386721D01*
X115319003Y-85318222D01*
X115200000Y-85294123D01*
X113600000Y-85294123D01*
X113488827Y-85315042D01*
X113386721Y-85380745D01*
X113318222Y-85480997D01*
X113294123Y-85600000D01*
X96501041Y-85600000D01*
X96400520Y-85499480D01*
X96262641Y-85407351D01*
X96235657Y-85401984D01*
X96100000Y-85375000D01*
X94823530Y-85375000D01*
X94740317Y-85291641D01*
X94519871Y-85200104D01*
X94281176Y-85199896D01*
X94060571Y-85291048D01*
X93891641Y-85459683D01*
X93800104Y-85680129D01*
X93799896Y-85918824D01*
X91140401Y-85918824D01*
X91116267Y-85797498D01*
X90877817Y-85440633D01*
X90520952Y-85202183D01*
X90100000Y-85118450D01*
X89679048Y-85202183D01*
X89322183Y-85440633D01*
X89083733Y-85797498D01*
X89000000Y-86218450D01*
X82609186Y-86218450D01*
X82672530Y-85900000D01*
X82584991Y-85459914D01*
X82335703Y-85086827D01*
X81962616Y-84837539D01*
X81522530Y-84750000D01*
X81477470Y-84750000D01*
X81037384Y-84837539D01*
X80664297Y-85086827D01*
X80415009Y-85459914D01*
X80327470Y-85900000D01*
X71350000Y-85900000D01*
X71350000Y-83690155D01*
X80377548Y-83690155D01*
X80472841Y-83920247D01*
X80765426Y-84270678D01*
X81169843Y-84482466D01*
X81349500Y-84440295D01*
X81349500Y-83510500D01*
X81650500Y-83510500D01*
X81650500Y-84440295D01*
X81830157Y-84482466D01*
X82234574Y-84270678D01*
X82352242Y-84129746D01*
X90803093Y-84129746D01*
X90896395Y-84284254D01*
X91322086Y-84415838D01*
X91765729Y-84374501D01*
X91983605Y-84284254D01*
X92076907Y-84129746D01*
X91440000Y-83492839D01*
X90803093Y-84129746D01*
X82352242Y-84129746D01*
X82527159Y-83920247D01*
X82622452Y-83690155D01*
X82579560Y-83510500D01*
X81650500Y-83510500D01*
X81349500Y-83510500D01*
X80420440Y-83510500D01*
X80377548Y-83690155D01*
X71350000Y-83690155D01*
X71350000Y-83029845D01*
X80377548Y-83029845D01*
X80420440Y-83209500D01*
X81349500Y-83209500D01*
X81349500Y-82279705D01*
X81650500Y-82279705D01*
X81650500Y-83209500D01*
X82579560Y-83209500D01*
X82590879Y-83162086D01*
X90304162Y-83162086D01*
X90345499Y-83605729D01*
X90435746Y-83823605D01*
X90590254Y-83916907D01*
X91227161Y-83280000D01*
X91652839Y-83280000D01*
X92289746Y-83916907D01*
X92444254Y-83823605D01*
X92575838Y-83397914D01*
X92574957Y-83388450D01*
X105600000Y-83388450D01*
X105600000Y-83431550D01*
X105683733Y-83852502D01*
X105922183Y-84209367D01*
X106279048Y-84447817D01*
X106700000Y-84531550D01*
X107120952Y-84447817D01*
X107477817Y-84209367D01*
X107716267Y-83852502D01*
X107800000Y-83431550D01*
X107800000Y-83388450D01*
X107716267Y-82967498D01*
X107477817Y-82610633D01*
X107120952Y-82372183D01*
X106700000Y-82288450D01*
X106279048Y-82372183D01*
X105922183Y-82610633D01*
X105683733Y-82967498D01*
X105600000Y-83388450D01*
X92574957Y-83388450D01*
X92534501Y-82954271D01*
X92444254Y-82736395D01*
X92289746Y-82643093D01*
X91652839Y-83280000D01*
X91227161Y-83280000D01*
X90590254Y-82643093D01*
X90435746Y-82736395D01*
X90304162Y-83162086D01*
X82590879Y-83162086D01*
X82622452Y-83029845D01*
X82527159Y-82799753D01*
X82234574Y-82449322D01*
X81830157Y-82237534D01*
X81650500Y-82279705D01*
X81349500Y-82279705D01*
X81169843Y-82237534D01*
X80765426Y-82449322D01*
X80472841Y-82799753D01*
X80377548Y-83029845D01*
X71350000Y-83029845D01*
X71350000Y-80820000D01*
X80327470Y-80820000D01*
X80415009Y-81260086D01*
X80664297Y-81633173D01*
X81037384Y-81882461D01*
X81477470Y-81970000D01*
X81522530Y-81970000D01*
X81962616Y-81882461D01*
X82335703Y-81633173D01*
X82584991Y-81260086D01*
X82672530Y-80820000D01*
X82604900Y-80480000D01*
X90334123Y-80480000D01*
X90334123Y-82080000D01*
X90355042Y-82191173D01*
X90420745Y-82293279D01*
X90520997Y-82361778D01*
X90640000Y-82385877D01*
X90829891Y-82385877D01*
X90803093Y-82430254D01*
X91440000Y-83067161D01*
X92076907Y-82430254D01*
X92050109Y-82385877D01*
X92240000Y-82385877D01*
X92351173Y-82364958D01*
X92453279Y-82299255D01*
X92521778Y-82199003D01*
X92545877Y-82080000D01*
X92545877Y-80480000D01*
X92524958Y-80368827D01*
X92459255Y-80266721D01*
X92359003Y-80198222D01*
X92240000Y-80174123D01*
X90640000Y-80174123D01*
X90528827Y-80195042D01*
X90426721Y-80260745D01*
X90358222Y-80360997D01*
X90334123Y-80480000D01*
X82604900Y-80480000D01*
X82584991Y-80379914D01*
X82335703Y-80006827D01*
X81962616Y-79757539D01*
X81522530Y-79670000D01*
X81477470Y-79670000D01*
X81037384Y-79757539D01*
X80664297Y-80006827D01*
X80415009Y-80379914D01*
X80327470Y-80820000D01*
X71350000Y-80820000D01*
X71350000Y-78280000D01*
X80327470Y-78280000D01*
X80415009Y-78720086D01*
X80664297Y-79093173D01*
X81037384Y-79342461D01*
X81477470Y-79430000D01*
X81522530Y-79430000D01*
X81962616Y-79342461D01*
X82335703Y-79093173D01*
X82584991Y-78720086D01*
X82672530Y-78280000D01*
X82584991Y-77839914D01*
X82504750Y-77719824D01*
X85789808Y-77719824D01*
X85958439Y-78127943D01*
X86270415Y-78440463D01*
X86678239Y-78609807D01*
X87119824Y-78610192D01*
X87527943Y-78441561D01*
X87840463Y-78129585D01*
X88009807Y-77721761D01*
X88010192Y-77280176D01*
X87841561Y-76872057D01*
X87529585Y-76559537D01*
X87121761Y-76390193D01*
X86680176Y-76389808D01*
X86272057Y-76558439D01*
X85959537Y-76870415D01*
X85790193Y-77278239D01*
X85789808Y-77719824D01*
X82504750Y-77719824D01*
X82335703Y-77466827D01*
X81962616Y-77217539D01*
X81522530Y-77130000D01*
X81477470Y-77130000D01*
X81037384Y-77217539D01*
X80664297Y-77466827D01*
X80415009Y-77839914D01*
X80327470Y-78280000D01*
X71350000Y-78280000D01*
X71350000Y-75740000D01*
X80327470Y-75740000D01*
X80415009Y-76180086D01*
X80664297Y-76553173D01*
X81037384Y-76802461D01*
X81477470Y-76890000D01*
X81522530Y-76890000D01*
X81962616Y-76802461D01*
X82335703Y-76553173D01*
X82584991Y-76180086D01*
X82672530Y-75740000D01*
X82584991Y-75299914D01*
X82335703Y-74926827D01*
X81962616Y-74677539D01*
X81522530Y-74590000D01*
X81477470Y-74590000D01*
X81037384Y-74677539D01*
X80664297Y-74926827D01*
X80415009Y-75299914D01*
X80327470Y-75740000D01*
X71350000Y-75740000D01*
X71350000Y-73430500D01*
X80330000Y-73430500D01*
X80330000Y-74113652D01*
X80378717Y-74231265D01*
X80468735Y-74321283D01*
X80586348Y-74370000D01*
X81269500Y-74370000D01*
X81349500Y-74290000D01*
X81349500Y-73350500D01*
X81650500Y-73350500D01*
X81650500Y-74290000D01*
X81730500Y-74370000D01*
X82413652Y-74370000D01*
X82531265Y-74321283D01*
X82621283Y-74231265D01*
X82670000Y-74113652D01*
X82670000Y-73430500D01*
X82590000Y-73350500D01*
X81650500Y-73350500D01*
X81349500Y-73350500D01*
X80410000Y-73350500D01*
X80330000Y-73430500D01*
X71350000Y-73430500D01*
X71350000Y-72286348D01*
X80330000Y-72286348D01*
X80330000Y-72969500D01*
X80410000Y-73049500D01*
X81349500Y-73049500D01*
X81349500Y-72110000D01*
X81650500Y-72110000D01*
X81650500Y-73049500D01*
X82590000Y-73049500D01*
X82670000Y-72969500D01*
X82670000Y-72719824D01*
X83289808Y-72719824D01*
X83458439Y-73127943D01*
X83770415Y-73440463D01*
X84178239Y-73609807D01*
X84619824Y-73610192D01*
X85027943Y-73441561D01*
X85112622Y-73357029D01*
X88755810Y-73357029D01*
X88850350Y-73512574D01*
X89279686Y-73645838D01*
X89727337Y-73604658D01*
X89949650Y-73512574D01*
X89976836Y-73467844D01*
X105599810Y-73467844D01*
X105766922Y-73872286D01*
X106076087Y-74181991D01*
X106480237Y-74349808D01*
X106917844Y-74350190D01*
X107322286Y-74183078D01*
X107631991Y-73873913D01*
X107799808Y-73469763D01*
X107800190Y-73032156D01*
X107633078Y-72627714D01*
X107323913Y-72318009D01*
X106919763Y-72150192D01*
X106482156Y-72149810D01*
X106077714Y-72316922D01*
X105768009Y-72626087D01*
X105600192Y-73030237D01*
X105599810Y-73467844D01*
X89976836Y-73467844D01*
X90044190Y-73357029D01*
X89400000Y-72712839D01*
X88755810Y-73357029D01*
X85112622Y-73357029D01*
X85340463Y-73129585D01*
X85509807Y-72721761D01*
X85510105Y-72379686D01*
X88254162Y-72379686D01*
X88295342Y-72827337D01*
X88387426Y-73049650D01*
X88542971Y-73144190D01*
X89187161Y-72500000D01*
X89612839Y-72500000D01*
X90257029Y-73144190D01*
X90412574Y-73049650D01*
X90545838Y-72620314D01*
X90504658Y-72172663D01*
X90412574Y-71950350D01*
X90257029Y-71855810D01*
X89612839Y-72500000D01*
X89187161Y-72500000D01*
X88542971Y-71855810D01*
X88387426Y-71950350D01*
X88254162Y-72379686D01*
X85510105Y-72379686D01*
X85510192Y-72280176D01*
X85341561Y-71872057D01*
X85112874Y-71642971D01*
X88755810Y-71642971D01*
X89400000Y-72287161D01*
X90044190Y-71642971D01*
X89949650Y-71487426D01*
X89520314Y-71354162D01*
X89072663Y-71395342D01*
X88850350Y-71487426D01*
X88755810Y-71642971D01*
X85112874Y-71642971D01*
X85029585Y-71559537D01*
X84621761Y-71390193D01*
X84180176Y-71389808D01*
X83772057Y-71558439D01*
X83459537Y-71870415D01*
X83290193Y-72278239D01*
X83289808Y-72719824D01*
X82670000Y-72719824D01*
X82670000Y-72286348D01*
X82621283Y-72168735D01*
X82531265Y-72078717D01*
X82413652Y-72030000D01*
X81730500Y-72030000D01*
X81650500Y-72110000D01*
X81349500Y-72110000D01*
X81269500Y-72030000D01*
X80586348Y-72030000D01*
X80468735Y-72078717D01*
X80378717Y-72168735D01*
X80330000Y-72286348D01*
X71350000Y-72286348D01*
X71350000Y-68880500D01*
X72655000Y-68880500D01*
X72655000Y-69563652D01*
X72703717Y-69681265D01*
X72793735Y-69771283D01*
X72911348Y-69820000D01*
X73594500Y-69820000D01*
X73674500Y-69740000D01*
X73674500Y-68800500D01*
X73975500Y-68800500D01*
X73975500Y-69740000D01*
X74055500Y-69820000D01*
X74738652Y-69820000D01*
X74856265Y-69771283D01*
X74946283Y-69681265D01*
X74995000Y-69563652D01*
X74995000Y-68880500D01*
X74915000Y-68800500D01*
X73975500Y-68800500D01*
X73674500Y-68800500D01*
X72735000Y-68800500D01*
X72655000Y-68880500D01*
X71350000Y-68880500D01*
X71350000Y-67736348D01*
X72655000Y-67736348D01*
X72655000Y-68419500D01*
X72735000Y-68499500D01*
X73674500Y-68499500D01*
X73674500Y-67560000D01*
X73975500Y-67560000D01*
X73975500Y-68499500D01*
X74915000Y-68499500D01*
X74995000Y-68419500D01*
X74995000Y-67736348D01*
X74946283Y-67618735D01*
X74856265Y-67528717D01*
X74738652Y-67480000D01*
X74055500Y-67480000D01*
X73975500Y-67560000D01*
X73674500Y-67560000D01*
X73594500Y-67480000D01*
X72911348Y-67480000D01*
X72793735Y-67528717D01*
X72703717Y-67618735D01*
X72655000Y-67736348D01*
X71350000Y-67736348D01*
X71350000Y-66110000D01*
X72652470Y-66110000D01*
X72740009Y-66550086D01*
X72989297Y-66923173D01*
X73362384Y-67172461D01*
X73802470Y-67260000D01*
X73847530Y-67260000D01*
X74287616Y-67172461D01*
X74660703Y-66923173D01*
X74909991Y-66550086D01*
X74997530Y-66110000D01*
X74909991Y-65669914D01*
X74660703Y-65296827D01*
X74287616Y-65047539D01*
X73847530Y-64960000D01*
X73802470Y-64960000D01*
X73362384Y-65047539D01*
X72989297Y-65296827D01*
X72740009Y-65669914D01*
X72652470Y-66110000D01*
X71350000Y-66110000D01*
X71350000Y-63900155D01*
X72702548Y-63900155D01*
X72797841Y-64130247D01*
X73090426Y-64480678D01*
X73494843Y-64692466D01*
X73674500Y-64650295D01*
X73674500Y-63720500D01*
X73975500Y-63720500D01*
X73975500Y-64650295D01*
X74155157Y-64692466D01*
X74559574Y-64480678D01*
X74852159Y-64130247D01*
X74947452Y-63900155D01*
X74904560Y-63720500D01*
X73975500Y-63720500D01*
X73674500Y-63720500D01*
X72745440Y-63720500D01*
X72702548Y-63900155D01*
X71350000Y-63900155D01*
X71350000Y-63239845D01*
X72702548Y-63239845D01*
X72745440Y-63419500D01*
X73674500Y-63419500D01*
X73674500Y-62489705D01*
X73975500Y-62489705D01*
X73975500Y-63419500D01*
X74904560Y-63419500D01*
X74947452Y-63239845D01*
X74852159Y-63009753D01*
X74559574Y-62659322D01*
X74155157Y-62447534D01*
X73975500Y-62489705D01*
X73674500Y-62489705D01*
X73494843Y-62447534D01*
X73090426Y-62659322D01*
X72797841Y-63009753D01*
X72702548Y-63239845D01*
X71350000Y-63239845D01*
X71350000Y-60818824D01*
X95599896Y-60818824D01*
X95691048Y-61039429D01*
X95700000Y-61048397D01*
X95700000Y-63651339D01*
X95691641Y-63659683D01*
X95600104Y-63880129D01*
X95599896Y-64118824D01*
X95691048Y-64339429D01*
X95859683Y-64508359D01*
X96080129Y-64599896D01*
X96318824Y-64600104D01*
X96539429Y-64508952D01*
X96708359Y-64340317D01*
X96799896Y-64119871D01*
X96800104Y-63881176D01*
X96708952Y-63660571D01*
X96700000Y-63651603D01*
X96700000Y-61048661D01*
X96708359Y-61040317D01*
X96799896Y-60819871D01*
X96799896Y-60818824D01*
X117499896Y-60818824D01*
X117591048Y-61039429D01*
X117700000Y-61148572D01*
X117700000Y-72501339D01*
X117691641Y-72509683D01*
X117600104Y-72730129D01*
X117599896Y-72968824D01*
X117691048Y-73189429D01*
X117700000Y-73198397D01*
X117700000Y-79800000D01*
X117727734Y-79939429D01*
X117738060Y-79991342D01*
X117846447Y-80153553D01*
X119749906Y-82057013D01*
X119749896Y-82068824D01*
X119841048Y-82289429D01*
X120009683Y-82458359D01*
X120230129Y-82549896D01*
X120468824Y-82550104D01*
X120689429Y-82458952D01*
X120858359Y-82290317D01*
X120949896Y-82069871D01*
X120950104Y-81831176D01*
X120858952Y-81610571D01*
X120690317Y-81441641D01*
X120469871Y-81350104D01*
X120457200Y-81350093D01*
X119325931Y-80218824D01*
X127399896Y-80218824D01*
X127491048Y-80439429D01*
X127659683Y-80608359D01*
X127880129Y-80699896D01*
X128118824Y-80700104D01*
X128339429Y-80608952D01*
X128348397Y-80600000D01*
X130580924Y-80600000D01*
X130360571Y-80691048D01*
X130191641Y-80859683D01*
X130100104Y-81080129D01*
X130099896Y-81318824D01*
X130191048Y-81539429D01*
X130359683Y-81708359D01*
X130580129Y-81799896D01*
X130818824Y-81800104D01*
X131039429Y-81708952D01*
X131048397Y-81700000D01*
X132092894Y-81700000D01*
X134099906Y-83707013D01*
X134099896Y-83718824D01*
X134191048Y-83939429D01*
X134359683Y-84108359D01*
X134580129Y-84199896D01*
X134818824Y-84200104D01*
X135039429Y-84108952D01*
X135208359Y-83940317D01*
X135299896Y-83719871D01*
X135300104Y-83481176D01*
X135208952Y-83260571D01*
X135040317Y-83091641D01*
X134819871Y-83000104D01*
X134807200Y-83000093D01*
X132653553Y-80846447D01*
X132491342Y-80738060D01*
X132300000Y-80700000D01*
X131048661Y-80700000D01*
X131040317Y-80691641D01*
X130819871Y-80600104D01*
X130700523Y-80600000D01*
X132892894Y-80600000D01*
X140599906Y-88307012D01*
X140599896Y-88318824D01*
X140691048Y-88539429D01*
X140859683Y-88708359D01*
X141080129Y-88799896D01*
X141318824Y-88800104D01*
X141539429Y-88708952D01*
X141708359Y-88540317D01*
X141799896Y-88319871D01*
X141800104Y-88081176D01*
X141708952Y-87860571D01*
X141540317Y-87691641D01*
X141319871Y-87600104D01*
X141307199Y-87600093D01*
X133453553Y-79746447D01*
X133291342Y-79638060D01*
X133100000Y-79600000D01*
X128348661Y-79600000D01*
X128340317Y-79591641D01*
X128119871Y-79500104D01*
X127881176Y-79499896D01*
X127660571Y-79591048D01*
X127491641Y-79759683D01*
X127400104Y-79980129D01*
X127399896Y-80218824D01*
X119325931Y-80218824D01*
X118700000Y-79592894D01*
X118700000Y-76368824D01*
X132749896Y-76368824D01*
X132841048Y-76589429D01*
X133009683Y-76758359D01*
X133230129Y-76849896D01*
X133242801Y-76849907D01*
X133792974Y-77400081D01*
X133581176Y-77399896D01*
X133360571Y-77491048D01*
X133191641Y-77659683D01*
X133100104Y-77880129D01*
X133099896Y-78118824D01*
X133191048Y-78339429D01*
X133359683Y-78508359D01*
X133580129Y-78599896D01*
X133592801Y-78599907D01*
X144500000Y-89507107D01*
X144500000Y-102942893D01*
X143692988Y-103749906D01*
X143681176Y-103749896D01*
X143460571Y-103841048D01*
X143291641Y-104009683D01*
X143200104Y-104230129D01*
X143199896Y-104468824D01*
X143291048Y-104689429D01*
X143459683Y-104858359D01*
X143680129Y-104949896D01*
X143918824Y-104950104D01*
X144139429Y-104858952D01*
X144308359Y-104690317D01*
X144399896Y-104469871D01*
X144399907Y-104457199D01*
X145353553Y-103503554D01*
X145461940Y-103341342D01*
X145482115Y-103239914D01*
X145500000Y-103150000D01*
X145500000Y-103592893D01*
X143892894Y-105200000D01*
X143148661Y-105200000D01*
X143140317Y-105191641D01*
X142919871Y-105100104D01*
X142681176Y-105099896D01*
X142460571Y-105191048D01*
X142291641Y-105359683D01*
X142200104Y-105580129D01*
X142199896Y-105818824D01*
X142291048Y-106039429D01*
X142459683Y-106208359D01*
X142680129Y-106299896D01*
X142918824Y-106300104D01*
X143139429Y-106208952D01*
X143148397Y-106200000D01*
X144100000Y-106200000D01*
X144291342Y-106161940D01*
X144453553Y-106053553D01*
X146353554Y-104153553D01*
X146400000Y-104084042D01*
X146400000Y-105401339D01*
X146391641Y-105409683D01*
X146300104Y-105630129D01*
X146299896Y-105868824D01*
X146391048Y-106089429D01*
X146559683Y-106258359D01*
X146780129Y-106349896D01*
X147018824Y-106350104D01*
X147239429Y-106258952D01*
X147408359Y-106090317D01*
X147499896Y-105869871D01*
X147500104Y-105631176D01*
X147408952Y-105410571D01*
X147400000Y-105401603D01*
X147400000Y-101148661D01*
X147408359Y-101140317D01*
X147499896Y-100919871D01*
X147499896Y-100918824D01*
X155199896Y-100918824D01*
X155291048Y-101139429D01*
X155459683Y-101308359D01*
X155680129Y-101399896D01*
X155918824Y-101400104D01*
X156139429Y-101308952D01*
X156148397Y-101300000D01*
X159400000Y-101300000D01*
X159591342Y-101261940D01*
X159753553Y-101153553D01*
X160753554Y-100153553D01*
X160856224Y-99999896D01*
X160861940Y-99991342D01*
X160900000Y-99800000D01*
X160900000Y-98448661D01*
X160908359Y-98440317D01*
X160999896Y-98219871D01*
X161000104Y-97981176D01*
X160908952Y-97760571D01*
X160740317Y-97591641D01*
X160519871Y-97500104D01*
X160281176Y-97499896D01*
X160060571Y-97591048D01*
X159891641Y-97759683D01*
X159800104Y-97980129D01*
X159799896Y-98218824D01*
X159891048Y-98439429D01*
X159900000Y-98448397D01*
X159900000Y-99592893D01*
X159192894Y-100300000D01*
X156148661Y-100300000D01*
X156140317Y-100291641D01*
X155919871Y-100200104D01*
X155681176Y-100199896D01*
X155460571Y-100291048D01*
X155291641Y-100459683D01*
X155200104Y-100680129D01*
X155199896Y-100918824D01*
X147499896Y-100918824D01*
X147500104Y-100681176D01*
X147408952Y-100460571D01*
X147240317Y-100291641D01*
X147019871Y-100200104D01*
X146781176Y-100199896D01*
X146560571Y-100291048D01*
X146500000Y-100351513D01*
X146500000Y-99518824D01*
X155399896Y-99518824D01*
X155491048Y-99739429D01*
X155659683Y-99908359D01*
X155880129Y-99999896D01*
X156118824Y-100000104D01*
X156339429Y-99908952D01*
X156348397Y-99900000D01*
X158651339Y-99900000D01*
X158659683Y-99908359D01*
X158880129Y-99999896D01*
X159118824Y-100000104D01*
X159339429Y-99908952D01*
X159508359Y-99740317D01*
X159599896Y-99519871D01*
X159600104Y-99281176D01*
X159508952Y-99060571D01*
X159340317Y-98891641D01*
X159119871Y-98800104D01*
X158881176Y-98799896D01*
X158660571Y-98891048D01*
X158651603Y-98900000D01*
X156348661Y-98900000D01*
X156340317Y-98891641D01*
X156119871Y-98800104D01*
X155881176Y-98799896D01*
X155660571Y-98891048D01*
X155491641Y-99059683D01*
X155400104Y-99280129D01*
X155399896Y-99518824D01*
X146500000Y-99518824D01*
X146500000Y-88900000D01*
X146461940Y-88708658D01*
X146353553Y-88546447D01*
X134853556Y-77046450D01*
X134853554Y-77046447D01*
X133950094Y-76142987D01*
X133950104Y-76131176D01*
X133858952Y-75910571D01*
X133690317Y-75741641D01*
X133469871Y-75650104D01*
X133231176Y-75649896D01*
X133010571Y-75741048D01*
X132841641Y-75909683D01*
X132750104Y-76130129D01*
X132749896Y-76368824D01*
X118700000Y-76368824D01*
X118700000Y-75618824D01*
X133999896Y-75618824D01*
X134091048Y-75839429D01*
X134259683Y-76008359D01*
X134480129Y-76099896D01*
X134492801Y-76099907D01*
X138099906Y-79707013D01*
X138099896Y-79718824D01*
X138191048Y-79939429D01*
X138359683Y-80108359D01*
X138580129Y-80199896D01*
X138818824Y-80200104D01*
X139039429Y-80108952D01*
X139208359Y-79940317D01*
X139266623Y-79800000D01*
X147494123Y-79800000D01*
X147494123Y-81600000D01*
X147515042Y-81711173D01*
X147580745Y-81813279D01*
X147680997Y-81881778D01*
X147800000Y-81905877D01*
X149600000Y-81905877D01*
X149700000Y-81887060D01*
X149700000Y-89200000D01*
X149719912Y-89300104D01*
X149738060Y-89391342D01*
X149846447Y-89553553D01*
X150999906Y-90707012D01*
X150999896Y-90718824D01*
X151091048Y-90939429D01*
X151259683Y-91108359D01*
X151480129Y-91199896D01*
X151718824Y-91200104D01*
X151939429Y-91108952D01*
X152108359Y-90940317D01*
X152199896Y-90719871D01*
X152200104Y-90481176D01*
X152108952Y-90260571D01*
X151940317Y-90091641D01*
X151719871Y-90000104D01*
X151707199Y-90000093D01*
X150700000Y-88992894D01*
X150700000Y-77119076D01*
X150791048Y-77339429D01*
X150959683Y-77508359D01*
X151180129Y-77599896D01*
X151192801Y-77599907D01*
X151546447Y-77953553D01*
X151708658Y-78061940D01*
X151900000Y-78100000D01*
X154851339Y-78100000D01*
X154859683Y-78108359D01*
X155080129Y-78199896D01*
X155318824Y-78200104D01*
X155539429Y-78108952D01*
X155708359Y-77940317D01*
X155799896Y-77719871D01*
X155800104Y-77481176D01*
X155708952Y-77260571D01*
X155540317Y-77091641D01*
X155319871Y-77000104D01*
X155081176Y-76999896D01*
X154860571Y-77091048D01*
X154851603Y-77100000D01*
X152107106Y-77100000D01*
X151900094Y-76892988D01*
X151900104Y-76881176D01*
X151808952Y-76660571D01*
X151640317Y-76491641D01*
X151419871Y-76400104D01*
X151181176Y-76399896D01*
X150960571Y-76491048D01*
X150791641Y-76659683D01*
X150700104Y-76880129D01*
X150700000Y-76999477D01*
X150700000Y-75418824D01*
X151999896Y-75418824D01*
X152091048Y-75639429D01*
X152259683Y-75808359D01*
X152480129Y-75899896D01*
X152515850Y-75899927D01*
X152543686Y-75918526D01*
X152608658Y-75961940D01*
X152800000Y-76000000D01*
X158651339Y-76000000D01*
X158659683Y-76008359D01*
X158880129Y-76099896D01*
X159118824Y-76100104D01*
X159339429Y-76008952D01*
X159508359Y-75840317D01*
X159599896Y-75619871D01*
X159600104Y-75381176D01*
X159508952Y-75160571D01*
X159340317Y-74991641D01*
X159119871Y-74900104D01*
X158881176Y-74899896D01*
X158660571Y-74991048D01*
X158651603Y-75000000D01*
X153125244Y-75000000D01*
X153108952Y-74960571D01*
X152940317Y-74791641D01*
X152719871Y-74700104D01*
X152481176Y-74699896D01*
X152260571Y-74791048D01*
X152091641Y-74959683D01*
X152000104Y-75180129D01*
X151999896Y-75418824D01*
X150700000Y-75418824D01*
X150700000Y-71250000D01*
X153544123Y-71250000D01*
X153544123Y-72950000D01*
X153565042Y-73061173D01*
X153630745Y-73163279D01*
X153730997Y-73231778D01*
X153850000Y-73255877D01*
X155550000Y-73255877D01*
X155661173Y-73234958D01*
X155763279Y-73169255D01*
X155831778Y-73069003D01*
X155855877Y-72950000D01*
X155855877Y-71250000D01*
X155834958Y-71138827D01*
X155769255Y-71036721D01*
X155669003Y-70968222D01*
X155550000Y-70944123D01*
X153850000Y-70944123D01*
X153738827Y-70965042D01*
X153636721Y-71030745D01*
X153568222Y-71130997D01*
X153544123Y-71250000D01*
X150700000Y-71250000D01*
X150700000Y-69560000D01*
X153527470Y-69560000D01*
X153615009Y-70000086D01*
X153864297Y-70373173D01*
X154237384Y-70622461D01*
X154677470Y-70710000D01*
X154722530Y-70710000D01*
X155162616Y-70622461D01*
X155535703Y-70373173D01*
X155784991Y-70000086D01*
X155872530Y-69560000D01*
X155784991Y-69119914D01*
X155535703Y-68746827D01*
X155162616Y-68497539D01*
X154722530Y-68410000D01*
X154677470Y-68410000D01*
X154237384Y-68497539D01*
X153864297Y-68746827D01*
X153615009Y-69119914D01*
X153527470Y-69560000D01*
X150700000Y-69560000D01*
X150700000Y-67020000D01*
X153527470Y-67020000D01*
X153615009Y-67460086D01*
X153864297Y-67833173D01*
X154237384Y-68082461D01*
X154677470Y-68170000D01*
X154722530Y-68170000D01*
X155162616Y-68082461D01*
X155535703Y-67833173D01*
X155784991Y-67460086D01*
X155872530Y-67020000D01*
X155784991Y-66579914D01*
X155535703Y-66206827D01*
X155162616Y-65957539D01*
X154722530Y-65870000D01*
X154677470Y-65870000D01*
X154237384Y-65957539D01*
X153864297Y-66206827D01*
X153615009Y-66579914D01*
X153527470Y-67020000D01*
X150700000Y-67020000D01*
X150700000Y-64480000D01*
X153527470Y-64480000D01*
X153615009Y-64920086D01*
X153864297Y-65293173D01*
X154237384Y-65542461D01*
X154677470Y-65630000D01*
X154722530Y-65630000D01*
X155162616Y-65542461D01*
X155535703Y-65293173D01*
X155784991Y-64920086D01*
X155872530Y-64480000D01*
X155784991Y-64039914D01*
X155535703Y-63666827D01*
X155162616Y-63417539D01*
X154722530Y-63330000D01*
X154677470Y-63330000D01*
X154237384Y-63417539D01*
X153864297Y-63666827D01*
X153615009Y-64039914D01*
X153527470Y-64480000D01*
X150700000Y-64480000D01*
X150700000Y-63507106D01*
X150807013Y-63400094D01*
X150818824Y-63400104D01*
X151039429Y-63308952D01*
X151208359Y-63140317D01*
X151299896Y-62919871D01*
X151300104Y-62681176D01*
X151208952Y-62460571D01*
X151040317Y-62291641D01*
X150819871Y-62200104D01*
X150581176Y-62199896D01*
X150360571Y-62291048D01*
X150191641Y-62459683D01*
X150100104Y-62680129D01*
X150100093Y-62692801D01*
X149846447Y-62946447D01*
X149738060Y-63108658D01*
X149700000Y-63300000D01*
X149700000Y-77463209D01*
X149380633Y-77143283D01*
X148939742Y-76960209D01*
X148462353Y-76959793D01*
X148021143Y-77142097D01*
X147683283Y-77479367D01*
X147500209Y-77920258D01*
X147499793Y-78397647D01*
X147682097Y-78838857D01*
X148019367Y-79176717D01*
X148460258Y-79359791D01*
X148937647Y-79360207D01*
X149378857Y-79177903D01*
X149700000Y-78857321D01*
X149700000Y-79514374D01*
X149600000Y-79494123D01*
X147800000Y-79494123D01*
X147688827Y-79515042D01*
X147586721Y-79580745D01*
X147518222Y-79680997D01*
X147494123Y-79800000D01*
X139266623Y-79800000D01*
X139299896Y-79719871D01*
X139300104Y-79481176D01*
X139208952Y-79260571D01*
X139040317Y-79091641D01*
X138819871Y-79000104D01*
X138807200Y-79000093D01*
X135200094Y-75392988D01*
X135200104Y-75381176D01*
X135108952Y-75160571D01*
X134940317Y-74991641D01*
X134719871Y-74900104D01*
X134481176Y-74899896D01*
X134260571Y-74991048D01*
X134091641Y-75159683D01*
X134000104Y-75380129D01*
X133999896Y-75618824D01*
X118700000Y-75618824D01*
X118700000Y-73198661D01*
X118708359Y-73190317D01*
X118799896Y-72969871D01*
X118800104Y-72731176D01*
X118708952Y-72510571D01*
X118700000Y-72501603D01*
X118700000Y-70618824D01*
X134199896Y-70618824D01*
X134291048Y-70839429D01*
X134300000Y-70848397D01*
X134300000Y-72450000D01*
X134333877Y-72620314D01*
X134338060Y-72641342D01*
X134446447Y-72803553D01*
X139249906Y-77607013D01*
X139249896Y-77618824D01*
X139341048Y-77839429D01*
X139509683Y-78008359D01*
X139730129Y-78099896D01*
X139968824Y-78100104D01*
X140189429Y-78008952D01*
X140358359Y-77840317D01*
X140449896Y-77619871D01*
X140450104Y-77381176D01*
X140358952Y-77160571D01*
X140190317Y-76991641D01*
X139969871Y-76900104D01*
X139957200Y-76900093D01*
X135300000Y-72242894D01*
X135300000Y-70848661D01*
X135308359Y-70840317D01*
X135399896Y-70619871D01*
X135400104Y-70381176D01*
X135308952Y-70160571D01*
X135140317Y-69991641D01*
X134919871Y-69900104D01*
X134681176Y-69899896D01*
X134460571Y-69991048D01*
X134291641Y-70159683D01*
X134200104Y-70380129D01*
X134199896Y-70618824D01*
X118700000Y-70618824D01*
X118700000Y-68542000D01*
X144690123Y-68542000D01*
X144690123Y-70142000D01*
X144711042Y-70253173D01*
X144776745Y-70355279D01*
X144876997Y-70423778D01*
X144996000Y-70447877D01*
X146596000Y-70447877D01*
X146707173Y-70426958D01*
X146809279Y-70361255D01*
X146877778Y-70261003D01*
X146901877Y-70142000D01*
X146901877Y-68542000D01*
X146880958Y-68430827D01*
X146815255Y-68328721D01*
X146715003Y-68260222D01*
X146596000Y-68236123D01*
X146457309Y-68236123D01*
X146727991Y-67965913D01*
X146895808Y-67561763D01*
X146896190Y-67124156D01*
X146729078Y-66719714D01*
X146419913Y-66410009D01*
X146015763Y-66242192D01*
X145578156Y-66241810D01*
X145173714Y-66408922D01*
X144864009Y-66718087D01*
X144696192Y-67122237D01*
X144695810Y-67559844D01*
X144862922Y-67964286D01*
X145134285Y-68236123D01*
X144996000Y-68236123D01*
X144884827Y-68257042D01*
X144782721Y-68322745D01*
X144714222Y-68422997D01*
X144690123Y-68542000D01*
X118700000Y-68542000D01*
X118700000Y-61218824D01*
X138499896Y-61218824D01*
X138591048Y-61439429D01*
X138759683Y-61608359D01*
X138980129Y-61699896D01*
X139218824Y-61700104D01*
X139439429Y-61608952D01*
X139485324Y-61563137D01*
X139491342Y-61561940D01*
X139653553Y-61453553D01*
X140188282Y-60918824D01*
X141399896Y-60918824D01*
X141491048Y-61139429D01*
X141659683Y-61308359D01*
X141880129Y-61399896D01*
X142118824Y-61400104D01*
X142339429Y-61308952D01*
X142348397Y-61300000D01*
X143492894Y-61300000D01*
X143799906Y-61607013D01*
X143799896Y-61618824D01*
X143891048Y-61839429D01*
X144059683Y-62008359D01*
X144280129Y-62099896D01*
X144518824Y-62100104D01*
X144739429Y-62008952D01*
X144908359Y-61840317D01*
X144999896Y-61619871D01*
X145000104Y-61381176D01*
X144908952Y-61160571D01*
X144740317Y-60991641D01*
X144519871Y-60900104D01*
X144507200Y-60900093D01*
X144053553Y-60446447D01*
X143891342Y-60338060D01*
X143700000Y-60300000D01*
X142348661Y-60300000D01*
X142340317Y-60291641D01*
X142119871Y-60200104D01*
X141881176Y-60199896D01*
X141660571Y-60291048D01*
X141491641Y-60459683D01*
X141400104Y-60680129D01*
X141399896Y-60918824D01*
X140188282Y-60918824D01*
X141107107Y-60000000D01*
X145751339Y-60000000D01*
X145759683Y-60008359D01*
X145980129Y-60099896D01*
X146218824Y-60100104D01*
X146439429Y-60008952D01*
X146608359Y-59840317D01*
X146699896Y-59619871D01*
X146700071Y-59418824D01*
X147099896Y-59418824D01*
X147191048Y-59639429D01*
X147200000Y-59648397D01*
X147200000Y-62551339D01*
X147191641Y-62559683D01*
X147100104Y-62780129D01*
X147099896Y-63018824D01*
X147191048Y-63239429D01*
X147359683Y-63408359D01*
X147580129Y-63499896D01*
X147818824Y-63500104D01*
X148039429Y-63408952D01*
X148208359Y-63240317D01*
X148299896Y-63019871D01*
X148300104Y-62781176D01*
X148208952Y-62560571D01*
X148200000Y-62551603D01*
X148200000Y-59648661D01*
X148208359Y-59640317D01*
X148299896Y-59419871D01*
X148300034Y-59260571D01*
X155952268Y-59260571D01*
X156284031Y-59617873D01*
X157416469Y-60075272D01*
X158637742Y-60064489D01*
X159715969Y-59617873D01*
X160047732Y-59260571D01*
X158000000Y-57212839D01*
X155952268Y-59260571D01*
X148300034Y-59260571D01*
X148300104Y-59181176D01*
X148208952Y-58960571D01*
X148040317Y-58791641D01*
X147819871Y-58700104D01*
X147581176Y-58699896D01*
X147360571Y-58791048D01*
X147191641Y-58959683D01*
X147100104Y-59180129D01*
X147099896Y-59418824D01*
X146700071Y-59418824D01*
X146700104Y-59381176D01*
X146608952Y-59160571D01*
X146440317Y-58991641D01*
X146219871Y-58900104D01*
X145981176Y-58899896D01*
X145760571Y-58991048D01*
X145751603Y-59000000D01*
X140900000Y-59000000D01*
X140708658Y-59038060D01*
X140643686Y-59081474D01*
X140546447Y-59146446D01*
X139192813Y-60500080D01*
X138981176Y-60499896D01*
X138760571Y-60591048D01*
X138591641Y-60759683D01*
X138500104Y-60980129D01*
X138499896Y-61218824D01*
X118700000Y-61218824D01*
X118700000Y-60800000D01*
X118699914Y-60799566D01*
X118700104Y-60581176D01*
X118608952Y-60360571D01*
X118440317Y-60191641D01*
X118219871Y-60100104D01*
X117981176Y-60099896D01*
X117760571Y-60191048D01*
X117591641Y-60359683D01*
X117500104Y-60580129D01*
X117499896Y-60818824D01*
X96799896Y-60818824D01*
X96800104Y-60581176D01*
X96708952Y-60360571D01*
X96540317Y-60191641D01*
X96319871Y-60100104D01*
X96081176Y-60099896D01*
X95860571Y-60191048D01*
X95691641Y-60359683D01*
X95600104Y-60580129D01*
X95599896Y-60818824D01*
X71350000Y-60818824D01*
X71350000Y-59260571D01*
X72952268Y-59260571D01*
X73284031Y-59617873D01*
X74416469Y-60075272D01*
X75637742Y-60064489D01*
X76715969Y-59617873D01*
X77047732Y-59260571D01*
X75000000Y-57212839D01*
X72952268Y-59260571D01*
X71350000Y-59260571D01*
X71350000Y-56416469D01*
X71924728Y-56416469D01*
X71935511Y-57637742D01*
X72382127Y-58715969D01*
X72739429Y-59047732D01*
X74787161Y-57000000D01*
X75212839Y-57000000D01*
X77260571Y-59047732D01*
X77617873Y-58715969D01*
X77737891Y-58418824D01*
X89099896Y-58418824D01*
X89191048Y-58639429D01*
X89359683Y-58808359D01*
X89580129Y-58899896D01*
X89818824Y-58900104D01*
X90039429Y-58808952D01*
X90048397Y-58800000D01*
X115251339Y-58800000D01*
X115259683Y-58808359D01*
X115480129Y-58899896D01*
X115718824Y-58900104D01*
X115939429Y-58808952D01*
X116108359Y-58640317D01*
X116199896Y-58419871D01*
X116200104Y-58181176D01*
X116108952Y-57960571D01*
X115940317Y-57791641D01*
X115719871Y-57700104D01*
X115481176Y-57699896D01*
X115260571Y-57791048D01*
X115251603Y-57800000D01*
X90048661Y-57800000D01*
X90040317Y-57791641D01*
X89819871Y-57700104D01*
X89581176Y-57699896D01*
X89360571Y-57791048D01*
X89191641Y-57959683D01*
X89100104Y-58180129D01*
X89099896Y-58418824D01*
X77737891Y-58418824D01*
X78075272Y-57583531D01*
X78068794Y-56849746D01*
X79663093Y-56849746D01*
X79756395Y-57004254D01*
X80182086Y-57135838D01*
X80625729Y-57094501D01*
X80843605Y-57004254D01*
X80936907Y-56849746D01*
X80300000Y-56212839D01*
X79663093Y-56849746D01*
X78068794Y-56849746D01*
X78064489Y-56362258D01*
X77865596Y-55882086D01*
X79164162Y-55882086D01*
X79205499Y-56325729D01*
X79295746Y-56543605D01*
X79450254Y-56636907D01*
X80087161Y-56000000D01*
X80512839Y-56000000D01*
X81149746Y-56636907D01*
X81194123Y-56610109D01*
X81194123Y-56800000D01*
X81215042Y-56911173D01*
X81280745Y-57013279D01*
X81380997Y-57081778D01*
X81500000Y-57105877D01*
X83100000Y-57105877D01*
X83211173Y-57084958D01*
X83313279Y-57019255D01*
X83381778Y-56919003D01*
X83405877Y-56800000D01*
X83405877Y-56117647D01*
X90239793Y-56117647D01*
X90422097Y-56558857D01*
X90759367Y-56896717D01*
X91200258Y-57079791D01*
X91677647Y-57080207D01*
X92118857Y-56897903D01*
X92456717Y-56560633D01*
X92516579Y-56416469D01*
X154924728Y-56416469D01*
X154935511Y-57637742D01*
X155382127Y-58715969D01*
X155739429Y-59047732D01*
X157787161Y-57000000D01*
X158212839Y-57000000D01*
X160260571Y-59047732D01*
X160617873Y-58715969D01*
X161075272Y-57583531D01*
X161064489Y-56362258D01*
X160617873Y-55284031D01*
X160260571Y-54952268D01*
X158212839Y-57000000D01*
X157787161Y-57000000D01*
X155739429Y-54952268D01*
X155382127Y-55284031D01*
X154924728Y-56416469D01*
X92516579Y-56416469D01*
X92639791Y-56119742D01*
X92640207Y-55642353D01*
X92457903Y-55201143D01*
X92197373Y-54940157D01*
X95397534Y-54940157D01*
X95609322Y-55344574D01*
X95959753Y-55637159D01*
X96189845Y-55732452D01*
X96369500Y-55689560D01*
X96369500Y-54760500D01*
X96670500Y-54760500D01*
X96670500Y-55689560D01*
X96850155Y-55732452D01*
X97080247Y-55637159D01*
X97430678Y-55344574D01*
X97642466Y-54940157D01*
X97600295Y-54760500D01*
X96670500Y-54760500D01*
X96369500Y-54760500D01*
X95439705Y-54760500D01*
X95397534Y-54940157D01*
X92197373Y-54940157D01*
X92120633Y-54863283D01*
X91679742Y-54680209D01*
X91202353Y-54679793D01*
X90761143Y-54862097D01*
X90423283Y-55199367D01*
X90240209Y-55640258D01*
X90239793Y-56117647D01*
X83405877Y-56117647D01*
X83405877Y-55200000D01*
X83384958Y-55088827D01*
X83319255Y-54986721D01*
X83219003Y-54918222D01*
X83100000Y-54894123D01*
X81500000Y-54894123D01*
X81388827Y-54915042D01*
X81286721Y-54980745D01*
X81218222Y-55080997D01*
X81194123Y-55200000D01*
X81194123Y-55389891D01*
X81149746Y-55363093D01*
X80512839Y-56000000D01*
X80087161Y-56000000D01*
X79450254Y-55363093D01*
X79295746Y-55456395D01*
X79164162Y-55882086D01*
X77865596Y-55882086D01*
X77617873Y-55284031D01*
X77473798Y-55150254D01*
X79663093Y-55150254D01*
X80300000Y-55787161D01*
X80936907Y-55150254D01*
X80843605Y-54995746D01*
X80417914Y-54864162D01*
X79974271Y-54905499D01*
X79756395Y-54995746D01*
X79663093Y-55150254D01*
X77473798Y-55150254D01*
X77260571Y-54952268D01*
X75212839Y-57000000D01*
X74787161Y-57000000D01*
X72739429Y-54952268D01*
X72382127Y-55284031D01*
X71924728Y-56416469D01*
X71350000Y-56416469D01*
X71350000Y-54739429D01*
X72952268Y-54739429D01*
X75000000Y-56787161D01*
X77047732Y-54739429D01*
X76715969Y-54382127D01*
X75583531Y-53924728D01*
X74362258Y-53935511D01*
X73284031Y-54382127D01*
X72952268Y-54739429D01*
X71350000Y-54739429D01*
X71350000Y-53570500D01*
X90220000Y-53570500D01*
X90220000Y-54303652D01*
X90268717Y-54421265D01*
X90358735Y-54511283D01*
X90476348Y-54560000D01*
X91209500Y-54560000D01*
X91289500Y-54480000D01*
X91289500Y-53490500D01*
X91590500Y-53490500D01*
X91590500Y-54480000D01*
X91670500Y-54560000D01*
X92403652Y-54560000D01*
X92521265Y-54511283D01*
X92611283Y-54421265D01*
X92660000Y-54303652D01*
X92660000Y-54279843D01*
X95397534Y-54279843D01*
X95439705Y-54459500D01*
X96369500Y-54459500D01*
X96369500Y-53530440D01*
X96670500Y-53530440D01*
X96670500Y-54459500D01*
X97600295Y-54459500D01*
X97642466Y-54279843D01*
X97430678Y-53875426D01*
X97292432Y-53760000D01*
X97904123Y-53760000D01*
X97904123Y-55460000D01*
X97925042Y-55571173D01*
X97990745Y-55673279D01*
X98090997Y-55741778D01*
X98210000Y-55765877D01*
X99910000Y-55765877D01*
X100021173Y-55744958D01*
X100123279Y-55679255D01*
X100191778Y-55579003D01*
X100215877Y-55460000D01*
X100215877Y-54940157D01*
X101747534Y-54940157D01*
X101959322Y-55344574D01*
X102309753Y-55637159D01*
X102539845Y-55732452D01*
X102719500Y-55689560D01*
X102719500Y-54760500D01*
X103020500Y-54760500D01*
X103020500Y-55689560D01*
X103200155Y-55732452D01*
X103430247Y-55637159D01*
X103780678Y-55344574D01*
X103992466Y-54940157D01*
X103950295Y-54760500D01*
X103020500Y-54760500D01*
X102719500Y-54760500D01*
X101789705Y-54760500D01*
X101747534Y-54940157D01*
X100215877Y-54940157D01*
X100215877Y-54279843D01*
X101747534Y-54279843D01*
X101789705Y-54459500D01*
X102719500Y-54459500D01*
X102719500Y-53530440D01*
X103020500Y-53530440D01*
X103020500Y-54459500D01*
X103950295Y-54459500D01*
X103992466Y-54279843D01*
X103780678Y-53875426D01*
X103642432Y-53760000D01*
X104254123Y-53760000D01*
X104254123Y-55460000D01*
X104275042Y-55571173D01*
X104340745Y-55673279D01*
X104440997Y-55741778D01*
X104560000Y-55765877D01*
X106260000Y-55765877D01*
X106371173Y-55744958D01*
X106473279Y-55679255D01*
X106541778Y-55579003D01*
X106565877Y-55460000D01*
X106565877Y-54940157D01*
X108097534Y-54940157D01*
X108309322Y-55344574D01*
X108659753Y-55637159D01*
X108889845Y-55732452D01*
X109069500Y-55689560D01*
X109069500Y-54760500D01*
X109370500Y-54760500D01*
X109370500Y-55689560D01*
X109550155Y-55732452D01*
X109780247Y-55637159D01*
X110130678Y-55344574D01*
X110342466Y-54940157D01*
X110300295Y-54760500D01*
X109370500Y-54760500D01*
X109069500Y-54760500D01*
X108139705Y-54760500D01*
X108097534Y-54940157D01*
X106565877Y-54940157D01*
X106565877Y-54587470D01*
X110610000Y-54587470D01*
X110610000Y-54632530D01*
X110697539Y-55072616D01*
X110946827Y-55445703D01*
X111319914Y-55694991D01*
X111760000Y-55782530D01*
X112200086Y-55694991D01*
X112573173Y-55445703D01*
X112822461Y-55072616D01*
X112910000Y-54632530D01*
X112910000Y-54587470D01*
X113150000Y-54587470D01*
X113150000Y-54632530D01*
X113237539Y-55072616D01*
X113486827Y-55445703D01*
X113859914Y-55694991D01*
X114300000Y-55782530D01*
X114740086Y-55694991D01*
X115113173Y-55445703D01*
X115362461Y-55072616D01*
X115450000Y-54632530D01*
X115450000Y-54587470D01*
X115362461Y-54147384D01*
X115113173Y-53774297D01*
X115091776Y-53760000D01*
X115684123Y-53760000D01*
X115684123Y-55460000D01*
X115705042Y-55571173D01*
X115770745Y-55673279D01*
X115870997Y-55741778D01*
X115990000Y-55765877D01*
X117690000Y-55765877D01*
X117801173Y-55744958D01*
X117903279Y-55679255D01*
X117971778Y-55579003D01*
X117995877Y-55460000D01*
X117995877Y-54940157D01*
X119527534Y-54940157D01*
X119739322Y-55344574D01*
X120089753Y-55637159D01*
X120319845Y-55732452D01*
X120499500Y-55689560D01*
X120499500Y-54760500D01*
X120800500Y-54760500D01*
X120800500Y-55689560D01*
X120980155Y-55732452D01*
X121210247Y-55637159D01*
X121560678Y-55344574D01*
X121772466Y-54940157D01*
X121730295Y-54760500D01*
X120800500Y-54760500D01*
X120499500Y-54760500D01*
X119569705Y-54760500D01*
X119527534Y-54940157D01*
X117995877Y-54940157D01*
X117995877Y-54279843D01*
X119527534Y-54279843D01*
X119569705Y-54459500D01*
X120499500Y-54459500D01*
X120499500Y-53530440D01*
X120800500Y-53530440D01*
X120800500Y-54459500D01*
X121730295Y-54459500D01*
X121772466Y-54279843D01*
X121560678Y-53875426D01*
X121422432Y-53760000D01*
X122034123Y-53760000D01*
X122034123Y-55460000D01*
X122055042Y-55571173D01*
X122120745Y-55673279D01*
X122220997Y-55741778D01*
X122340000Y-55765877D01*
X124040000Y-55765877D01*
X124151173Y-55744958D01*
X124253279Y-55679255D01*
X124321778Y-55579003D01*
X124345877Y-55460000D01*
X124345877Y-54940157D01*
X125877534Y-54940157D01*
X126089322Y-55344574D01*
X126439753Y-55637159D01*
X126669845Y-55732452D01*
X126849500Y-55689560D01*
X126849500Y-54760500D01*
X127150500Y-54760500D01*
X127150500Y-55689560D01*
X127330155Y-55732452D01*
X127560247Y-55637159D01*
X127910678Y-55344574D01*
X128122466Y-54940157D01*
X128080295Y-54760500D01*
X127150500Y-54760500D01*
X126849500Y-54760500D01*
X125919705Y-54760500D01*
X125877534Y-54940157D01*
X124345877Y-54940157D01*
X124345877Y-54279843D01*
X125877534Y-54279843D01*
X125919705Y-54459500D01*
X126849500Y-54459500D01*
X126849500Y-53530440D01*
X127150500Y-53530440D01*
X127150500Y-54459500D01*
X128080295Y-54459500D01*
X128122466Y-54279843D01*
X127910678Y-53875426D01*
X127772432Y-53760000D01*
X128384123Y-53760000D01*
X128384123Y-55460000D01*
X128405042Y-55571173D01*
X128470745Y-55673279D01*
X128570997Y-55741778D01*
X128690000Y-55765877D01*
X130390000Y-55765877D01*
X130501173Y-55744958D01*
X130603279Y-55679255D01*
X130671778Y-55579003D01*
X130695877Y-55460000D01*
X130695877Y-54739429D01*
X155952268Y-54739429D01*
X158000000Y-56787161D01*
X160047732Y-54739429D01*
X159715969Y-54382127D01*
X158583531Y-53924728D01*
X157362258Y-53935511D01*
X156284031Y-54382127D01*
X155952268Y-54739429D01*
X130695877Y-54739429D01*
X130695877Y-53760000D01*
X130674958Y-53648827D01*
X130609255Y-53546721D01*
X130509003Y-53478222D01*
X130390000Y-53454123D01*
X128690000Y-53454123D01*
X128578827Y-53475042D01*
X128476721Y-53540745D01*
X128408222Y-53640997D01*
X128384123Y-53760000D01*
X127772432Y-53760000D01*
X127560247Y-53582841D01*
X127330155Y-53487548D01*
X127150500Y-53530440D01*
X126849500Y-53530440D01*
X126669845Y-53487548D01*
X126439753Y-53582841D01*
X126089322Y-53875426D01*
X125877534Y-54279843D01*
X124345877Y-54279843D01*
X124345877Y-53760000D01*
X124324958Y-53648827D01*
X124259255Y-53546721D01*
X124159003Y-53478222D01*
X124040000Y-53454123D01*
X122340000Y-53454123D01*
X122228827Y-53475042D01*
X122126721Y-53540745D01*
X122058222Y-53640997D01*
X122034123Y-53760000D01*
X121422432Y-53760000D01*
X121210247Y-53582841D01*
X120980155Y-53487548D01*
X120800500Y-53530440D01*
X120499500Y-53530440D01*
X120319845Y-53487548D01*
X120089753Y-53582841D01*
X119739322Y-53875426D01*
X119527534Y-54279843D01*
X117995877Y-54279843D01*
X117995877Y-53760000D01*
X117974958Y-53648827D01*
X117909255Y-53546721D01*
X117809003Y-53478222D01*
X117690000Y-53454123D01*
X115990000Y-53454123D01*
X115878827Y-53475042D01*
X115776721Y-53540745D01*
X115708222Y-53640997D01*
X115684123Y-53760000D01*
X115091776Y-53760000D01*
X114740086Y-53525009D01*
X114300000Y-53437470D01*
X113859914Y-53525009D01*
X113486827Y-53774297D01*
X113237539Y-54147384D01*
X113150000Y-54587470D01*
X112910000Y-54587470D01*
X112822461Y-54147384D01*
X112573173Y-53774297D01*
X112200086Y-53525009D01*
X111760000Y-53437470D01*
X111319914Y-53525009D01*
X110946827Y-53774297D01*
X110697539Y-54147384D01*
X110610000Y-54587470D01*
X106565877Y-54587470D01*
X106565877Y-54279843D01*
X108097534Y-54279843D01*
X108139705Y-54459500D01*
X109069500Y-54459500D01*
X109069500Y-53530440D01*
X109370500Y-53530440D01*
X109370500Y-54459500D01*
X110300295Y-54459500D01*
X110342466Y-54279843D01*
X110130678Y-53875426D01*
X109780247Y-53582841D01*
X109550155Y-53487548D01*
X109370500Y-53530440D01*
X109069500Y-53530440D01*
X108889845Y-53487548D01*
X108659753Y-53582841D01*
X108309322Y-53875426D01*
X108097534Y-54279843D01*
X106565877Y-54279843D01*
X106565877Y-53760000D01*
X106544958Y-53648827D01*
X106479255Y-53546721D01*
X106379003Y-53478222D01*
X106260000Y-53454123D01*
X104560000Y-53454123D01*
X104448827Y-53475042D01*
X104346721Y-53540745D01*
X104278222Y-53640997D01*
X104254123Y-53760000D01*
X103642432Y-53760000D01*
X103430247Y-53582841D01*
X103200155Y-53487548D01*
X103020500Y-53530440D01*
X102719500Y-53530440D01*
X102539845Y-53487548D01*
X102309753Y-53582841D01*
X101959322Y-53875426D01*
X101747534Y-54279843D01*
X100215877Y-54279843D01*
X100215877Y-53760000D01*
X100194958Y-53648827D01*
X100129255Y-53546721D01*
X100029003Y-53478222D01*
X99910000Y-53454123D01*
X98210000Y-53454123D01*
X98098827Y-53475042D01*
X97996721Y-53540745D01*
X97928222Y-53640997D01*
X97904123Y-53760000D01*
X97292432Y-53760000D01*
X97080247Y-53582841D01*
X96850155Y-53487548D01*
X96670500Y-53530440D01*
X96369500Y-53530440D01*
X96189845Y-53487548D01*
X95959753Y-53582841D01*
X95609322Y-53875426D01*
X95397534Y-54279843D01*
X92660000Y-54279843D01*
X92660000Y-53570500D01*
X92580000Y-53490500D01*
X91590500Y-53490500D01*
X91289500Y-53490500D01*
X90300000Y-53490500D01*
X90220000Y-53570500D01*
X71350000Y-53570500D01*
X71350000Y-52376348D01*
X90220000Y-52376348D01*
X90220000Y-53109500D01*
X90300000Y-53189500D01*
X91289500Y-53189500D01*
X91289500Y-52200000D01*
X91590500Y-52200000D01*
X91590500Y-53189500D01*
X92580000Y-53189500D01*
X92660000Y-53109500D01*
X92660000Y-52376348D01*
X92611283Y-52258735D01*
X92521265Y-52168717D01*
X92403652Y-52120000D01*
X91670500Y-52120000D01*
X91590500Y-52200000D01*
X91289500Y-52200000D01*
X91209500Y-52120000D01*
X90476348Y-52120000D01*
X90358735Y-52168717D01*
X90268717Y-52258735D01*
X90220000Y-52376348D01*
X71350000Y-52376348D01*
X71350000Y-51130155D01*
X80377548Y-51130155D01*
X80472841Y-51360247D01*
X80765426Y-51710678D01*
X81169843Y-51922466D01*
X81349500Y-51880295D01*
X81349500Y-50950500D01*
X81650500Y-50950500D01*
X81650500Y-51880295D01*
X81830157Y-51922466D01*
X82234574Y-51710678D01*
X82527159Y-51360247D01*
X82622452Y-51130155D01*
X82579560Y-50950500D01*
X81650500Y-50950500D01*
X81349500Y-50950500D01*
X80420440Y-50950500D01*
X80377548Y-51130155D01*
X71350000Y-51130155D01*
X71350000Y-50469845D01*
X80377548Y-50469845D01*
X80420440Y-50649500D01*
X81349500Y-50649500D01*
X81349500Y-49719705D01*
X81650500Y-49719705D01*
X81650500Y-50649500D01*
X82579560Y-50649500D01*
X82622452Y-50469845D01*
X82527159Y-50239753D01*
X82259207Y-49918824D01*
X88199896Y-49918824D01*
X88291048Y-50139429D01*
X88459683Y-50308359D01*
X88680129Y-50399896D01*
X88918824Y-50400104D01*
X89139429Y-50308952D01*
X89148397Y-50300000D01*
X93551339Y-50300000D01*
X93559683Y-50308359D01*
X93780129Y-50399896D01*
X94018824Y-50400104D01*
X94239429Y-50308952D01*
X94408359Y-50140317D01*
X94499896Y-49919871D01*
X94500104Y-49681176D01*
X94408952Y-49460571D01*
X94240317Y-49291641D01*
X94019871Y-49200104D01*
X93781176Y-49199896D01*
X93560571Y-49291048D01*
X93551603Y-49300000D01*
X89148661Y-49300000D01*
X89140317Y-49291641D01*
X88919871Y-49200104D01*
X88681176Y-49199896D01*
X88460571Y-49291048D01*
X88291641Y-49459683D01*
X88200104Y-49680129D01*
X88199896Y-49918824D01*
X82259207Y-49918824D01*
X82234574Y-49889322D01*
X81830157Y-49677534D01*
X81650500Y-49719705D01*
X81349500Y-49719705D01*
X81169843Y-49677534D01*
X80765426Y-49889322D01*
X80472841Y-50239753D01*
X80377548Y-50469845D01*
X71350000Y-50469845D01*
X71350000Y-47410000D01*
X80344123Y-47410000D01*
X80344123Y-49110000D01*
X80365042Y-49221173D01*
X80430745Y-49323279D01*
X80530997Y-49391778D01*
X80650000Y-49415877D01*
X82350000Y-49415877D01*
X82461173Y-49394958D01*
X82563279Y-49329255D01*
X82631778Y-49229003D01*
X82655877Y-49110000D01*
X82655877Y-47410000D01*
X82634958Y-47298827D01*
X82569255Y-47196721D01*
X82500877Y-47150000D01*
X89944123Y-47150000D01*
X89944123Y-48850000D01*
X89965042Y-48961173D01*
X90030745Y-49063279D01*
X90130997Y-49131778D01*
X90250000Y-49155877D01*
X91950000Y-49155877D01*
X92061173Y-49134958D01*
X92163279Y-49069255D01*
X92231778Y-48969003D01*
X92255877Y-48850000D01*
X92255877Y-48770157D01*
X132277534Y-48770157D01*
X132489322Y-49174574D01*
X132839753Y-49467159D01*
X133069845Y-49562452D01*
X133249500Y-49519560D01*
X133249500Y-48590500D01*
X133550500Y-48590500D01*
X133550500Y-49519560D01*
X133730155Y-49562452D01*
X133960247Y-49467159D01*
X134310678Y-49174574D01*
X134522466Y-48770157D01*
X134480295Y-48590500D01*
X133550500Y-48590500D01*
X133249500Y-48590500D01*
X132319705Y-48590500D01*
X132277534Y-48770157D01*
X92255877Y-48770157D01*
X92255877Y-48417470D01*
X134790000Y-48417470D01*
X134790000Y-48462530D01*
X134877539Y-48902616D01*
X135126827Y-49275703D01*
X135499914Y-49524991D01*
X135940000Y-49612530D01*
X136380086Y-49524991D01*
X136753173Y-49275703D01*
X137002461Y-48902616D01*
X137090000Y-48462530D01*
X137090000Y-48417470D01*
X137330000Y-48417470D01*
X137330000Y-48462530D01*
X137417539Y-48902616D01*
X137666827Y-49275703D01*
X138039914Y-49524991D01*
X138480000Y-49612530D01*
X138920086Y-49524991D01*
X139293173Y-49275703D01*
X139542461Y-48902616D01*
X139630000Y-48462530D01*
X139630000Y-48417470D01*
X139870000Y-48417470D01*
X139870000Y-48462530D01*
X139957539Y-48902616D01*
X140206827Y-49275703D01*
X140579914Y-49524991D01*
X141020000Y-49612530D01*
X141460086Y-49524991D01*
X141833173Y-49275703D01*
X142082461Y-48902616D01*
X142170000Y-48462530D01*
X142170000Y-48417470D01*
X142410000Y-48417470D01*
X142410000Y-48462530D01*
X142497539Y-48902616D01*
X142746827Y-49275703D01*
X143119914Y-49524991D01*
X143560000Y-49612530D01*
X144000086Y-49524991D01*
X144373173Y-49275703D01*
X144622461Y-48902616D01*
X144648808Y-48770157D01*
X144977534Y-48770157D01*
X145189322Y-49174574D01*
X145539753Y-49467159D01*
X145769845Y-49562452D01*
X145949500Y-49519560D01*
X145949500Y-48590500D01*
X146250500Y-48590500D01*
X146250500Y-49519560D01*
X146430155Y-49562452D01*
X146660247Y-49467159D01*
X147010678Y-49174574D01*
X147222466Y-48770157D01*
X147180295Y-48590500D01*
X146250500Y-48590500D01*
X145949500Y-48590500D01*
X145019705Y-48590500D01*
X144977534Y-48770157D01*
X144648808Y-48770157D01*
X144710000Y-48462530D01*
X144710000Y-48417470D01*
X144702044Y-48377470D01*
X150970000Y-48377470D01*
X150970000Y-48422530D01*
X151057539Y-48862616D01*
X151306827Y-49235703D01*
X151679914Y-49484991D01*
X152120000Y-49572530D01*
X152560086Y-49484991D01*
X152933173Y-49235703D01*
X153182461Y-48862616D01*
X153270000Y-48422530D01*
X153270000Y-48377470D01*
X153510000Y-48377470D01*
X153510000Y-48422530D01*
X153597539Y-48862616D01*
X153846827Y-49235703D01*
X154219914Y-49484991D01*
X154660000Y-49572530D01*
X155100086Y-49484991D01*
X155473173Y-49235703D01*
X155722461Y-48862616D01*
X155810000Y-48422530D01*
X155810000Y-48377470D01*
X155722461Y-47937384D01*
X155473173Y-47564297D01*
X155451776Y-47550000D01*
X156044123Y-47550000D01*
X156044123Y-49250000D01*
X156065042Y-49361173D01*
X156130745Y-49463279D01*
X156230997Y-49531778D01*
X156350000Y-49555877D01*
X158050000Y-49555877D01*
X158161173Y-49534958D01*
X158263279Y-49469255D01*
X158331778Y-49369003D01*
X158355877Y-49250000D01*
X158355877Y-47550000D01*
X158334958Y-47438827D01*
X158269255Y-47336721D01*
X158169003Y-47268222D01*
X158050000Y-47244123D01*
X156350000Y-47244123D01*
X156238827Y-47265042D01*
X156136721Y-47330745D01*
X156068222Y-47430997D01*
X156044123Y-47550000D01*
X155451776Y-47550000D01*
X155100086Y-47315009D01*
X154660000Y-47227470D01*
X154219914Y-47315009D01*
X153846827Y-47564297D01*
X153597539Y-47937384D01*
X153510000Y-48377470D01*
X153270000Y-48377470D01*
X153182461Y-47937384D01*
X152933173Y-47564297D01*
X152560086Y-47315009D01*
X152120000Y-47227470D01*
X151679914Y-47315009D01*
X151306827Y-47564297D01*
X151057539Y-47937384D01*
X150970000Y-48377470D01*
X144702044Y-48377470D01*
X144648809Y-48109843D01*
X144977534Y-48109843D01*
X145019705Y-48289500D01*
X145949500Y-48289500D01*
X145949500Y-47360440D01*
X146250500Y-47360440D01*
X146250500Y-48289500D01*
X147180295Y-48289500D01*
X147222466Y-48109843D01*
X147010678Y-47705426D01*
X146660247Y-47412841D01*
X146430155Y-47317548D01*
X146250500Y-47360440D01*
X145949500Y-47360440D01*
X145769845Y-47317548D01*
X145539753Y-47412841D01*
X145189322Y-47705426D01*
X144977534Y-48109843D01*
X144648809Y-48109843D01*
X144622461Y-47977384D01*
X144373173Y-47604297D01*
X144000086Y-47355009D01*
X143560000Y-47267470D01*
X143119914Y-47355009D01*
X142746827Y-47604297D01*
X142497539Y-47977384D01*
X142410000Y-48417470D01*
X142170000Y-48417470D01*
X142082461Y-47977384D01*
X141833173Y-47604297D01*
X141460086Y-47355009D01*
X141020000Y-47267470D01*
X140579914Y-47355009D01*
X140206827Y-47604297D01*
X139957539Y-47977384D01*
X139870000Y-48417470D01*
X139630000Y-48417470D01*
X139542461Y-47977384D01*
X139293173Y-47604297D01*
X138920086Y-47355009D01*
X138480000Y-47267470D01*
X138039914Y-47355009D01*
X137666827Y-47604297D01*
X137417539Y-47977384D01*
X137330000Y-48417470D01*
X137090000Y-48417470D01*
X137002461Y-47977384D01*
X136753173Y-47604297D01*
X136380086Y-47355009D01*
X135940000Y-47267470D01*
X135499914Y-47355009D01*
X135126827Y-47604297D01*
X134877539Y-47977384D01*
X134790000Y-48417470D01*
X92255877Y-48417470D01*
X92255877Y-48109843D01*
X132277534Y-48109843D01*
X132319705Y-48289500D01*
X133249500Y-48289500D01*
X133249500Y-47360440D01*
X133550500Y-47360440D01*
X133550500Y-48289500D01*
X134480295Y-48289500D01*
X134522466Y-48109843D01*
X134310678Y-47705426D01*
X133960247Y-47412841D01*
X133730155Y-47317548D01*
X133550500Y-47360440D01*
X133249500Y-47360440D01*
X133069845Y-47317548D01*
X132839753Y-47412841D01*
X132489322Y-47705426D01*
X132277534Y-48109843D01*
X92255877Y-48109843D01*
X92255877Y-47150000D01*
X92234958Y-47038827D01*
X92169255Y-46936721D01*
X92069003Y-46868222D01*
X91950000Y-46844123D01*
X90250000Y-46844123D01*
X90138827Y-46865042D01*
X90036721Y-46930745D01*
X89968222Y-47030997D01*
X89944123Y-47150000D01*
X82500877Y-47150000D01*
X82469003Y-47128222D01*
X82350000Y-47104123D01*
X80650000Y-47104123D01*
X80538827Y-47125042D01*
X80436721Y-47190745D01*
X80368222Y-47290997D01*
X80344123Y-47410000D01*
X71350000Y-47410000D01*
X71350000Y-45790155D01*
X89977548Y-45790155D01*
X90072841Y-46020247D01*
X90365426Y-46370678D01*
X90769843Y-46582466D01*
X90949500Y-46540295D01*
X90949500Y-45610500D01*
X91250500Y-45610500D01*
X91250500Y-46540295D01*
X91430157Y-46582466D01*
X91834574Y-46370678D01*
X91951899Y-46230157D01*
X132277534Y-46230157D01*
X132489322Y-46634574D01*
X132839753Y-46927159D01*
X133069845Y-47022452D01*
X133249500Y-46979560D01*
X133249500Y-46050500D01*
X133550500Y-46050500D01*
X133550500Y-46979560D01*
X133730155Y-47022452D01*
X133960247Y-46927159D01*
X134310678Y-46634574D01*
X134522466Y-46230157D01*
X134480295Y-46050500D01*
X133550500Y-46050500D01*
X133249500Y-46050500D01*
X132319705Y-46050500D01*
X132277534Y-46230157D01*
X91951899Y-46230157D01*
X92127159Y-46020247D01*
X92186290Y-45877470D01*
X134790000Y-45877470D01*
X134790000Y-45922530D01*
X134877539Y-46362616D01*
X135126827Y-46735703D01*
X135499914Y-46984991D01*
X135940000Y-47072530D01*
X136380086Y-46984991D01*
X136753173Y-46735703D01*
X137002461Y-46362616D01*
X137090000Y-45922530D01*
X137090000Y-45877470D01*
X137330000Y-45877470D01*
X137330000Y-45922530D01*
X137417539Y-46362616D01*
X137666827Y-46735703D01*
X138039914Y-46984991D01*
X138480000Y-47072530D01*
X138920086Y-46984991D01*
X139293173Y-46735703D01*
X139542461Y-46362616D01*
X139630000Y-45922530D01*
X139630000Y-45877470D01*
X139870000Y-45877470D01*
X139870000Y-45922530D01*
X139957539Y-46362616D01*
X140206827Y-46735703D01*
X140579914Y-46984991D01*
X141020000Y-47072530D01*
X141460086Y-46984991D01*
X141833173Y-46735703D01*
X142082461Y-46362616D01*
X142170000Y-45922530D01*
X142170000Y-45877470D01*
X142410000Y-45877470D01*
X142410000Y-45922530D01*
X142497539Y-46362616D01*
X142746827Y-46735703D01*
X143119914Y-46984991D01*
X143560000Y-47072530D01*
X144000086Y-46984991D01*
X144373173Y-46735703D01*
X144622461Y-46362616D01*
X144668631Y-46130500D01*
X144930000Y-46130500D01*
X144930000Y-46813652D01*
X144978717Y-46931265D01*
X145068735Y-47021283D01*
X145186348Y-47070000D01*
X145869500Y-47070000D01*
X145949500Y-46990000D01*
X145949500Y-46050500D01*
X146250500Y-46050500D01*
X146250500Y-46990000D01*
X146330500Y-47070000D01*
X147013652Y-47070000D01*
X147131265Y-47021283D01*
X147221283Y-46931265D01*
X147270000Y-46813652D01*
X147270000Y-46190157D01*
X150997534Y-46190157D01*
X151209322Y-46594574D01*
X151559753Y-46887159D01*
X151789845Y-46982452D01*
X151969500Y-46939560D01*
X151969500Y-46010500D01*
X152270500Y-46010500D01*
X152270500Y-46939560D01*
X152450155Y-46982452D01*
X152680247Y-46887159D01*
X153030678Y-46594574D01*
X153242466Y-46190157D01*
X153200295Y-46010500D01*
X152270500Y-46010500D01*
X151969500Y-46010500D01*
X151039705Y-46010500D01*
X150997534Y-46190157D01*
X147270000Y-46190157D01*
X147270000Y-46130500D01*
X147190000Y-46050500D01*
X146250500Y-46050500D01*
X145949500Y-46050500D01*
X145010000Y-46050500D01*
X144930000Y-46130500D01*
X144668631Y-46130500D01*
X144710000Y-45922530D01*
X144710000Y-45877470D01*
X144702044Y-45837470D01*
X153510000Y-45837470D01*
X153510000Y-45882530D01*
X153597539Y-46322616D01*
X153846827Y-46695703D01*
X154219914Y-46944991D01*
X154660000Y-47032530D01*
X155100086Y-46944991D01*
X155473173Y-46695703D01*
X155722461Y-46322616D01*
X155810000Y-45882530D01*
X155810000Y-45837470D01*
X156050000Y-45837470D01*
X156050000Y-45882530D01*
X156137539Y-46322616D01*
X156386827Y-46695703D01*
X156759914Y-46944991D01*
X157200000Y-47032530D01*
X157640086Y-46944991D01*
X158013173Y-46695703D01*
X158262461Y-46322616D01*
X158350000Y-45882530D01*
X158350000Y-45837470D01*
X158262461Y-45397384D01*
X158013173Y-45024297D01*
X157640086Y-44775009D01*
X157200000Y-44687470D01*
X156759914Y-44775009D01*
X156386827Y-45024297D01*
X156137539Y-45397384D01*
X156050000Y-45837470D01*
X155810000Y-45837470D01*
X155722461Y-45397384D01*
X155473173Y-45024297D01*
X155100086Y-44775009D01*
X154660000Y-44687470D01*
X154219914Y-44775009D01*
X153846827Y-45024297D01*
X153597539Y-45397384D01*
X153510000Y-45837470D01*
X144702044Y-45837470D01*
X144622461Y-45437384D01*
X144373173Y-45064297D01*
X144256514Y-44986348D01*
X144930000Y-44986348D01*
X144930000Y-45669500D01*
X145010000Y-45749500D01*
X145949500Y-45749500D01*
X145949500Y-44810000D01*
X146250500Y-44810000D01*
X146250500Y-45749500D01*
X147190000Y-45749500D01*
X147270000Y-45669500D01*
X147270000Y-45529843D01*
X150997534Y-45529843D01*
X151039705Y-45709500D01*
X151969500Y-45709500D01*
X151969500Y-44780440D01*
X152270500Y-44780440D01*
X152270500Y-45709500D01*
X153200295Y-45709500D01*
X153242466Y-45529843D01*
X153030678Y-45125426D01*
X152680247Y-44832841D01*
X152450155Y-44737548D01*
X152270500Y-44780440D01*
X151969500Y-44780440D01*
X151789845Y-44737548D01*
X151559753Y-44832841D01*
X151209322Y-45125426D01*
X150997534Y-45529843D01*
X147270000Y-45529843D01*
X147270000Y-44986348D01*
X147221283Y-44868735D01*
X147131265Y-44778717D01*
X147013652Y-44730000D01*
X146330500Y-44730000D01*
X146250500Y-44810000D01*
X145949500Y-44810000D01*
X145869500Y-44730000D01*
X145186348Y-44730000D01*
X145068735Y-44778717D01*
X144978717Y-44868735D01*
X144930000Y-44986348D01*
X144256514Y-44986348D01*
X144000086Y-44815009D01*
X143560000Y-44727470D01*
X143119914Y-44815009D01*
X142746827Y-45064297D01*
X142497539Y-45437384D01*
X142410000Y-45877470D01*
X142170000Y-45877470D01*
X142082461Y-45437384D01*
X141833173Y-45064297D01*
X141460086Y-44815009D01*
X141020000Y-44727470D01*
X140579914Y-44815009D01*
X140206827Y-45064297D01*
X139957539Y-45437384D01*
X139870000Y-45877470D01*
X139630000Y-45877470D01*
X139542461Y-45437384D01*
X139293173Y-45064297D01*
X138920086Y-44815009D01*
X138480000Y-44727470D01*
X138039914Y-44815009D01*
X137666827Y-45064297D01*
X137417539Y-45437384D01*
X137330000Y-45877470D01*
X137090000Y-45877470D01*
X137002461Y-45437384D01*
X136753173Y-45064297D01*
X136380086Y-44815009D01*
X135940000Y-44727470D01*
X135499914Y-44815009D01*
X135126827Y-45064297D01*
X134877539Y-45437384D01*
X134790000Y-45877470D01*
X92186290Y-45877470D01*
X92222452Y-45790155D01*
X92179560Y-45610500D01*
X91250500Y-45610500D01*
X90949500Y-45610500D01*
X90020440Y-45610500D01*
X89977548Y-45790155D01*
X71350000Y-45790155D01*
X71350000Y-45569843D01*
X132277534Y-45569843D01*
X132319705Y-45749500D01*
X133249500Y-45749500D01*
X133249500Y-44820440D01*
X133550500Y-44820440D01*
X133550500Y-45749500D01*
X134480295Y-45749500D01*
X134522466Y-45569843D01*
X134310678Y-45165426D01*
X133960247Y-44872841D01*
X133730155Y-44777548D01*
X133550500Y-44820440D01*
X133249500Y-44820440D01*
X133069845Y-44777548D01*
X132839753Y-44872841D01*
X132489322Y-45165426D01*
X132277534Y-45569843D01*
X71350000Y-45569843D01*
X71350000Y-45129845D01*
X89977548Y-45129845D01*
X90020440Y-45309500D01*
X90949500Y-45309500D01*
X90949500Y-44379705D01*
X91250500Y-44379705D01*
X91250500Y-45309500D01*
X92179560Y-45309500D01*
X92222452Y-45129845D01*
X92127159Y-44899753D01*
X91834574Y-44549322D01*
X91430157Y-44337534D01*
X91250500Y-44379705D01*
X90949500Y-44379705D01*
X90769843Y-44337534D01*
X90365426Y-44549322D01*
X90072841Y-44899753D01*
X89977548Y-45129845D01*
X71350000Y-45129845D01*
X71350000Y-43850000D01*
X161650000Y-43850000D01*
X161650000Y-120650000D01*
X161650000Y-120650000D01*
G37*
X161650000Y-120650000D02*
X71350000Y-120650000D01*
X71350000Y-119260571D01*
X72952268Y-119260571D01*
X73284031Y-119617873D01*
X74416469Y-120075272D01*
X75637742Y-120064489D01*
X76715969Y-119617873D01*
X77047732Y-119260571D01*
X155952268Y-119260571D01*
X156284031Y-119617873D01*
X157416469Y-120075272D01*
X158637742Y-120064489D01*
X159715969Y-119617873D01*
X160047732Y-119260571D01*
X158000000Y-117212839D01*
X155952268Y-119260571D01*
X77047732Y-119260571D01*
X75000000Y-117212839D01*
X72952268Y-119260571D01*
X71350000Y-119260571D01*
X71350000Y-116416469D01*
X71924728Y-116416469D01*
X71935511Y-117637742D01*
X72382127Y-118715969D01*
X72739429Y-119047732D01*
X74787161Y-117000000D01*
X75212839Y-117000000D01*
X77260571Y-119047732D01*
X77617873Y-118715969D01*
X78075272Y-117583531D01*
X78064968Y-116416469D01*
X154924728Y-116416469D01*
X154935511Y-117637742D01*
X155382127Y-118715969D01*
X155739429Y-119047732D01*
X157787161Y-117000000D01*
X158212839Y-117000000D01*
X160260571Y-119047732D01*
X160617873Y-118715969D01*
X161075272Y-117583531D01*
X161064489Y-116362258D01*
X160617873Y-115284031D01*
X160260571Y-114952268D01*
X158212839Y-117000000D01*
X157787161Y-117000000D01*
X155739429Y-114952268D01*
X155382127Y-115284031D01*
X154924728Y-116416469D01*
X78064968Y-116416469D01*
X78064489Y-116362258D01*
X77617873Y-115284031D01*
X77260571Y-114952268D01*
X75212839Y-117000000D01*
X74787161Y-117000000D01*
X72739429Y-114952268D01*
X72382127Y-115284031D01*
X71924728Y-116416469D01*
X71350000Y-116416469D01*
X71350000Y-114739429D01*
X72952268Y-114739429D01*
X75000000Y-116787161D01*
X77047732Y-114739429D01*
X155952268Y-114739429D01*
X158000000Y-116787161D01*
X160047732Y-114739429D01*
X159715969Y-114382127D01*
X158583531Y-113924728D01*
X157362258Y-113935511D01*
X156284031Y-114382127D01*
X155952268Y-114739429D01*
X77047732Y-114739429D01*
X76715969Y-114382127D01*
X75583531Y-113924728D01*
X74362258Y-113935511D01*
X73284031Y-114382127D01*
X72952268Y-114739429D01*
X71350000Y-114739429D01*
X71350000Y-111630155D01*
X80377548Y-111630155D01*
X80472841Y-111860247D01*
X80765426Y-112210678D01*
X81169843Y-112422466D01*
X81349500Y-112380295D01*
X81349500Y-111450500D01*
X81650500Y-111450500D01*
X81650500Y-112380295D01*
X81830157Y-112422466D01*
X82234574Y-112210678D01*
X82527159Y-111860247D01*
X82622452Y-111630155D01*
X82607599Y-111567942D01*
X128689818Y-111567942D01*
X128849334Y-111954000D01*
X129144446Y-112249628D01*
X129530226Y-112409818D01*
X129947942Y-112410182D01*
X130334000Y-112250666D01*
X130629628Y-111955554D01*
X130789818Y-111569774D01*
X130789819Y-111567942D01*
X133569818Y-111567942D01*
X133729334Y-111954000D01*
X134024446Y-112249628D01*
X134410226Y-112409818D01*
X134827942Y-112410182D01*
X135214000Y-112250666D01*
X135509628Y-111955554D01*
X135669818Y-111569774D01*
X135670182Y-111152058D01*
X135510666Y-110766000D01*
X135215554Y-110470372D01*
X134829774Y-110310182D01*
X134412058Y-110309818D01*
X134026000Y-110469334D01*
X133730372Y-110764446D01*
X133570182Y-111150226D01*
X133569818Y-111567942D01*
X130789819Y-111567942D01*
X130790182Y-111152058D01*
X130630666Y-110766000D01*
X130335554Y-110470372D01*
X129949774Y-110310182D01*
X129532058Y-110309818D01*
X129146000Y-110469334D01*
X128850372Y-110764446D01*
X128690182Y-111150226D01*
X128689818Y-111567942D01*
X82607599Y-111567942D01*
X82579560Y-111450500D01*
X81650500Y-111450500D01*
X81349500Y-111450500D01*
X80420440Y-111450500D01*
X80377548Y-111630155D01*
X71350000Y-111630155D01*
X71350000Y-110969845D01*
X80377548Y-110969845D01*
X80420440Y-111149500D01*
X81349500Y-111149500D01*
X81349500Y-110219705D01*
X81650500Y-110219705D01*
X81650500Y-111149500D01*
X82579560Y-111149500D01*
X82622452Y-110969845D01*
X82527159Y-110739753D01*
X82234574Y-110389322D01*
X81830157Y-110177534D01*
X81650500Y-110219705D01*
X81349500Y-110219705D01*
X81169843Y-110177534D01*
X80765426Y-110389322D01*
X80472841Y-110739753D01*
X80377548Y-110969845D01*
X71350000Y-110969845D01*
X71350000Y-108760000D01*
X80327470Y-108760000D01*
X80415009Y-109200086D01*
X80664297Y-109573173D01*
X81037384Y-109822461D01*
X81477470Y-109910000D01*
X81522530Y-109910000D01*
X81962616Y-109822461D01*
X82335703Y-109573173D01*
X82584991Y-109200086D01*
X82672530Y-108760000D01*
X82584991Y-108319914D01*
X82335703Y-107946827D01*
X81994472Y-107718824D01*
X129499896Y-107718824D01*
X129591048Y-107939429D01*
X129759683Y-108108359D01*
X129980129Y-108199896D01*
X130218824Y-108200104D01*
X130439429Y-108108952D01*
X130448397Y-108100000D01*
X137551339Y-108100000D01*
X137559683Y-108108359D01*
X137780129Y-108199896D01*
X138018824Y-108200104D01*
X138239429Y-108108952D01*
X138408359Y-107940317D01*
X138499896Y-107719871D01*
X138500104Y-107481176D01*
X138408952Y-107260571D01*
X138240317Y-107091641D01*
X138019871Y-107000104D01*
X137781176Y-106999896D01*
X137560571Y-107091048D01*
X137551603Y-107100000D01*
X130448661Y-107100000D01*
X130440317Y-107091641D01*
X130219871Y-107000104D01*
X129981176Y-106999896D01*
X129760571Y-107091048D01*
X129591641Y-107259683D01*
X129500104Y-107480129D01*
X129499896Y-107718824D01*
X81994472Y-107718824D01*
X81962616Y-107697539D01*
X81522530Y-107610000D01*
X81477470Y-107610000D01*
X81037384Y-107697539D01*
X80664297Y-107946827D01*
X80415009Y-108319914D01*
X80327470Y-108760000D01*
X71350000Y-108760000D01*
X71350000Y-106220000D01*
X80327470Y-106220000D01*
X80415009Y-106660086D01*
X80664297Y-107033173D01*
X81037384Y-107282461D01*
X81477470Y-107370000D01*
X81522530Y-107370000D01*
X81962616Y-107282461D01*
X82335703Y-107033173D01*
X82584991Y-106660086D01*
X82672530Y-106220000D01*
X82584991Y-105779914D01*
X82335703Y-105406827D01*
X81962616Y-105157539D01*
X81522530Y-105070000D01*
X81477470Y-105070000D01*
X81037384Y-105157539D01*
X80664297Y-105406827D01*
X80415009Y-105779914D01*
X80327470Y-106220000D01*
X71350000Y-106220000D01*
X71350000Y-103680000D01*
X80327470Y-103680000D01*
X80415009Y-104120086D01*
X80664297Y-104493173D01*
X81037384Y-104742461D01*
X81477470Y-104830000D01*
X81522530Y-104830000D01*
X81962616Y-104742461D01*
X82335703Y-104493173D01*
X82584991Y-104120086D01*
X82672530Y-103680000D01*
X82584991Y-103239914D01*
X82335703Y-102866827D01*
X81962616Y-102617539D01*
X81522530Y-102530000D01*
X81477470Y-102530000D01*
X81037384Y-102617539D01*
X80664297Y-102866827D01*
X80415009Y-103239914D01*
X80327470Y-103680000D01*
X71350000Y-103680000D01*
X71350000Y-101140000D01*
X80327470Y-101140000D01*
X80415009Y-101580086D01*
X80664297Y-101953173D01*
X81037384Y-102202461D01*
X81477470Y-102290000D01*
X81522530Y-102290000D01*
X81962616Y-102202461D01*
X82335703Y-101953173D01*
X82584991Y-101580086D01*
X82672530Y-101140000D01*
X82584991Y-100699914D01*
X82335703Y-100326827D01*
X81962616Y-100077539D01*
X81522530Y-99990000D01*
X81477470Y-99990000D01*
X81037384Y-100077539D01*
X80664297Y-100326827D01*
X80415009Y-100699914D01*
X80327470Y-101140000D01*
X71350000Y-101140000D01*
X71350000Y-98600000D01*
X80327470Y-98600000D01*
X80415009Y-99040086D01*
X80664297Y-99413173D01*
X81037384Y-99662461D01*
X81477470Y-99750000D01*
X81522530Y-99750000D01*
X81962616Y-99662461D01*
X82335703Y-99413173D01*
X82584991Y-99040086D01*
X82672530Y-98600000D01*
X82584991Y-98159914D01*
X82478141Y-98000000D01*
X94544123Y-98000000D01*
X94544123Y-99600000D01*
X94565042Y-99711173D01*
X94630745Y-99813279D01*
X94730997Y-99881778D01*
X94850000Y-99905877D01*
X96450000Y-99905877D01*
X96561173Y-99884958D01*
X96663279Y-99819255D01*
X96731778Y-99719003D01*
X96755877Y-99600000D01*
X96755877Y-99518824D01*
X110299896Y-99518824D01*
X110391048Y-99739429D01*
X110400000Y-99748397D01*
X110400000Y-106301339D01*
X110391641Y-106309683D01*
X110300104Y-106530129D01*
X110299896Y-106768824D01*
X110391048Y-106989429D01*
X110559683Y-107158359D01*
X110780129Y-107249896D01*
X111018824Y-107250104D01*
X111239429Y-107158952D01*
X111408359Y-106990317D01*
X111499896Y-106769871D01*
X111500104Y-106531176D01*
X111408952Y-106310571D01*
X111400000Y-106301603D01*
X111400000Y-99748661D01*
X111408359Y-99740317D01*
X111499896Y-99519871D01*
X111500104Y-99281176D01*
X111408952Y-99060571D01*
X111240317Y-98891641D01*
X111019871Y-98800104D01*
X110781176Y-98799896D01*
X110560571Y-98891048D01*
X110391641Y-99059683D01*
X110300104Y-99280129D01*
X110299896Y-99518824D01*
X96755877Y-99518824D01*
X96755877Y-98000000D01*
X96734958Y-97888827D01*
X96669255Y-97786721D01*
X96569003Y-97718222D01*
X96450000Y-97694123D01*
X94850000Y-97694123D01*
X94738827Y-97715042D01*
X94636721Y-97780745D01*
X94568222Y-97880997D01*
X94544123Y-98000000D01*
X82478141Y-98000000D01*
X82335703Y-97786827D01*
X81962616Y-97537539D01*
X81522530Y-97450000D01*
X81477470Y-97450000D01*
X81037384Y-97537539D01*
X80664297Y-97786827D01*
X80415009Y-98159914D01*
X80327470Y-98600000D01*
X71350000Y-98600000D01*
X71350000Y-96060000D01*
X80327470Y-96060000D01*
X80415009Y-96500086D01*
X80664297Y-96873173D01*
X81037384Y-97122461D01*
X81477470Y-97210000D01*
X81522530Y-97210000D01*
X81962616Y-97122461D01*
X82335703Y-96873173D01*
X82506307Y-96617844D01*
X88999810Y-96617844D01*
X89166922Y-97022286D01*
X89476087Y-97331991D01*
X89880237Y-97499808D01*
X90317844Y-97500190D01*
X90722286Y-97333078D01*
X90905938Y-97149746D01*
X95013093Y-97149746D01*
X95106395Y-97304254D01*
X95532086Y-97435838D01*
X95975729Y-97394501D01*
X96193605Y-97304254D01*
X96286907Y-97149746D01*
X95650000Y-96512839D01*
X95013093Y-97149746D01*
X90905938Y-97149746D01*
X91031991Y-97023913D01*
X91199808Y-96619763D01*
X91200190Y-96182156D01*
X91200162Y-96182086D01*
X94514162Y-96182086D01*
X94555499Y-96625729D01*
X94645746Y-96843605D01*
X94800254Y-96936907D01*
X95437161Y-96300000D01*
X95862839Y-96300000D01*
X96499746Y-96936907D01*
X96654254Y-96843605D01*
X96683266Y-96749746D01*
X113763093Y-96749746D01*
X113856395Y-96904254D01*
X114282086Y-97035838D01*
X114725729Y-96994501D01*
X114943605Y-96904254D01*
X115036907Y-96749746D01*
X114400000Y-96112839D01*
X113763093Y-96749746D01*
X96683266Y-96749746D01*
X96785838Y-96417914D01*
X96744501Y-95974271D01*
X96664896Y-95782086D01*
X113264162Y-95782086D01*
X113305499Y-96225729D01*
X113395746Y-96443605D01*
X113550254Y-96536907D01*
X114187161Y-95900000D01*
X114612839Y-95900000D01*
X115249746Y-96536907D01*
X115404254Y-96443605D01*
X115535838Y-96017914D01*
X115494501Y-95574271D01*
X115404254Y-95356395D01*
X115249746Y-95263093D01*
X114612839Y-95900000D01*
X114187161Y-95900000D01*
X113550254Y-95263093D01*
X113395746Y-95356395D01*
X113264162Y-95782086D01*
X96664896Y-95782086D01*
X96654254Y-95756395D01*
X96499746Y-95663093D01*
X95862839Y-96300000D01*
X95437161Y-96300000D01*
X94800254Y-95663093D01*
X94645746Y-95756395D01*
X94514162Y-96182086D01*
X91200162Y-96182086D01*
X91033078Y-95777714D01*
X90723913Y-95468009D01*
X90681155Y-95450254D01*
X95013093Y-95450254D01*
X95650000Y-96087161D01*
X96286907Y-95450254D01*
X96193605Y-95295746D01*
X95767914Y-95164162D01*
X95324271Y-95205499D01*
X95106395Y-95295746D01*
X95013093Y-95450254D01*
X90681155Y-95450254D01*
X90319763Y-95300192D01*
X89882156Y-95299810D01*
X89477714Y-95466922D01*
X89168009Y-95776087D01*
X89000192Y-96180237D01*
X88999810Y-96617844D01*
X82506307Y-96617844D01*
X82584991Y-96500086D01*
X82672530Y-96060000D01*
X82584991Y-95619914D01*
X82335703Y-95246827D01*
X82041510Y-95050254D01*
X113763093Y-95050254D01*
X114400000Y-95687161D01*
X115036907Y-95050254D01*
X114943605Y-94895746D01*
X114517914Y-94764162D01*
X114074271Y-94805499D01*
X113856395Y-94895746D01*
X113763093Y-95050254D01*
X82041510Y-95050254D01*
X81962616Y-94997539D01*
X81522530Y-94910000D01*
X81477470Y-94910000D01*
X81037384Y-94997539D01*
X80664297Y-95246827D01*
X80415009Y-95619914D01*
X80327470Y-96060000D01*
X71350000Y-96060000D01*
X71350000Y-93520000D01*
X80327470Y-93520000D01*
X80415009Y-93960086D01*
X80664297Y-94333173D01*
X81037384Y-94582461D01*
X81477470Y-94670000D01*
X81522530Y-94670000D01*
X81962616Y-94582461D01*
X82335703Y-94333173D01*
X82584991Y-93960086D01*
X82672530Y-93520000D01*
X82584991Y-93079914D01*
X82335703Y-92706827D01*
X81962616Y-92457539D01*
X81522530Y-92370000D01*
X81477470Y-92370000D01*
X81037384Y-92457539D01*
X80664297Y-92706827D01*
X80415009Y-93079914D01*
X80327470Y-93520000D01*
X71350000Y-93520000D01*
X71350000Y-90980000D01*
X80327470Y-90980000D01*
X80415009Y-91420086D01*
X80664297Y-91793173D01*
X81037384Y-92042461D01*
X81477470Y-92130000D01*
X81522530Y-92130000D01*
X81962616Y-92042461D01*
X82335703Y-91793173D01*
X82584991Y-91420086D01*
X82672530Y-90980000D01*
X82584991Y-90539914D01*
X82335703Y-90166827D01*
X81962616Y-89917539D01*
X81522530Y-89830000D01*
X81477470Y-89830000D01*
X81037384Y-89917539D01*
X80664297Y-90166827D01*
X80415009Y-90539914D01*
X80327470Y-90980000D01*
X71350000Y-90980000D01*
X71350000Y-88440000D01*
X80327470Y-88440000D01*
X80415009Y-88880086D01*
X80664297Y-89253173D01*
X81037384Y-89502461D01*
X81477470Y-89590000D01*
X81522530Y-89590000D01*
X81962616Y-89502461D01*
X82335703Y-89253173D01*
X82584991Y-88880086D01*
X82672530Y-88440000D01*
X82584991Y-87999914D01*
X82335703Y-87626827D01*
X81962616Y-87377539D01*
X81522530Y-87290000D01*
X81477470Y-87290000D01*
X81037384Y-87377539D01*
X80664297Y-87626827D01*
X80415009Y-87999914D01*
X80327470Y-88440000D01*
X71350000Y-88440000D01*
X71350000Y-85900000D01*
X80327470Y-85900000D01*
X80415009Y-86340086D01*
X80664297Y-86713173D01*
X81037384Y-86962461D01*
X81477470Y-87050000D01*
X81522530Y-87050000D01*
X81962616Y-86962461D01*
X82335703Y-86713173D01*
X82584991Y-86340086D01*
X82609186Y-86218450D01*
X89000000Y-86218450D01*
X89000000Y-86261550D01*
X89083733Y-86682502D01*
X89322183Y-87039367D01*
X89679048Y-87277817D01*
X90100000Y-87361550D01*
X90520952Y-87277817D01*
X90877817Y-87039367D01*
X91116267Y-86682502D01*
X91200000Y-86261550D01*
X91200000Y-86218450D01*
X91140401Y-85918824D01*
X93799896Y-85918824D01*
X93891048Y-86139429D01*
X94059683Y-86308359D01*
X94280129Y-86399896D01*
X94518824Y-86400104D01*
X94739429Y-86308952D01*
X94823528Y-86225000D01*
X95923960Y-86225000D01*
X97855297Y-88156338D01*
X97719871Y-88100104D01*
X97481176Y-88099896D01*
X97260571Y-88191048D01*
X97091641Y-88359683D01*
X97000104Y-88580129D01*
X96999896Y-88818824D01*
X97091048Y-89039429D01*
X97259683Y-89208359D01*
X97480129Y-89299896D01*
X97598959Y-89300000D01*
X99673959Y-91375000D01*
X98850000Y-91375000D01*
X98687360Y-91407351D01*
X98687358Y-91407352D01*
X98687359Y-91407352D01*
X98549479Y-91499480D01*
X97248811Y-92800149D01*
X97240317Y-92791641D01*
X97019871Y-92700104D01*
X96781176Y-92699896D01*
X96560571Y-92791048D01*
X96391641Y-92959683D01*
X96300104Y-93180129D01*
X96299896Y-93418824D01*
X96391048Y-93639429D01*
X96559683Y-93808359D01*
X96780129Y-93899896D01*
X97018824Y-93900104D01*
X97239429Y-93808952D01*
X97323528Y-93725000D01*
X97350000Y-93725000D01*
X97485657Y-93698016D01*
X97512641Y-93692649D01*
X97650520Y-93600520D01*
X98651040Y-92600000D01*
X113294123Y-92600000D01*
X113294123Y-94200000D01*
X113315042Y-94311173D01*
X113380745Y-94413279D01*
X113480997Y-94481778D01*
X113600000Y-94505877D01*
X115200000Y-94505877D01*
X115311173Y-94484958D01*
X115413279Y-94419255D01*
X115481778Y-94319003D01*
X115505877Y-94200000D01*
X115505877Y-93718824D01*
X128199896Y-93718824D01*
X128291048Y-93939429D01*
X128459683Y-94108359D01*
X128680129Y-94199896D01*
X128918824Y-94200104D01*
X129139429Y-94108952D01*
X129148397Y-94100000D01*
X133551339Y-94100000D01*
X133559683Y-94108359D01*
X133780129Y-94199896D01*
X134018824Y-94200104D01*
X134239429Y-94108952D01*
X134408359Y-93940317D01*
X134499896Y-93719871D01*
X134500104Y-93481176D01*
X134408952Y-93260571D01*
X134240317Y-93091641D01*
X134019871Y-93000104D01*
X133781176Y-92999896D01*
X133560571Y-93091048D01*
X133551603Y-93100000D01*
X129148661Y-93100000D01*
X129140317Y-93091641D01*
X128919871Y-93000104D01*
X128681176Y-92999896D01*
X128460571Y-93091048D01*
X128291641Y-93259683D01*
X128200104Y-93480129D01*
X128199896Y-93718824D01*
X115505877Y-93718824D01*
X115505877Y-92600000D01*
X115484958Y-92488827D01*
X115419255Y-92386721D01*
X115319003Y-92318222D01*
X115200000Y-92294123D01*
X113600000Y-92294123D01*
X113488827Y-92315042D01*
X113386721Y-92380745D01*
X113318222Y-92480997D01*
X113294123Y-92600000D01*
X98651040Y-92600000D01*
X99026041Y-92225000D01*
X141073960Y-92225000D01*
X141349479Y-92500520D01*
X141407711Y-92539429D01*
X141487360Y-92592649D01*
X141650000Y-92625000D01*
X143076470Y-92625000D01*
X143159683Y-92708359D01*
X143380129Y-92799896D01*
X143618824Y-92800104D01*
X143839429Y-92708952D01*
X144008359Y-92540317D01*
X144099896Y-92319871D01*
X144100104Y-92081176D01*
X144008952Y-91860571D01*
X143840317Y-91691641D01*
X143619871Y-91600104D01*
X143381176Y-91599896D01*
X143160571Y-91691048D01*
X143076472Y-91775000D01*
X141826041Y-91775000D01*
X141576040Y-91525000D01*
X142376470Y-91525000D01*
X142459683Y-91608359D01*
X142680129Y-91699896D01*
X142918824Y-91700104D01*
X143139429Y-91608952D01*
X143308359Y-91440317D01*
X143399896Y-91219871D01*
X143400104Y-90981176D01*
X143308952Y-90760571D01*
X143140317Y-90591641D01*
X142919871Y-90500104D01*
X142681176Y-90499896D01*
X142460571Y-90591048D01*
X142376472Y-90675000D01*
X142126040Y-90675000D01*
X142701039Y-90100001D01*
X142818824Y-90100104D01*
X143039429Y-90008952D01*
X143208359Y-89840317D01*
X143299896Y-89619871D01*
X143300104Y-89381176D01*
X143208952Y-89160571D01*
X143040317Y-88991641D01*
X142819871Y-88900104D01*
X142581176Y-88899896D01*
X142360571Y-88991048D01*
X142191641Y-89159683D01*
X142100104Y-89380129D01*
X142100000Y-89498959D01*
X141598960Y-90000000D01*
X114666712Y-90000000D01*
X114725729Y-89994501D01*
X114943605Y-89904254D01*
X115036907Y-89749746D01*
X114400000Y-89112839D01*
X113763093Y-89749746D01*
X113856395Y-89904254D01*
X114166146Y-90000000D01*
X100901041Y-90000000D01*
X99683127Y-88782086D01*
X113264162Y-88782086D01*
X113305499Y-89225729D01*
X113395746Y-89443605D01*
X113550254Y-89536907D01*
X114187161Y-88900000D01*
X114612839Y-88900000D01*
X115249746Y-89536907D01*
X115404254Y-89443605D01*
X115535838Y-89017914D01*
X115494501Y-88574271D01*
X115404254Y-88356395D01*
X115249746Y-88263093D01*
X114612839Y-88900000D01*
X114187161Y-88900000D01*
X113550254Y-88263093D01*
X113395746Y-88356395D01*
X113264162Y-88782086D01*
X99683127Y-88782086D01*
X98951295Y-88050254D01*
X113763093Y-88050254D01*
X114400000Y-88687161D01*
X115036907Y-88050254D01*
X114943605Y-87895746D01*
X114517914Y-87764162D01*
X114074271Y-87805499D01*
X113856395Y-87895746D01*
X113763093Y-88050254D01*
X98951295Y-88050254D01*
X96501041Y-85600000D01*
X113294123Y-85600000D01*
X113294123Y-87200000D01*
X113315042Y-87311173D01*
X113380745Y-87413279D01*
X113480997Y-87481778D01*
X113600000Y-87505877D01*
X115200000Y-87505877D01*
X115311173Y-87484958D01*
X115413279Y-87419255D01*
X115481778Y-87319003D01*
X115505877Y-87200000D01*
X115505877Y-85600000D01*
X115484958Y-85488827D01*
X115419255Y-85386721D01*
X115319003Y-85318222D01*
X115200000Y-85294123D01*
X113600000Y-85294123D01*
X113488827Y-85315042D01*
X113386721Y-85380745D01*
X113318222Y-85480997D01*
X113294123Y-85600000D01*
X96501041Y-85600000D01*
X96400520Y-85499480D01*
X96262641Y-85407351D01*
X96235657Y-85401984D01*
X96100000Y-85375000D01*
X94823530Y-85375000D01*
X94740317Y-85291641D01*
X94519871Y-85200104D01*
X94281176Y-85199896D01*
X94060571Y-85291048D01*
X93891641Y-85459683D01*
X93800104Y-85680129D01*
X93799896Y-85918824D01*
X91140401Y-85918824D01*
X91116267Y-85797498D01*
X90877817Y-85440633D01*
X90520952Y-85202183D01*
X90100000Y-85118450D01*
X89679048Y-85202183D01*
X89322183Y-85440633D01*
X89083733Y-85797498D01*
X89000000Y-86218450D01*
X82609186Y-86218450D01*
X82672530Y-85900000D01*
X82584991Y-85459914D01*
X82335703Y-85086827D01*
X81962616Y-84837539D01*
X81522530Y-84750000D01*
X81477470Y-84750000D01*
X81037384Y-84837539D01*
X80664297Y-85086827D01*
X80415009Y-85459914D01*
X80327470Y-85900000D01*
X71350000Y-85900000D01*
X71350000Y-83690155D01*
X80377548Y-83690155D01*
X80472841Y-83920247D01*
X80765426Y-84270678D01*
X81169843Y-84482466D01*
X81349500Y-84440295D01*
X81349500Y-83510500D01*
X81650500Y-83510500D01*
X81650500Y-84440295D01*
X81830157Y-84482466D01*
X82234574Y-84270678D01*
X82352242Y-84129746D01*
X90803093Y-84129746D01*
X90896395Y-84284254D01*
X91322086Y-84415838D01*
X91765729Y-84374501D01*
X91983605Y-84284254D01*
X92076907Y-84129746D01*
X91440000Y-83492839D01*
X90803093Y-84129746D01*
X82352242Y-84129746D01*
X82527159Y-83920247D01*
X82622452Y-83690155D01*
X82579560Y-83510500D01*
X81650500Y-83510500D01*
X81349500Y-83510500D01*
X80420440Y-83510500D01*
X80377548Y-83690155D01*
X71350000Y-83690155D01*
X71350000Y-83029845D01*
X80377548Y-83029845D01*
X80420440Y-83209500D01*
X81349500Y-83209500D01*
X81349500Y-82279705D01*
X81650500Y-82279705D01*
X81650500Y-83209500D01*
X82579560Y-83209500D01*
X82590879Y-83162086D01*
X90304162Y-83162086D01*
X90345499Y-83605729D01*
X90435746Y-83823605D01*
X90590254Y-83916907D01*
X91227161Y-83280000D01*
X91652839Y-83280000D01*
X92289746Y-83916907D01*
X92444254Y-83823605D01*
X92575838Y-83397914D01*
X92574957Y-83388450D01*
X105600000Y-83388450D01*
X105600000Y-83431550D01*
X105683733Y-83852502D01*
X105922183Y-84209367D01*
X106279048Y-84447817D01*
X106700000Y-84531550D01*
X107120952Y-84447817D01*
X107477817Y-84209367D01*
X107716267Y-83852502D01*
X107800000Y-83431550D01*
X107800000Y-83388450D01*
X107716267Y-82967498D01*
X107477817Y-82610633D01*
X107120952Y-82372183D01*
X106700000Y-82288450D01*
X106279048Y-82372183D01*
X105922183Y-82610633D01*
X105683733Y-82967498D01*
X105600000Y-83388450D01*
X92574957Y-83388450D01*
X92534501Y-82954271D01*
X92444254Y-82736395D01*
X92289746Y-82643093D01*
X91652839Y-83280000D01*
X91227161Y-83280000D01*
X90590254Y-82643093D01*
X90435746Y-82736395D01*
X90304162Y-83162086D01*
X82590879Y-83162086D01*
X82622452Y-83029845D01*
X82527159Y-82799753D01*
X82234574Y-82449322D01*
X81830157Y-82237534D01*
X81650500Y-82279705D01*
X81349500Y-82279705D01*
X81169843Y-82237534D01*
X80765426Y-82449322D01*
X80472841Y-82799753D01*
X80377548Y-83029845D01*
X71350000Y-83029845D01*
X71350000Y-80820000D01*
X80327470Y-80820000D01*
X80415009Y-81260086D01*
X80664297Y-81633173D01*
X81037384Y-81882461D01*
X81477470Y-81970000D01*
X81522530Y-81970000D01*
X81962616Y-81882461D01*
X82335703Y-81633173D01*
X82584991Y-81260086D01*
X82672530Y-80820000D01*
X82604900Y-80480000D01*
X90334123Y-80480000D01*
X90334123Y-82080000D01*
X90355042Y-82191173D01*
X90420745Y-82293279D01*
X90520997Y-82361778D01*
X90640000Y-82385877D01*
X90829891Y-82385877D01*
X90803093Y-82430254D01*
X91440000Y-83067161D01*
X92076907Y-82430254D01*
X92050109Y-82385877D01*
X92240000Y-82385877D01*
X92351173Y-82364958D01*
X92453279Y-82299255D01*
X92521778Y-82199003D01*
X92545877Y-82080000D01*
X92545877Y-80480000D01*
X92524958Y-80368827D01*
X92459255Y-80266721D01*
X92359003Y-80198222D01*
X92240000Y-80174123D01*
X90640000Y-80174123D01*
X90528827Y-80195042D01*
X90426721Y-80260745D01*
X90358222Y-80360997D01*
X90334123Y-80480000D01*
X82604900Y-80480000D01*
X82584991Y-80379914D01*
X82335703Y-80006827D01*
X81962616Y-79757539D01*
X81522530Y-79670000D01*
X81477470Y-79670000D01*
X81037384Y-79757539D01*
X80664297Y-80006827D01*
X80415009Y-80379914D01*
X80327470Y-80820000D01*
X71350000Y-80820000D01*
X71350000Y-78280000D01*
X80327470Y-78280000D01*
X80415009Y-78720086D01*
X80664297Y-79093173D01*
X81037384Y-79342461D01*
X81477470Y-79430000D01*
X81522530Y-79430000D01*
X81962616Y-79342461D01*
X82335703Y-79093173D01*
X82584991Y-78720086D01*
X82672530Y-78280000D01*
X82584991Y-77839914D01*
X82504750Y-77719824D01*
X85789808Y-77719824D01*
X85958439Y-78127943D01*
X86270415Y-78440463D01*
X86678239Y-78609807D01*
X87119824Y-78610192D01*
X87527943Y-78441561D01*
X87840463Y-78129585D01*
X88009807Y-77721761D01*
X88010192Y-77280176D01*
X87841561Y-76872057D01*
X87529585Y-76559537D01*
X87121761Y-76390193D01*
X86680176Y-76389808D01*
X86272057Y-76558439D01*
X85959537Y-76870415D01*
X85790193Y-77278239D01*
X85789808Y-77719824D01*
X82504750Y-77719824D01*
X82335703Y-77466827D01*
X81962616Y-77217539D01*
X81522530Y-77130000D01*
X81477470Y-77130000D01*
X81037384Y-77217539D01*
X80664297Y-77466827D01*
X80415009Y-77839914D01*
X80327470Y-78280000D01*
X71350000Y-78280000D01*
X71350000Y-75740000D01*
X80327470Y-75740000D01*
X80415009Y-76180086D01*
X80664297Y-76553173D01*
X81037384Y-76802461D01*
X81477470Y-76890000D01*
X81522530Y-76890000D01*
X81962616Y-76802461D01*
X82335703Y-76553173D01*
X82584991Y-76180086D01*
X82672530Y-75740000D01*
X82584991Y-75299914D01*
X82335703Y-74926827D01*
X81962616Y-74677539D01*
X81522530Y-74590000D01*
X81477470Y-74590000D01*
X81037384Y-74677539D01*
X80664297Y-74926827D01*
X80415009Y-75299914D01*
X80327470Y-75740000D01*
X71350000Y-75740000D01*
X71350000Y-73430500D01*
X80330000Y-73430500D01*
X80330000Y-74113652D01*
X80378717Y-74231265D01*
X80468735Y-74321283D01*
X80586348Y-74370000D01*
X81269500Y-74370000D01*
X81349500Y-74290000D01*
X81349500Y-73350500D01*
X81650500Y-73350500D01*
X81650500Y-74290000D01*
X81730500Y-74370000D01*
X82413652Y-74370000D01*
X82531265Y-74321283D01*
X82621283Y-74231265D01*
X82670000Y-74113652D01*
X82670000Y-73430500D01*
X82590000Y-73350500D01*
X81650500Y-73350500D01*
X81349500Y-73350500D01*
X80410000Y-73350500D01*
X80330000Y-73430500D01*
X71350000Y-73430500D01*
X71350000Y-72286348D01*
X80330000Y-72286348D01*
X80330000Y-72969500D01*
X80410000Y-73049500D01*
X81349500Y-73049500D01*
X81349500Y-72110000D01*
X81650500Y-72110000D01*
X81650500Y-73049500D01*
X82590000Y-73049500D01*
X82670000Y-72969500D01*
X82670000Y-72719824D01*
X83289808Y-72719824D01*
X83458439Y-73127943D01*
X83770415Y-73440463D01*
X84178239Y-73609807D01*
X84619824Y-73610192D01*
X85027943Y-73441561D01*
X85112622Y-73357029D01*
X88755810Y-73357029D01*
X88850350Y-73512574D01*
X89279686Y-73645838D01*
X89727337Y-73604658D01*
X89949650Y-73512574D01*
X89976836Y-73467844D01*
X105599810Y-73467844D01*
X105766922Y-73872286D01*
X106076087Y-74181991D01*
X106480237Y-74349808D01*
X106917844Y-74350190D01*
X107322286Y-74183078D01*
X107631991Y-73873913D01*
X107799808Y-73469763D01*
X107800190Y-73032156D01*
X107633078Y-72627714D01*
X107323913Y-72318009D01*
X106919763Y-72150192D01*
X106482156Y-72149810D01*
X106077714Y-72316922D01*
X105768009Y-72626087D01*
X105600192Y-73030237D01*
X105599810Y-73467844D01*
X89976836Y-73467844D01*
X90044190Y-73357029D01*
X89400000Y-72712839D01*
X88755810Y-73357029D01*
X85112622Y-73357029D01*
X85340463Y-73129585D01*
X85509807Y-72721761D01*
X85510105Y-72379686D01*
X88254162Y-72379686D01*
X88295342Y-72827337D01*
X88387426Y-73049650D01*
X88542971Y-73144190D01*
X89187161Y-72500000D01*
X89612839Y-72500000D01*
X90257029Y-73144190D01*
X90412574Y-73049650D01*
X90545838Y-72620314D01*
X90504658Y-72172663D01*
X90412574Y-71950350D01*
X90257029Y-71855810D01*
X89612839Y-72500000D01*
X89187161Y-72500000D01*
X88542971Y-71855810D01*
X88387426Y-71950350D01*
X88254162Y-72379686D01*
X85510105Y-72379686D01*
X85510192Y-72280176D01*
X85341561Y-71872057D01*
X85112874Y-71642971D01*
X88755810Y-71642971D01*
X89400000Y-72287161D01*
X90044190Y-71642971D01*
X89949650Y-71487426D01*
X89520314Y-71354162D01*
X89072663Y-71395342D01*
X88850350Y-71487426D01*
X88755810Y-71642971D01*
X85112874Y-71642971D01*
X85029585Y-71559537D01*
X84621761Y-71390193D01*
X84180176Y-71389808D01*
X83772057Y-71558439D01*
X83459537Y-71870415D01*
X83290193Y-72278239D01*
X83289808Y-72719824D01*
X82670000Y-72719824D01*
X82670000Y-72286348D01*
X82621283Y-72168735D01*
X82531265Y-72078717D01*
X82413652Y-72030000D01*
X81730500Y-72030000D01*
X81650500Y-72110000D01*
X81349500Y-72110000D01*
X81269500Y-72030000D01*
X80586348Y-72030000D01*
X80468735Y-72078717D01*
X80378717Y-72168735D01*
X80330000Y-72286348D01*
X71350000Y-72286348D01*
X71350000Y-68880500D01*
X72655000Y-68880500D01*
X72655000Y-69563652D01*
X72703717Y-69681265D01*
X72793735Y-69771283D01*
X72911348Y-69820000D01*
X73594500Y-69820000D01*
X73674500Y-69740000D01*
X73674500Y-68800500D01*
X73975500Y-68800500D01*
X73975500Y-69740000D01*
X74055500Y-69820000D01*
X74738652Y-69820000D01*
X74856265Y-69771283D01*
X74946283Y-69681265D01*
X74995000Y-69563652D01*
X74995000Y-68880500D01*
X74915000Y-68800500D01*
X73975500Y-68800500D01*
X73674500Y-68800500D01*
X72735000Y-68800500D01*
X72655000Y-68880500D01*
X71350000Y-68880500D01*
X71350000Y-67736348D01*
X72655000Y-67736348D01*
X72655000Y-68419500D01*
X72735000Y-68499500D01*
X73674500Y-68499500D01*
X73674500Y-67560000D01*
X73975500Y-67560000D01*
X73975500Y-68499500D01*
X74915000Y-68499500D01*
X74995000Y-68419500D01*
X74995000Y-67736348D01*
X74946283Y-67618735D01*
X74856265Y-67528717D01*
X74738652Y-67480000D01*
X74055500Y-67480000D01*
X73975500Y-67560000D01*
X73674500Y-67560000D01*
X73594500Y-67480000D01*
X72911348Y-67480000D01*
X72793735Y-67528717D01*
X72703717Y-67618735D01*
X72655000Y-67736348D01*
X71350000Y-67736348D01*
X71350000Y-66110000D01*
X72652470Y-66110000D01*
X72740009Y-66550086D01*
X72989297Y-66923173D01*
X73362384Y-67172461D01*
X73802470Y-67260000D01*
X73847530Y-67260000D01*
X74287616Y-67172461D01*
X74660703Y-66923173D01*
X74909991Y-66550086D01*
X74997530Y-66110000D01*
X74909991Y-65669914D01*
X74660703Y-65296827D01*
X74287616Y-65047539D01*
X73847530Y-64960000D01*
X73802470Y-64960000D01*
X73362384Y-65047539D01*
X72989297Y-65296827D01*
X72740009Y-65669914D01*
X72652470Y-66110000D01*
X71350000Y-66110000D01*
X71350000Y-63900155D01*
X72702548Y-63900155D01*
X72797841Y-64130247D01*
X73090426Y-64480678D01*
X73494843Y-64692466D01*
X73674500Y-64650295D01*
X73674500Y-63720500D01*
X73975500Y-63720500D01*
X73975500Y-64650295D01*
X74155157Y-64692466D01*
X74559574Y-64480678D01*
X74852159Y-64130247D01*
X74947452Y-63900155D01*
X74904560Y-63720500D01*
X73975500Y-63720500D01*
X73674500Y-63720500D01*
X72745440Y-63720500D01*
X72702548Y-63900155D01*
X71350000Y-63900155D01*
X71350000Y-63239845D01*
X72702548Y-63239845D01*
X72745440Y-63419500D01*
X73674500Y-63419500D01*
X73674500Y-62489705D01*
X73975500Y-62489705D01*
X73975500Y-63419500D01*
X74904560Y-63419500D01*
X74947452Y-63239845D01*
X74852159Y-63009753D01*
X74559574Y-62659322D01*
X74155157Y-62447534D01*
X73975500Y-62489705D01*
X73674500Y-62489705D01*
X73494843Y-62447534D01*
X73090426Y-62659322D01*
X72797841Y-63009753D01*
X72702548Y-63239845D01*
X71350000Y-63239845D01*
X71350000Y-60818824D01*
X95599896Y-60818824D01*
X95691048Y-61039429D01*
X95700000Y-61048397D01*
X95700000Y-63651339D01*
X95691641Y-63659683D01*
X95600104Y-63880129D01*
X95599896Y-64118824D01*
X95691048Y-64339429D01*
X95859683Y-64508359D01*
X96080129Y-64599896D01*
X96318824Y-64600104D01*
X96539429Y-64508952D01*
X96708359Y-64340317D01*
X96799896Y-64119871D01*
X96800104Y-63881176D01*
X96708952Y-63660571D01*
X96700000Y-63651603D01*
X96700000Y-61048661D01*
X96708359Y-61040317D01*
X96799896Y-60819871D01*
X96799896Y-60818824D01*
X117499896Y-60818824D01*
X117591048Y-61039429D01*
X117700000Y-61148572D01*
X117700000Y-72501339D01*
X117691641Y-72509683D01*
X117600104Y-72730129D01*
X117599896Y-72968824D01*
X117691048Y-73189429D01*
X117700000Y-73198397D01*
X117700000Y-79800000D01*
X117727734Y-79939429D01*
X117738060Y-79991342D01*
X117846447Y-80153553D01*
X119749906Y-82057013D01*
X119749896Y-82068824D01*
X119841048Y-82289429D01*
X120009683Y-82458359D01*
X120230129Y-82549896D01*
X120468824Y-82550104D01*
X120689429Y-82458952D01*
X120858359Y-82290317D01*
X120949896Y-82069871D01*
X120950104Y-81831176D01*
X120858952Y-81610571D01*
X120690317Y-81441641D01*
X120469871Y-81350104D01*
X120457200Y-81350093D01*
X119325931Y-80218824D01*
X127399896Y-80218824D01*
X127491048Y-80439429D01*
X127659683Y-80608359D01*
X127880129Y-80699896D01*
X128118824Y-80700104D01*
X128339429Y-80608952D01*
X128348397Y-80600000D01*
X130580924Y-80600000D01*
X130360571Y-80691048D01*
X130191641Y-80859683D01*
X130100104Y-81080129D01*
X130099896Y-81318824D01*
X130191048Y-81539429D01*
X130359683Y-81708359D01*
X130580129Y-81799896D01*
X130818824Y-81800104D01*
X131039429Y-81708952D01*
X131048397Y-81700000D01*
X132092894Y-81700000D01*
X134099906Y-83707013D01*
X134099896Y-83718824D01*
X134191048Y-83939429D01*
X134359683Y-84108359D01*
X134580129Y-84199896D01*
X134818824Y-84200104D01*
X135039429Y-84108952D01*
X135208359Y-83940317D01*
X135299896Y-83719871D01*
X135300104Y-83481176D01*
X135208952Y-83260571D01*
X135040317Y-83091641D01*
X134819871Y-83000104D01*
X134807200Y-83000093D01*
X132653553Y-80846447D01*
X132491342Y-80738060D01*
X132300000Y-80700000D01*
X131048661Y-80700000D01*
X131040317Y-80691641D01*
X130819871Y-80600104D01*
X130700523Y-80600000D01*
X132892894Y-80600000D01*
X140599906Y-88307012D01*
X140599896Y-88318824D01*
X140691048Y-88539429D01*
X140859683Y-88708359D01*
X141080129Y-88799896D01*
X141318824Y-88800104D01*
X141539429Y-88708952D01*
X141708359Y-88540317D01*
X141799896Y-88319871D01*
X141800104Y-88081176D01*
X141708952Y-87860571D01*
X141540317Y-87691641D01*
X141319871Y-87600104D01*
X141307199Y-87600093D01*
X133453553Y-79746447D01*
X133291342Y-79638060D01*
X133100000Y-79600000D01*
X128348661Y-79600000D01*
X128340317Y-79591641D01*
X128119871Y-79500104D01*
X127881176Y-79499896D01*
X127660571Y-79591048D01*
X127491641Y-79759683D01*
X127400104Y-79980129D01*
X127399896Y-80218824D01*
X119325931Y-80218824D01*
X118700000Y-79592894D01*
X118700000Y-76368824D01*
X132749896Y-76368824D01*
X132841048Y-76589429D01*
X133009683Y-76758359D01*
X133230129Y-76849896D01*
X133242801Y-76849907D01*
X133792974Y-77400081D01*
X133581176Y-77399896D01*
X133360571Y-77491048D01*
X133191641Y-77659683D01*
X133100104Y-77880129D01*
X133099896Y-78118824D01*
X133191048Y-78339429D01*
X133359683Y-78508359D01*
X133580129Y-78599896D01*
X133592801Y-78599907D01*
X144500000Y-89507107D01*
X144500000Y-102942893D01*
X143692988Y-103749906D01*
X143681176Y-103749896D01*
X143460571Y-103841048D01*
X143291641Y-104009683D01*
X143200104Y-104230129D01*
X143199896Y-104468824D01*
X143291048Y-104689429D01*
X143459683Y-104858359D01*
X143680129Y-104949896D01*
X143918824Y-104950104D01*
X144139429Y-104858952D01*
X144308359Y-104690317D01*
X144399896Y-104469871D01*
X144399907Y-104457199D01*
X145353553Y-103503554D01*
X145461940Y-103341342D01*
X145482115Y-103239914D01*
X145500000Y-103150000D01*
X145500000Y-103592893D01*
X143892894Y-105200000D01*
X143148661Y-105200000D01*
X143140317Y-105191641D01*
X142919871Y-105100104D01*
X142681176Y-105099896D01*
X142460571Y-105191048D01*
X142291641Y-105359683D01*
X142200104Y-105580129D01*
X142199896Y-105818824D01*
X142291048Y-106039429D01*
X142459683Y-106208359D01*
X142680129Y-106299896D01*
X142918824Y-106300104D01*
X143139429Y-106208952D01*
X143148397Y-106200000D01*
X144100000Y-106200000D01*
X144291342Y-106161940D01*
X144453553Y-106053553D01*
X146353554Y-104153553D01*
X146400000Y-104084042D01*
X146400000Y-105401339D01*
X146391641Y-105409683D01*
X146300104Y-105630129D01*
X146299896Y-105868824D01*
X146391048Y-106089429D01*
X146559683Y-106258359D01*
X146780129Y-106349896D01*
X147018824Y-106350104D01*
X147239429Y-106258952D01*
X147408359Y-106090317D01*
X147499896Y-105869871D01*
X147500104Y-105631176D01*
X147408952Y-105410571D01*
X147400000Y-105401603D01*
X147400000Y-101148661D01*
X147408359Y-101140317D01*
X147499896Y-100919871D01*
X147499896Y-100918824D01*
X155199896Y-100918824D01*
X155291048Y-101139429D01*
X155459683Y-101308359D01*
X155680129Y-101399896D01*
X155918824Y-101400104D01*
X156139429Y-101308952D01*
X156148397Y-101300000D01*
X159400000Y-101300000D01*
X159591342Y-101261940D01*
X159753553Y-101153553D01*
X160753554Y-100153553D01*
X160856224Y-99999896D01*
X160861940Y-99991342D01*
X160900000Y-99800000D01*
X160900000Y-98448661D01*
X160908359Y-98440317D01*
X160999896Y-98219871D01*
X161000104Y-97981176D01*
X160908952Y-97760571D01*
X160740317Y-97591641D01*
X160519871Y-97500104D01*
X160281176Y-97499896D01*
X160060571Y-97591048D01*
X159891641Y-97759683D01*
X159800104Y-97980129D01*
X159799896Y-98218824D01*
X159891048Y-98439429D01*
X159900000Y-98448397D01*
X159900000Y-99592893D01*
X159192894Y-100300000D01*
X156148661Y-100300000D01*
X156140317Y-100291641D01*
X155919871Y-100200104D01*
X155681176Y-100199896D01*
X155460571Y-100291048D01*
X155291641Y-100459683D01*
X155200104Y-100680129D01*
X155199896Y-100918824D01*
X147499896Y-100918824D01*
X147500104Y-100681176D01*
X147408952Y-100460571D01*
X147240317Y-100291641D01*
X147019871Y-100200104D01*
X146781176Y-100199896D01*
X146560571Y-100291048D01*
X146500000Y-100351513D01*
X146500000Y-99518824D01*
X155399896Y-99518824D01*
X155491048Y-99739429D01*
X155659683Y-99908359D01*
X155880129Y-99999896D01*
X156118824Y-100000104D01*
X156339429Y-99908952D01*
X156348397Y-99900000D01*
X158651339Y-99900000D01*
X158659683Y-99908359D01*
X158880129Y-99999896D01*
X159118824Y-100000104D01*
X159339429Y-99908952D01*
X159508359Y-99740317D01*
X159599896Y-99519871D01*
X159600104Y-99281176D01*
X159508952Y-99060571D01*
X159340317Y-98891641D01*
X159119871Y-98800104D01*
X158881176Y-98799896D01*
X158660571Y-98891048D01*
X158651603Y-98900000D01*
X156348661Y-98900000D01*
X156340317Y-98891641D01*
X156119871Y-98800104D01*
X155881176Y-98799896D01*
X155660571Y-98891048D01*
X155491641Y-99059683D01*
X155400104Y-99280129D01*
X155399896Y-99518824D01*
X146500000Y-99518824D01*
X146500000Y-88900000D01*
X146461940Y-88708658D01*
X146353553Y-88546447D01*
X134853556Y-77046450D01*
X134853554Y-77046447D01*
X133950094Y-76142987D01*
X133950104Y-76131176D01*
X133858952Y-75910571D01*
X133690317Y-75741641D01*
X133469871Y-75650104D01*
X133231176Y-75649896D01*
X133010571Y-75741048D01*
X132841641Y-75909683D01*
X132750104Y-76130129D01*
X132749896Y-76368824D01*
X118700000Y-76368824D01*
X118700000Y-75618824D01*
X133999896Y-75618824D01*
X134091048Y-75839429D01*
X134259683Y-76008359D01*
X134480129Y-76099896D01*
X134492801Y-76099907D01*
X138099906Y-79707013D01*
X138099896Y-79718824D01*
X138191048Y-79939429D01*
X138359683Y-80108359D01*
X138580129Y-80199896D01*
X138818824Y-80200104D01*
X139039429Y-80108952D01*
X139208359Y-79940317D01*
X139266623Y-79800000D01*
X147494123Y-79800000D01*
X147494123Y-81600000D01*
X147515042Y-81711173D01*
X147580745Y-81813279D01*
X147680997Y-81881778D01*
X147800000Y-81905877D01*
X149600000Y-81905877D01*
X149700000Y-81887060D01*
X149700000Y-89200000D01*
X149719912Y-89300104D01*
X149738060Y-89391342D01*
X149846447Y-89553553D01*
X150999906Y-90707012D01*
X150999896Y-90718824D01*
X151091048Y-90939429D01*
X151259683Y-91108359D01*
X151480129Y-91199896D01*
X151718824Y-91200104D01*
X151939429Y-91108952D01*
X152108359Y-90940317D01*
X152199896Y-90719871D01*
X152200104Y-90481176D01*
X152108952Y-90260571D01*
X151940317Y-90091641D01*
X151719871Y-90000104D01*
X151707199Y-90000093D01*
X150700000Y-88992894D01*
X150700000Y-77119076D01*
X150791048Y-77339429D01*
X150959683Y-77508359D01*
X151180129Y-77599896D01*
X151192801Y-77599907D01*
X151546447Y-77953553D01*
X151708658Y-78061940D01*
X151900000Y-78100000D01*
X154851339Y-78100000D01*
X154859683Y-78108359D01*
X155080129Y-78199896D01*
X155318824Y-78200104D01*
X155539429Y-78108952D01*
X155708359Y-77940317D01*
X155799896Y-77719871D01*
X155800104Y-77481176D01*
X155708952Y-77260571D01*
X155540317Y-77091641D01*
X155319871Y-77000104D01*
X155081176Y-76999896D01*
X154860571Y-77091048D01*
X154851603Y-77100000D01*
X152107106Y-77100000D01*
X151900094Y-76892988D01*
X151900104Y-76881176D01*
X151808952Y-76660571D01*
X151640317Y-76491641D01*
X151419871Y-76400104D01*
X151181176Y-76399896D01*
X150960571Y-76491048D01*
X150791641Y-76659683D01*
X150700104Y-76880129D01*
X150700000Y-76999477D01*
X150700000Y-75418824D01*
X151999896Y-75418824D01*
X152091048Y-75639429D01*
X152259683Y-75808359D01*
X152480129Y-75899896D01*
X152515850Y-75899927D01*
X152543686Y-75918526D01*
X152608658Y-75961940D01*
X152800000Y-76000000D01*
X158651339Y-76000000D01*
X158659683Y-76008359D01*
X158880129Y-76099896D01*
X159118824Y-76100104D01*
X159339429Y-76008952D01*
X159508359Y-75840317D01*
X159599896Y-75619871D01*
X159600104Y-75381176D01*
X159508952Y-75160571D01*
X159340317Y-74991641D01*
X159119871Y-74900104D01*
X158881176Y-74899896D01*
X158660571Y-74991048D01*
X158651603Y-75000000D01*
X153125244Y-75000000D01*
X153108952Y-74960571D01*
X152940317Y-74791641D01*
X152719871Y-74700104D01*
X152481176Y-74699896D01*
X152260571Y-74791048D01*
X152091641Y-74959683D01*
X152000104Y-75180129D01*
X151999896Y-75418824D01*
X150700000Y-75418824D01*
X150700000Y-71250000D01*
X153544123Y-71250000D01*
X153544123Y-72950000D01*
X153565042Y-73061173D01*
X153630745Y-73163279D01*
X153730997Y-73231778D01*
X153850000Y-73255877D01*
X155550000Y-73255877D01*
X155661173Y-73234958D01*
X155763279Y-73169255D01*
X155831778Y-73069003D01*
X155855877Y-72950000D01*
X155855877Y-71250000D01*
X155834958Y-71138827D01*
X155769255Y-71036721D01*
X155669003Y-70968222D01*
X155550000Y-70944123D01*
X153850000Y-70944123D01*
X153738827Y-70965042D01*
X153636721Y-71030745D01*
X153568222Y-71130997D01*
X153544123Y-71250000D01*
X150700000Y-71250000D01*
X150700000Y-69560000D01*
X153527470Y-69560000D01*
X153615009Y-70000086D01*
X153864297Y-70373173D01*
X154237384Y-70622461D01*
X154677470Y-70710000D01*
X154722530Y-70710000D01*
X155162616Y-70622461D01*
X155535703Y-70373173D01*
X155784991Y-70000086D01*
X155872530Y-69560000D01*
X155784991Y-69119914D01*
X155535703Y-68746827D01*
X155162616Y-68497539D01*
X154722530Y-68410000D01*
X154677470Y-68410000D01*
X154237384Y-68497539D01*
X153864297Y-68746827D01*
X153615009Y-69119914D01*
X153527470Y-69560000D01*
X150700000Y-69560000D01*
X150700000Y-67020000D01*
X153527470Y-67020000D01*
X153615009Y-67460086D01*
X153864297Y-67833173D01*
X154237384Y-68082461D01*
X154677470Y-68170000D01*
X154722530Y-68170000D01*
X155162616Y-68082461D01*
X155535703Y-67833173D01*
X155784991Y-67460086D01*
X155872530Y-67020000D01*
X155784991Y-66579914D01*
X155535703Y-66206827D01*
X155162616Y-65957539D01*
X154722530Y-65870000D01*
X154677470Y-65870000D01*
X154237384Y-65957539D01*
X153864297Y-66206827D01*
X153615009Y-66579914D01*
X153527470Y-67020000D01*
X150700000Y-67020000D01*
X150700000Y-64480000D01*
X153527470Y-64480000D01*
X153615009Y-64920086D01*
X153864297Y-65293173D01*
X154237384Y-65542461D01*
X154677470Y-65630000D01*
X154722530Y-65630000D01*
X155162616Y-65542461D01*
X155535703Y-65293173D01*
X155784991Y-64920086D01*
X155872530Y-64480000D01*
X155784991Y-64039914D01*
X155535703Y-63666827D01*
X155162616Y-63417539D01*
X154722530Y-63330000D01*
X154677470Y-63330000D01*
X154237384Y-63417539D01*
X153864297Y-63666827D01*
X153615009Y-64039914D01*
X153527470Y-64480000D01*
X150700000Y-64480000D01*
X150700000Y-63507106D01*
X150807013Y-63400094D01*
X150818824Y-63400104D01*
X151039429Y-63308952D01*
X151208359Y-63140317D01*
X151299896Y-62919871D01*
X151300104Y-62681176D01*
X151208952Y-62460571D01*
X151040317Y-62291641D01*
X150819871Y-62200104D01*
X150581176Y-62199896D01*
X150360571Y-62291048D01*
X150191641Y-62459683D01*
X150100104Y-62680129D01*
X150100093Y-62692801D01*
X149846447Y-62946447D01*
X149738060Y-63108658D01*
X149700000Y-63300000D01*
X149700000Y-77463209D01*
X149380633Y-77143283D01*
X148939742Y-76960209D01*
X148462353Y-76959793D01*
X148021143Y-77142097D01*
X147683283Y-77479367D01*
X147500209Y-77920258D01*
X147499793Y-78397647D01*
X147682097Y-78838857D01*
X148019367Y-79176717D01*
X148460258Y-79359791D01*
X148937647Y-79360207D01*
X149378857Y-79177903D01*
X149700000Y-78857321D01*
X149700000Y-79514374D01*
X149600000Y-79494123D01*
X147800000Y-79494123D01*
X147688827Y-79515042D01*
X147586721Y-79580745D01*
X147518222Y-79680997D01*
X147494123Y-79800000D01*
X139266623Y-79800000D01*
X139299896Y-79719871D01*
X139300104Y-79481176D01*
X139208952Y-79260571D01*
X139040317Y-79091641D01*
X138819871Y-79000104D01*
X138807200Y-79000093D01*
X135200094Y-75392988D01*
X135200104Y-75381176D01*
X135108952Y-75160571D01*
X134940317Y-74991641D01*
X134719871Y-74900104D01*
X134481176Y-74899896D01*
X134260571Y-74991048D01*
X134091641Y-75159683D01*
X134000104Y-75380129D01*
X133999896Y-75618824D01*
X118700000Y-75618824D01*
X118700000Y-73198661D01*
X118708359Y-73190317D01*
X118799896Y-72969871D01*
X118800104Y-72731176D01*
X118708952Y-72510571D01*
X118700000Y-72501603D01*
X118700000Y-70618824D01*
X134199896Y-70618824D01*
X134291048Y-70839429D01*
X134300000Y-70848397D01*
X134300000Y-72450000D01*
X134333877Y-72620314D01*
X134338060Y-72641342D01*
X134446447Y-72803553D01*
X139249906Y-77607013D01*
X139249896Y-77618824D01*
X139341048Y-77839429D01*
X139509683Y-78008359D01*
X139730129Y-78099896D01*
X139968824Y-78100104D01*
X140189429Y-78008952D01*
X140358359Y-77840317D01*
X140449896Y-77619871D01*
X140450104Y-77381176D01*
X140358952Y-77160571D01*
X140190317Y-76991641D01*
X139969871Y-76900104D01*
X139957200Y-76900093D01*
X135300000Y-72242894D01*
X135300000Y-70848661D01*
X135308359Y-70840317D01*
X135399896Y-70619871D01*
X135400104Y-70381176D01*
X135308952Y-70160571D01*
X135140317Y-69991641D01*
X134919871Y-69900104D01*
X134681176Y-69899896D01*
X134460571Y-69991048D01*
X134291641Y-70159683D01*
X134200104Y-70380129D01*
X134199896Y-70618824D01*
X118700000Y-70618824D01*
X118700000Y-68542000D01*
X144690123Y-68542000D01*
X144690123Y-70142000D01*
X144711042Y-70253173D01*
X144776745Y-70355279D01*
X144876997Y-70423778D01*
X144996000Y-70447877D01*
X146596000Y-70447877D01*
X146707173Y-70426958D01*
X146809279Y-70361255D01*
X146877778Y-70261003D01*
X146901877Y-70142000D01*
X146901877Y-68542000D01*
X146880958Y-68430827D01*
X146815255Y-68328721D01*
X146715003Y-68260222D01*
X146596000Y-68236123D01*
X146457309Y-68236123D01*
X146727991Y-67965913D01*
X146895808Y-67561763D01*
X146896190Y-67124156D01*
X146729078Y-66719714D01*
X146419913Y-66410009D01*
X146015763Y-66242192D01*
X145578156Y-66241810D01*
X145173714Y-66408922D01*
X144864009Y-66718087D01*
X144696192Y-67122237D01*
X144695810Y-67559844D01*
X144862922Y-67964286D01*
X145134285Y-68236123D01*
X144996000Y-68236123D01*
X144884827Y-68257042D01*
X144782721Y-68322745D01*
X144714222Y-68422997D01*
X144690123Y-68542000D01*
X118700000Y-68542000D01*
X118700000Y-61218824D01*
X138499896Y-61218824D01*
X138591048Y-61439429D01*
X138759683Y-61608359D01*
X138980129Y-61699896D01*
X139218824Y-61700104D01*
X139439429Y-61608952D01*
X139485324Y-61563137D01*
X139491342Y-61561940D01*
X139653553Y-61453553D01*
X140188282Y-60918824D01*
X141399896Y-60918824D01*
X141491048Y-61139429D01*
X141659683Y-61308359D01*
X141880129Y-61399896D01*
X142118824Y-61400104D01*
X142339429Y-61308952D01*
X142348397Y-61300000D01*
X143492894Y-61300000D01*
X143799906Y-61607013D01*
X143799896Y-61618824D01*
X143891048Y-61839429D01*
X144059683Y-62008359D01*
X144280129Y-62099896D01*
X144518824Y-62100104D01*
X144739429Y-62008952D01*
X144908359Y-61840317D01*
X144999896Y-61619871D01*
X145000104Y-61381176D01*
X144908952Y-61160571D01*
X144740317Y-60991641D01*
X144519871Y-60900104D01*
X144507200Y-60900093D01*
X144053553Y-60446447D01*
X143891342Y-60338060D01*
X143700000Y-60300000D01*
X142348661Y-60300000D01*
X142340317Y-60291641D01*
X142119871Y-60200104D01*
X141881176Y-60199896D01*
X141660571Y-60291048D01*
X141491641Y-60459683D01*
X141400104Y-60680129D01*
X141399896Y-60918824D01*
X140188282Y-60918824D01*
X141107107Y-60000000D01*
X145751339Y-60000000D01*
X145759683Y-60008359D01*
X145980129Y-60099896D01*
X146218824Y-60100104D01*
X146439429Y-60008952D01*
X146608359Y-59840317D01*
X146699896Y-59619871D01*
X146700071Y-59418824D01*
X147099896Y-59418824D01*
X147191048Y-59639429D01*
X147200000Y-59648397D01*
X147200000Y-62551339D01*
X147191641Y-62559683D01*
X147100104Y-62780129D01*
X147099896Y-63018824D01*
X147191048Y-63239429D01*
X147359683Y-63408359D01*
X147580129Y-63499896D01*
X147818824Y-63500104D01*
X148039429Y-63408952D01*
X148208359Y-63240317D01*
X148299896Y-63019871D01*
X148300104Y-62781176D01*
X148208952Y-62560571D01*
X148200000Y-62551603D01*
X148200000Y-59648661D01*
X148208359Y-59640317D01*
X148299896Y-59419871D01*
X148300034Y-59260571D01*
X155952268Y-59260571D01*
X156284031Y-59617873D01*
X157416469Y-60075272D01*
X158637742Y-60064489D01*
X159715969Y-59617873D01*
X160047732Y-59260571D01*
X158000000Y-57212839D01*
X155952268Y-59260571D01*
X148300034Y-59260571D01*
X148300104Y-59181176D01*
X148208952Y-58960571D01*
X148040317Y-58791641D01*
X147819871Y-58700104D01*
X147581176Y-58699896D01*
X147360571Y-58791048D01*
X147191641Y-58959683D01*
X147100104Y-59180129D01*
X147099896Y-59418824D01*
X146700071Y-59418824D01*
X146700104Y-59381176D01*
X146608952Y-59160571D01*
X146440317Y-58991641D01*
X146219871Y-58900104D01*
X145981176Y-58899896D01*
X145760571Y-58991048D01*
X145751603Y-59000000D01*
X140900000Y-59000000D01*
X140708658Y-59038060D01*
X140643686Y-59081474D01*
X140546447Y-59146446D01*
X139192813Y-60500080D01*
X138981176Y-60499896D01*
X138760571Y-60591048D01*
X138591641Y-60759683D01*
X138500104Y-60980129D01*
X138499896Y-61218824D01*
X118700000Y-61218824D01*
X118700000Y-60800000D01*
X118699914Y-60799566D01*
X118700104Y-60581176D01*
X118608952Y-60360571D01*
X118440317Y-60191641D01*
X118219871Y-60100104D01*
X117981176Y-60099896D01*
X117760571Y-60191048D01*
X117591641Y-60359683D01*
X117500104Y-60580129D01*
X117499896Y-60818824D01*
X96799896Y-60818824D01*
X96800104Y-60581176D01*
X96708952Y-60360571D01*
X96540317Y-60191641D01*
X96319871Y-60100104D01*
X96081176Y-60099896D01*
X95860571Y-60191048D01*
X95691641Y-60359683D01*
X95600104Y-60580129D01*
X95599896Y-60818824D01*
X71350000Y-60818824D01*
X71350000Y-59260571D01*
X72952268Y-59260571D01*
X73284031Y-59617873D01*
X74416469Y-60075272D01*
X75637742Y-60064489D01*
X76715969Y-59617873D01*
X77047732Y-59260571D01*
X75000000Y-57212839D01*
X72952268Y-59260571D01*
X71350000Y-59260571D01*
X71350000Y-56416469D01*
X71924728Y-56416469D01*
X71935511Y-57637742D01*
X72382127Y-58715969D01*
X72739429Y-59047732D01*
X74787161Y-57000000D01*
X75212839Y-57000000D01*
X77260571Y-59047732D01*
X77617873Y-58715969D01*
X77737891Y-58418824D01*
X89099896Y-58418824D01*
X89191048Y-58639429D01*
X89359683Y-58808359D01*
X89580129Y-58899896D01*
X89818824Y-58900104D01*
X90039429Y-58808952D01*
X90048397Y-58800000D01*
X115251339Y-58800000D01*
X115259683Y-58808359D01*
X115480129Y-58899896D01*
X115718824Y-58900104D01*
X115939429Y-58808952D01*
X116108359Y-58640317D01*
X116199896Y-58419871D01*
X116200104Y-58181176D01*
X116108952Y-57960571D01*
X115940317Y-57791641D01*
X115719871Y-57700104D01*
X115481176Y-57699896D01*
X115260571Y-57791048D01*
X115251603Y-57800000D01*
X90048661Y-57800000D01*
X90040317Y-57791641D01*
X89819871Y-57700104D01*
X89581176Y-57699896D01*
X89360571Y-57791048D01*
X89191641Y-57959683D01*
X89100104Y-58180129D01*
X89099896Y-58418824D01*
X77737891Y-58418824D01*
X78075272Y-57583531D01*
X78068794Y-56849746D01*
X79663093Y-56849746D01*
X79756395Y-57004254D01*
X80182086Y-57135838D01*
X80625729Y-57094501D01*
X80843605Y-57004254D01*
X80936907Y-56849746D01*
X80300000Y-56212839D01*
X79663093Y-56849746D01*
X78068794Y-56849746D01*
X78064489Y-56362258D01*
X77865596Y-55882086D01*
X79164162Y-55882086D01*
X79205499Y-56325729D01*
X79295746Y-56543605D01*
X79450254Y-56636907D01*
X80087161Y-56000000D01*
X80512839Y-56000000D01*
X81149746Y-56636907D01*
X81194123Y-56610109D01*
X81194123Y-56800000D01*
X81215042Y-56911173D01*
X81280745Y-57013279D01*
X81380997Y-57081778D01*
X81500000Y-57105877D01*
X83100000Y-57105877D01*
X83211173Y-57084958D01*
X83313279Y-57019255D01*
X83381778Y-56919003D01*
X83405877Y-56800000D01*
X83405877Y-56117647D01*
X90239793Y-56117647D01*
X90422097Y-56558857D01*
X90759367Y-56896717D01*
X91200258Y-57079791D01*
X91677647Y-57080207D01*
X92118857Y-56897903D01*
X92456717Y-56560633D01*
X92516579Y-56416469D01*
X154924728Y-56416469D01*
X154935511Y-57637742D01*
X155382127Y-58715969D01*
X155739429Y-59047732D01*
X157787161Y-57000000D01*
X158212839Y-57000000D01*
X160260571Y-59047732D01*
X160617873Y-58715969D01*
X161075272Y-57583531D01*
X161064489Y-56362258D01*
X160617873Y-55284031D01*
X160260571Y-54952268D01*
X158212839Y-57000000D01*
X157787161Y-57000000D01*
X155739429Y-54952268D01*
X155382127Y-55284031D01*
X154924728Y-56416469D01*
X92516579Y-56416469D01*
X92639791Y-56119742D01*
X92640207Y-55642353D01*
X92457903Y-55201143D01*
X92197373Y-54940157D01*
X95397534Y-54940157D01*
X95609322Y-55344574D01*
X95959753Y-55637159D01*
X96189845Y-55732452D01*
X96369500Y-55689560D01*
X96369500Y-54760500D01*
X96670500Y-54760500D01*
X96670500Y-55689560D01*
X96850155Y-55732452D01*
X97080247Y-55637159D01*
X97430678Y-55344574D01*
X97642466Y-54940157D01*
X97600295Y-54760500D01*
X96670500Y-54760500D01*
X96369500Y-54760500D01*
X95439705Y-54760500D01*
X95397534Y-54940157D01*
X92197373Y-54940157D01*
X92120633Y-54863283D01*
X91679742Y-54680209D01*
X91202353Y-54679793D01*
X90761143Y-54862097D01*
X90423283Y-55199367D01*
X90240209Y-55640258D01*
X90239793Y-56117647D01*
X83405877Y-56117647D01*
X83405877Y-55200000D01*
X83384958Y-55088827D01*
X83319255Y-54986721D01*
X83219003Y-54918222D01*
X83100000Y-54894123D01*
X81500000Y-54894123D01*
X81388827Y-54915042D01*
X81286721Y-54980745D01*
X81218222Y-55080997D01*
X81194123Y-55200000D01*
X81194123Y-55389891D01*
X81149746Y-55363093D01*
X80512839Y-56000000D01*
X80087161Y-56000000D01*
X79450254Y-55363093D01*
X79295746Y-55456395D01*
X79164162Y-55882086D01*
X77865596Y-55882086D01*
X77617873Y-55284031D01*
X77473798Y-55150254D01*
X79663093Y-55150254D01*
X80300000Y-55787161D01*
X80936907Y-55150254D01*
X80843605Y-54995746D01*
X80417914Y-54864162D01*
X79974271Y-54905499D01*
X79756395Y-54995746D01*
X79663093Y-55150254D01*
X77473798Y-55150254D01*
X77260571Y-54952268D01*
X75212839Y-57000000D01*
X74787161Y-57000000D01*
X72739429Y-54952268D01*
X72382127Y-55284031D01*
X71924728Y-56416469D01*
X71350000Y-56416469D01*
X71350000Y-54739429D01*
X72952268Y-54739429D01*
X75000000Y-56787161D01*
X77047732Y-54739429D01*
X76715969Y-54382127D01*
X75583531Y-53924728D01*
X74362258Y-53935511D01*
X73284031Y-54382127D01*
X72952268Y-54739429D01*
X71350000Y-54739429D01*
X71350000Y-53570500D01*
X90220000Y-53570500D01*
X90220000Y-54303652D01*
X90268717Y-54421265D01*
X90358735Y-54511283D01*
X90476348Y-54560000D01*
X91209500Y-54560000D01*
X91289500Y-54480000D01*
X91289500Y-53490500D01*
X91590500Y-53490500D01*
X91590500Y-54480000D01*
X91670500Y-54560000D01*
X92403652Y-54560000D01*
X92521265Y-54511283D01*
X92611283Y-54421265D01*
X92660000Y-54303652D01*
X92660000Y-54279843D01*
X95397534Y-54279843D01*
X95439705Y-54459500D01*
X96369500Y-54459500D01*
X96369500Y-53530440D01*
X96670500Y-53530440D01*
X96670500Y-54459500D01*
X97600295Y-54459500D01*
X97642466Y-54279843D01*
X97430678Y-53875426D01*
X97292432Y-53760000D01*
X97904123Y-53760000D01*
X97904123Y-55460000D01*
X97925042Y-55571173D01*
X97990745Y-55673279D01*
X98090997Y-55741778D01*
X98210000Y-55765877D01*
X99910000Y-55765877D01*
X100021173Y-55744958D01*
X100123279Y-55679255D01*
X100191778Y-55579003D01*
X100215877Y-55460000D01*
X100215877Y-54940157D01*
X101747534Y-54940157D01*
X101959322Y-55344574D01*
X102309753Y-55637159D01*
X102539845Y-55732452D01*
X102719500Y-55689560D01*
X102719500Y-54760500D01*
X103020500Y-54760500D01*
X103020500Y-55689560D01*
X103200155Y-55732452D01*
X103430247Y-55637159D01*
X103780678Y-55344574D01*
X103992466Y-54940157D01*
X103950295Y-54760500D01*
X103020500Y-54760500D01*
X102719500Y-54760500D01*
X101789705Y-54760500D01*
X101747534Y-54940157D01*
X100215877Y-54940157D01*
X100215877Y-54279843D01*
X101747534Y-54279843D01*
X101789705Y-54459500D01*
X102719500Y-54459500D01*
X102719500Y-53530440D01*
X103020500Y-53530440D01*
X103020500Y-54459500D01*
X103950295Y-54459500D01*
X103992466Y-54279843D01*
X103780678Y-53875426D01*
X103642432Y-53760000D01*
X104254123Y-53760000D01*
X104254123Y-55460000D01*
X104275042Y-55571173D01*
X104340745Y-55673279D01*
X104440997Y-55741778D01*
X104560000Y-55765877D01*
X106260000Y-55765877D01*
X106371173Y-55744958D01*
X106473279Y-55679255D01*
X106541778Y-55579003D01*
X106565877Y-55460000D01*
X106565877Y-54940157D01*
X108097534Y-54940157D01*
X108309322Y-55344574D01*
X108659753Y-55637159D01*
X108889845Y-55732452D01*
X109069500Y-55689560D01*
X109069500Y-54760500D01*
X109370500Y-54760500D01*
X109370500Y-55689560D01*
X109550155Y-55732452D01*
X109780247Y-55637159D01*
X110130678Y-55344574D01*
X110342466Y-54940157D01*
X110300295Y-54760500D01*
X109370500Y-54760500D01*
X109069500Y-54760500D01*
X108139705Y-54760500D01*
X108097534Y-54940157D01*
X106565877Y-54940157D01*
X106565877Y-54587470D01*
X110610000Y-54587470D01*
X110610000Y-54632530D01*
X110697539Y-55072616D01*
X110946827Y-55445703D01*
X111319914Y-55694991D01*
X111760000Y-55782530D01*
X112200086Y-55694991D01*
X112573173Y-55445703D01*
X112822461Y-55072616D01*
X112910000Y-54632530D01*
X112910000Y-54587470D01*
X113150000Y-54587470D01*
X113150000Y-54632530D01*
X113237539Y-55072616D01*
X113486827Y-55445703D01*
X113859914Y-55694991D01*
X114300000Y-55782530D01*
X114740086Y-55694991D01*
X115113173Y-55445703D01*
X115362461Y-55072616D01*
X115450000Y-54632530D01*
X115450000Y-54587470D01*
X115362461Y-54147384D01*
X115113173Y-53774297D01*
X115091776Y-53760000D01*
X115684123Y-53760000D01*
X115684123Y-55460000D01*
X115705042Y-55571173D01*
X115770745Y-55673279D01*
X115870997Y-55741778D01*
X115990000Y-55765877D01*
X117690000Y-55765877D01*
X117801173Y-55744958D01*
X117903279Y-55679255D01*
X117971778Y-55579003D01*
X117995877Y-55460000D01*
X117995877Y-54940157D01*
X119527534Y-54940157D01*
X119739322Y-55344574D01*
X120089753Y-55637159D01*
X120319845Y-55732452D01*
X120499500Y-55689560D01*
X120499500Y-54760500D01*
X120800500Y-54760500D01*
X120800500Y-55689560D01*
X120980155Y-55732452D01*
X121210247Y-55637159D01*
X121560678Y-55344574D01*
X121772466Y-54940157D01*
X121730295Y-54760500D01*
X120800500Y-54760500D01*
X120499500Y-54760500D01*
X119569705Y-54760500D01*
X119527534Y-54940157D01*
X117995877Y-54940157D01*
X117995877Y-54279843D01*
X119527534Y-54279843D01*
X119569705Y-54459500D01*
X120499500Y-54459500D01*
X120499500Y-53530440D01*
X120800500Y-53530440D01*
X120800500Y-54459500D01*
X121730295Y-54459500D01*
X121772466Y-54279843D01*
X121560678Y-53875426D01*
X121422432Y-53760000D01*
X122034123Y-53760000D01*
X122034123Y-55460000D01*
X122055042Y-55571173D01*
X122120745Y-55673279D01*
X122220997Y-55741778D01*
X122340000Y-55765877D01*
X124040000Y-55765877D01*
X124151173Y-55744958D01*
X124253279Y-55679255D01*
X124321778Y-55579003D01*
X124345877Y-55460000D01*
X124345877Y-54940157D01*
X125877534Y-54940157D01*
X126089322Y-55344574D01*
X126439753Y-55637159D01*
X126669845Y-55732452D01*
X126849500Y-55689560D01*
X126849500Y-54760500D01*
X127150500Y-54760500D01*
X127150500Y-55689560D01*
X127330155Y-55732452D01*
X127560247Y-55637159D01*
X127910678Y-55344574D01*
X128122466Y-54940157D01*
X128080295Y-54760500D01*
X127150500Y-54760500D01*
X126849500Y-54760500D01*
X125919705Y-54760500D01*
X125877534Y-54940157D01*
X124345877Y-54940157D01*
X124345877Y-54279843D01*
X125877534Y-54279843D01*
X125919705Y-54459500D01*
X126849500Y-54459500D01*
X126849500Y-53530440D01*
X127150500Y-53530440D01*
X127150500Y-54459500D01*
X128080295Y-54459500D01*
X128122466Y-54279843D01*
X127910678Y-53875426D01*
X127772432Y-53760000D01*
X128384123Y-53760000D01*
X128384123Y-55460000D01*
X128405042Y-55571173D01*
X128470745Y-55673279D01*
X128570997Y-55741778D01*
X128690000Y-55765877D01*
X130390000Y-55765877D01*
X130501173Y-55744958D01*
X130603279Y-55679255D01*
X130671778Y-55579003D01*
X130695877Y-55460000D01*
X130695877Y-54739429D01*
X155952268Y-54739429D01*
X158000000Y-56787161D01*
X160047732Y-54739429D01*
X159715969Y-54382127D01*
X158583531Y-53924728D01*
X157362258Y-53935511D01*
X156284031Y-54382127D01*
X155952268Y-54739429D01*
X130695877Y-54739429D01*
X130695877Y-53760000D01*
X130674958Y-53648827D01*
X130609255Y-53546721D01*
X130509003Y-53478222D01*
X130390000Y-53454123D01*
X128690000Y-53454123D01*
X128578827Y-53475042D01*
X128476721Y-53540745D01*
X128408222Y-53640997D01*
X128384123Y-53760000D01*
X127772432Y-53760000D01*
X127560247Y-53582841D01*
X127330155Y-53487548D01*
X127150500Y-53530440D01*
X126849500Y-53530440D01*
X126669845Y-53487548D01*
X126439753Y-53582841D01*
X126089322Y-53875426D01*
X125877534Y-54279843D01*
X124345877Y-54279843D01*
X124345877Y-53760000D01*
X124324958Y-53648827D01*
X124259255Y-53546721D01*
X124159003Y-53478222D01*
X124040000Y-53454123D01*
X122340000Y-53454123D01*
X122228827Y-53475042D01*
X122126721Y-53540745D01*
X122058222Y-53640997D01*
X122034123Y-53760000D01*
X121422432Y-53760000D01*
X121210247Y-53582841D01*
X120980155Y-53487548D01*
X120800500Y-53530440D01*
X120499500Y-53530440D01*
X120319845Y-53487548D01*
X120089753Y-53582841D01*
X119739322Y-53875426D01*
X119527534Y-54279843D01*
X117995877Y-54279843D01*
X117995877Y-53760000D01*
X117974958Y-53648827D01*
X117909255Y-53546721D01*
X117809003Y-53478222D01*
X117690000Y-53454123D01*
X115990000Y-53454123D01*
X115878827Y-53475042D01*
X115776721Y-53540745D01*
X115708222Y-53640997D01*
X115684123Y-53760000D01*
X115091776Y-53760000D01*
X114740086Y-53525009D01*
X114300000Y-53437470D01*
X113859914Y-53525009D01*
X113486827Y-53774297D01*
X113237539Y-54147384D01*
X113150000Y-54587470D01*
X112910000Y-54587470D01*
X112822461Y-54147384D01*
X112573173Y-53774297D01*
X112200086Y-53525009D01*
X111760000Y-53437470D01*
X111319914Y-53525009D01*
X110946827Y-53774297D01*
X110697539Y-54147384D01*
X110610000Y-54587470D01*
X106565877Y-54587470D01*
X106565877Y-54279843D01*
X108097534Y-54279843D01*
X108139705Y-54459500D01*
X109069500Y-54459500D01*
X109069500Y-53530440D01*
X109370500Y-53530440D01*
X109370500Y-54459500D01*
X110300295Y-54459500D01*
X110342466Y-54279843D01*
X110130678Y-53875426D01*
X109780247Y-53582841D01*
X109550155Y-53487548D01*
X109370500Y-53530440D01*
X109069500Y-53530440D01*
X108889845Y-53487548D01*
X108659753Y-53582841D01*
X108309322Y-53875426D01*
X108097534Y-54279843D01*
X106565877Y-54279843D01*
X106565877Y-53760000D01*
X106544958Y-53648827D01*
X106479255Y-53546721D01*
X106379003Y-53478222D01*
X106260000Y-53454123D01*
X104560000Y-53454123D01*
X104448827Y-53475042D01*
X104346721Y-53540745D01*
X104278222Y-53640997D01*
X104254123Y-53760000D01*
X103642432Y-53760000D01*
X103430247Y-53582841D01*
X103200155Y-53487548D01*
X103020500Y-53530440D01*
X102719500Y-53530440D01*
X102539845Y-53487548D01*
X102309753Y-53582841D01*
X101959322Y-53875426D01*
X101747534Y-54279843D01*
X100215877Y-54279843D01*
X100215877Y-53760000D01*
X100194958Y-53648827D01*
X100129255Y-53546721D01*
X100029003Y-53478222D01*
X99910000Y-53454123D01*
X98210000Y-53454123D01*
X98098827Y-53475042D01*
X97996721Y-53540745D01*
X97928222Y-53640997D01*
X97904123Y-53760000D01*
X97292432Y-53760000D01*
X97080247Y-53582841D01*
X96850155Y-53487548D01*
X96670500Y-53530440D01*
X96369500Y-53530440D01*
X96189845Y-53487548D01*
X95959753Y-53582841D01*
X95609322Y-53875426D01*
X95397534Y-54279843D01*
X92660000Y-54279843D01*
X92660000Y-53570500D01*
X92580000Y-53490500D01*
X91590500Y-53490500D01*
X91289500Y-53490500D01*
X90300000Y-53490500D01*
X90220000Y-53570500D01*
X71350000Y-53570500D01*
X71350000Y-52376348D01*
X90220000Y-52376348D01*
X90220000Y-53109500D01*
X90300000Y-53189500D01*
X91289500Y-53189500D01*
X91289500Y-52200000D01*
X91590500Y-52200000D01*
X91590500Y-53189500D01*
X92580000Y-53189500D01*
X92660000Y-53109500D01*
X92660000Y-52376348D01*
X92611283Y-52258735D01*
X92521265Y-52168717D01*
X92403652Y-52120000D01*
X91670500Y-52120000D01*
X91590500Y-52200000D01*
X91289500Y-52200000D01*
X91209500Y-52120000D01*
X90476348Y-52120000D01*
X90358735Y-52168717D01*
X90268717Y-52258735D01*
X90220000Y-52376348D01*
X71350000Y-52376348D01*
X71350000Y-51130155D01*
X80377548Y-51130155D01*
X80472841Y-51360247D01*
X80765426Y-51710678D01*
X81169843Y-51922466D01*
X81349500Y-51880295D01*
X81349500Y-50950500D01*
X81650500Y-50950500D01*
X81650500Y-51880295D01*
X81830157Y-51922466D01*
X82234574Y-51710678D01*
X82527159Y-51360247D01*
X82622452Y-51130155D01*
X82579560Y-50950500D01*
X81650500Y-50950500D01*
X81349500Y-50950500D01*
X80420440Y-50950500D01*
X80377548Y-51130155D01*
X71350000Y-51130155D01*
X71350000Y-50469845D01*
X80377548Y-50469845D01*
X80420440Y-50649500D01*
X81349500Y-50649500D01*
X81349500Y-49719705D01*
X81650500Y-49719705D01*
X81650500Y-50649500D01*
X82579560Y-50649500D01*
X82622452Y-50469845D01*
X82527159Y-50239753D01*
X82259207Y-49918824D01*
X88199896Y-49918824D01*
X88291048Y-50139429D01*
X88459683Y-50308359D01*
X88680129Y-50399896D01*
X88918824Y-50400104D01*
X89139429Y-50308952D01*
X89148397Y-50300000D01*
X93551339Y-50300000D01*
X93559683Y-50308359D01*
X93780129Y-50399896D01*
X94018824Y-50400104D01*
X94239429Y-50308952D01*
X94408359Y-50140317D01*
X94499896Y-49919871D01*
X94500104Y-49681176D01*
X94408952Y-49460571D01*
X94240317Y-49291641D01*
X94019871Y-49200104D01*
X93781176Y-49199896D01*
X93560571Y-49291048D01*
X93551603Y-49300000D01*
X89148661Y-49300000D01*
X89140317Y-49291641D01*
X88919871Y-49200104D01*
X88681176Y-49199896D01*
X88460571Y-49291048D01*
X88291641Y-49459683D01*
X88200104Y-49680129D01*
X88199896Y-49918824D01*
X82259207Y-49918824D01*
X82234574Y-49889322D01*
X81830157Y-49677534D01*
X81650500Y-49719705D01*
X81349500Y-49719705D01*
X81169843Y-49677534D01*
X80765426Y-49889322D01*
X80472841Y-50239753D01*
X80377548Y-50469845D01*
X71350000Y-50469845D01*
X71350000Y-47410000D01*
X80344123Y-47410000D01*
X80344123Y-49110000D01*
X80365042Y-49221173D01*
X80430745Y-49323279D01*
X80530997Y-49391778D01*
X80650000Y-49415877D01*
X82350000Y-49415877D01*
X82461173Y-49394958D01*
X82563279Y-49329255D01*
X82631778Y-49229003D01*
X82655877Y-49110000D01*
X82655877Y-47410000D01*
X82634958Y-47298827D01*
X82569255Y-47196721D01*
X82500877Y-47150000D01*
X89944123Y-47150000D01*
X89944123Y-48850000D01*
X89965042Y-48961173D01*
X90030745Y-49063279D01*
X90130997Y-49131778D01*
X90250000Y-49155877D01*
X91950000Y-49155877D01*
X92061173Y-49134958D01*
X92163279Y-49069255D01*
X92231778Y-48969003D01*
X92255877Y-48850000D01*
X92255877Y-48770157D01*
X132277534Y-48770157D01*
X132489322Y-49174574D01*
X132839753Y-49467159D01*
X133069845Y-49562452D01*
X133249500Y-49519560D01*
X133249500Y-48590500D01*
X133550500Y-48590500D01*
X133550500Y-49519560D01*
X133730155Y-49562452D01*
X133960247Y-49467159D01*
X134310678Y-49174574D01*
X134522466Y-48770157D01*
X134480295Y-48590500D01*
X133550500Y-48590500D01*
X133249500Y-48590500D01*
X132319705Y-48590500D01*
X132277534Y-48770157D01*
X92255877Y-48770157D01*
X92255877Y-48417470D01*
X134790000Y-48417470D01*
X134790000Y-48462530D01*
X134877539Y-48902616D01*
X135126827Y-49275703D01*
X135499914Y-49524991D01*
X135940000Y-49612530D01*
X136380086Y-49524991D01*
X136753173Y-49275703D01*
X137002461Y-48902616D01*
X137090000Y-48462530D01*
X137090000Y-48417470D01*
X137330000Y-48417470D01*
X137330000Y-48462530D01*
X137417539Y-48902616D01*
X137666827Y-49275703D01*
X138039914Y-49524991D01*
X138480000Y-49612530D01*
X138920086Y-49524991D01*
X139293173Y-49275703D01*
X139542461Y-48902616D01*
X139630000Y-48462530D01*
X139630000Y-48417470D01*
X139870000Y-48417470D01*
X139870000Y-48462530D01*
X139957539Y-48902616D01*
X140206827Y-49275703D01*
X140579914Y-49524991D01*
X141020000Y-49612530D01*
X141460086Y-49524991D01*
X141833173Y-49275703D01*
X142082461Y-48902616D01*
X142170000Y-48462530D01*
X142170000Y-48417470D01*
X142410000Y-48417470D01*
X142410000Y-48462530D01*
X142497539Y-48902616D01*
X142746827Y-49275703D01*
X143119914Y-49524991D01*
X143560000Y-49612530D01*
X144000086Y-49524991D01*
X144373173Y-49275703D01*
X144622461Y-48902616D01*
X144648808Y-48770157D01*
X144977534Y-48770157D01*
X145189322Y-49174574D01*
X145539753Y-49467159D01*
X145769845Y-49562452D01*
X145949500Y-49519560D01*
X145949500Y-48590500D01*
X146250500Y-48590500D01*
X146250500Y-49519560D01*
X146430155Y-49562452D01*
X146660247Y-49467159D01*
X147010678Y-49174574D01*
X147222466Y-48770157D01*
X147180295Y-48590500D01*
X146250500Y-48590500D01*
X145949500Y-48590500D01*
X145019705Y-48590500D01*
X144977534Y-48770157D01*
X144648808Y-48770157D01*
X144710000Y-48462530D01*
X144710000Y-48417470D01*
X144702044Y-48377470D01*
X150970000Y-48377470D01*
X150970000Y-48422530D01*
X151057539Y-48862616D01*
X151306827Y-49235703D01*
X151679914Y-49484991D01*
X152120000Y-49572530D01*
X152560086Y-49484991D01*
X152933173Y-49235703D01*
X153182461Y-48862616D01*
X153270000Y-48422530D01*
X153270000Y-48377470D01*
X153510000Y-48377470D01*
X153510000Y-48422530D01*
X153597539Y-48862616D01*
X153846827Y-49235703D01*
X154219914Y-49484991D01*
X154660000Y-49572530D01*
X155100086Y-49484991D01*
X155473173Y-49235703D01*
X155722461Y-48862616D01*
X155810000Y-48422530D01*
X155810000Y-48377470D01*
X155722461Y-47937384D01*
X155473173Y-47564297D01*
X155451776Y-47550000D01*
X156044123Y-47550000D01*
X156044123Y-49250000D01*
X156065042Y-49361173D01*
X156130745Y-49463279D01*
X156230997Y-49531778D01*
X156350000Y-49555877D01*
X158050000Y-49555877D01*
X158161173Y-49534958D01*
X158263279Y-49469255D01*
X158331778Y-49369003D01*
X158355877Y-49250000D01*
X158355877Y-47550000D01*
X158334958Y-47438827D01*
X158269255Y-47336721D01*
X158169003Y-47268222D01*
X158050000Y-47244123D01*
X156350000Y-47244123D01*
X156238827Y-47265042D01*
X156136721Y-47330745D01*
X156068222Y-47430997D01*
X156044123Y-47550000D01*
X155451776Y-47550000D01*
X155100086Y-47315009D01*
X154660000Y-47227470D01*
X154219914Y-47315009D01*
X153846827Y-47564297D01*
X153597539Y-47937384D01*
X153510000Y-48377470D01*
X153270000Y-48377470D01*
X153182461Y-47937384D01*
X152933173Y-47564297D01*
X152560086Y-47315009D01*
X152120000Y-47227470D01*
X151679914Y-47315009D01*
X151306827Y-47564297D01*
X151057539Y-47937384D01*
X150970000Y-48377470D01*
X144702044Y-48377470D01*
X144648809Y-48109843D01*
X144977534Y-48109843D01*
X145019705Y-48289500D01*
X145949500Y-48289500D01*
X145949500Y-47360440D01*
X146250500Y-47360440D01*
X146250500Y-48289500D01*
X147180295Y-48289500D01*
X147222466Y-48109843D01*
X147010678Y-47705426D01*
X146660247Y-47412841D01*
X146430155Y-47317548D01*
X146250500Y-47360440D01*
X145949500Y-47360440D01*
X145769845Y-47317548D01*
X145539753Y-47412841D01*
X145189322Y-47705426D01*
X144977534Y-48109843D01*
X144648809Y-48109843D01*
X144622461Y-47977384D01*
X144373173Y-47604297D01*
X144000086Y-47355009D01*
X143560000Y-47267470D01*
X143119914Y-47355009D01*
X142746827Y-47604297D01*
X142497539Y-47977384D01*
X142410000Y-48417470D01*
X142170000Y-48417470D01*
X142082461Y-47977384D01*
X141833173Y-47604297D01*
X141460086Y-47355009D01*
X141020000Y-47267470D01*
X140579914Y-47355009D01*
X140206827Y-47604297D01*
X139957539Y-47977384D01*
X139870000Y-48417470D01*
X139630000Y-48417470D01*
X139542461Y-47977384D01*
X139293173Y-47604297D01*
X138920086Y-47355009D01*
X138480000Y-47267470D01*
X138039914Y-47355009D01*
X137666827Y-47604297D01*
X137417539Y-47977384D01*
X137330000Y-48417470D01*
X137090000Y-48417470D01*
X137002461Y-47977384D01*
X136753173Y-47604297D01*
X136380086Y-47355009D01*
X135940000Y-47267470D01*
X135499914Y-47355009D01*
X135126827Y-47604297D01*
X134877539Y-47977384D01*
X134790000Y-48417470D01*
X92255877Y-48417470D01*
X92255877Y-48109843D01*
X132277534Y-48109843D01*
X132319705Y-48289500D01*
X133249500Y-48289500D01*
X133249500Y-47360440D01*
X133550500Y-47360440D01*
X133550500Y-48289500D01*
X134480295Y-48289500D01*
X134522466Y-48109843D01*
X134310678Y-47705426D01*
X133960247Y-47412841D01*
X133730155Y-47317548D01*
X133550500Y-47360440D01*
X133249500Y-47360440D01*
X133069845Y-47317548D01*
X132839753Y-47412841D01*
X132489322Y-47705426D01*
X132277534Y-48109843D01*
X92255877Y-48109843D01*
X92255877Y-47150000D01*
X92234958Y-47038827D01*
X92169255Y-46936721D01*
X92069003Y-46868222D01*
X91950000Y-46844123D01*
X90250000Y-46844123D01*
X90138827Y-46865042D01*
X90036721Y-46930745D01*
X89968222Y-47030997D01*
X89944123Y-47150000D01*
X82500877Y-47150000D01*
X82469003Y-47128222D01*
X82350000Y-47104123D01*
X80650000Y-47104123D01*
X80538827Y-47125042D01*
X80436721Y-47190745D01*
X80368222Y-47290997D01*
X80344123Y-47410000D01*
X71350000Y-47410000D01*
X71350000Y-45790155D01*
X89977548Y-45790155D01*
X90072841Y-46020247D01*
X90365426Y-46370678D01*
X90769843Y-46582466D01*
X90949500Y-46540295D01*
X90949500Y-45610500D01*
X91250500Y-45610500D01*
X91250500Y-46540295D01*
X91430157Y-46582466D01*
X91834574Y-46370678D01*
X91951899Y-46230157D01*
X132277534Y-46230157D01*
X132489322Y-46634574D01*
X132839753Y-46927159D01*
X133069845Y-47022452D01*
X133249500Y-46979560D01*
X133249500Y-46050500D01*
X133550500Y-46050500D01*
X133550500Y-46979560D01*
X133730155Y-47022452D01*
X133960247Y-46927159D01*
X134310678Y-46634574D01*
X134522466Y-46230157D01*
X134480295Y-46050500D01*
X133550500Y-46050500D01*
X133249500Y-46050500D01*
X132319705Y-46050500D01*
X132277534Y-46230157D01*
X91951899Y-46230157D01*
X92127159Y-46020247D01*
X92186290Y-45877470D01*
X134790000Y-45877470D01*
X134790000Y-45922530D01*
X134877539Y-46362616D01*
X135126827Y-46735703D01*
X135499914Y-46984991D01*
X135940000Y-47072530D01*
X136380086Y-46984991D01*
X136753173Y-46735703D01*
X137002461Y-46362616D01*
X137090000Y-45922530D01*
X137090000Y-45877470D01*
X137330000Y-45877470D01*
X137330000Y-45922530D01*
X137417539Y-46362616D01*
X137666827Y-46735703D01*
X138039914Y-46984991D01*
X138480000Y-47072530D01*
X138920086Y-46984991D01*
X139293173Y-46735703D01*
X139542461Y-46362616D01*
X139630000Y-45922530D01*
X139630000Y-45877470D01*
X139870000Y-45877470D01*
X139870000Y-45922530D01*
X139957539Y-46362616D01*
X140206827Y-46735703D01*
X140579914Y-46984991D01*
X141020000Y-47072530D01*
X141460086Y-46984991D01*
X141833173Y-46735703D01*
X142082461Y-46362616D01*
X142170000Y-45922530D01*
X142170000Y-45877470D01*
X142410000Y-45877470D01*
X142410000Y-45922530D01*
X142497539Y-46362616D01*
X142746827Y-46735703D01*
X143119914Y-46984991D01*
X143560000Y-47072530D01*
X144000086Y-46984991D01*
X144373173Y-46735703D01*
X144622461Y-46362616D01*
X144668631Y-46130500D01*
X144930000Y-46130500D01*
X144930000Y-46813652D01*
X144978717Y-46931265D01*
X145068735Y-47021283D01*
X145186348Y-47070000D01*
X145869500Y-47070000D01*
X145949500Y-46990000D01*
X145949500Y-46050500D01*
X146250500Y-46050500D01*
X146250500Y-46990000D01*
X146330500Y-47070000D01*
X147013652Y-47070000D01*
X147131265Y-47021283D01*
X147221283Y-46931265D01*
X147270000Y-46813652D01*
X147270000Y-46190157D01*
X150997534Y-46190157D01*
X151209322Y-46594574D01*
X151559753Y-46887159D01*
X151789845Y-46982452D01*
X151969500Y-46939560D01*
X151969500Y-46010500D01*
X152270500Y-46010500D01*
X152270500Y-46939560D01*
X152450155Y-46982452D01*
X152680247Y-46887159D01*
X153030678Y-46594574D01*
X153242466Y-46190157D01*
X153200295Y-46010500D01*
X152270500Y-46010500D01*
X151969500Y-46010500D01*
X151039705Y-46010500D01*
X150997534Y-46190157D01*
X147270000Y-46190157D01*
X147270000Y-46130500D01*
X147190000Y-46050500D01*
X146250500Y-46050500D01*
X145949500Y-46050500D01*
X145010000Y-46050500D01*
X144930000Y-46130500D01*
X144668631Y-46130500D01*
X144710000Y-45922530D01*
X144710000Y-45877470D01*
X144702044Y-45837470D01*
X153510000Y-45837470D01*
X153510000Y-45882530D01*
X153597539Y-46322616D01*
X153846827Y-46695703D01*
X154219914Y-46944991D01*
X154660000Y-47032530D01*
X155100086Y-46944991D01*
X155473173Y-46695703D01*
X155722461Y-46322616D01*
X155810000Y-45882530D01*
X155810000Y-45837470D01*
X156050000Y-45837470D01*
X156050000Y-45882530D01*
X156137539Y-46322616D01*
X156386827Y-46695703D01*
X156759914Y-46944991D01*
X157200000Y-47032530D01*
X157640086Y-46944991D01*
X158013173Y-46695703D01*
X158262461Y-46322616D01*
X158350000Y-45882530D01*
X158350000Y-45837470D01*
X158262461Y-45397384D01*
X158013173Y-45024297D01*
X157640086Y-44775009D01*
X157200000Y-44687470D01*
X156759914Y-44775009D01*
X156386827Y-45024297D01*
X156137539Y-45397384D01*
X156050000Y-45837470D01*
X155810000Y-45837470D01*
X155722461Y-45397384D01*
X155473173Y-45024297D01*
X155100086Y-44775009D01*
X154660000Y-44687470D01*
X154219914Y-44775009D01*
X153846827Y-45024297D01*
X153597539Y-45397384D01*
X153510000Y-45837470D01*
X144702044Y-45837470D01*
X144622461Y-45437384D01*
X144373173Y-45064297D01*
X144256514Y-44986348D01*
X144930000Y-44986348D01*
X144930000Y-45669500D01*
X145010000Y-45749500D01*
X145949500Y-45749500D01*
X145949500Y-44810000D01*
X146250500Y-44810000D01*
X146250500Y-45749500D01*
X147190000Y-45749500D01*
X147270000Y-45669500D01*
X147270000Y-45529843D01*
X150997534Y-45529843D01*
X151039705Y-45709500D01*
X151969500Y-45709500D01*
X151969500Y-44780440D01*
X152270500Y-44780440D01*
X152270500Y-45709500D01*
X153200295Y-45709500D01*
X153242466Y-45529843D01*
X153030678Y-45125426D01*
X152680247Y-44832841D01*
X152450155Y-44737548D01*
X152270500Y-44780440D01*
X151969500Y-44780440D01*
X151789845Y-44737548D01*
X151559753Y-44832841D01*
X151209322Y-45125426D01*
X150997534Y-45529843D01*
X147270000Y-45529843D01*
X147270000Y-44986348D01*
X147221283Y-44868735D01*
X147131265Y-44778717D01*
X147013652Y-44730000D01*
X146330500Y-44730000D01*
X146250500Y-44810000D01*
X145949500Y-44810000D01*
X145869500Y-44730000D01*
X145186348Y-44730000D01*
X145068735Y-44778717D01*
X144978717Y-44868735D01*
X144930000Y-44986348D01*
X144256514Y-44986348D01*
X144000086Y-44815009D01*
X143560000Y-44727470D01*
X143119914Y-44815009D01*
X142746827Y-45064297D01*
X142497539Y-45437384D01*
X142410000Y-45877470D01*
X142170000Y-45877470D01*
X142082461Y-45437384D01*
X141833173Y-45064297D01*
X141460086Y-44815009D01*
X141020000Y-44727470D01*
X140579914Y-44815009D01*
X140206827Y-45064297D01*
X139957539Y-45437384D01*
X139870000Y-45877470D01*
X139630000Y-45877470D01*
X139542461Y-45437384D01*
X139293173Y-45064297D01*
X138920086Y-44815009D01*
X138480000Y-44727470D01*
X138039914Y-44815009D01*
X137666827Y-45064297D01*
X137417539Y-45437384D01*
X137330000Y-45877470D01*
X137090000Y-45877470D01*
X137002461Y-45437384D01*
X136753173Y-45064297D01*
X136380086Y-44815009D01*
X135940000Y-44727470D01*
X135499914Y-44815009D01*
X135126827Y-45064297D01*
X134877539Y-45437384D01*
X134790000Y-45877470D01*
X92186290Y-45877470D01*
X92222452Y-45790155D01*
X92179560Y-45610500D01*
X91250500Y-45610500D01*
X90949500Y-45610500D01*
X90020440Y-45610500D01*
X89977548Y-45790155D01*
X71350000Y-45790155D01*
X71350000Y-45569843D01*
X132277534Y-45569843D01*
X132319705Y-45749500D01*
X133249500Y-45749500D01*
X133249500Y-44820440D01*
X133550500Y-44820440D01*
X133550500Y-45749500D01*
X134480295Y-45749500D01*
X134522466Y-45569843D01*
X134310678Y-45165426D01*
X133960247Y-44872841D01*
X133730155Y-44777548D01*
X133550500Y-44820440D01*
X133249500Y-44820440D01*
X133069845Y-44777548D01*
X132839753Y-44872841D01*
X132489322Y-45165426D01*
X132277534Y-45569843D01*
X71350000Y-45569843D01*
X71350000Y-45129845D01*
X89977548Y-45129845D01*
X90020440Y-45309500D01*
X90949500Y-45309500D01*
X90949500Y-44379705D01*
X91250500Y-44379705D01*
X91250500Y-45309500D01*
X92179560Y-45309500D01*
X92222452Y-45129845D01*
X92127159Y-44899753D01*
X91834574Y-44549322D01*
X91430157Y-44337534D01*
X91250500Y-44379705D01*
X90949500Y-44379705D01*
X90769843Y-44337534D01*
X90365426Y-44549322D01*
X90072841Y-44899753D01*
X89977548Y-45129845D01*
X71350000Y-45129845D01*
X71350000Y-43850000D01*
X161650000Y-43850000D01*
X161650000Y-120650000D01*
M02*
