M48
;DRILL file {KiCad 4.0.7-e2-6376~58~ubuntu14.04.1} date Fri Dec 29 09:41:18 2017
;FORMAT={-:-/ absolute / inch / decimal}
FMAT,2
INCH,TZ
T1C0.016
T2C0.031
T3C0.035
T4C0.039
T5C0.126
%
G90
G05
M72
T1
X3.5433Y-3.5551
X3.7165Y-3.378
X3.7677Y-3.2244
X3.8307Y-3.185
X3.8819Y-3.4961
X3.9114Y-4.2972
X3.9508Y-4.0689
X4.0433Y-3.185
X4.1378Y-3.5591
X4.2323Y-2.7126
X4.5866Y-4.3386
X4.6102Y-2.7008
X4.6713Y-4.4646
X4.8858Y-3.7126
X4.937Y-3.5197
X5.0118Y-3.5591
X5.0118Y-3.622
X5.0453Y-3.9311
X5.0512Y-3.5866
X5.0551Y-3.6614
X5.1732Y-3.1575
X5.185Y-2.5984
X5.248Y-3.0709
X5.2638Y-4.0925
X5.2913Y-3.6614
X5.2913Y-3.7126
X5.3071Y-3.2913
X5.3071Y-3.9311
X5.311Y-3.0433
X5.3346Y-4.0925
X5.3484Y-3.8996
X5.3622Y-3.9626
X5.3661Y-3.75
X5.3819Y-3.2047
X5.4016Y-4.0906
X5.4213Y-4.0039
X5.437Y-3.1693
X5.4764Y-2.4055
X5.5197Y-3.0591
X5.5906Y-2.3937
X5.626Y-2.689
X5.626Y-3.5236
X5.626Y-3.5866
X5.626Y-3.6496
X5.685Y-2.4213
X5.752Y-2.3425
X5.7835Y-3.9685
X5.7835Y-4.1102
X5.815Y-2.3346
X5.815Y-2.4764
X5.937Y-3.1024
X5.9567Y-3.0315
X5.9843Y-2.9567
X6.Y-3.0039
X6.0787Y-4.3071
X6.0984Y-3.0079
X6.1024Y-3.1063
X6.1024Y-3.3386
X6.1102Y-3.0551
X6.1339Y-3.9685
X6.1417Y-3.9134
X6.2598Y-2.9567
X6.2598Y-3.9134
X6.2677Y-3.8583
T2
X3.3031Y-1.8622
X3.3819Y-1.8622
X3.5472Y-3.3953
X3.5472Y-3.7953
X3.6Y-3.2
X3.6Y-3.2787
X3.7874Y-3.9528
X3.7874Y-4.0512
X4.2Y-3.
X4.2Y-3.4
X4.4528Y-3.7795
X4.4528Y-3.878
X4.5039Y-3.4016
X4.5039Y-3.5
X5.1079Y-4.3843
X5.3Y-4.3843
X5.74Y-2.6513
X5.74Y-2.73
T3
X2.9134Y-1.8346
X2.9134Y-1.9346
X5.8543Y-3.0772
X5.8543Y-3.1772
T4
X2.9065Y-2.5028
X2.9065Y-2.6028
X2.9065Y-2.7028
X2.9065Y-2.8028
X2.9065Y-2.9028
X2.9065Y-3.0028
X2.9065Y-3.1028
X3.2087Y-3.2835
X3.2087Y-3.3835
X3.2087Y-3.4835
X3.2087Y-3.5835
X3.2087Y-3.6835
X3.2087Y-3.7835
X3.2087Y-3.8835
X3.2087Y-3.9835
X3.2087Y-4.0835
X3.2087Y-4.1835
X3.2087Y-4.2835
X3.2087Y-4.3835
X3.4193Y-4.3504
X3.5193Y-4.3504
X3.5866Y-1.7898
X3.5866Y-1.8898
X3.6193Y-4.3504
X4.25Y-2.15
X4.35Y-2.15
X4.5Y-2.15
X4.6Y-2.15
X4.75Y-2.15
X4.85Y-2.15
X5.Y-2.15
X5.1Y-2.15
X5.252Y-1.8071
X5.252Y-1.9071
X5.352Y-1.8071
X5.352Y-1.9071
X5.452Y-1.8071
X5.452Y-1.9071
X5.552Y-1.8071
X5.552Y-1.9071
X5.652Y-1.8071
X5.652Y-1.9071
X5.752Y-1.8071
X5.752Y-1.9071
X5.989Y-1.8055
X5.989Y-1.9055
X6.089Y-1.8055
X6.089Y-1.9055
X6.0906Y-2.5386
X6.0906Y-2.6386
X6.0906Y-2.7386
X6.0906Y-2.8386
X6.189Y-1.8055
X6.189Y-1.9055
T5
X2.9528Y-2.2441
X2.9528Y-4.6063
X6.2205Y-2.2441
X6.2205Y-4.6063
T0
M30
