M48
;DRILL file {KiCad 4.0.7-e2-6376~58~ubuntu14.04.1} date Wed Dec 27 19:19:03 2017
;FORMAT={-:-/ absolute / inch / decimal}
FMAT,2
INCH,TZ
T1C0.016
T2C0.031
T3C0.035
T4C0.039
T5C0.126
%
G90
G05
M72
T1
X3.4961Y-1.9606
X3.5315Y-2.2953
X3.6969Y-1.9606
X3.7165Y-3.378
X3.7874Y-2.3898
X3.7874Y-2.5197
X3.815Y-3.6732
X3.8425Y-3.4921
X4.3661Y-3.9134
X4.3661Y-4.1988
X4.5512Y-2.2953
X4.6496Y-2.3898
X4.6535Y-2.8681
X4.7382Y-3.2264
X5.0394Y-3.1535
X5.0709Y-3.685
X5.122Y-4.2362
X5.1457Y-3.1969
X5.25Y-3.002
X5.2638Y-3.0709
X5.2717Y-3.685
X5.2992Y-2.9724
X5.3031Y-3.2913
X5.3071Y-2.7756
X5.3346Y-4.0925
X5.4016Y-4.0906
X5.4291Y-4.2362
X5.4606Y-3.1339
X5.4764Y-2.4055
X5.5059Y-3.0512
X5.5591Y-3.4724
X5.5906Y-2.3937
X5.6181Y-3.5236
X5.622Y-3.5866
X5.622Y-4.1614
X5.6496Y-3.6299
X5.6614Y-4.1083
X5.685Y-2.4213
X5.752Y-2.3425
X5.7835Y-3.9685
X5.7835Y-4.1634
X5.815Y-2.3346
X5.815Y-2.4764
X5.9331Y-2.4724
X5.9567Y-3.0315
X5.9685Y-3.5669
X6.0079Y-2.9646
X6.1102Y-3.0551
X6.1339Y-3.9685
X6.1417Y-3.9134
X6.2598Y-2.9724
X6.2598Y-3.9134
X6.315Y-3.8622
T2
X3.1614Y-2.2047
X3.2402Y-2.2047
X3.5472Y-3.3953
X3.5472Y-3.7953
X3.6Y-3.2
X3.6Y-3.2787
X3.7657Y-3.7913
X3.7657Y-3.8898
X4.2008Y-2.8839
X4.2008Y-3.2839
X4.5039Y-3.4016
X4.5039Y-3.5
X4.5039Y-3.6772
X4.5039Y-3.7756
X5.1079Y-4.3843
X5.3Y-4.3843
X5.74Y-2.6513
X5.74Y-2.73
T3
X3.3228Y-2.8543
X3.4213Y-3.0512
X3.5197Y-2.8543
X3.6Y-2.1
X3.6Y-2.2
X5.8543Y-3.0772
X5.8543Y-3.1772
T4
X2.9065Y-2.5028
X2.9065Y-2.6028
X2.9065Y-2.7028
X3.2087Y-1.9
X3.2087Y-2.
X3.2087Y-2.8819
X3.2087Y-2.9819
X3.2087Y-3.0819
X3.2087Y-3.1819
X3.2087Y-3.2819
X3.2087Y-3.3819
X3.2087Y-3.4819
X3.2087Y-3.5819
X3.2087Y-3.6819
X3.2087Y-3.7819
X3.2087Y-3.8819
X3.2087Y-3.9819
X3.2087Y-4.0819
X3.2087Y-4.1819
X3.2087Y-4.2819
X3.2087Y-4.3819
X3.5866Y-1.7898
X3.5866Y-1.8898
X3.8Y-2.15
X3.9Y-2.15
X4.05Y-2.15
X4.15Y-2.15
X4.3Y-2.15
X4.4Y-2.15
X4.5Y-2.15
X4.6Y-2.15
X4.75Y-2.15
X4.85Y-2.15
X5.Y-2.15
X5.1Y-2.15
X5.252Y-1.8071
X5.252Y-1.9071
X5.352Y-1.8071
X5.352Y-1.9071
X5.452Y-1.8071
X5.452Y-1.9071
X5.552Y-1.8071
X5.552Y-1.9071
X5.652Y-1.8071
X5.652Y-1.9071
X5.752Y-1.8071
X5.752Y-1.9071
X5.989Y-1.8055
X5.989Y-1.9055
X6.089Y-1.8055
X6.089Y-1.9055
X6.0906Y-2.5386
X6.0906Y-2.6386
X6.0906Y-2.7386
X6.0906Y-2.8386
X6.189Y-1.8055
X6.189Y-1.9055
T5
X2.9528Y-2.2441
X2.9528Y-4.6063
X6.2205Y-2.2441
X6.2205Y-4.6063
T0
M30
