G04 #@! TF.FileFunction,Soldermask,Bot*
%FSLAX46Y46*%
G04 Gerber Fmt 4.6, Leading zero omitted, Abs format (unit mm)*
G04 Created by KiCad (PCBNEW 4.0.7-e2-6376~58~ubuntu14.04.1) date Mon Jan  1 12:00:40 2018*
%MOMM*%
%LPD*%
G01*
G04 APERTURE LIST*
%ADD10C,0.100000*%
%ADD11R,0.700000X2.000000*%
%ADD12R,2.000000X7.875000*%
%ADD13R,1.600000X1.600000*%
%ADD14R,1.400000X1.700000*%
%ADD15R,1.700000X1.400000*%
%ADD16R,1.800000X1.800000*%
%ADD17C,1.800000*%
%ADD18R,3.300000X1.700000*%
%ADD19R,1.700000X1.700000*%
%ADD20O,1.700000X1.700000*%
%ADD21R,2.000000X0.700000*%
%ADD22R,0.550000X1.600000*%
%ADD23R,1.600000X0.550000*%
%ADD24R,0.300000X1.400000*%
%ADD25R,0.300000X1.600000*%
%ADD26R,0.600000X1.550000*%
%ADD27R,2.000000X3.800000*%
%ADD28R,2.000000X1.500000*%
%ADD29C,1.500000*%
%ADD30C,1.600000*%
%ADD31O,1.600000X1.600000*%
%ADD32C,5.600000*%
%ADD33R,1.700000X3.300000*%
%ADD34R,3.200000X1.500000*%
%ADD35R,1.500000X3.200000*%
%ADD36R,3.750000X2.700000*%
G04 APERTURE END LIST*
D10*
D11*
X103820000Y-66470000D03*
X101920000Y-66470000D03*
X102870000Y-63070000D03*
D12*
X102500000Y-74962500D03*
X102500000Y-86837500D03*
D13*
X124700000Y-107300000D03*
X127000000Y-107300000D03*
X88670000Y-80320000D03*
X90970000Y-80320000D03*
X85150000Y-64200000D03*
X82850000Y-64200000D03*
X97300000Y-70950000D03*
X97300000Y-68650000D03*
D14*
X92300000Y-52000000D03*
X89900000Y-52000000D03*
X124390000Y-69850000D03*
X121990000Y-69850000D03*
D15*
X143600000Y-56700000D03*
X143600000Y-59100000D03*
X140900000Y-56700000D03*
X140900000Y-59100000D03*
X138300000Y-56700000D03*
X138300000Y-59100000D03*
X135800000Y-59100000D03*
X135800000Y-56700000D03*
X133350000Y-69780000D03*
X133350000Y-67380000D03*
D13*
X122500000Y-111450000D03*
X124800000Y-111450000D03*
X152400000Y-78860000D03*
X152400000Y-81160000D03*
X86900000Y-59250000D03*
X86900000Y-61550000D03*
X92600000Y-59250000D03*
X92600000Y-61550000D03*
X143340000Y-67080000D03*
X143340000Y-69380000D03*
D16*
X74000000Y-46600000D03*
D17*
X74000000Y-49140000D03*
D18*
X93750000Y-54700000D03*
X88250000Y-54700000D03*
D19*
X157200000Y-48400000D03*
D20*
X157200000Y-45860000D03*
X154660000Y-48400000D03*
X154660000Y-45860000D03*
X152120000Y-48400000D03*
X152120000Y-45860000D03*
D19*
X146100000Y-45900000D03*
D20*
X146100000Y-48440000D03*
X143560000Y-45900000D03*
X143560000Y-48440000D03*
X141020000Y-45900000D03*
X141020000Y-48440000D03*
X138480000Y-45900000D03*
X138480000Y-48440000D03*
X135940000Y-45900000D03*
X135940000Y-48440000D03*
X133400000Y-45900000D03*
X133400000Y-48440000D03*
D19*
X154700000Y-72100000D03*
D20*
X154700000Y-69560000D03*
X154700000Y-67020000D03*
X154700000Y-64480000D03*
D19*
X91100000Y-48000000D03*
D20*
X91100000Y-45460000D03*
D11*
X124140000Y-66470000D03*
X122240000Y-66470000D03*
X123190000Y-63070000D03*
D21*
X131240000Y-62550000D03*
X131240000Y-64450000D03*
X127840000Y-63500000D03*
D15*
X133350000Y-59100000D03*
X133350000Y-56700000D03*
X133350000Y-74860000D03*
X133350000Y-72460000D03*
D14*
X146120000Y-91440000D03*
X148520000Y-91440000D03*
X146120000Y-95250000D03*
X148520000Y-95250000D03*
D15*
X152400000Y-87560000D03*
X152400000Y-85160000D03*
D14*
X92780000Y-87630000D03*
X95180000Y-87630000D03*
X92800000Y-90300000D03*
X95200000Y-90300000D03*
D15*
X80200000Y-61700000D03*
X80200000Y-59300000D03*
D14*
X128800000Y-68200000D03*
X126400000Y-68200000D03*
X111690000Y-73660000D03*
X109290000Y-73660000D03*
X119310000Y-73660000D03*
X116910000Y-73660000D03*
X77700000Y-68800000D03*
X80100000Y-68800000D03*
D22*
X138690000Y-105720000D03*
X137890000Y-105720000D03*
X137090000Y-105720000D03*
X136290000Y-105720000D03*
X135490000Y-105720000D03*
X134690000Y-105720000D03*
X133890000Y-105720000D03*
X133090000Y-105720000D03*
D23*
X131640000Y-104270000D03*
X131640000Y-103470000D03*
X131640000Y-102670000D03*
X131640000Y-101870000D03*
X131640000Y-101070000D03*
X131640000Y-100270000D03*
X131640000Y-99470000D03*
X131640000Y-98670000D03*
D22*
X133090000Y-97220000D03*
X133890000Y-97220000D03*
X134690000Y-97220000D03*
X135490000Y-97220000D03*
X136290000Y-97220000D03*
X137090000Y-97220000D03*
X137890000Y-97220000D03*
X138690000Y-97220000D03*
D23*
X140140000Y-98670000D03*
X140140000Y-99470000D03*
X140140000Y-100270000D03*
X140140000Y-101070000D03*
X140140000Y-101870000D03*
X140140000Y-102670000D03*
X140140000Y-103470000D03*
X140140000Y-104270000D03*
D24*
X97520000Y-83480000D03*
X97020000Y-83480000D03*
X96520000Y-83480000D03*
X96020000Y-83480000D03*
X95520000Y-83480000D03*
X95520000Y-79080000D03*
X96020000Y-79080000D03*
X96520000Y-79080000D03*
X97020000Y-79080000D03*
X97520000Y-79080000D03*
D25*
X148295000Y-88060000D03*
X147645000Y-88060000D03*
X146995000Y-88060000D03*
X146345000Y-88060000D03*
X146345000Y-84660000D03*
X146995000Y-84660000D03*
X147645000Y-84660000D03*
X148295000Y-84660000D03*
D26*
X159385000Y-109380000D03*
X158115000Y-109380000D03*
X156845000Y-109380000D03*
X155575000Y-109380000D03*
X155575000Y-103980000D03*
X156845000Y-103980000D03*
X158115000Y-103980000D03*
X159385000Y-103980000D03*
D27*
X125850000Y-85800000D03*
D28*
X119550000Y-85800000D03*
X119550000Y-83500000D03*
X119550000Y-88100000D03*
D27*
X125850000Y-97650000D03*
D28*
X119550000Y-97650000D03*
X119550000Y-95350000D03*
X119550000Y-99950000D03*
D29*
X134620000Y-111360000D03*
X129740000Y-111360000D03*
D13*
X94100000Y-100720000D03*
X96400000Y-100720000D03*
D19*
X129540000Y-54610000D03*
D20*
X127000000Y-54610000D03*
D19*
X123190000Y-54610000D03*
D20*
X120650000Y-54610000D03*
D19*
X110490000Y-54610000D03*
D20*
X107950000Y-54610000D03*
D19*
X116840000Y-54610000D03*
D20*
X114300000Y-54610000D03*
D13*
X107930000Y-100720000D03*
X110230000Y-100720000D03*
D30*
X90100000Y-96400000D03*
D31*
X90100000Y-86240000D03*
D13*
X142650000Y-105700000D03*
X144950000Y-105700000D03*
X112050000Y-86930000D03*
X114350000Y-86930000D03*
D30*
X106680000Y-76200000D03*
D31*
X106680000Y-86360000D03*
D13*
X85150000Y-73200000D03*
X82850000Y-73200000D03*
X94700000Y-75450000D03*
X94700000Y-73150000D03*
X150550000Y-109300000D03*
X152850000Y-109300000D03*
D16*
X148700000Y-80700000D03*
D17*
X148700000Y-78160000D03*
D21*
X144500000Y-74250000D03*
X144500000Y-76150000D03*
X141100000Y-75200000D03*
D15*
X144600000Y-80800000D03*
X144600000Y-78400000D03*
D14*
X147450000Y-75100000D03*
X149850000Y-75100000D03*
D13*
X86900000Y-68550000D03*
X86900000Y-70850000D03*
D19*
X73825000Y-63570000D03*
D20*
X73825000Y-66110000D03*
X73825000Y-68650000D03*
X73825000Y-71190000D03*
X73825000Y-73730000D03*
X73825000Y-76270000D03*
X73825000Y-78810000D03*
D13*
X92700000Y-68550000D03*
X92700000Y-70850000D03*
X93250000Y-77800000D03*
X90950000Y-77800000D03*
X90850000Y-64200000D03*
X88550000Y-64200000D03*
X90850000Y-73200000D03*
X88550000Y-73200000D03*
D32*
X75000000Y-57000000D03*
X158000000Y-57000000D03*
X158000000Y-117000000D03*
X75000000Y-117000000D03*
D15*
X78100000Y-78400000D03*
X78100000Y-80800000D03*
D19*
X81500000Y-83400000D03*
D20*
X81500000Y-85940000D03*
X81500000Y-88480000D03*
X81500000Y-91020000D03*
X81500000Y-93560000D03*
X81500000Y-96100000D03*
X81500000Y-98640000D03*
X81500000Y-101180000D03*
X81500000Y-103720000D03*
X81500000Y-106260000D03*
X81500000Y-108800000D03*
X81500000Y-111340000D03*
D33*
X102800000Y-57050000D03*
X102800000Y-51550000D03*
X110800000Y-63250000D03*
X110800000Y-68750000D03*
D11*
X115250000Y-66470000D03*
X113350000Y-66470000D03*
X114300000Y-63070000D03*
D14*
X104100000Y-69400000D03*
X101700000Y-69400000D03*
D15*
X114300000Y-73590000D03*
X114300000Y-71190000D03*
D19*
X86850000Y-110500000D03*
D20*
X89390000Y-110500000D03*
X91930000Y-110500000D03*
D14*
X112550000Y-110000000D03*
X114950000Y-110000000D03*
X106700000Y-113200000D03*
X109100000Y-113200000D03*
X103200000Y-113200000D03*
X100800000Y-113200000D03*
X97300000Y-110000000D03*
X94900000Y-110000000D03*
D13*
X97300000Y-113200000D03*
X95000000Y-113200000D03*
X112650000Y-113200000D03*
X114950000Y-113200000D03*
D34*
X90940000Y-83200000D03*
X86940000Y-83200000D03*
D35*
X147220000Y-70280000D03*
X147220000Y-66280000D03*
D36*
X119585000Y-79320000D03*
X112035000Y-79320000D03*
X114775000Y-97000000D03*
X107225000Y-97000000D03*
X101595000Y-97000000D03*
X94045000Y-97000000D03*
D34*
X86000000Y-47500000D03*
X82000000Y-47500000D03*
M02*
