G04 #@! TF.FileFunction,Soldermask,Bot*
%FSLAX46Y46*%
G04 Gerber Fmt 4.6, Leading zero omitted, Abs format (unit mm)*
G04 Created by KiCad (PCBNEW 4.0.7-e2-6376~58~ubuntu14.04.1) date Wed Dec 27 19:18:50 2017*
%MOMM*%
%LPD*%
G01*
G04 APERTURE LIST*
%ADD10C,0.100000*%
%ADD11C,5.500000*%
%ADD12R,1.600000X1.600000*%
%ADD13R,1.700000X1.400000*%
%ADD14R,1.400000X1.700000*%
%ADD15R,1.800000X1.800000*%
%ADD16C,1.800000*%
%ADD17R,3.300000X1.700000*%
%ADD18R,1.700000X1.700000*%
%ADD19O,1.700000X1.700000*%
%ADD20R,1.200000X0.750000*%
%ADD21R,2.000000X0.700000*%
%ADD22R,0.700000X2.000000*%
%ADD23R,0.550000X1.600000*%
%ADD24R,1.600000X0.550000*%
%ADD25R,0.300000X1.400000*%
%ADD26R,0.300000X1.600000*%
%ADD27R,0.600000X1.550000*%
%ADD28R,2.000000X3.800000*%
%ADD29R,2.000000X1.500000*%
%ADD30R,2.000000X7.875000*%
%ADD31C,1.500000*%
%ADD32C,1.600000*%
%ADD33C,1.620000*%
%ADD34O,1.600000X1.600000*%
G04 APERTURE END LIST*
D10*
D11*
X158000000Y-57000000D03*
X75000000Y-57000000D03*
X75000000Y-117000000D03*
X158000000Y-117000000D03*
D12*
X124700000Y-107300000D03*
X127000000Y-107300000D03*
X86360000Y-83700000D03*
X86360000Y-81400000D03*
X82430000Y-68580000D03*
X80130000Y-68580000D03*
X94600000Y-76050000D03*
X94600000Y-73750000D03*
D13*
X92710000Y-63430000D03*
X92710000Y-61030000D03*
X106680000Y-67380000D03*
X106680000Y-69780000D03*
X143600000Y-56700000D03*
X143600000Y-59100000D03*
X140900000Y-56700000D03*
X140900000Y-59100000D03*
X138300000Y-56700000D03*
X138300000Y-59100000D03*
X135800000Y-59100000D03*
X135800000Y-56700000D03*
D14*
X118040000Y-78740000D03*
X115640000Y-78740000D03*
D12*
X122500000Y-111450000D03*
X124800000Y-111450000D03*
X152400000Y-78860000D03*
X152400000Y-81160000D03*
X88650000Y-68600000D03*
X90950000Y-68600000D03*
X102750000Y-71120000D03*
X100450000Y-71120000D03*
X141000000Y-67250000D03*
X141000000Y-69550000D03*
D15*
X91440000Y-53340000D03*
D16*
X91440000Y-55880000D03*
D17*
X88550000Y-63400000D03*
X83050000Y-63400000D03*
D18*
X157200000Y-48400000D03*
D19*
X157200000Y-45860000D03*
X154660000Y-48400000D03*
X154660000Y-45860000D03*
X152120000Y-48400000D03*
X152120000Y-45860000D03*
D18*
X146100000Y-45900000D03*
D19*
X146100000Y-48440000D03*
X143560000Y-45900000D03*
X143560000Y-48440000D03*
X141020000Y-45900000D03*
X141020000Y-48440000D03*
X138480000Y-45900000D03*
X138480000Y-48440000D03*
X135940000Y-45900000D03*
X135940000Y-48440000D03*
X133400000Y-45900000D03*
X133400000Y-48440000D03*
D18*
X154700000Y-72100000D03*
D19*
X154700000Y-69560000D03*
X154700000Y-67020000D03*
X154700000Y-64480000D03*
D18*
X91100000Y-48000000D03*
D19*
X91100000Y-45460000D03*
D20*
X94300000Y-71120000D03*
X96200000Y-71120000D03*
D21*
X102030000Y-65090000D03*
X102030000Y-66990000D03*
X98630000Y-66040000D03*
D22*
X112710000Y-77900000D03*
X110810000Y-77900000D03*
X111760000Y-74500000D03*
D14*
X115640000Y-82550000D03*
X118040000Y-82550000D03*
X124390000Y-80010000D03*
X121990000Y-80010000D03*
X146120000Y-91440000D03*
X148520000Y-91440000D03*
X146120000Y-95250000D03*
X148520000Y-95250000D03*
D13*
X152400000Y-87560000D03*
X152400000Y-85160000D03*
D14*
X92780000Y-87630000D03*
X95180000Y-87630000D03*
X92780000Y-91440000D03*
X95180000Y-91440000D03*
D13*
X77470000Y-65970000D03*
X77470000Y-63570000D03*
D14*
X111690000Y-71120000D03*
X109290000Y-71120000D03*
D13*
X123190000Y-64700000D03*
X123190000Y-62300000D03*
X129540000Y-64700000D03*
X129540000Y-62300000D03*
X86300000Y-55900000D03*
X86300000Y-58300000D03*
D23*
X138690000Y-105720000D03*
X137890000Y-105720000D03*
X137090000Y-105720000D03*
X136290000Y-105720000D03*
X135490000Y-105720000D03*
X134690000Y-105720000D03*
X133890000Y-105720000D03*
X133090000Y-105720000D03*
D24*
X131640000Y-104270000D03*
X131640000Y-103470000D03*
X131640000Y-102670000D03*
X131640000Y-101870000D03*
X131640000Y-101070000D03*
X131640000Y-100270000D03*
X131640000Y-99470000D03*
X131640000Y-98670000D03*
D23*
X133090000Y-97220000D03*
X133890000Y-97220000D03*
X134690000Y-97220000D03*
X135490000Y-97220000D03*
X136290000Y-97220000D03*
X137090000Y-97220000D03*
X137890000Y-97220000D03*
X138690000Y-97220000D03*
D24*
X140140000Y-98670000D03*
X140140000Y-99470000D03*
X140140000Y-100270000D03*
X140140000Y-101070000D03*
X140140000Y-101870000D03*
X140140000Y-102670000D03*
X140140000Y-103470000D03*
X140140000Y-104270000D03*
D25*
X97520000Y-83480000D03*
X97020000Y-83480000D03*
X96520000Y-83480000D03*
X96020000Y-83480000D03*
X95520000Y-83480000D03*
X95520000Y-79080000D03*
X96020000Y-79080000D03*
X96520000Y-79080000D03*
X97020000Y-79080000D03*
X97520000Y-79080000D03*
D26*
X148295000Y-88060000D03*
X147645000Y-88060000D03*
X146995000Y-88060000D03*
X146345000Y-88060000D03*
X146345000Y-84660000D03*
X146995000Y-84660000D03*
X147645000Y-84660000D03*
X148295000Y-84660000D03*
D27*
X159385000Y-109380000D03*
X158115000Y-109380000D03*
X156845000Y-109380000D03*
X155575000Y-109380000D03*
X155575000Y-103980000D03*
X156845000Y-103980000D03*
X158115000Y-103980000D03*
X159385000Y-103980000D03*
D28*
X126450000Y-87300000D03*
D29*
X120150000Y-87300000D03*
X120150000Y-85000000D03*
X120150000Y-89600000D03*
D28*
X126450000Y-94500000D03*
D29*
X120150000Y-94500000D03*
X120150000Y-92200000D03*
X120150000Y-96800000D03*
D30*
X102500000Y-82662500D03*
X102500000Y-94537500D03*
D31*
X134620000Y-111360000D03*
X129740000Y-111360000D03*
D13*
X118100000Y-62300000D03*
X118100000Y-64700000D03*
X118100000Y-71100000D03*
X118100000Y-68700000D03*
D18*
X116840000Y-54610000D03*
D19*
X114300000Y-54610000D03*
X111760000Y-54610000D03*
X109220000Y-54610000D03*
D18*
X81500000Y-73200000D03*
D19*
X81500000Y-75740000D03*
X81500000Y-78280000D03*
X81500000Y-80820000D03*
X81500000Y-83360000D03*
X81500000Y-85900000D03*
X81500000Y-88440000D03*
X81500000Y-90980000D03*
X81500000Y-93520000D03*
X81500000Y-96060000D03*
X81500000Y-98600000D03*
X81500000Y-101140000D03*
X81500000Y-103680000D03*
X81500000Y-106220000D03*
X81500000Y-108760000D03*
X81500000Y-111300000D03*
D18*
X73825000Y-68650000D03*
D19*
X73825000Y-66110000D03*
X73825000Y-63570000D03*
D12*
X91440000Y-81280000D03*
D32*
X91440000Y-83280000D03*
D12*
X145796000Y-69342000D03*
D32*
X145796000Y-67342000D03*
D12*
X114400000Y-86400000D03*
D32*
X114400000Y-88900000D03*
D12*
X114400000Y-93400000D03*
D32*
X114400000Y-95900000D03*
D12*
X95650000Y-98800000D03*
D32*
X95650000Y-96300000D03*
D14*
X84500000Y-108700000D03*
X86900000Y-108700000D03*
D33*
X84400000Y-72500000D03*
X86900000Y-77500000D03*
X89400000Y-72500000D03*
D12*
X87100000Y-94100000D03*
X87100000Y-96400000D03*
X120650000Y-62400000D03*
X120650000Y-64700000D03*
X120650000Y-71000000D03*
X120650000Y-68700000D03*
D18*
X105410000Y-54610000D03*
D19*
X102870000Y-54610000D03*
D18*
X99060000Y-54610000D03*
D19*
X96520000Y-54610000D03*
D18*
X123190000Y-54610000D03*
D19*
X120650000Y-54610000D03*
D18*
X129540000Y-54610000D03*
D19*
X127000000Y-54610000D03*
D18*
X81500000Y-48260000D03*
D19*
X81500000Y-50800000D03*
D12*
X82300000Y-56000000D03*
D32*
X80300000Y-56000000D03*
D12*
X107750000Y-95700000D03*
X107750000Y-93400000D03*
D32*
X90100000Y-96400000D03*
D34*
X90100000Y-86240000D03*
D12*
X141650000Y-110600000D03*
X139350000Y-110600000D03*
X107750000Y-89200000D03*
X107750000Y-86900000D03*
D32*
X106700000Y-73250000D03*
D34*
X106700000Y-83410000D03*
D12*
X97900000Y-76050000D03*
X97900000Y-73750000D03*
X101700000Y-76050000D03*
X101700000Y-73750000D03*
X149850000Y-110600000D03*
X152150000Y-110600000D03*
D15*
X148700000Y-80700000D03*
D16*
X148700000Y-78160000D03*
D21*
X144500000Y-74250000D03*
X144500000Y-76150000D03*
X141100000Y-75200000D03*
D13*
X144600000Y-80800000D03*
X144600000Y-78400000D03*
D14*
X147450000Y-75100000D03*
X149850000Y-75100000D03*
M02*
