M48
;DRILL file {KiCad 4.0.3+e1-6302~38~ubuntu14.04.1-stable} date Mon Jan 30 16:46:39 2017
;FORMAT={-:-/ absolute / metric / decimal}
FMAT,2
METRIC,TZ
T1C0.400
T2C0.800
T3C1.000
T4C1.001
T5C1.016
T6C3.200
%
G90
G05
M71
T1
X62.4Y-58.25
X62.4Y-93.65
X62.6Y-62.7
X62.6Y-68.
X62.6Y-73.6
X62.6Y-78.7
X62.6Y-83.4
X63.3Y-46.5
X63.3Y-52.85
X64.35Y-87.4
X66.Y-65.1
X66.25Y-93.7
X67.3Y-28.9
X68.05Y-62.7
X68.05Y-67.15
X68.05Y-71.4
X68.15Y-52.85
X68.2Y-56.45
X68.3Y-39.65
X68.3Y-48.05
X68.35Y-43.7
X68.95Y-84.5
X69.55Y-59.7
X70.15Y-80.65
X70.45Y-89.9
X70.45Y-93.7
X71.55Y-87.1
X72.65Y-37.9
X72.75Y-82.1
X75.15Y-71.05
X75.15Y-74.6
X75.15Y-80.9
X77.1Y-63.25
X77.15Y-54.65
X77.15Y-59.1
X77.4Y-69.2
X77.7Y-92.55
X78.55Y-37.9
X78.55Y-41.25
X78.55Y-44.05
X78.55Y-76.
X78.95Y-46.6
X81.3Y-63.25
X81.3Y-67.05
X81.35Y-59.05
X81.5Y-41.8
X81.9Y-34.5
X81.9Y-90.05
X81.9Y-93.8
X82.3Y-80.85
X83.4Y-43.
X83.4Y-47.35
X83.65Y-85.95
X84.1Y-36.95
X85.Y-59.15
X85.Y-63.25
X85.Y-65.75
X86.1Y-37.2
X86.6Y-39.4
X88.35Y-43.
X88.5Y-47.35
X88.5Y-50.9
X89.05Y-85.2
X89.05Y-87.75
X89.35Y-73.85
X89.8Y-80.55
X89.9Y-76.75
X89.95Y-63.5
X91.15Y-56.95
X92.3Y-72.1
X92.5Y-93.75
X93.05Y-43.
X93.05Y-47.35
X93.4Y-66.6
X93.55Y-80.65
X93.85Y-76.65
X93.95Y-85.2
X93.95Y-90.2
X95.2Y-69.7
X95.35Y-51.15
X95.4Y-54.2
X96.4Y-86.05
X96.4Y-88.9
X97.3Y-93.7
X98.1Y-43.
X98.1Y-48.1
X98.4Y-85.2
X99.15Y-53.75
X99.2Y-57.
X99.55Y-47.4
X99.55Y-61.35
X99.55Y-66.6
X99.55Y-70.35
X99.55Y-74.95
X99.55Y-79.85
X99.7Y-90.
X100.4Y-43.
X103.3Y-81.15
X104.2Y-43.
X104.2Y-47.55
X104.2Y-52.15
X105.15Y-61.15
X105.85Y-69.05
X105.95Y-93.05
X106.Y-65.65
X106.05Y-77.35
X106.1Y-80.6
X106.1Y-86.45
X106.15Y-54.45
X108.4Y-73.8
X108.55Y-43.
X109.2Y-61.15
X109.5Y-87.05
X109.65Y-47.35
X109.65Y-52.
X109.8Y-66.
X109.8Y-68.8
X109.85Y-55.6
X110.85Y-90.4
X112.Y-43.
X112.Y-48.1
X113.6Y-87.05
X113.6Y-90.3
X113.6Y-93.8
X114.6Y-62.15
X116.15Y-43.45
X116.5Y-47.4
X117.7Y-50.4
X118.65Y-62.65
X118.65Y-66.
X118.75Y-69.25
X119.5Y-43.45
X119.6Y-72.7
X119.6Y-76.5
X119.6Y-80.45
X119.7Y-93.6
X121.15Y-58.1
X121.35Y-66.
X122.5Y-70.6
X122.8Y-43.45
X122.8Y-47.4
X123.1Y-50.5
X123.1Y-81.
X124.6Y-78.9
X124.65Y-66.75
X124.7Y-52.85
X124.7Y-56.5
X125.35Y-93.3
X126.Y-43.2
X126.Y-47.7
X126.85Y-87.85
X127.15Y-90.55
X128.25Y-50.9
X128.25Y-61.6
X128.3Y-54.8
X128.35Y-66.6
X128.4Y-43.3
X131.Y-87.55
X131.7Y-66.65
X131.85Y-63.35
X132.05Y-82.45
X132.95Y-93.4
X133.3Y-72.25
X133.45Y-68.8
X133.45Y-78.7
X133.75Y-43.3
X134.4Y-50.6
X135.05Y-62.8
X135.6Y-66.55
X136.05Y-78.6
X136.05Y-82.45
X136.8Y-54.05
X137.45Y-45.2
X137.6Y-91.2
X137.7Y-74.5
X138.9Y-70.6
X139.25Y-87.6
X139.85Y-47.15
X140.15Y-65.2
X140.15Y-78.6
X140.15Y-82.45
X140.25Y-56.85
X140.3Y-49.95
X140.3Y-53.55
X140.75Y-74.25
X142.75Y-89.9
X143.85Y-48.85
X143.85Y-53.55
X143.85Y-57.35
X144.Y-74.25
X144.05Y-70.45
X144.05Y-78.6
X144.05Y-82.1
X144.1Y-65.1
T2
X64.22Y-23.
X64.22Y-25.
X69.57Y-22.25
X69.57Y-24.79
X69.57Y-27.33
X89.5Y-24.2
X89.5Y-26.7
X96.8Y-24.2
X96.8Y-26.7
X104.Y-24.2
X104.Y-26.7
X111.2Y-24.2
X111.2Y-26.7
T3
X74.08Y-22.49
X74.08Y-25.03
X76.62Y-22.49
X76.62Y-25.03
X79.16Y-22.49
X79.16Y-25.03
X81.7Y-22.49
X81.7Y-25.03
X84.24Y-22.49
X84.24Y-25.03
X116.4Y-22.9
X118.94Y-22.9
X121.48Y-22.9
X124.02Y-22.9
X126.56Y-22.9
X129.1Y-22.9
T4
X66.Y-43.84
X66.Y-54.
X66.Y-69.04
X66.Y-79.2
X70.799Y-51.4
X71.499Y-78.5
X71.5Y-63.499
X71.5Y-73.501
X80.801Y-51.4
X81.501Y-78.5
X86.5Y-67.999
X86.5Y-78.001
X86.999Y-82.75
X87.499Y-59.
X97.001Y-82.75
X97.501Y-59.
X101.249Y-84.
X101.999Y-59.
X102.75Y-68.749
X102.75Y-78.751
X111.251Y-84.
X112.001Y-59.
X115.999Y-60.
X115.999Y-84.
X116.4Y-69.799
X116.4Y-79.801
X126.001Y-60.
X126.001Y-84.
X129.73Y-69.789
X129.73Y-79.791
X131.739Y-85.22
X132.539Y-59.78
X141.741Y-85.22
X142.541Y-59.78
T5
X56.22Y-23.41
X56.22Y-25.95
X56.22Y-28.49
X56.75Y-61.42
X56.75Y-63.96
X56.75Y-66.5
T6
X58.Y-34.
X58.Y-94.
X141.Y-34.
X141.Y-94.
T4
X133.1Y-26.099G85X133.1Y-24.101
G05
X137.099Y-29.799G85X135.1Y-29.799
G05
X139.099Y-26.099G85X139.099Y-24.101
G05
T0
M30
