M48
;DRILL file {KiCad 4.0.7-e2-6376~58~ubuntu14.04.1} date Mon Jan  1 12:00:42 2018
;FORMAT={-:-/ absolute / inch / decimal}
FMAT,2
INCH,TZ
T1C0.016
T2C0.031
T3C0.035
T4C0.039
T5C0.126
%
G90
G05
M72
T1
X2.874Y-2.0472
X2.8937Y-3.2874
X2.8937Y-3.4646
X2.9921Y-3.4646
X2.9921Y-3.622
X2.9921Y-3.7402
X2.9921Y-3.8386
X2.9921Y-3.9764
X2.9921Y-4.1142
X2.9921Y-4.252
X3.0118Y-2.4409
X3.0118Y-4.4094
X3.0512Y-2.1063
X3.0709Y-2.3425
X3.0709Y-2.5984
X3.0709Y-2.9134
X3.0906Y-1.7913
X3.0906Y-1.9685
X3.0906Y-3.2874
X3.0906Y-4.4882
X3.1299Y-4.626
X3.1496Y-2.9528
X3.1693Y-3.1496
X3.2087Y-2.1654
X3.2087Y-2.5984
X3.2677Y-1.9685
X3.2677Y-2.7953
X3.2677Y-2.9921
X3.2677Y-3.1496
X3.2874Y-2.3031
X3.2874Y-2.4213
X3.3071Y-2.6772
X3.3268Y-4.4488
X3.3465Y-2.1654
X3.3661Y-2.5984
X3.3858Y-3.1496
X3.4252Y-2.9921
X3.4252Y-3.3858
X3.4252Y-3.5039
X3.4449Y-3.878
X3.4646Y-3.9961
X3.5039Y-2.2441
X3.5039Y-2.9528
X3.5433Y-2.3425
X3.5433Y-2.4409
X3.5433Y-2.5984
X3.5433Y-2.6772
X3.5433Y-3.5039
X3.563Y-4.5669
X3.5827Y-4.0748
X3.622Y-2.9528
X3.7008Y-3.1299
X3.7008Y-3.5039
X3.7008Y-3.8976
X3.7165Y-3.378
X3.7402Y-2.6378
X3.7402Y-2.7559
X3.7598Y-3.2283
X3.7795Y-2.3425
X3.7795Y-2.4803
X3.8189Y-1.8307
X3.8189Y-1.9488
X3.8189Y-2.126
X3.8189Y-4.0748
X3.8386Y-3.189
X3.8386Y-3.8189
X3.8583Y-3.5039
X3.8583Y-3.5827
X3.8976Y-2.2441
X3.8976Y-2.5984
X3.8976Y-3.0118
X3.9114Y-4.2972
X3.9173Y-3.9764
X3.937Y-1.9488
X3.937Y-2.0472
X3.937Y-2.4016
X3.937Y-2.7953
X3.937Y-2.9134
X3.937Y-4.3701
X3.9571Y-4.0988
X3.9764Y-3.189
X3.9764Y-4.5866
X3.9961Y-1.8307
X4.0551Y-4.3701
X4.0945Y-3.189
X4.1142Y-3.8189
X4.1295Y-2.4453
X4.1339Y-1.8898
X4.1339Y-3.9764
X4.1378Y-3.5591
X4.1535Y-3.4646
X4.1732Y-2.2835
X4.1929Y-4.3701
X4.1929Y-4.5866
X4.2126Y-3.1496
X4.2126Y-3.2677
X4.2323Y-2.7126
X4.2413Y-2.535
X4.2913Y-1.9685
X4.2913Y-2.9921
X4.2913Y-3.5039
X4.3504Y-3.8189
X4.3504Y-4.3701
X4.3622Y-2.5965
X4.4094Y-3.0315
X4.4094Y-3.2283
X4.4291Y-4.5866
X4.4488Y-1.9685
X4.4488Y-2.3031
X4.4685Y-3.5039
X4.4685Y-3.937
X4.5472Y-3.1102
X4.5669Y-4.0354
X4.5866Y-2.4409
X4.5866Y-4.3386
X4.6063Y-1.9685
X4.6063Y-2.6378
X4.6063Y-3.5039
X4.6102Y-2.7008
X4.6654Y-4.5472
X4.6713Y-4.4646
X4.7047Y-2.5394
X4.7835Y-1.9685
X4.7835Y-4.2717
X4.8031Y-4.5472
X4.8228Y-3.7598
X4.8228Y-3.878
X4.8622Y-3.1496
X4.8858Y-3.7126
X4.937Y-3.5197
X4.9606Y-1.9685
X4.9606Y-2.5394
X4.9606Y-2.7953
X4.9803Y-4.3307
X4.9803Y-4.5472
X5.Y-2.3031
X5.Y-2.9528
X5.0118Y-3.5591
X5.0118Y-3.622
X5.0394Y-3.7992
X5.0394Y-3.878
X5.0453Y-3.9311
X5.0512Y-3.5866
X5.0551Y-3.6614
X5.0591Y-3.248
X5.0591Y-3.4055
X5.0984Y-4.2126
X5.1378Y-2.9528
X5.1575Y-2.3031
X5.1732Y-3.1575
X5.1772Y-2.0276
X5.1772Y-4.3307
X5.185Y-2.5984
X5.2362Y-2.1063
X5.248Y-3.0709
X5.2638Y-4.0925
X5.2756Y-3.4055
X5.2756Y-3.5236
X5.2913Y-3.6614
X5.2913Y-3.7126
X5.2953Y-2.4213
X5.2953Y-2.5591
X5.3071Y-3.2913
X5.3071Y-3.9311
X5.311Y-3.0433
X5.3346Y-4.0925
X5.3346Y-4.311
X5.3484Y-3.8996
X5.3622Y-3.9626
X5.3661Y-3.75
X5.3819Y-3.2047
X5.3937Y-2.4213
X5.4016Y-4.0906
X5.4213Y-4.0039
X5.437Y-3.1693
X5.4764Y-2.4055
X5.4921Y-3.4055
X5.5118Y-2.5984
X5.5118Y-2.7165
X5.5315Y-2.8543
X5.5512Y-3.0709
X5.5512Y-3.2283
X5.5906Y-2.3937
X5.5906Y-3.4055
X5.5906Y-4.5079
X5.626Y-3.5236
X5.626Y-3.5866
X5.626Y-3.6496
X5.6299Y-3.7795
X5.685Y-2.4213
X5.7087Y-2.1457
X5.7087Y-3.5433
X5.7087Y-4.311
X5.7283Y-3.6811
X5.752Y-2.3425
X5.7835Y-3.9685
X5.7835Y-4.1102
X5.7874Y-3.8583
X5.7874Y-4.5079
X5.815Y-2.3346
X5.815Y-2.4764
X5.8268Y-3.937
X5.8268Y-4.2126
X5.8661Y-3.6811
X5.8858Y-2.6772
X5.9252Y-2.2441
X5.9252Y-2.4803
X5.9252Y-4.2126
X5.937Y-3.1024
X5.9449Y-3.8583
X5.9567Y-3.0315
X5.9843Y-2.9567
X5.9843Y-4.5079
X6.Y-3.0039
X6.0039Y-3.5433
X6.0039Y-3.7205
X6.0433Y-3.937
X6.0433Y-4.1142
X6.063Y-2.4213
X6.0787Y-4.3071
X6.0984Y-3.0079
X6.1024Y-3.1063
X6.1024Y-3.3386
X6.1102Y-3.0551
X6.1339Y-3.9685
X6.1417Y-3.9134
X6.2598Y-2.9567
X6.2598Y-3.9134
X6.2677Y-3.8583
T2
X3.5472Y-3.3953
X3.5472Y-3.7953
X4.2Y-3.
X4.2Y-3.4
X5.1079Y-4.3843
X5.3Y-4.3843
T3
X2.9134Y-1.8346
X2.9134Y-1.9346
X5.8543Y-3.0772
X5.8543Y-3.1772
T4
X2.9065Y-2.5028
X2.9065Y-2.6028
X2.9065Y-2.7028
X2.9065Y-2.8028
X2.9065Y-2.9028
X2.9065Y-3.0028
X2.9065Y-3.1028
X3.2087Y-3.2835
X3.2087Y-3.3835
X3.2087Y-3.4835
X3.2087Y-3.5835
X3.2087Y-3.6835
X3.2087Y-3.7835
X3.2087Y-3.8835
X3.2087Y-3.9835
X3.2087Y-4.0835
X3.2087Y-4.1835
X3.2087Y-4.2835
X3.2087Y-4.3835
X3.4193Y-4.3504
X3.5193Y-4.3504
X3.5866Y-1.7898
X3.5866Y-1.8898
X3.6193Y-4.3504
X4.25Y-2.15
X4.35Y-2.15
X4.5Y-2.15
X4.6Y-2.15
X4.75Y-2.15
X4.85Y-2.15
X5.Y-2.15
X5.1Y-2.15
X5.252Y-1.8071
X5.252Y-1.9071
X5.352Y-1.8071
X5.352Y-1.9071
X5.452Y-1.8071
X5.452Y-1.9071
X5.552Y-1.8071
X5.552Y-1.9071
X5.652Y-1.8071
X5.652Y-1.9071
X5.752Y-1.8071
X5.752Y-1.9071
X5.989Y-1.8055
X5.989Y-1.9055
X6.089Y-1.8055
X6.089Y-1.9055
X6.0906Y-2.5386
X6.0906Y-2.6386
X6.0906Y-2.7386
X6.0906Y-2.8386
X6.189Y-1.8055
X6.189Y-1.9055
T5
X2.9528Y-2.2441
X2.9528Y-4.6063
X6.2205Y-2.2441
X6.2205Y-4.6063
T0
M30
