G04 #@! TF.FileFunction,Soldermask,Bot*
%FSLAX46Y46*%
G04 Gerber Fmt 4.6, Leading zero omitted, Abs format (unit mm)*
G04 Created by KiCad (PCBNEW 4.0.7-e2-6376~58~ubuntu14.04.1) date Fri Dec 29 09:37:03 2017*
%MOMM*%
%LPD*%
G01*
G04 APERTURE LIST*
%ADD10C,0.100000*%
%ADD11R,2.600000X1.800000*%
%ADD12O,2.600000X1.800000*%
%ADD13C,5.000000*%
%ADD14C,5.600000*%
%ADD15R,1.700000X1.700000*%
%ADD16O,1.700000X1.700000*%
%ADD17C,1.620000*%
%ADD18C,2.000000*%
%ADD19C,2.500000*%
%ADD20C,3.000000*%
G04 APERTURE END LIST*
D10*
D11*
X87630000Y-111760000D03*
D12*
X87630000Y-109220000D03*
X87630000Y-106680000D03*
X87630000Y-104140000D03*
X87630000Y-101600000D03*
X87630000Y-99060000D03*
X87630000Y-96520000D03*
X87630000Y-93980000D03*
X87630000Y-91440000D03*
X87630000Y-88900000D03*
X87630000Y-86360000D03*
X87630000Y-83820000D03*
X87630000Y-81280000D03*
X87630000Y-78740000D03*
X87630000Y-76200000D03*
X87630000Y-73660000D03*
D13*
X87630000Y-117259100D03*
X118630700Y-117259100D03*
X118630700Y-42260520D03*
X87630000Y-42260000D03*
D14*
X75000000Y-43000000D03*
X138000000Y-43000000D03*
X138000000Y-117000000D03*
X75000000Y-117000000D03*
D15*
X81500000Y-83400000D03*
D16*
X81500000Y-85940000D03*
X81500000Y-88480000D03*
X81500000Y-91020000D03*
X81500000Y-93560000D03*
X81500000Y-96100000D03*
X81500000Y-98640000D03*
X81500000Y-101180000D03*
X81500000Y-103720000D03*
X81500000Y-106260000D03*
X81500000Y-108800000D03*
X81500000Y-111340000D03*
D15*
X82000000Y-52000000D03*
D16*
X82000000Y-54540000D03*
D17*
X78820000Y-119380000D03*
X81320000Y-114380000D03*
X83820000Y-119380000D03*
D18*
X140500000Y-94033000D03*
X136000000Y-94033000D03*
X140500000Y-87533000D03*
X136000000Y-87533000D03*
X140500000Y-81300000D03*
X136000000Y-81300000D03*
X140500000Y-74800000D03*
X136000000Y-74800000D03*
X127300000Y-106770000D03*
X122800000Y-106770000D03*
X127300000Y-100270000D03*
X122800000Y-100270000D03*
X127300000Y-119500000D03*
X122800000Y-119500000D03*
X127300000Y-113000000D03*
X122800000Y-113000000D03*
X127300000Y-81300000D03*
X122800000Y-81300000D03*
X127300000Y-74800000D03*
X122800000Y-74800000D03*
X127300000Y-94033000D03*
X122800000Y-94033000D03*
X127300000Y-87533000D03*
X122800000Y-87533000D03*
X140500000Y-106770000D03*
X136000000Y-106770000D03*
X140500000Y-100270000D03*
X136000000Y-100270000D03*
D19*
X134000000Y-65500000D03*
X136500000Y-48000000D03*
X131500000Y-48000000D03*
X126500000Y-48000000D03*
X129000000Y-65500000D03*
D20*
X123100000Y-58500000D03*
X139900000Y-58500000D03*
M02*
