G04 #@! TF.FileFunction,Soldermask,Top*
%FSLAX46Y46*%
G04 Gerber Fmt 4.6, Leading zero omitted, Abs format (unit mm)*
G04 Created by KiCad (PCBNEW 4.0.7-e2-6376~58~ubuntu14.04.1) date Mon Jan  1 12:18:07 2018*
%MOMM*%
%LPD*%
G01*
G04 APERTURE LIST*
%ADD10C,0.100000*%
%ADD11R,2.600000X1.800000*%
%ADD12O,2.600000X1.800000*%
%ADD13C,5.000000*%
%ADD14R,1.600000X1.600000*%
%ADD15C,5.600000*%
%ADD16R,1.700000X1.700000*%
%ADD17O,1.700000X1.700000*%
%ADD18C,1.620000*%
%ADD19C,2.000000*%
%ADD20R,1.400000X1.700000*%
%ADD21R,1.700000X1.400000*%
%ADD22C,2.500000*%
%ADD23C,3.000000*%
G04 APERTURE END LIST*
D10*
D11*
X87630000Y-111760000D03*
D12*
X87630000Y-109220000D03*
X87630000Y-106680000D03*
X87630000Y-104140000D03*
X87630000Y-101600000D03*
X87630000Y-99060000D03*
X87630000Y-96520000D03*
X87630000Y-93980000D03*
X87630000Y-91440000D03*
X87630000Y-88900000D03*
X87630000Y-86360000D03*
X87630000Y-83820000D03*
X87630000Y-81280000D03*
X87630000Y-78740000D03*
X87630000Y-76200000D03*
X87630000Y-73660000D03*
D13*
X87630000Y-117259100D03*
X118630700Y-117259100D03*
X118630700Y-42260520D03*
X87630000Y-42260000D03*
D14*
X93600000Y-109225000D03*
X91300000Y-109225000D03*
D15*
X75000000Y-43000000D03*
X138000000Y-43000000D03*
X138000000Y-117000000D03*
X75000000Y-117000000D03*
D16*
X81500000Y-83400000D03*
D17*
X81500000Y-85940000D03*
X81500000Y-88480000D03*
X81500000Y-91020000D03*
X81500000Y-93560000D03*
X81500000Y-96100000D03*
X81500000Y-98640000D03*
X81500000Y-101180000D03*
X81500000Y-103720000D03*
X81500000Y-106260000D03*
X81500000Y-108800000D03*
X81500000Y-111340000D03*
D16*
X82000000Y-52000000D03*
D17*
X82000000Y-54540000D03*
D18*
X78820000Y-119380000D03*
X81320000Y-114380000D03*
X83820000Y-119380000D03*
D19*
X140500000Y-94033000D03*
X136000000Y-94033000D03*
X140500000Y-87533000D03*
X136000000Y-87533000D03*
X140500000Y-81300000D03*
X136000000Y-81300000D03*
X140500000Y-74800000D03*
X136000000Y-74800000D03*
X127300000Y-106770000D03*
X122800000Y-106770000D03*
X127300000Y-100270000D03*
X122800000Y-100270000D03*
X127300000Y-119500000D03*
X122800000Y-119500000D03*
X127300000Y-113000000D03*
X122800000Y-113000000D03*
X127300000Y-81300000D03*
X122800000Y-81300000D03*
X127300000Y-74800000D03*
X122800000Y-74800000D03*
X127300000Y-94033000D03*
X122800000Y-94033000D03*
X127300000Y-87533000D03*
X122800000Y-87533000D03*
X140500000Y-106770000D03*
X136000000Y-106770000D03*
X140500000Y-100270000D03*
X136000000Y-100270000D03*
D14*
X112800000Y-44950000D03*
X112800000Y-47250000D03*
X118100000Y-59550000D03*
X118100000Y-57250000D03*
X140450000Y-71200000D03*
X138150000Y-71200000D03*
D20*
X93650000Y-76200000D03*
X91250000Y-76200000D03*
X119800000Y-68500000D03*
X117400000Y-68500000D03*
X123700000Y-68500000D03*
X126100000Y-68500000D03*
X113200000Y-86100000D03*
X110800000Y-86100000D03*
X131600000Y-71200000D03*
X134000000Y-71200000D03*
D21*
X112800000Y-53500000D03*
X112800000Y-55900000D03*
X119700000Y-95500000D03*
X119700000Y-97900000D03*
X108800000Y-56300000D03*
X108800000Y-58700000D03*
X120400000Y-108900000D03*
X120400000Y-111300000D03*
X132700000Y-111100000D03*
X132700000Y-108700000D03*
X130300000Y-83200000D03*
X130300000Y-85600000D03*
D20*
X131500000Y-97500000D03*
X133900000Y-97500000D03*
D22*
X134000000Y-65500000D03*
X136500000Y-48000000D03*
X131500000Y-48000000D03*
X126500000Y-48000000D03*
X129000000Y-65500000D03*
D23*
X123100000Y-58500000D03*
X139900000Y-58500000D03*
D20*
X117800000Y-51700000D03*
X120200000Y-51700000D03*
X126300000Y-45000000D03*
X123900000Y-45000000D03*
X120200000Y-48100000D03*
X117800000Y-48100000D03*
X126300000Y-41600000D03*
X123900000Y-41600000D03*
M02*
