M48
;DRILL file {KiCad 4.0.7-e2-6376~58~ubuntu14.04.1} date Mon Jan  1 12:03:20 2018
;FORMAT={-:-/ absolute / inch / decimal}
FMAT,2
INCH,TZ
T1C0.016
T2C0.035
T3C0.039
T4C0.043
T5C0.047
T6C0.055
T7C0.087
T8C0.126
%
G90
G05
M72
T1
X3.2638Y-3.0512
X3.3051Y-3.937
X3.311Y-3.0512
X3.3346Y-4.313
X3.7343Y-2.1811
X3.8425Y-2.2894
X4.252Y-1.8307
X4.252Y-2.0472
X4.2992Y-2.4803
X4.4567Y-3.502
X4.5276Y-3.1693
X4.5354Y-2.4803
X5.4075Y-3.5709
T2
X3.1031Y-4.7
X3.2016Y-4.5031
X3.3Y-4.7
T3
X3.2087Y-3.2835
X3.2087Y-3.3835
X3.2087Y-3.4835
X3.2087Y-3.5835
X3.2087Y-3.6835
X3.2087Y-3.7835
X3.2087Y-3.8835
X3.2087Y-3.9835
X3.2087Y-4.0835
X3.2087Y-4.1835
X3.2087Y-4.2835
X3.2087Y-4.3835
X3.2283Y-2.0472
X3.2283Y-2.1472
T4
X4.8346Y-2.9449
X4.8346Y-3.2008
X4.8346Y-3.4462
X4.8346Y-3.7021
X4.8346Y-3.9476
X4.8346Y-4.2035
X4.8346Y-4.4488
X4.8346Y-4.7047
X5.0118Y-2.9449
X5.0118Y-3.2008
X5.0118Y-3.4462
X5.0118Y-3.7021
X5.0118Y-3.9476
X5.0118Y-4.2035
X5.0118Y-4.4488
X5.0118Y-4.7047
X5.3543Y-2.9449
X5.3543Y-3.2008
X5.3543Y-3.4462
X5.3543Y-3.7021
X5.3543Y-3.9476
X5.3543Y-4.2035
X5.5315Y-2.9449
X5.5315Y-3.2008
X5.5315Y-3.4462
X5.5315Y-3.7021
X5.5315Y-3.9476
X5.5315Y-4.2035
T5
X3.45Y-2.9
X3.45Y-3.
X3.45Y-3.1
X3.45Y-3.2
X3.45Y-3.3
X3.45Y-3.4
X3.45Y-3.5
X3.45Y-3.6
X3.45Y-3.7
X3.45Y-3.8
X3.45Y-3.9
X3.45Y-4.
X3.45Y-4.1
X3.45Y-4.2
X3.45Y-4.3
X3.45Y-4.4
T6
X4.9803Y-1.8898
X5.0787Y-2.5787
X5.1772Y-1.8898
X5.2756Y-2.5787
X5.374Y-1.8898
T7
X4.8465Y-2.3031
X5.5079Y-2.3031
T8
X2.9528Y-1.6929
X2.9528Y-4.6063
X3.45Y-1.6638
X3.45Y-4.6165
X4.6705Y-1.6638
X4.6705Y-4.6165
X5.4331Y-1.6929
X5.4331Y-4.6063
T0
M30
