G04 #@! TF.FileFunction,Legend,Top*
%FSLAX46Y46*%
G04 Gerber Fmt 4.6, Leading zero omitted, Abs format (unit mm)*
G04 Created by KiCad (PCBNEW 4.0.7-e2-6376~58~ubuntu14.04.1) date Mon Jan  1 12:18:07 2018*
%MOMM*%
%LPD*%
G01*
G04 APERTURE LIST*
%ADD10C,0.100000*%
%ADD11C,0.300000*%
%ADD12C,0.120000*%
%ADD13C,0.150000*%
%ADD14C,0.203200*%
%ADD15C,0.152400*%
G04 APERTURE END LIST*
D10*
D11*
X132678571Y-105028571D02*
X134178571Y-104528571D01*
X132678571Y-104028571D01*
X133392857Y-103028571D02*
X133392857Y-103528571D01*
X134178571Y-103528571D02*
X132678571Y-103528571D01*
X132678571Y-102814285D01*
X132678571Y-101957143D02*
X132678571Y-101671429D01*
X132750000Y-101528571D01*
X132892857Y-101385714D01*
X133178571Y-101314286D01*
X133678571Y-101314286D01*
X133964286Y-101385714D01*
X134107143Y-101528571D01*
X134178571Y-101671429D01*
X134178571Y-101957143D01*
X134107143Y-102100000D01*
X133964286Y-102242857D01*
X133678571Y-102314286D01*
X133178571Y-102314286D01*
X132892857Y-102242857D01*
X132750000Y-102100000D01*
X132678571Y-101957143D01*
X129792857Y-118535714D02*
X129864286Y-118321428D01*
X129935714Y-118250000D01*
X130078571Y-118178571D01*
X130292857Y-118178571D01*
X130435714Y-118250000D01*
X130507143Y-118321428D01*
X130578571Y-118464286D01*
X130578571Y-119035714D01*
X129078571Y-119035714D01*
X129078571Y-118535714D01*
X129150000Y-118392857D01*
X129221429Y-118321428D01*
X129364286Y-118250000D01*
X129507143Y-118250000D01*
X129650000Y-118321428D01*
X129721429Y-118392857D01*
X129792857Y-118535714D01*
X129792857Y-119035714D01*
X129792857Y-117535714D02*
X129792857Y-117035714D01*
X130578571Y-116821428D02*
X130578571Y-117535714D01*
X129078571Y-117535714D01*
X129078571Y-116821428D01*
X130578571Y-116178571D02*
X129078571Y-116178571D01*
X130578571Y-115321428D01*
X129078571Y-115321428D01*
X130578571Y-114607142D02*
X129078571Y-114607142D01*
X129078571Y-114249999D01*
X129150000Y-114035714D01*
X129292857Y-113892856D01*
X129435714Y-113821428D01*
X129721429Y-113749999D01*
X129935714Y-113749999D01*
X130221429Y-113821428D01*
X130364286Y-113892856D01*
X130507143Y-114035714D01*
X130578571Y-114249999D01*
X130578571Y-114607142D01*
X130007143Y-113107142D02*
X130007143Y-111964285D01*
X130578571Y-112535714D02*
X129435714Y-112535714D01*
X129792857Y-106235714D02*
X129864286Y-106021428D01*
X129935714Y-105950000D01*
X130078571Y-105878571D01*
X130292857Y-105878571D01*
X130435714Y-105950000D01*
X130507143Y-106021428D01*
X130578571Y-106164286D01*
X130578571Y-106735714D01*
X129078571Y-106735714D01*
X129078571Y-106235714D01*
X129150000Y-106092857D01*
X129221429Y-106021428D01*
X129364286Y-105950000D01*
X129507143Y-105950000D01*
X129650000Y-106021428D01*
X129721429Y-106092857D01*
X129792857Y-106235714D01*
X129792857Y-106735714D01*
X129792857Y-105235714D02*
X129792857Y-104735714D01*
X130578571Y-104521428D02*
X130578571Y-105235714D01*
X129078571Y-105235714D01*
X129078571Y-104521428D01*
X130578571Y-103878571D02*
X129078571Y-103878571D01*
X130578571Y-103021428D01*
X129078571Y-103021428D01*
X130578571Y-102307142D02*
X129078571Y-102307142D01*
X129078571Y-101949999D01*
X129150000Y-101735714D01*
X129292857Y-101592856D01*
X129435714Y-101521428D01*
X129721429Y-101449999D01*
X129935714Y-101449999D01*
X130221429Y-101521428D01*
X130364286Y-101592856D01*
X130507143Y-101735714D01*
X130578571Y-101949999D01*
X130578571Y-102307142D01*
X130007143Y-100807142D02*
X130007143Y-99664285D01*
X130507143Y-93857143D02*
X130578571Y-93642857D01*
X130578571Y-93285714D01*
X130507143Y-93142857D01*
X130435714Y-93071428D01*
X130292857Y-93000000D01*
X130150000Y-93000000D01*
X130007143Y-93071428D01*
X129935714Y-93142857D01*
X129864286Y-93285714D01*
X129792857Y-93571428D01*
X129721429Y-93714286D01*
X129650000Y-93785714D01*
X129507143Y-93857143D01*
X129364286Y-93857143D01*
X129221429Y-93785714D01*
X129150000Y-93714286D01*
X129078571Y-93571428D01*
X129078571Y-93214286D01*
X129150000Y-93000000D01*
X129078571Y-92571429D02*
X129078571Y-91714286D01*
X130578571Y-92142857D02*
X129078571Y-92142857D01*
X129792857Y-91214286D02*
X129792857Y-90714286D01*
X130578571Y-90500000D02*
X130578571Y-91214286D01*
X129078571Y-91214286D01*
X129078571Y-90500000D01*
X130578571Y-89857143D02*
X129078571Y-89857143D01*
X129078571Y-89285715D01*
X129150000Y-89142857D01*
X129221429Y-89071429D01*
X129364286Y-89000000D01*
X129578571Y-89000000D01*
X129721429Y-89071429D01*
X129792857Y-89142857D01*
X129864286Y-89285715D01*
X129864286Y-89857143D01*
X130007143Y-88357143D02*
X130007143Y-87214286D01*
X130578571Y-87785715D02*
X129435714Y-87785715D01*
X134178571Y-92878571D02*
X133464286Y-93378571D01*
X134178571Y-93735714D02*
X132678571Y-93735714D01*
X132678571Y-93164286D01*
X132750000Y-93021428D01*
X132821429Y-92950000D01*
X132964286Y-92878571D01*
X133178571Y-92878571D01*
X133321429Y-92950000D01*
X133392857Y-93021428D01*
X133464286Y-93164286D01*
X133464286Y-93735714D01*
X133392857Y-92235714D02*
X133392857Y-91735714D01*
X134178571Y-91521428D02*
X134178571Y-92235714D01*
X132678571Y-92235714D01*
X132678571Y-91521428D01*
X134107143Y-90950000D02*
X134178571Y-90735714D01*
X134178571Y-90378571D01*
X134107143Y-90235714D01*
X134035714Y-90164285D01*
X133892857Y-90092857D01*
X133750000Y-90092857D01*
X133607143Y-90164285D01*
X133535714Y-90235714D01*
X133464286Y-90378571D01*
X133392857Y-90664285D01*
X133321429Y-90807143D01*
X133250000Y-90878571D01*
X133107143Y-90950000D01*
X132964286Y-90950000D01*
X132821429Y-90878571D01*
X132750000Y-90807143D01*
X132678571Y-90664285D01*
X132678571Y-90307143D01*
X132750000Y-90092857D01*
X133392857Y-89450000D02*
X133392857Y-88950000D01*
X134178571Y-88735714D02*
X134178571Y-89450000D01*
X132678571Y-89450000D01*
X132678571Y-88735714D01*
X132678571Y-88307143D02*
X132678571Y-87450000D01*
X134178571Y-87878571D02*
X132678571Y-87878571D01*
X130507143Y-81057143D02*
X130578571Y-80842857D01*
X130578571Y-80485714D01*
X130507143Y-80342857D01*
X130435714Y-80271428D01*
X130292857Y-80200000D01*
X130150000Y-80200000D01*
X130007143Y-80271428D01*
X129935714Y-80342857D01*
X129864286Y-80485714D01*
X129792857Y-80771428D01*
X129721429Y-80914286D01*
X129650000Y-80985714D01*
X129507143Y-81057143D01*
X129364286Y-81057143D01*
X129221429Y-80985714D01*
X129150000Y-80914286D01*
X129078571Y-80771428D01*
X129078571Y-80414286D01*
X129150000Y-80200000D01*
X129078571Y-79771429D02*
X129078571Y-78914286D01*
X130578571Y-79342857D02*
X129078571Y-79342857D01*
X129792857Y-78414286D02*
X129792857Y-77914286D01*
X130578571Y-77700000D02*
X130578571Y-78414286D01*
X129078571Y-78414286D01*
X129078571Y-77700000D01*
X130578571Y-77057143D02*
X129078571Y-77057143D01*
X129078571Y-76485715D01*
X129150000Y-76342857D01*
X129221429Y-76271429D01*
X129364286Y-76200000D01*
X129578571Y-76200000D01*
X129721429Y-76271429D01*
X129792857Y-76342857D01*
X129864286Y-76485715D01*
X129864286Y-77057143D01*
X130007143Y-75557143D02*
X130007143Y-74414286D01*
X72878571Y-77664284D02*
X74092857Y-77664284D01*
X74235714Y-77592856D01*
X74307143Y-77521427D01*
X74378571Y-77378570D01*
X74378571Y-77092856D01*
X74307143Y-76949998D01*
X74235714Y-76878570D01*
X74092857Y-76807141D01*
X72878571Y-76807141D01*
X72878571Y-76307141D02*
X72878571Y-75449998D01*
X74378571Y-75878569D02*
X72878571Y-75878569D01*
X72878571Y-75092855D02*
X72878571Y-74164284D01*
X73450000Y-74664284D01*
X73450000Y-74449998D01*
X73521429Y-74307141D01*
X73592857Y-74235712D01*
X73735714Y-74164284D01*
X74092857Y-74164284D01*
X74235714Y-74235712D01*
X74307143Y-74307141D01*
X74378571Y-74449998D01*
X74378571Y-74878570D01*
X74307143Y-75021427D01*
X74235714Y-75092855D01*
X74378571Y-73521427D02*
X72878571Y-73521427D01*
X73950000Y-73021427D01*
X72878571Y-72521427D01*
X74378571Y-72521427D01*
X74378571Y-71807141D02*
X72878571Y-71807141D01*
X74378571Y-70949998D02*
X73521429Y-71592855D01*
X72878571Y-70949998D02*
X73735714Y-71807141D01*
X72878571Y-69378570D02*
X74378571Y-68878570D01*
X72878571Y-68378570D01*
X73592857Y-67378570D02*
X73592857Y-67878570D01*
X74378571Y-67878570D02*
X72878571Y-67878570D01*
X72878571Y-67164284D01*
X72878571Y-66307142D02*
X72878571Y-66021428D01*
X72950000Y-65878570D01*
X73092857Y-65735713D01*
X73378571Y-65664285D01*
X73878571Y-65664285D01*
X74164286Y-65735713D01*
X74307143Y-65878570D01*
X74378571Y-66021428D01*
X74378571Y-66307142D01*
X74307143Y-66449999D01*
X74164286Y-66592856D01*
X73878571Y-66664285D01*
X73378571Y-66664285D01*
X73092857Y-66592856D01*
X72950000Y-66449999D01*
X72878571Y-66307142D01*
X74307143Y-63949999D02*
X74378571Y-63735713D01*
X74378571Y-63378570D01*
X74307143Y-63235713D01*
X74235714Y-63164284D01*
X74092857Y-63092856D01*
X73950000Y-63092856D01*
X73807143Y-63164284D01*
X73735714Y-63235713D01*
X73664286Y-63378570D01*
X73592857Y-63664284D01*
X73521429Y-63807142D01*
X73450000Y-63878570D01*
X73307143Y-63949999D01*
X73164286Y-63949999D01*
X73021429Y-63878570D01*
X72950000Y-63807142D01*
X72878571Y-63664284D01*
X72878571Y-63307142D01*
X72950000Y-63092856D01*
X74378571Y-62449999D02*
X72878571Y-62449999D01*
X72878571Y-61021427D02*
X72878571Y-61735713D01*
X73592857Y-61807142D01*
X73521429Y-61735713D01*
X73450000Y-61592856D01*
X73450000Y-61235713D01*
X73521429Y-61092856D01*
X73592857Y-61021427D01*
X73735714Y-60949999D01*
X74092857Y-60949999D01*
X74235714Y-61021427D01*
X74307143Y-61092856D01*
X74378571Y-61235713D01*
X74378571Y-61592856D01*
X74307143Y-61735713D01*
X74235714Y-61807142D01*
X72878571Y-60449999D02*
X72878571Y-59521428D01*
X73450000Y-60021428D01*
X73450000Y-59807142D01*
X73521429Y-59664285D01*
X73592857Y-59592856D01*
X73735714Y-59521428D01*
X74092857Y-59521428D01*
X74235714Y-59592856D01*
X74307143Y-59664285D01*
X74378571Y-59807142D01*
X74378571Y-60235714D01*
X74307143Y-60378571D01*
X74235714Y-60449999D01*
X72878571Y-58164285D02*
X72878571Y-58878571D01*
X73592857Y-58950000D01*
X73521429Y-58878571D01*
X73450000Y-58735714D01*
X73450000Y-58378571D01*
X73521429Y-58235714D01*
X73592857Y-58164285D01*
X73735714Y-58092857D01*
X74092857Y-58092857D01*
X74235714Y-58164285D01*
X74307143Y-58235714D01*
X74378571Y-58378571D01*
X74378571Y-58735714D01*
X74307143Y-58878571D01*
X74235714Y-58950000D01*
X74378571Y-56664286D02*
X74378571Y-57521429D01*
X74378571Y-57092857D02*
X72878571Y-57092857D01*
X73092857Y-57235714D01*
X73235714Y-57378572D01*
X73307143Y-57521429D01*
X73378571Y-55021429D02*
X74378571Y-54664286D01*
X73378571Y-54307144D01*
X74235714Y-53735715D02*
X74307143Y-53664287D01*
X74378571Y-53735715D01*
X74307143Y-53807144D01*
X74235714Y-53735715D01*
X74378571Y-53735715D01*
X74378571Y-52235715D02*
X74378571Y-53092858D01*
X74378571Y-52664286D02*
X72878571Y-52664286D01*
X73092857Y-52807143D01*
X73235714Y-52950001D01*
X73307143Y-53092858D01*
X74235714Y-51592858D02*
X74307143Y-51521430D01*
X74378571Y-51592858D01*
X74307143Y-51664287D01*
X74235714Y-51592858D01*
X74378571Y-51592858D01*
X72878571Y-50592858D02*
X72878571Y-50450001D01*
X72950000Y-50307144D01*
X73021429Y-50235715D01*
X73164286Y-50164286D01*
X73450000Y-50092858D01*
X73807143Y-50092858D01*
X74092857Y-50164286D01*
X74235714Y-50235715D01*
X74307143Y-50307144D01*
X74378571Y-50450001D01*
X74378571Y-50592858D01*
X74307143Y-50735715D01*
X74235714Y-50807144D01*
X74092857Y-50878572D01*
X73807143Y-50950001D01*
X73450000Y-50950001D01*
X73164286Y-50878572D01*
X73021429Y-50807144D01*
X72950000Y-50735715D01*
X72878571Y-50592858D01*
X72878571Y-48735715D02*
X72878571Y-49450001D01*
X73592857Y-49521430D01*
X73521429Y-49450001D01*
X73450000Y-49307144D01*
X73450000Y-48950001D01*
X73521429Y-48807144D01*
X73592857Y-48735715D01*
X73735714Y-48664287D01*
X74092857Y-48664287D01*
X74235714Y-48735715D01*
X74307143Y-48807144D01*
X74378571Y-48950001D01*
X74378571Y-49307144D01*
X74307143Y-49450001D01*
X74235714Y-49521430D01*
X134278571Y-80021428D02*
X133564286Y-80521428D01*
X134278571Y-80878571D02*
X132778571Y-80878571D01*
X132778571Y-80307143D01*
X132850000Y-80164285D01*
X132921429Y-80092857D01*
X133064286Y-80021428D01*
X133278571Y-80021428D01*
X133421429Y-80092857D01*
X133492857Y-80164285D01*
X133564286Y-80307143D01*
X133564286Y-80878571D01*
X132778571Y-79521428D02*
X134278571Y-78521428D01*
X132778571Y-78521428D02*
X134278571Y-79521428D01*
X132707143Y-76878572D02*
X134635714Y-78164286D01*
X132778571Y-76592857D02*
X132778571Y-75735714D01*
X134278571Y-76164285D02*
X132778571Y-76164285D01*
X132778571Y-75378571D02*
X134278571Y-74378571D01*
X132778571Y-74378571D02*
X134278571Y-75378571D01*
D12*
X121270000Y-119900000D02*
X121270000Y-39620000D01*
X121270000Y-39620000D02*
X84990000Y-39620000D01*
X84990000Y-39620000D02*
X84990000Y-119100000D01*
X84990000Y-119900000D02*
X121270000Y-119900000D01*
X84990000Y-119890000D02*
X84990000Y-119100000D01*
X84630000Y-113260000D02*
X84630000Y-110260000D01*
X95630000Y-111560000D02*
X95630000Y-48060000D01*
X110129320Y-112059720D02*
X96130000Y-112059720D01*
X110630000Y-48059340D02*
X110630000Y-111560000D01*
X96130000Y-47560000D02*
X110130000Y-47560000D01*
X96130000Y-47560000D02*
G75*
G03X95630000Y-48060000I0J-500000D01*
G01*
X110629700Y-48059340D02*
G75*
G03X110129320Y-47558960I-500380J0D01*
G01*
X110129320Y-112059720D02*
G75*
G03X110629700Y-111559340I0J500380D01*
G01*
X95628460Y-111559340D02*
G75*
G03X96128840Y-112059720I500380J0D01*
G01*
X90630000Y-116760000D02*
X90630000Y-43760000D01*
X90630000Y-43760000D02*
X115630000Y-43760000D01*
X115630000Y-43760000D02*
X115630000Y-116760000D01*
X115630000Y-116760000D02*
X90630000Y-116760000D01*
D13*
X92200000Y-108625000D02*
X92700000Y-108625000D01*
X92700000Y-109825000D02*
X92200000Y-109825000D01*
D12*
X82311945Y-113827109D02*
G75*
G02X84530000Y-116880000I-991945J-3052891D01*
G01*
X78512184Y-118435333D02*
G75*
G02X80329000Y-113827000I2807816J1555333D01*
G01*
X82827618Y-119714671D02*
G75*
G02X79813000Y-119715000I-1507618J2834671D01*
G01*
X84529799Y-116823536D02*
G75*
G02X84128000Y-118436000I-3209799J-56464D01*
G01*
X82220000Y-116880000D02*
G75*
G03X82220000Y-116880000I-900000J0D01*
G01*
D13*
X141500000Y-93033000D02*
X141500000Y-88533000D01*
X137500000Y-94283000D02*
X139000000Y-94283000D01*
X135000000Y-88533000D02*
X135000000Y-93033000D01*
X139000000Y-87283000D02*
X137500000Y-87283000D01*
X141500000Y-80300000D02*
X141500000Y-75800000D01*
X137500000Y-81550000D02*
X139000000Y-81550000D01*
X135000000Y-75800000D02*
X135000000Y-80300000D01*
X139000000Y-74550000D02*
X137500000Y-74550000D01*
X128300000Y-105770000D02*
X128300000Y-101270000D01*
X124300000Y-107020000D02*
X125800000Y-107020000D01*
X121800000Y-101270000D02*
X121800000Y-105770000D01*
X125800000Y-100020000D02*
X124300000Y-100020000D01*
X128300000Y-118500000D02*
X128300000Y-114000000D01*
X124300000Y-119750000D02*
X125800000Y-119750000D01*
X121800000Y-114000000D02*
X121800000Y-118500000D01*
X125800000Y-112750000D02*
X124300000Y-112750000D01*
X128300000Y-80300000D02*
X128300000Y-75800000D01*
X124300000Y-81550000D02*
X125800000Y-81550000D01*
X121800000Y-75800000D02*
X121800000Y-80300000D01*
X125800000Y-74550000D02*
X124300000Y-74550000D01*
X128300000Y-93033000D02*
X128300000Y-88533000D01*
X124300000Y-94283000D02*
X125800000Y-94283000D01*
X121800000Y-88533000D02*
X121800000Y-93033000D01*
X125800000Y-87283000D02*
X124300000Y-87283000D01*
X141500000Y-105770000D02*
X141500000Y-101270000D01*
X137500000Y-107020000D02*
X139000000Y-107020000D01*
X135000000Y-101270000D02*
X135000000Y-105770000D01*
X139000000Y-100020000D02*
X137500000Y-100020000D01*
X112200000Y-46350000D02*
X112200000Y-45850000D01*
X113400000Y-45850000D02*
X113400000Y-46350000D01*
X118700000Y-58150000D02*
X118700000Y-58650000D01*
X117500000Y-58650000D02*
X117500000Y-58150000D01*
X139050000Y-70600000D02*
X139550000Y-70600000D01*
X139550000Y-71800000D02*
X139050000Y-71800000D01*
X92050000Y-75525000D02*
X92850000Y-75525000D01*
X92850000Y-76875000D02*
X92050000Y-76875000D01*
X118200000Y-67825000D02*
X119000000Y-67825000D01*
X119000000Y-69175000D02*
X118200000Y-69175000D01*
X125300000Y-69175000D02*
X124500000Y-69175000D01*
X124500000Y-67825000D02*
X125300000Y-67825000D01*
X111600000Y-85425000D02*
X112400000Y-85425000D01*
X112400000Y-86775000D02*
X111600000Y-86775000D01*
X133200000Y-71875000D02*
X132400000Y-71875000D01*
X132400000Y-70525000D02*
X133200000Y-70525000D01*
X112125000Y-55100000D02*
X112125000Y-54300000D01*
X113475000Y-54300000D02*
X113475000Y-55100000D01*
X119025000Y-97100000D02*
X119025000Y-96300000D01*
X120375000Y-96300000D02*
X120375000Y-97100000D01*
X108125000Y-57900000D02*
X108125000Y-57100000D01*
X109475000Y-57100000D02*
X109475000Y-57900000D01*
X119725000Y-110500000D02*
X119725000Y-109700000D01*
X121075000Y-109700000D02*
X121075000Y-110500000D01*
X133375000Y-109500000D02*
X133375000Y-110300000D01*
X132025000Y-110300000D02*
X132025000Y-109500000D01*
X129625000Y-84800000D02*
X129625000Y-84000000D01*
X130975000Y-84000000D02*
X130975000Y-84800000D01*
X133100000Y-98175000D02*
X132300000Y-98175000D01*
X132300000Y-96825000D02*
X133100000Y-96825000D01*
D14*
X128500000Y-60000000D02*
X134500000Y-60000000D01*
X135000000Y-58500000D02*
G75*
G03X135000000Y-58500000I-3500000J0D01*
G01*
X123500000Y-49000000D02*
X139500000Y-49000000D01*
X139500000Y-49000000D02*
X139500000Y-65000000D01*
X139500000Y-65000000D02*
X123500000Y-65000000D01*
X123500000Y-65000000D02*
X123500000Y-49000000D01*
D13*
X119400000Y-52375000D02*
X118600000Y-52375000D01*
X118600000Y-51025000D02*
X119400000Y-51025000D01*
X124700000Y-44325000D02*
X125500000Y-44325000D01*
X125500000Y-45675000D02*
X124700000Y-45675000D01*
X118600000Y-47425000D02*
X119400000Y-47425000D01*
X119400000Y-48775000D02*
X118600000Y-48775000D01*
X124700000Y-40925000D02*
X125500000Y-40925000D01*
X125500000Y-42275000D02*
X124700000Y-42275000D01*
X84327381Y-112964286D02*
X83327381Y-112964286D01*
X83327381Y-112726191D01*
X83375000Y-112583333D01*
X83470238Y-112488095D01*
X83565476Y-112440476D01*
X83755952Y-112392857D01*
X83898810Y-112392857D01*
X84089286Y-112440476D01*
X84184524Y-112488095D01*
X84279762Y-112583333D01*
X84327381Y-112726191D01*
X84327381Y-112964286D01*
X84279762Y-112011905D02*
X84327381Y-111869048D01*
X84327381Y-111630952D01*
X84279762Y-111535714D01*
X84232143Y-111488095D01*
X84136905Y-111440476D01*
X84041667Y-111440476D01*
X83946429Y-111488095D01*
X83898810Y-111535714D01*
X83851190Y-111630952D01*
X83803571Y-111821429D01*
X83755952Y-111916667D01*
X83708333Y-111964286D01*
X83613095Y-112011905D01*
X83517857Y-112011905D01*
X83422619Y-111964286D01*
X83375000Y-111916667D01*
X83327381Y-111821429D01*
X83327381Y-111583333D01*
X83375000Y-111440476D01*
X84327381Y-110488095D02*
X84327381Y-111059524D01*
X84327381Y-110773810D02*
X83327381Y-110773810D01*
X83470238Y-110869048D01*
X83565476Y-110964286D01*
X83613095Y-111059524D01*
X92283334Y-111282143D02*
X92235715Y-111329762D01*
X92092858Y-111377381D01*
X91997620Y-111377381D01*
X91854762Y-111329762D01*
X91759524Y-111234524D01*
X91711905Y-111139286D01*
X91664286Y-110948810D01*
X91664286Y-110805952D01*
X91711905Y-110615476D01*
X91759524Y-110520238D01*
X91854762Y-110425000D01*
X91997620Y-110377381D01*
X92092858Y-110377381D01*
X92235715Y-110425000D01*
X92283334Y-110472619D01*
X93235715Y-111377381D02*
X92664286Y-111377381D01*
X92950000Y-111377381D02*
X92950000Y-110377381D01*
X92854762Y-110520238D01*
X92759524Y-110615476D01*
X92664286Y-110663095D01*
X78627381Y-114120238D02*
X78151190Y-114453572D01*
X78627381Y-114691667D02*
X77627381Y-114691667D01*
X77627381Y-114310714D01*
X77675000Y-114215476D01*
X77722619Y-114167857D01*
X77817857Y-114120238D01*
X77960714Y-114120238D01*
X78055952Y-114167857D01*
X78103571Y-114215476D01*
X78151190Y-114310714D01*
X78151190Y-114691667D01*
X77627381Y-113834524D02*
X78627381Y-113501191D01*
X77627381Y-113167857D01*
X78627381Y-112310714D02*
X78627381Y-112882143D01*
X78627381Y-112596429D02*
X77627381Y-112596429D01*
X77770238Y-112691667D01*
X77865476Y-112786905D01*
X77913095Y-112882143D01*
X136866667Y-86504762D02*
X137009524Y-86552381D01*
X137247620Y-86552381D01*
X137342858Y-86504762D01*
X137390477Y-86457143D01*
X137438096Y-86361905D01*
X137438096Y-86266667D01*
X137390477Y-86171429D01*
X137342858Y-86123810D01*
X137247620Y-86076190D01*
X137057143Y-86028571D01*
X136961905Y-85980952D01*
X136914286Y-85933333D01*
X136866667Y-85838095D01*
X136866667Y-85742857D01*
X136914286Y-85647619D01*
X136961905Y-85600000D01*
X137057143Y-85552381D01*
X137295239Y-85552381D01*
X137438096Y-85600000D01*
X137771429Y-85552381D02*
X138009524Y-86552381D01*
X138200001Y-85838095D01*
X138390477Y-86552381D01*
X138628572Y-85552381D01*
X139533334Y-86552381D02*
X138961905Y-86552381D01*
X139247619Y-86552381D02*
X139247619Y-85552381D01*
X139152381Y-85695238D01*
X139057143Y-85790476D01*
X138961905Y-85838095D01*
X136866667Y-73904762D02*
X137009524Y-73952381D01*
X137247620Y-73952381D01*
X137342858Y-73904762D01*
X137390477Y-73857143D01*
X137438096Y-73761905D01*
X137438096Y-73666667D01*
X137390477Y-73571429D01*
X137342858Y-73523810D01*
X137247620Y-73476190D01*
X137057143Y-73428571D01*
X136961905Y-73380952D01*
X136914286Y-73333333D01*
X136866667Y-73238095D01*
X136866667Y-73142857D01*
X136914286Y-73047619D01*
X136961905Y-73000000D01*
X137057143Y-72952381D01*
X137295239Y-72952381D01*
X137438096Y-73000000D01*
X137771429Y-72952381D02*
X138009524Y-73952381D01*
X138200001Y-73238095D01*
X138390477Y-73952381D01*
X138628572Y-72952381D01*
X138961905Y-73047619D02*
X139009524Y-73000000D01*
X139104762Y-72952381D01*
X139342858Y-72952381D01*
X139438096Y-73000000D01*
X139485715Y-73047619D01*
X139533334Y-73142857D01*
X139533334Y-73238095D01*
X139485715Y-73380952D01*
X138914286Y-73952381D01*
X139533334Y-73952381D01*
X123766667Y-99304762D02*
X123909524Y-99352381D01*
X124147620Y-99352381D01*
X124242858Y-99304762D01*
X124290477Y-99257143D01*
X124338096Y-99161905D01*
X124338096Y-99066667D01*
X124290477Y-98971429D01*
X124242858Y-98923810D01*
X124147620Y-98876190D01*
X123957143Y-98828571D01*
X123861905Y-98780952D01*
X123814286Y-98733333D01*
X123766667Y-98638095D01*
X123766667Y-98542857D01*
X123814286Y-98447619D01*
X123861905Y-98400000D01*
X123957143Y-98352381D01*
X124195239Y-98352381D01*
X124338096Y-98400000D01*
X124671429Y-98352381D02*
X124909524Y-99352381D01*
X125100001Y-98638095D01*
X125290477Y-99352381D01*
X125528572Y-98352381D01*
X125814286Y-98352381D02*
X126433334Y-98352381D01*
X126100000Y-98733333D01*
X126242858Y-98733333D01*
X126338096Y-98780952D01*
X126385715Y-98828571D01*
X126433334Y-98923810D01*
X126433334Y-99161905D01*
X126385715Y-99257143D01*
X126338096Y-99304762D01*
X126242858Y-99352381D01*
X125957143Y-99352381D01*
X125861905Y-99304762D01*
X125814286Y-99257143D01*
X123666667Y-112004762D02*
X123809524Y-112052381D01*
X124047620Y-112052381D01*
X124142858Y-112004762D01*
X124190477Y-111957143D01*
X124238096Y-111861905D01*
X124238096Y-111766667D01*
X124190477Y-111671429D01*
X124142858Y-111623810D01*
X124047620Y-111576190D01*
X123857143Y-111528571D01*
X123761905Y-111480952D01*
X123714286Y-111433333D01*
X123666667Y-111338095D01*
X123666667Y-111242857D01*
X123714286Y-111147619D01*
X123761905Y-111100000D01*
X123857143Y-111052381D01*
X124095239Y-111052381D01*
X124238096Y-111100000D01*
X124571429Y-111052381D02*
X124809524Y-112052381D01*
X125000001Y-111338095D01*
X125190477Y-112052381D01*
X125428572Y-111052381D01*
X126238096Y-111385714D02*
X126238096Y-112052381D01*
X126000000Y-111004762D02*
X125761905Y-111719048D01*
X126380953Y-111719048D01*
X123666667Y-73904762D02*
X123809524Y-73952381D01*
X124047620Y-73952381D01*
X124142858Y-73904762D01*
X124190477Y-73857143D01*
X124238096Y-73761905D01*
X124238096Y-73666667D01*
X124190477Y-73571429D01*
X124142858Y-73523810D01*
X124047620Y-73476190D01*
X123857143Y-73428571D01*
X123761905Y-73380952D01*
X123714286Y-73333333D01*
X123666667Y-73238095D01*
X123666667Y-73142857D01*
X123714286Y-73047619D01*
X123761905Y-73000000D01*
X123857143Y-72952381D01*
X124095239Y-72952381D01*
X124238096Y-73000000D01*
X124571429Y-72952381D02*
X124809524Y-73952381D01*
X125000001Y-73238095D01*
X125190477Y-73952381D01*
X125428572Y-72952381D01*
X126285715Y-72952381D02*
X125809524Y-72952381D01*
X125761905Y-73428571D01*
X125809524Y-73380952D01*
X125904762Y-73333333D01*
X126142858Y-73333333D01*
X126238096Y-73380952D01*
X126285715Y-73428571D01*
X126333334Y-73523810D01*
X126333334Y-73761905D01*
X126285715Y-73857143D01*
X126238096Y-73904762D01*
X126142858Y-73952381D01*
X125904762Y-73952381D01*
X125809524Y-73904762D01*
X125761905Y-73857143D01*
X123666667Y-86437762D02*
X123809524Y-86485381D01*
X124047620Y-86485381D01*
X124142858Y-86437762D01*
X124190477Y-86390143D01*
X124238096Y-86294905D01*
X124238096Y-86199667D01*
X124190477Y-86104429D01*
X124142858Y-86056810D01*
X124047620Y-86009190D01*
X123857143Y-85961571D01*
X123761905Y-85913952D01*
X123714286Y-85866333D01*
X123666667Y-85771095D01*
X123666667Y-85675857D01*
X123714286Y-85580619D01*
X123761905Y-85533000D01*
X123857143Y-85485381D01*
X124095239Y-85485381D01*
X124238096Y-85533000D01*
X124571429Y-85485381D02*
X124809524Y-86485381D01*
X125000001Y-85771095D01*
X125190477Y-86485381D01*
X125428572Y-85485381D01*
X126238096Y-85485381D02*
X126047619Y-85485381D01*
X125952381Y-85533000D01*
X125904762Y-85580619D01*
X125809524Y-85723476D01*
X125761905Y-85913952D01*
X125761905Y-86294905D01*
X125809524Y-86390143D01*
X125857143Y-86437762D01*
X125952381Y-86485381D01*
X126142858Y-86485381D01*
X126238096Y-86437762D01*
X126285715Y-86390143D01*
X126333334Y-86294905D01*
X126333334Y-86056810D01*
X126285715Y-85961571D01*
X126238096Y-85913952D01*
X126142858Y-85866333D01*
X125952381Y-85866333D01*
X125857143Y-85913952D01*
X125809524Y-85961571D01*
X125761905Y-86056810D01*
X136866667Y-99404762D02*
X137009524Y-99452381D01*
X137247620Y-99452381D01*
X137342858Y-99404762D01*
X137390477Y-99357143D01*
X137438096Y-99261905D01*
X137438096Y-99166667D01*
X137390477Y-99071429D01*
X137342858Y-99023810D01*
X137247620Y-98976190D01*
X137057143Y-98928571D01*
X136961905Y-98880952D01*
X136914286Y-98833333D01*
X136866667Y-98738095D01*
X136866667Y-98642857D01*
X136914286Y-98547619D01*
X136961905Y-98500000D01*
X137057143Y-98452381D01*
X137295239Y-98452381D01*
X137438096Y-98500000D01*
X137771429Y-98452381D02*
X138009524Y-99452381D01*
X138200001Y-98738095D01*
X138390477Y-99452381D01*
X138628572Y-98452381D01*
X138914286Y-98452381D02*
X139580953Y-98452381D01*
X139152381Y-99452381D01*
X111257143Y-46266666D02*
X111304762Y-46314285D01*
X111352381Y-46457142D01*
X111352381Y-46552380D01*
X111304762Y-46695238D01*
X111209524Y-46790476D01*
X111114286Y-46838095D01*
X110923810Y-46885714D01*
X110780952Y-46885714D01*
X110590476Y-46838095D01*
X110495238Y-46790476D01*
X110400000Y-46695238D01*
X110352381Y-46552380D01*
X110352381Y-46457142D01*
X110400000Y-46314285D01*
X110447619Y-46266666D01*
X110447619Y-45885714D02*
X110400000Y-45838095D01*
X110352381Y-45742857D01*
X110352381Y-45504761D01*
X110400000Y-45409523D01*
X110447619Y-45361904D01*
X110542857Y-45314285D01*
X110638095Y-45314285D01*
X110780952Y-45361904D01*
X111352381Y-45933333D01*
X111352381Y-45314285D01*
X120357143Y-58566666D02*
X120404762Y-58614285D01*
X120452381Y-58757142D01*
X120452381Y-58852380D01*
X120404762Y-58995238D01*
X120309524Y-59090476D01*
X120214286Y-59138095D01*
X120023810Y-59185714D01*
X119880952Y-59185714D01*
X119690476Y-59138095D01*
X119595238Y-59090476D01*
X119500000Y-58995238D01*
X119452381Y-58852380D01*
X119452381Y-58757142D01*
X119500000Y-58614285D01*
X119547619Y-58566666D01*
X119452381Y-58233333D02*
X119452381Y-57614285D01*
X119833333Y-57947619D01*
X119833333Y-57804761D01*
X119880952Y-57709523D01*
X119928571Y-57661904D01*
X120023810Y-57614285D01*
X120261905Y-57614285D01*
X120357143Y-57661904D01*
X120404762Y-57709523D01*
X120452381Y-57804761D01*
X120452381Y-58090476D01*
X120404762Y-58185714D01*
X120357143Y-58233333D01*
X139133334Y-69657143D02*
X139085715Y-69704762D01*
X138942858Y-69752381D01*
X138847620Y-69752381D01*
X138704762Y-69704762D01*
X138609524Y-69609524D01*
X138561905Y-69514286D01*
X138514286Y-69323810D01*
X138514286Y-69180952D01*
X138561905Y-68990476D01*
X138609524Y-68895238D01*
X138704762Y-68800000D01*
X138847620Y-68752381D01*
X138942858Y-68752381D01*
X139085715Y-68800000D01*
X139133334Y-68847619D01*
X139990477Y-69085714D02*
X139990477Y-69752381D01*
X139752381Y-68704762D02*
X139514286Y-69419048D01*
X140133334Y-69419048D01*
X92283334Y-78552381D02*
X91950000Y-78076190D01*
X91711905Y-78552381D02*
X91711905Y-77552381D01*
X92092858Y-77552381D01*
X92188096Y-77600000D01*
X92235715Y-77647619D01*
X92283334Y-77742857D01*
X92283334Y-77885714D01*
X92235715Y-77980952D01*
X92188096Y-78028571D01*
X92092858Y-78076190D01*
X91711905Y-78076190D01*
X93235715Y-78552381D02*
X92664286Y-78552381D01*
X92950000Y-78552381D02*
X92950000Y-77552381D01*
X92854762Y-77695238D01*
X92759524Y-77790476D01*
X92664286Y-77838095D01*
X118433334Y-70852381D02*
X118100000Y-70376190D01*
X117861905Y-70852381D02*
X117861905Y-69852381D01*
X118242858Y-69852381D01*
X118338096Y-69900000D01*
X118385715Y-69947619D01*
X118433334Y-70042857D01*
X118433334Y-70185714D01*
X118385715Y-70280952D01*
X118338096Y-70328571D01*
X118242858Y-70376190D01*
X117861905Y-70376190D01*
X118814286Y-69947619D02*
X118861905Y-69900000D01*
X118957143Y-69852381D01*
X119195239Y-69852381D01*
X119290477Y-69900000D01*
X119338096Y-69947619D01*
X119385715Y-70042857D01*
X119385715Y-70138095D01*
X119338096Y-70280952D01*
X118766667Y-70852381D01*
X119385715Y-70852381D01*
X124733334Y-67052381D02*
X124400000Y-66576190D01*
X124161905Y-67052381D02*
X124161905Y-66052381D01*
X124542858Y-66052381D01*
X124638096Y-66100000D01*
X124685715Y-66147619D01*
X124733334Y-66242857D01*
X124733334Y-66385714D01*
X124685715Y-66480952D01*
X124638096Y-66528571D01*
X124542858Y-66576190D01*
X124161905Y-66576190D01*
X125066667Y-66052381D02*
X125685715Y-66052381D01*
X125352381Y-66433333D01*
X125495239Y-66433333D01*
X125590477Y-66480952D01*
X125638096Y-66528571D01*
X125685715Y-66623810D01*
X125685715Y-66861905D01*
X125638096Y-66957143D01*
X125590477Y-67004762D01*
X125495239Y-67052381D01*
X125209524Y-67052381D01*
X125114286Y-67004762D01*
X125066667Y-66957143D01*
X111833334Y-88452381D02*
X111500000Y-87976190D01*
X111261905Y-88452381D02*
X111261905Y-87452381D01*
X111642858Y-87452381D01*
X111738096Y-87500000D01*
X111785715Y-87547619D01*
X111833334Y-87642857D01*
X111833334Y-87785714D01*
X111785715Y-87880952D01*
X111738096Y-87928571D01*
X111642858Y-87976190D01*
X111261905Y-87976190D01*
X112690477Y-87785714D02*
X112690477Y-88452381D01*
X112452381Y-87404762D02*
X112214286Y-88119048D01*
X112833334Y-88119048D01*
X132633334Y-69752381D02*
X132300000Y-69276190D01*
X132061905Y-69752381D02*
X132061905Y-68752381D01*
X132442858Y-68752381D01*
X132538096Y-68800000D01*
X132585715Y-68847619D01*
X132633334Y-68942857D01*
X132633334Y-69085714D01*
X132585715Y-69180952D01*
X132538096Y-69228571D01*
X132442858Y-69276190D01*
X132061905Y-69276190D01*
X133538096Y-68752381D02*
X133061905Y-68752381D01*
X133014286Y-69228571D01*
X133061905Y-69180952D01*
X133157143Y-69133333D01*
X133395239Y-69133333D01*
X133490477Y-69180952D01*
X133538096Y-69228571D01*
X133585715Y-69323810D01*
X133585715Y-69561905D01*
X133538096Y-69657143D01*
X133490477Y-69704762D01*
X133395239Y-69752381D01*
X133157143Y-69752381D01*
X133061905Y-69704762D01*
X133014286Y-69657143D01*
X115152381Y-54866666D02*
X114676190Y-55200000D01*
X115152381Y-55438095D02*
X114152381Y-55438095D01*
X114152381Y-55057142D01*
X114200000Y-54961904D01*
X114247619Y-54914285D01*
X114342857Y-54866666D01*
X114485714Y-54866666D01*
X114580952Y-54914285D01*
X114628571Y-54961904D01*
X114676190Y-55057142D01*
X114676190Y-55438095D01*
X114152381Y-54009523D02*
X114152381Y-54200000D01*
X114200000Y-54295238D01*
X114247619Y-54342857D01*
X114390476Y-54438095D01*
X114580952Y-54485714D01*
X114961905Y-54485714D01*
X115057143Y-54438095D01*
X115104762Y-54390476D01*
X115152381Y-54295238D01*
X115152381Y-54104761D01*
X115104762Y-54009523D01*
X115057143Y-53961904D01*
X114961905Y-53914285D01*
X114723810Y-53914285D01*
X114628571Y-53961904D01*
X114580952Y-54009523D01*
X114533333Y-54104761D01*
X114533333Y-54295238D01*
X114580952Y-54390476D01*
X114628571Y-54438095D01*
X114723810Y-54485714D01*
X122702381Y-96666666D02*
X122226190Y-97000000D01*
X122702381Y-97238095D02*
X121702381Y-97238095D01*
X121702381Y-96857142D01*
X121750000Y-96761904D01*
X121797619Y-96714285D01*
X121892857Y-96666666D01*
X122035714Y-96666666D01*
X122130952Y-96714285D01*
X122178571Y-96761904D01*
X122226190Y-96857142D01*
X122226190Y-97238095D01*
X121702381Y-96333333D02*
X121702381Y-95666666D01*
X122702381Y-96095238D01*
X111152381Y-57666666D02*
X110676190Y-58000000D01*
X111152381Y-58238095D02*
X110152381Y-58238095D01*
X110152381Y-57857142D01*
X110200000Y-57761904D01*
X110247619Y-57714285D01*
X110342857Y-57666666D01*
X110485714Y-57666666D01*
X110580952Y-57714285D01*
X110628571Y-57761904D01*
X110676190Y-57857142D01*
X110676190Y-58238095D01*
X110580952Y-57095238D02*
X110533333Y-57190476D01*
X110485714Y-57238095D01*
X110390476Y-57285714D01*
X110342857Y-57285714D01*
X110247619Y-57238095D01*
X110200000Y-57190476D01*
X110152381Y-57095238D01*
X110152381Y-56904761D01*
X110200000Y-56809523D01*
X110247619Y-56761904D01*
X110342857Y-56714285D01*
X110390476Y-56714285D01*
X110485714Y-56761904D01*
X110533333Y-56809523D01*
X110580952Y-56904761D01*
X110580952Y-57095238D01*
X110628571Y-57190476D01*
X110676190Y-57238095D01*
X110771429Y-57285714D01*
X110961905Y-57285714D01*
X111057143Y-57238095D01*
X111104762Y-57190476D01*
X111152381Y-57095238D01*
X111152381Y-56904761D01*
X111104762Y-56809523D01*
X111057143Y-56761904D01*
X110961905Y-56714285D01*
X110771429Y-56714285D01*
X110676190Y-56761904D01*
X110628571Y-56809523D01*
X110580952Y-56904761D01*
X122752381Y-110266666D02*
X122276190Y-110600000D01*
X122752381Y-110838095D02*
X121752381Y-110838095D01*
X121752381Y-110457142D01*
X121800000Y-110361904D01*
X121847619Y-110314285D01*
X121942857Y-110266666D01*
X122085714Y-110266666D01*
X122180952Y-110314285D01*
X122228571Y-110361904D01*
X122276190Y-110457142D01*
X122276190Y-110838095D01*
X122752381Y-109790476D02*
X122752381Y-109600000D01*
X122704762Y-109504761D01*
X122657143Y-109457142D01*
X122514286Y-109361904D01*
X122323810Y-109314285D01*
X121942857Y-109314285D01*
X121847619Y-109361904D01*
X121800000Y-109409523D01*
X121752381Y-109504761D01*
X121752381Y-109695238D01*
X121800000Y-109790476D01*
X121847619Y-109838095D01*
X121942857Y-109885714D01*
X122180952Y-109885714D01*
X122276190Y-109838095D01*
X122323810Y-109790476D01*
X122371429Y-109695238D01*
X122371429Y-109504761D01*
X122323810Y-109409523D01*
X122276190Y-109361904D01*
X122180952Y-109314285D01*
X131252381Y-110542857D02*
X130776190Y-110876191D01*
X131252381Y-111114286D02*
X130252381Y-111114286D01*
X130252381Y-110733333D01*
X130300000Y-110638095D01*
X130347619Y-110590476D01*
X130442857Y-110542857D01*
X130585714Y-110542857D01*
X130680952Y-110590476D01*
X130728571Y-110638095D01*
X130776190Y-110733333D01*
X130776190Y-111114286D01*
X131252381Y-109590476D02*
X131252381Y-110161905D01*
X131252381Y-109876191D02*
X130252381Y-109876191D01*
X130395238Y-109971429D01*
X130490476Y-110066667D01*
X130538095Y-110161905D01*
X130252381Y-108971429D02*
X130252381Y-108876190D01*
X130300000Y-108780952D01*
X130347619Y-108733333D01*
X130442857Y-108685714D01*
X130633333Y-108638095D01*
X130871429Y-108638095D01*
X131061905Y-108685714D01*
X131157143Y-108733333D01*
X131204762Y-108780952D01*
X131252381Y-108876190D01*
X131252381Y-108971429D01*
X131204762Y-109066667D01*
X131157143Y-109114286D01*
X131061905Y-109161905D01*
X130871429Y-109209524D01*
X130633333Y-109209524D01*
X130442857Y-109161905D01*
X130347619Y-109114286D01*
X130300000Y-109066667D01*
X130252381Y-108971429D01*
X132652381Y-85042857D02*
X132176190Y-85376191D01*
X132652381Y-85614286D02*
X131652381Y-85614286D01*
X131652381Y-85233333D01*
X131700000Y-85138095D01*
X131747619Y-85090476D01*
X131842857Y-85042857D01*
X131985714Y-85042857D01*
X132080952Y-85090476D01*
X132128571Y-85138095D01*
X132176190Y-85233333D01*
X132176190Y-85614286D01*
X132652381Y-84090476D02*
X132652381Y-84661905D01*
X132652381Y-84376191D02*
X131652381Y-84376191D01*
X131795238Y-84471429D01*
X131890476Y-84566667D01*
X131938095Y-84661905D01*
X132652381Y-83138095D02*
X132652381Y-83709524D01*
X132652381Y-83423810D02*
X131652381Y-83423810D01*
X131795238Y-83519048D01*
X131890476Y-83614286D01*
X131938095Y-83709524D01*
X132057143Y-96052381D02*
X131723809Y-95576190D01*
X131485714Y-96052381D02*
X131485714Y-95052381D01*
X131866667Y-95052381D01*
X131961905Y-95100000D01*
X132009524Y-95147619D01*
X132057143Y-95242857D01*
X132057143Y-95385714D01*
X132009524Y-95480952D01*
X131961905Y-95528571D01*
X131866667Y-95576190D01*
X131485714Y-95576190D01*
X133009524Y-96052381D02*
X132438095Y-96052381D01*
X132723809Y-96052381D02*
X132723809Y-95052381D01*
X132628571Y-95195238D01*
X132533333Y-95290476D01*
X132438095Y-95338095D01*
X133390476Y-95147619D02*
X133438095Y-95100000D01*
X133533333Y-95052381D01*
X133771429Y-95052381D01*
X133866667Y-95100000D01*
X133914286Y-95147619D01*
X133961905Y-95242857D01*
X133961905Y-95338095D01*
X133914286Y-95480952D01*
X133342857Y-96052381D01*
X133961905Y-96052381D01*
D15*
X141208429Y-56015999D02*
X141244714Y-55907142D01*
X141244714Y-55725713D01*
X141208429Y-55653142D01*
X141172143Y-55616856D01*
X141099571Y-55580571D01*
X141027000Y-55580571D01*
X140954429Y-55616856D01*
X140918143Y-55653142D01*
X140881857Y-55725713D01*
X140845571Y-55870856D01*
X140809286Y-55943428D01*
X140773000Y-55979713D01*
X140700429Y-56015999D01*
X140627857Y-56015999D01*
X140555286Y-55979713D01*
X140519000Y-55943428D01*
X140482714Y-55870856D01*
X140482714Y-55689428D01*
X140519000Y-55580571D01*
X140482714Y-55326571D02*
X141244714Y-55145142D01*
X140700429Y-54999999D01*
X141244714Y-54854857D01*
X140482714Y-54673428D01*
X140809286Y-54274285D02*
X140773000Y-54346857D01*
X140736714Y-54383142D01*
X140664143Y-54419428D01*
X140627857Y-54419428D01*
X140555286Y-54383142D01*
X140519000Y-54346857D01*
X140482714Y-54274285D01*
X140482714Y-54129142D01*
X140519000Y-54056571D01*
X140555286Y-54020285D01*
X140627857Y-53984000D01*
X140664143Y-53984000D01*
X140736714Y-54020285D01*
X140773000Y-54056571D01*
X140809286Y-54129142D01*
X140809286Y-54274285D01*
X140845571Y-54346857D01*
X140881857Y-54383142D01*
X140954429Y-54419428D01*
X141099571Y-54419428D01*
X141172143Y-54383142D01*
X141208429Y-54346857D01*
X141244714Y-54274285D01*
X141244714Y-54129142D01*
X141208429Y-54056571D01*
X141172143Y-54020285D01*
X141099571Y-53984000D01*
X140954429Y-53984000D01*
X140881857Y-54020285D01*
X140845571Y-54056571D01*
X140809286Y-54129142D01*
D13*
X118357143Y-46752381D02*
X118023809Y-46276190D01*
X117785714Y-46752381D02*
X117785714Y-45752381D01*
X118166667Y-45752381D01*
X118261905Y-45800000D01*
X118309524Y-45847619D01*
X118357143Y-45942857D01*
X118357143Y-46085714D01*
X118309524Y-46180952D01*
X118261905Y-46228571D01*
X118166667Y-46276190D01*
X117785714Y-46276190D01*
X119309524Y-46752381D02*
X118738095Y-46752381D01*
X119023809Y-46752381D02*
X119023809Y-45752381D01*
X118928571Y-45895238D01*
X118833333Y-45990476D01*
X118738095Y-46038095D01*
X119642857Y-45752381D02*
X120261905Y-45752381D01*
X119928571Y-46133333D01*
X120071429Y-46133333D01*
X120166667Y-46180952D01*
X120214286Y-46228571D01*
X120261905Y-46323810D01*
X120261905Y-46561905D01*
X120214286Y-46657143D01*
X120166667Y-46704762D01*
X120071429Y-46752381D01*
X119785714Y-46752381D01*
X119690476Y-46704762D01*
X119642857Y-46657143D01*
X128157143Y-45452381D02*
X127823809Y-44976190D01*
X127585714Y-45452381D02*
X127585714Y-44452381D01*
X127966667Y-44452381D01*
X128061905Y-44500000D01*
X128109524Y-44547619D01*
X128157143Y-44642857D01*
X128157143Y-44785714D01*
X128109524Y-44880952D01*
X128061905Y-44928571D01*
X127966667Y-44976190D01*
X127585714Y-44976190D01*
X129109524Y-45452381D02*
X128538095Y-45452381D01*
X128823809Y-45452381D02*
X128823809Y-44452381D01*
X128728571Y-44595238D01*
X128633333Y-44690476D01*
X128538095Y-44738095D01*
X129966667Y-44785714D02*
X129966667Y-45452381D01*
X129728571Y-44404762D02*
X129490476Y-45119048D01*
X130109524Y-45119048D01*
X118357143Y-54052381D02*
X118023809Y-53576190D01*
X117785714Y-54052381D02*
X117785714Y-53052381D01*
X118166667Y-53052381D01*
X118261905Y-53100000D01*
X118309524Y-53147619D01*
X118357143Y-53242857D01*
X118357143Y-53385714D01*
X118309524Y-53480952D01*
X118261905Y-53528571D01*
X118166667Y-53576190D01*
X117785714Y-53576190D01*
X119309524Y-54052381D02*
X118738095Y-54052381D01*
X119023809Y-54052381D02*
X119023809Y-53052381D01*
X118928571Y-53195238D01*
X118833333Y-53290476D01*
X118738095Y-53338095D01*
X120214286Y-53052381D02*
X119738095Y-53052381D01*
X119690476Y-53528571D01*
X119738095Y-53480952D01*
X119833333Y-53433333D01*
X120071429Y-53433333D01*
X120166667Y-53480952D01*
X120214286Y-53528571D01*
X120261905Y-53623810D01*
X120261905Y-53861905D01*
X120214286Y-53957143D01*
X120166667Y-54004762D01*
X120071429Y-54052381D01*
X119833333Y-54052381D01*
X119738095Y-54004762D01*
X119690476Y-53957143D01*
X128057143Y-42052381D02*
X127723809Y-41576190D01*
X127485714Y-42052381D02*
X127485714Y-41052381D01*
X127866667Y-41052381D01*
X127961905Y-41100000D01*
X128009524Y-41147619D01*
X128057143Y-41242857D01*
X128057143Y-41385714D01*
X128009524Y-41480952D01*
X127961905Y-41528571D01*
X127866667Y-41576190D01*
X127485714Y-41576190D01*
X129009524Y-42052381D02*
X128438095Y-42052381D01*
X128723809Y-42052381D02*
X128723809Y-41052381D01*
X128628571Y-41195238D01*
X128533333Y-41290476D01*
X128438095Y-41338095D01*
X129866667Y-41052381D02*
X129676190Y-41052381D01*
X129580952Y-41100000D01*
X129533333Y-41147619D01*
X129438095Y-41290476D01*
X129390476Y-41480952D01*
X129390476Y-41861905D01*
X129438095Y-41957143D01*
X129485714Y-42004762D01*
X129580952Y-42052381D01*
X129771429Y-42052381D01*
X129866667Y-42004762D01*
X129914286Y-41957143D01*
X129961905Y-41861905D01*
X129961905Y-41623810D01*
X129914286Y-41528571D01*
X129866667Y-41480952D01*
X129771429Y-41433333D01*
X129580952Y-41433333D01*
X129485714Y-41480952D01*
X129438095Y-41528571D01*
X129390476Y-41623810D01*
M02*
